<svg width="158" height="19" viewBox="0 0 158 19" fill="none" xmlns="http://www.w3.org/2000/svg">
<path d="M6.24 18.3104C9.456 18.3104 12.024 16.4864 12.024 12.9104V1.19841H9.264V12.9104C9.264 14.6384 8.184 15.6224 6.264 15.6224C4.728 15.6224 3.768 15.0464 3.216 13.8464L0.84 15.2384C1.824 17.2784 3.792 18.3104 6.24 18.3104ZM16.9583 13.1024H26.5103C26.5583 12.7664 26.6063 12.3824 26.6063 12.0224C26.6063 8.56641 24.1583 5.68641 20.5823 5.68641C16.8143 5.68641 14.2463 8.44641 14.2463 11.9984C14.2463 15.5984 16.8143 18.3104 20.7743 18.3104C23.1263 18.3104 24.9263 17.3264 26.0303 15.6944L23.8943 14.4464C23.3183 15.2864 22.2383 15.9344 20.7983 15.9344C18.8783 15.9344 17.3663 14.9744 16.9583 13.1024ZM16.9342 10.9904C17.2943 9.19041 18.6143 8.03841 20.5583 8.03841C22.1183 8.03841 23.6303 8.92641 23.9903 10.9904H16.9342ZM30.7463 9.31041C30.7463 8.44641 31.5623 8.03841 32.4983 8.03841C33.4823 8.03841 34.3223 8.47041 34.7543 9.40641L36.9383 8.18241C36.0983 6.59841 34.4663 5.68641 32.4983 5.68641C30.0503 5.68641 28.1063 7.10241 28.1063 9.35841C28.1063 13.6544 34.5623 12.4544 34.5623 14.5904C34.5623 15.5504 33.6743 15.9344 32.5223 15.9344C31.2023 15.9344 30.2423 15.2864 29.8583 14.2064L27.6263 15.5024C28.3943 17.2304 30.1223 18.3104 32.5223 18.3104C35.1143 18.3104 37.2023 17.0144 37.2023 14.6144C37.2023 10.1744 30.7463 11.4944 30.7463 9.31041ZM41.0822 9.31041C41.0822 8.44641 41.8982 8.03841 42.8342 8.03841C43.8182 8.03841 44.6582 8.47041 45.0902 9.40641L47.2742 8.18241C46.4342 6.59841 44.8022 5.68641 42.8342 5.68641C40.3862 5.68641 38.4422 7.10241 38.4422 9.35841C38.4422 13.6544 44.8982 12.4544 44.8982 14.5904C44.8982 15.5504 44.0102 15.9344 42.8582 15.9344C41.5382 15.9344 40.5782 15.2864 40.1942 14.2064L37.9622 15.5024C38.7302 17.2304 40.4582 18.3104 42.8582 18.3104C45.4502 18.3104 47.5382 17.0144 47.5382 14.6144C47.5382 10.1744 41.0822 11.4944 41.0822 9.31041ZM50.9721 4.19841C51.8841 4.19841 52.6281 3.43041 52.6281 2.54241C52.6281 1.63041 51.8841 0.886412 50.9721 0.886412C50.0601 0.886412 49.3161 1.63041 49.3161 2.54241C49.3161 3.43041 50.0601 4.19841 50.9721 4.19841ZM49.6761 17.9984H52.2681V5.99841H49.6761V17.9984ZM60.9416 18.3104C63.2936 18.3104 65.3336 17.0864 66.3416 15.1904L64.1096 13.9184C63.5336 15.0224 62.3576 15.7664 60.9176 15.7664C58.8056 15.7664 57.1976 14.1584 57.1976 11.9984C57.1976 9.83841 58.8056 8.23041 60.9176 8.23041C62.3576 8.23041 63.5336 8.95041 64.0616 10.0784L66.2936 8.78241C65.3336 6.91041 63.2936 5.68641 60.9416 5.68641C57.3176 5.68641 54.6056 8.42241 54.6056 11.9984C54.6056 15.5504 57.3176 18.3104 60.9416 18.3104ZM77.5316 5.99841V7.70241C76.6196 6.45441 75.2036 5.68641 73.3316 5.68641C70.0676 5.68641 67.3556 8.42241 67.3556 11.9984C67.3556 15.5504 70.0676 18.3104 73.3316 18.3104C75.2036 18.3104 76.6196 17.5424 77.5316 16.2704V17.9984H80.1236V5.99841H77.5316ZM73.7396 15.8384C71.5796 15.8384 69.9476 14.2304 69.9476 11.9984C69.9476 9.76641 71.5796 8.15841 73.7396 8.15841C75.8996 8.15841 77.5316 9.76641 77.5316 11.9984C77.5316 14.2304 75.8996 15.8384 73.7396 15.8384ZM95.5048 1.19841H89.3128V17.9984H92.0728V12.2384H95.5048C98.6728 12.2384 101.073 9.81441 101.073 6.71841C101.073 3.59841 98.6728 1.19841 95.5048 1.19841ZM95.5048 9.64641H92.0728V3.79041H95.5048C97.1368 3.79041 98.3128 5.01441 98.3128 6.71841C98.3128 8.39841 97.1368 9.64641 95.5048 9.64641ZM111.961 5.99841V7.70241C111.049 6.45441 109.633 5.68641 107.761 5.68641C104.497 5.68641 101.785 8.42241 101.785 11.9984C101.785 15.5504 104.497 18.3104 107.761 18.3104C109.633 18.3104 111.049 17.5424 111.961 16.2704V17.9984H114.553V5.99841H111.961ZM108.169 15.8384C106.009 15.8384 104.377 14.2304 104.377 11.9984C104.377 9.76641 106.009 8.15841 108.169 8.15841C110.329 8.15841 111.961 9.76641 111.961 11.9984C111.961 14.2304 110.329 15.8384 108.169 15.8384ZM120.167 8.01441V5.99841H117.575V17.9984H120.167V11.9504C120.167 9.26241 122.159 8.47041 123.863 8.59041V5.78241C122.351 5.78241 120.887 6.38241 120.167 8.01441ZM136.386 17.9984L130.914 11.8784L136.194 5.99841H133.026L128.37 11.3024V1.19841H125.778V17.9984H128.37V12.4544L133.29 17.9984H136.386ZM139.208 13.1024H148.76C148.808 12.7664 148.856 12.3824 148.856 12.0224C148.856 8.56641 146.408 5.68641 142.832 5.68641C139.064 5.68641 136.496 8.44641 136.496 11.9984C136.496 15.5984 139.064 18.3104 143.024 18.3104C145.376 18.3104 147.176 17.3264 148.28 15.6944L146.144 14.4464C145.568 15.2864 144.488 15.9344 143.048 15.9344C141.128 15.9344 139.616 14.9744 139.208 13.1024ZM139.184 10.9904C139.544 9.19041 140.864 8.03841 142.808 8.03841C144.368 8.03841 145.88 8.92641 146.24 10.9904H139.184ZM153.729 8.01441V5.99841H151.137V17.9984H153.729V11.9504C153.729 9.26241 155.721 8.47041 157.425 8.59041V5.78241C155.913 5.78241 154.449 6.38241 153.729 8.01441Z" fill="#2E2E2E"/>
</svg>
