<svg width="158" height="14" viewBox="0 0 158 14" fill="none" xmlns="http://www.w3.org/2000/svg">
<path d="M1.632 5.70849H3.62C4.208 5.70849 4.67467 5.55915 5.02 5.26049C5.36533 4.95249 5.538 4.54182 5.538 4.02849C5.538 3.50582 5.36533 3.09049 5.02 2.78249C4.67467 2.46515 4.208 2.30649 3.62 2.30649H1.632V5.70849ZM3.872 6.94049H1.632V11.0005H0.26V1.07449H3.872C4.77733 1.07449 5.51467 1.35449 6.084 1.91449C6.65333 2.47449 6.938 3.17449 6.938 4.01449C6.938 4.86382 6.65333 5.56382 6.084 6.11449C5.51467 6.66515 4.77733 6.94049 3.872 6.94049ZM12.0064 4.19649V5.59649C11.8104 5.56849 11.6191 5.55449 11.4324 5.55449C10.2004 5.55449 9.58444 6.24515 9.58444 7.62649V11.0005H8.26844V4.26649H9.55644V5.44249C9.9671 4.58382 10.6391 4.15449 11.5724 4.15449C11.7218 4.15449 11.8664 4.16849 12.0064 4.19649ZM14.7267 9.40449C15.1374 9.82449 15.6367 10.0345 16.2247 10.0345C16.8127 10.0345 17.3074 9.82449 17.7087 9.40449C18.1194 8.97515 18.3247 8.38249 18.3247 7.62649C18.3247 6.87982 18.1194 6.29649 17.7087 5.87649C17.3074 5.44715 16.8127 5.23249 16.2247 5.23249C15.6367 5.23249 15.1374 5.44715 14.7267 5.87649C14.3254 6.29649 14.1247 6.87982 14.1247 7.62649C14.1247 8.38249 14.3254 8.97515 14.7267 9.40449ZM13.7467 5.07849C14.4 4.39715 15.226 4.05649 16.2247 4.05649C17.2234 4.05649 18.0447 4.39715 18.6887 5.07849C19.342 5.75049 19.6687 6.59982 19.6687 7.62649C19.6687 8.66249 19.3467 9.52115 18.7027 10.2025C18.0587 10.8745 17.2327 11.2105 16.2247 11.2105C15.2167 11.2105 14.3907 10.8745 13.7467 10.2025C13.1027 9.52115 12.7807 8.66249 12.7807 7.62649C12.7807 6.59982 13.1027 5.75049 13.7467 5.07849ZM22.1364 7.61249C22.1364 8.32182 22.3091 8.90049 22.6544 9.34849C23.0091 9.79649 23.4944 10.0205 24.1104 10.0205C24.6984 10.0205 25.1698 9.79182 25.5244 9.33449C25.8791 8.87715 26.0564 8.29382 26.0564 7.58449C26.0564 6.88449 25.8838 6.31982 25.5384 5.89049C25.1931 5.46115 24.7218 5.24649 24.1244 5.24649C23.5271 5.24649 23.0464 5.46582 22.6824 5.90449C22.3184 6.34315 22.1364 6.91249 22.1364 7.61249ZM26.0704 10.0905V9.97849C25.8931 10.3238 25.6224 10.6132 25.2584 10.8465C24.9038 11.0705 24.4791 11.1825 23.9844 11.1825C23.0231 11.1825 22.2484 10.8465 21.6604 10.1745C21.0818 9.49315 20.7924 8.63915 20.7924 7.61249C20.7924 6.63249 21.0911 5.80182 21.6884 5.12049C22.2858 4.42982 23.0511 4.08449 23.9844 4.08449C24.5351 4.08449 24.9831 4.19649 25.3284 4.42049C25.6738 4.63515 25.9118 4.90115 26.0424 5.21849V0.864488H27.3444V9.75449C27.3444 10.2118 27.3678 10.6272 27.4144 11.0005H26.1404C26.0938 10.7392 26.0704 10.4358 26.0704 10.0905ZM33.9525 10.1885C33.7752 10.5245 33.5045 10.7812 33.1405 10.9585C32.7765 11.1265 32.3845 11.2105 31.9645 11.2105C31.1992 11.2105 30.5879 10.9585 30.1305 10.4545C29.6732 9.94115 29.4445 9.29249 29.4445 8.50849V4.26649H30.7605V8.31249C30.7605 8.81649 30.8819 9.23182 31.1245 9.55849C31.3765 9.88515 31.7639 10.0485 32.2865 10.0485C32.8092 10.0485 33.2059 9.89449 33.4765 9.58649C33.7472 9.26915 33.8825 8.84915 33.8825 8.32649V4.26649H35.1985V9.75449C35.1985 10.1932 35.2219 10.6085 35.2685 11.0005H34.0085C33.9712 10.7952 33.9525 10.5245 33.9525 10.1885ZM40.2039 5.27449C39.6345 5.27449 39.1492 5.47982 38.7479 5.89049C38.3559 6.30115 38.1599 6.87982 38.1599 7.62649C38.1599 8.36382 38.3559 8.94249 38.7479 9.36249C39.1492 9.78249 39.6392 9.99249 40.2179 9.99249C40.7779 9.99249 41.2025 9.85249 41.4919 9.57249C41.7905 9.29249 41.9912 8.97049 42.0939 8.60649L43.2559 9.11049C43.0692 9.67049 42.7145 10.1605 42.1919 10.5805C41.6785 11.0005 41.0205 11.2105 40.2179 11.2105C39.2379 11.2105 38.4259 10.8698 37.7819 10.1885C37.1379 9.50715 36.8159 8.65315 36.8159 7.62649C36.8159 6.58115 37.1379 5.72715 37.7819 5.06449C38.4259 4.39249 39.2332 4.05649 40.2039 4.05649C41.0252 4.05649 41.6879 4.26649 42.1919 4.68649C42.7052 5.10649 43.0412 5.61049 43.1999 6.19849L42.0099 6.70249C41.9072 6.31049 41.7112 5.97449 41.4219 5.69449C41.1325 5.41449 40.7265 5.27449 40.2039 5.27449ZM46.5637 2.13849V4.26649H48.0197V5.45649H46.5637V8.95649C46.5637 9.27382 46.6337 9.50715 46.7737 9.65649C46.923 9.80582 47.1657 9.88049 47.5017 9.88049C47.6977 9.88049 47.8704 9.86182 48.0197 9.82449V10.9445C47.7957 11.0285 47.497 11.0705 47.1237 11.0705C46.545 11.0705 46.0877 10.9025 45.7517 10.5665C45.4157 10.2305 45.2477 9.75915 45.2477 9.15249V5.45649H43.9597V4.26649H44.3237C44.669 4.26649 44.9257 4.17315 45.0937 3.98649C45.271 3.79049 45.3597 3.53849 45.3597 3.23049V2.13849H46.5637ZM54.7883 9.78249H56.8183C57.7889 9.78249 58.5916 9.46049 59.2262 8.81649C59.8702 8.17249 60.1923 7.25315 60.1923 6.05849C60.1923 4.85449 59.8749 3.92582 59.2403 3.27249C58.6149 2.61915 57.8169 2.29249 56.8463 2.29249H54.7883V9.78249ZM56.8603 11.0005H53.4163V1.07449H56.8883C58.2229 1.07449 59.3429 1.51782 60.2483 2.40449C61.1536 3.28182 61.6063 4.49982 61.6063 6.05849C61.6063 7.60782 61.1489 8.82115 60.2343 9.69849C59.3196 10.5665 58.1949 11.0005 56.8603 11.0005ZM64.2064 6.94049H67.8884C67.8698 6.43649 67.7018 6.02582 67.3844 5.70849C67.0671 5.38182 66.6191 5.21849 66.0404 5.21849C65.5178 5.21849 65.0884 5.39115 64.7524 5.73649C64.4164 6.07249 64.2344 6.47382 64.2064 6.94049ZM68.0844 8.69049L69.2184 9.08249C69.0224 9.70782 68.6584 10.2212 68.1264 10.6225C67.5944 11.0145 66.9504 11.2105 66.1944 11.2105C65.2518 11.2105 64.4491 10.8885 63.7864 10.2445C63.1331 9.59115 62.8064 8.71382 62.8064 7.61249C62.8064 6.58582 63.1238 5.73649 63.7584 5.06449C64.3931 4.39249 65.1491 4.05649 66.0264 4.05649C67.0438 4.05649 67.8371 4.37849 68.4064 5.02249C68.9758 5.65715 69.2604 6.51115 69.2604 7.58449C69.2604 7.75249 69.2511 7.89249 69.2324 8.00449H64.1644C64.1738 8.60182 64.3698 9.09182 64.7524 9.47449C65.1444 9.85715 65.6251 10.0485 66.1944 10.0485C67.1558 10.0485 67.7858 9.59582 68.0844 8.69049ZM70.3103 9.25049L71.5003 8.83049C71.547 9.19449 71.7056 9.49782 71.9763 9.74049C72.247 9.97382 72.611 10.0905 73.0683 10.0905C73.423 10.0905 73.703 10.0065 73.9083 9.83849C74.1136 9.66115 74.2163 9.44649 74.2163 9.19449C74.2163 8.74649 73.927 8.45715 73.3483 8.32649L72.2003 8.07449C71.6776 7.96249 71.267 7.73849 70.9683 7.40249C70.6696 7.06649 70.5203 6.66049 70.5203 6.18449C70.5203 5.60582 70.7536 5.10649 71.2203 4.68649C71.6963 4.26649 72.261 4.05649 72.9143 4.05649C73.3436 4.05649 73.7263 4.12182 74.0623 4.25249C74.3983 4.37382 74.6596 4.53715 74.8463 4.74249C75.033 4.94782 75.173 5.13915 75.2663 5.31649C75.3596 5.49382 75.4296 5.67582 75.4763 5.86249L74.3143 6.29649C74.2956 6.18449 74.263 6.07715 74.2163 5.97449C74.1696 5.86249 74.095 5.74115 73.9923 5.61049C73.899 5.47982 73.759 5.37715 73.5723 5.30249C73.3856 5.21849 73.1663 5.17649 72.9143 5.17649C72.5876 5.17649 72.317 5.26515 72.1023 5.44249C71.897 5.61982 71.7943 5.82982 71.7943 6.07249C71.7943 6.50182 72.051 6.77249 72.5643 6.88449L73.6563 7.12249C74.2536 7.25315 74.711 7.49582 75.0283 7.85049C75.355 8.19582 75.5183 8.62049 75.5183 9.12449C75.5183 9.65649 75.299 10.1372 74.8603 10.5665C74.431 10.9958 73.829 11.2105 73.0543 11.2105C72.2236 11.2105 71.575 11.0052 71.1083 10.5945C70.6416 10.1745 70.3756 9.72649 70.3103 9.25049ZM78.5724 11.0005H77.2704V4.26649H78.5724V11.0005ZM77.2424 2.39049C77.0651 2.20382 76.9764 1.97982 76.9764 1.71849C76.9764 1.45715 77.0651 1.23315 77.2424 1.04649C77.4291 0.859821 77.6531 0.766488 77.9144 0.766488C78.1757 0.766488 78.3997 0.859821 78.5864 1.04649C78.7731 1.22382 78.8664 1.44782 78.8664 1.71849C78.8664 1.97982 78.7731 2.20382 78.5864 2.39049C78.3997 2.56782 78.1757 2.65649 77.9144 2.65649C77.6531 2.65649 77.4291 2.56782 77.2424 2.39049ZM80.3214 11.3645L81.5954 11.0705C81.6421 11.5465 81.8334 11.9385 82.1694 12.2465C82.5054 12.5638 82.9254 12.7225 83.4294 12.7225C84.8014 12.7225 85.4874 11.9945 85.4874 10.5385V9.57249C85.3194 9.89915 85.0534 10.1652 84.6894 10.3705C84.3347 10.5758 83.9147 10.6785 83.4294 10.6785C82.5334 10.6785 81.7914 10.3752 81.2034 9.76849C80.6247 9.15249 80.3354 8.36849 80.3354 7.41649C80.3354 6.49249 80.6247 5.71782 81.2034 5.09249C81.7821 4.45782 82.5241 4.14049 83.4294 4.14049C84.4561 4.14049 85.1467 4.49515 85.5014 5.20449V4.26649H86.8034V10.4965C86.8034 10.9445 86.7427 11.3598 86.6214 11.7425C86.5094 12.1345 86.3274 12.4938 86.0754 12.8205C85.8234 13.1472 85.4687 13.4038 85.0114 13.5905C84.5634 13.7772 84.0361 13.8705 83.4294 13.8705C82.5987 13.8705 81.8941 13.6325 81.3154 13.1565C80.7367 12.6898 80.4054 12.0925 80.3214 11.3645ZM83.6254 9.57249C84.1947 9.57249 84.6567 9.37649 85.0114 8.98449C85.3661 8.58315 85.5434 8.06049 85.5434 7.41649C85.5434 6.77249 85.3661 6.25449 85.0114 5.86249C84.6567 5.46115 84.1947 5.26049 83.6254 5.26049C83.0467 5.26049 82.5754 5.45649 82.2114 5.84849C81.8567 6.24049 81.6794 6.76315 81.6794 7.41649C81.6794 8.07915 81.8521 8.60649 82.1974 8.99849C82.5521 9.38115 83.0281 9.57249 83.6254 9.57249ZM90.2212 7.10849V11.0005H88.9052V4.26649H90.1932V5.23249C90.6412 4.45782 91.3318 4.07049 92.2652 4.07049C93.0398 4.07049 93.6325 4.31782 94.0432 4.81249C94.4632 5.30715 94.6732 5.94649 94.6732 6.73049V11.0005H93.3572V6.95449C93.3572 5.82515 92.8345 5.26049 91.7892 5.26049C91.2945 5.26049 90.9072 5.43782 90.6272 5.79249C90.3565 6.13782 90.2212 6.57649 90.2212 7.10849ZM97.6205 6.94049H101.302C101.284 6.43649 101.116 6.02582 100.798 5.70849C100.481 5.38182 100.033 5.21849 99.4545 5.21849C98.9318 5.21849 98.5025 5.39115 98.1665 5.73649C97.8305 6.07249 97.6485 6.47382 97.6205 6.94049ZM101.498 8.69049L102.632 9.08249C102.436 9.70782 102.072 10.2212 101.54 10.6225C101.008 11.0145 100.364 11.2105 99.6085 11.2105C98.6658 11.2105 97.8632 10.8885 97.2005 10.2445C96.5472 9.59115 96.2205 8.71382 96.2205 7.61249C96.2205 6.58582 96.5378 5.73649 97.1725 5.06449C97.8072 4.39249 98.5632 4.05649 99.4405 4.05649C100.458 4.05649 101.251 4.37849 101.82 5.02249C102.39 5.65715 102.674 6.51115 102.674 7.58449C102.674 7.75249 102.665 7.89249 102.646 8.00449H97.5785C97.5878 8.60182 97.7838 9.09182 98.1665 9.47449C98.5585 9.85715 99.0392 10.0485 99.6085 10.0485C100.57 10.0485 101.2 9.59582 101.498 8.69049ZM108.092 4.19649V5.59649C107.896 5.56849 107.705 5.55449 107.518 5.55449C106.286 5.55449 105.67 6.24515 105.67 7.62649V11.0005H104.354V4.26649H105.642V5.44249C106.053 4.58382 106.725 4.15449 107.658 4.15449C107.808 4.15449 107.952 4.16849 108.092 4.19649ZM120.289 9.08249C119.944 9.08249 119.645 9.00782 119.393 8.85849C119.141 8.70915 118.978 8.48515 118.903 8.18649C118.474 8.80249 117.918 9.11049 117.237 9.11049C116.602 9.11049 116.084 8.89115 115.683 8.45249C115.291 8.01382 115.095 7.43515 115.095 6.71649C115.095 5.79249 115.37 5.01782 115.921 4.39249C116.472 3.76715 117.13 3.45449 117.895 3.45449C118.222 3.45449 118.525 3.53382 118.805 3.69249C119.094 3.85115 119.29 4.07982 119.393 4.37849L119.519 3.63649H120.625L119.869 7.15049C119.841 7.29049 119.827 7.42115 119.827 7.54249C119.827 7.92515 120.004 8.11649 120.359 8.11649C120.751 8.11649 121.101 7.85049 121.409 7.31849C121.717 6.77715 121.871 6.15649 121.871 5.45649C121.871 4.42049 121.507 3.56649 120.779 2.89449C120.06 2.22249 119.118 1.88649 117.951 1.88649C116.71 1.88649 115.683 2.30182 114.871 3.13249C114.059 3.95382 113.653 5.02715 113.653 6.35249C113.653 7.60315 114.05 8.62982 114.843 9.43249C115.646 10.2352 116.733 10.6365 118.105 10.6365C119.197 10.6365 120.154 10.3098 120.975 9.65649L121.549 10.4125C121.148 10.7858 120.625 11.0845 119.981 11.3085C119.346 11.5418 118.721 11.6585 118.105 11.6585C116.462 11.6585 115.118 11.1685 114.073 10.1885C113.028 9.19915 112.505 7.91582 112.505 6.33849C112.505 4.74249 113.032 3.43115 114.087 2.40449C115.142 1.37782 116.425 0.864488 117.937 0.864488C119.365 0.864488 120.555 1.30315 121.507 2.18049C122.468 3.04849 122.949 4.13582 122.949 5.44249C122.949 6.47849 122.688 7.34649 122.165 8.04649C121.652 8.73715 121.026 9.08249 120.289 9.08249ZM119.085 5.82049C119.085 5.40049 118.982 5.07849 118.777 4.85449C118.572 4.62115 118.282 4.50449 117.909 4.50449C117.424 4.50449 117.022 4.71449 116.705 5.13449C116.397 5.54515 116.243 6.02115 116.243 6.56249C116.243 7.57982 116.64 8.08849 117.433 8.08849C117.909 8.08849 118.296 7.87849 118.595 7.45849C118.903 7.02915 119.066 6.48315 119.085 5.82049ZM134.347 11.0005L130.987 6.49249L129.573 8.00449V11.0005H128.201V1.07449H129.573V6.18449L134.221 1.07449H136.027L131.897 5.49849L136.083 11.0005H134.347ZM138.715 11.0005H137.413V4.26649H138.715V11.0005ZM137.385 2.39049C137.208 2.20382 137.119 1.97982 137.119 1.71849C137.119 1.45715 137.208 1.23315 137.385 1.04649C137.572 0.859821 137.796 0.766488 138.057 0.766488C138.318 0.766488 138.542 0.859821 138.729 1.04649C138.916 1.22382 139.009 1.44782 139.009 1.71849C139.009 1.97982 138.916 2.20382 138.729 2.39049C138.542 2.56782 138.318 2.65649 138.057 2.65649C137.796 2.65649 137.572 2.56782 137.385 2.39049ZM142.718 2.13849V4.26649H144.174V5.45649H142.718V8.95649C142.718 9.27382 142.788 9.50715 142.928 9.65649C143.077 9.80582 143.32 9.88049 143.656 9.88049C143.852 9.88049 144.025 9.86182 144.174 9.82449V10.9445C143.95 11.0285 143.651 11.0705 143.278 11.0705C142.699 11.0705 142.242 10.9025 141.906 10.5665C141.57 10.2305 141.402 9.75915 141.402 9.15249V5.45649H140.114V4.26649H140.478C140.823 4.26649 141.08 4.17315 141.248 3.98649C141.425 3.79049 141.514 3.53849 141.514 3.23049V2.13849H142.718ZM147.695 2.13849V4.26649H149.151V5.45649H147.695V8.95649C147.695 9.27382 147.765 9.50715 147.905 9.65649C148.054 9.80582 148.297 9.88049 148.633 9.88049C148.829 9.88049 149.001 9.86182 149.151 9.82449V10.9445C148.927 11.0285 148.628 11.0705 148.255 11.0705C147.676 11.0705 147.219 10.9025 146.883 10.5665C146.547 10.2305 146.379 9.75915 146.379 9.15249V5.45649H145.091V4.26649H145.455C145.8 4.26649 146.057 4.17315 146.225 3.98649C146.402 3.79049 146.491 3.53849 146.491 3.23049V2.13849H147.695ZM152.655 13.8145H151.213L152.893 10.2585L149.995 4.26649H151.507L153.607 8.91449L155.623 4.26649H157.037L152.655 13.8145Z" fill="#675959"/>
</svg>
