<svg width="123" height="19" viewBox="0 0 123 19" fill="none" xmlns="http://www.w3.org/2000/svg">
<path d="M12.6 1.20037H0.36V3.84037H5.112V18.0004H7.872V3.84037H12.6V1.20037ZM14.3567 13.1044H23.9087C23.9567 12.7684 24.0047 12.3844 24.0047 12.0244C24.0047 8.56837 21.5567 5.68837 17.9807 5.68837C14.2127 5.68837 11.6447 8.44837 11.6447 12.0004C11.6447 15.6004 14.2127 18.3124 18.1727 18.3124C20.5247 18.3124 22.3247 17.3284 23.4287 15.6964L21.2927 14.4484C20.7167 15.2884 19.6367 15.9364 18.1967 15.9364C16.2767 15.9364 14.7647 14.9764 14.3567 13.1044ZM14.3327 10.9924C14.6927 9.19237 16.0127 8.04037 17.9567 8.04037C19.5167 8.04037 21.0287 8.92837 21.3887 10.9924H14.3327ZM28.1447 9.31237C28.1447 8.44837 28.9607 8.04037 29.8967 8.04037C30.8807 8.04037 31.7207 8.47237 32.1527 9.40837L34.3367 8.18437C33.4967 6.60037 31.8647 5.68837 29.8967 5.68837C27.4487 5.68837 25.5047 7.10437 25.5047 9.36037C25.5047 13.6564 31.9607 12.4564 31.9607 14.5924C31.9607 15.5524 31.0727 15.9364 29.9207 15.9364C28.6007 15.9364 27.6407 15.2884 27.2567 14.2084L25.0247 15.5044C25.7927 17.2324 27.5207 18.3124 29.9207 18.3124C32.5127 18.3124 34.6007 17.0164 34.6007 14.6164C34.6007 10.1764 28.1447 11.4964 28.1447 9.31237ZM43.1064 8.49637V6.00037H40.1304V2.64037L37.5384 3.40837V6.00037H35.3304V8.49637H37.5384V14.2564C37.5384 17.3764 39.1224 18.4804 43.1064 18.0004V15.6724C41.1384 15.7684 40.1304 15.7924 40.1304 14.2564V8.49637H43.1064ZM46.7533 4.20037C47.6653 4.20037 48.4093 3.43236 48.4093 2.54436C48.4093 1.63237 47.6653 0.888365 46.7533 0.888365C45.8413 0.888365 45.0973 1.63237 45.0973 2.54436C45.0973 3.43236 45.8413 4.20037 46.7533 4.20037ZM45.4573 18.0004H48.0493V6.00037H45.4573V18.0004ZM64.1629 5.68837C62.5549 5.68837 61.2829 6.33637 60.4909 7.58437C59.7949 6.38437 58.6429 5.68837 57.0829 5.68837C55.5949 5.68837 54.4189 6.26437 53.6509 7.44037V6.00037H51.0589V18.0004H53.6509V11.2804C53.6509 9.09637 54.8509 8.11237 56.3149 8.11237C57.7309 8.11237 58.5709 9.04837 58.5709 10.7284V18.0004H61.1629V11.2804C61.1629 9.09637 62.2429 8.11237 63.7789 8.11237C65.1949 8.11237 66.1069 9.04837 66.1069 10.7284V18.0004H68.6989V10.5604C68.6989 7.56037 66.8749 5.68837 64.1629 5.68837ZM77.1369 18.3124C80.6649 18.3124 83.4729 15.5524 83.4729 12.0004C83.4729 8.42437 80.6649 5.68837 77.1369 5.68837C73.6329 5.68837 70.8009 8.42437 70.8009 12.0004C70.8009 15.5524 73.6329 18.3124 77.1369 18.3124ZM77.1369 15.7924C75.0249 15.7924 73.3929 14.1844 73.3929 12.0004C73.3929 9.81637 75.0249 8.20837 77.1369 8.20837C79.2489 8.20837 80.8809 9.81637 80.8809 12.0004C80.8809 14.1844 79.2489 15.7924 77.1369 15.7924ZM92.1287 5.68837C90.4967 5.68837 89.2007 6.28837 88.4087 7.53637V6.00037H85.8167V18.0004H88.4087V11.5684C88.4087 9.12037 89.7527 8.11237 91.4567 8.11237C93.0887 8.11237 94.1447 9.07237 94.1447 10.8964V18.0004H96.7367V10.6324C96.7367 7.51237 94.8167 5.68837 92.1287 5.68837ZM100.824 4.20037C101.736 4.20037 102.48 3.43236 102.48 2.54436C102.48 1.63237 101.736 0.888365 100.824 0.888365C99.9116 0.888365 99.1676 1.63237 99.1676 2.54436C99.1676 3.43236 99.9116 4.20037 100.824 4.20037ZM99.5276 18.0004H102.12V6.00037H99.5276V18.0004ZM114.633 6.00037V7.70437C113.721 6.45637 112.305 5.68837 110.433 5.68837C107.169 5.68837 104.457 8.42437 104.457 12.0004C104.457 15.5524 107.169 18.3124 110.433 18.3124C112.305 18.3124 113.721 17.5444 114.633 16.2724V18.0004H117.225V6.00037H114.633ZM110.841 15.8404C108.681 15.8404 107.049 14.2324 107.049 12.0004C107.049 9.76837 108.681 8.16037 110.841 8.16037C113.001 8.16037 114.633 9.76837 114.633 12.0004C114.633 14.2324 113.001 15.8404 110.841 15.8404ZM120.246 18.0004H122.838V0.480366H120.246V18.0004Z" fill="#FF9401"/>
</svg>
