<svg width="345" height="104" viewBox="0 0 345 104" fill="none" xmlns="http://www.w3.org/2000/svg">
<path d="M25.344 0.400364H0.624V6.73637H9.648V34.0004H16.272V6.73637H25.344V0.400364ZM42.0979 9.32837C38.8819 9.32837 36.3859 10.5284 34.9459 12.6884V0.400364H28.7539V34.0004H34.9459V21.0404C34.9459 16.8644 37.2019 15.0884 40.2259 15.0884C43.0099 15.0884 44.9779 16.7684 44.9779 20.0324V34.0004H51.1699V19.2644C51.1699 12.8804 47.1859 9.32837 42.0979 9.32837ZM74.697 10.0004V12.8324C72.969 10.6724 70.377 9.32837 66.873 9.32837C60.489 9.32837 55.209 14.8484 55.209 22.0004C55.209 29.1524 60.489 34.6724 66.873 34.6724C70.377 34.6724 72.969 33.3284 74.697 31.1684V34.0004H80.889V10.0004H74.697ZM68.025 28.7684C64.233 28.7684 61.401 26.0324 61.401 22.0004C61.401 17.9684 64.233 15.2324 68.025 15.2324C71.865 15.2324 74.697 17.9684 74.697 22.0004C74.697 26.0324 71.865 28.7684 68.025 28.7684ZM100.232 15.9524V10.0004H94.8079V3.28036L88.6159 5.15237V10.0004H84.4399V15.9524H88.6159V25.9364C88.6159 32.4164 91.5439 34.9604 100.232 34.0004V28.3844C96.6799 28.5764 94.8079 28.5284 94.8079 25.9364V15.9524H100.232ZM113.648 0.352365H106.928L105.008 13.6964H110.048L113.648 0.352365ZM120.716 16.8164C120.716 15.5204 121.964 14.8484 123.5 14.8484C125.276 14.8484 126.62 15.7604 127.34 17.2964L132.62 14.4164C130.748 11.1044 127.388 9.32837 123.5 9.32837C118.556 9.32837 114.38 12.0644 114.38 16.9604C114.38 25.4084 126.764 23.4884 126.764 26.9924C126.764 28.3844 125.42 29.0564 123.452 29.0564C121.052 29.0564 119.42 27.9044 118.748 25.9364L113.372 28.9604C115.1 32.6564 118.652 34.6724 123.452 34.6724C128.588 34.6724 133.1 32.1764 133.1 26.9924C133.1 18.1604 120.716 20.3684 120.716 16.8164ZM176.34 10.0004L172.26 24.7844L167.892 10.0004H162.036L157.668 24.7364L153.588 10.0004H147.012L154.644 34.0004H160.548L164.964 19.4564L169.38 34.0004H175.284L182.916 10.0004H176.34ZM199.598 9.32837C196.382 9.32837 193.886 10.5284 192.446 12.6884V0.400364H186.254V34.0004H192.446V21.0404C192.446 16.8644 194.702 15.0884 197.726 15.0884C200.51 15.0884 202.478 16.7684 202.478 20.0324V34.0004H208.67V19.2644C208.67 12.8804 204.686 9.32837 199.598 9.32837ZM232.197 10.0004V12.8324C230.469 10.6724 227.877 9.32837 224.373 9.32837C217.989 9.32837 212.709 14.8484 212.709 22.0004C212.709 29.1524 217.989 34.6724 224.373 34.6724C227.877 34.6724 230.469 33.3284 232.197 31.1684V34.0004H238.389V10.0004H232.197ZM225.525 28.7684C221.733 28.7684 218.901 26.0324 218.901 22.0004C218.901 17.9684 221.733 15.2324 225.525 15.2324C229.365 15.2324 232.197 17.9684 232.197 22.0004C232.197 26.0324 229.365 28.7684 225.525 28.7684ZM257.732 15.9524V10.0004H252.308V3.28036L246.116 5.15237V10.0004H241.94V15.9524H246.116V25.9364C246.116 32.4164 249.044 34.9604 257.732 34.0004V28.3844C254.18 28.5764 252.308 28.5284 252.308 25.9364V15.9524H257.732ZM285.897 34.6724C292.953 34.6724 298.617 29.1524 298.617 22.0004C298.617 14.8484 292.953 9.32837 285.897 9.32837C278.841 9.32837 273.225 14.8484 273.225 22.0004C273.225 29.1524 278.841 34.6724 285.897 34.6724ZM285.897 28.6244C282.249 28.6244 279.417 25.8884 279.417 22.0004C279.417 18.1124 282.249 15.3764 285.897 15.3764C289.593 15.3764 292.425 18.1124 292.425 22.0004C292.425 25.8884 289.593 28.6244 285.897 28.6244ZM318.813 10.0004V22.9604C318.813 27.1364 316.557 28.9124 313.533 28.9124C310.749 28.9124 308.781 27.2324 308.781 23.9684V10.0004H302.589V24.7364C302.589 31.1204 306.573 34.6724 311.661 34.6724C314.877 34.6724 317.373 33.4724 318.813 31.3124V34.0004H325.005V10.0004H318.813ZM336.868 14.1284V10.0004H330.676V34.0004H336.868V22.5284C336.868 17.4884 340.948 16.0484 344.164 16.4324V9.52036C341.14 9.52036 338.116 10.8644 336.868 14.1284ZM19.056 94.6724C25.248 94.6724 30.672 91.5524 33.504 86.7524L27.792 83.4404C26.208 86.3684 22.896 88.1924 19.056 88.1924C12.48 88.1924 8.16 83.6324 8.16 77.2004C8.16 70.7204 12.48 66.1604 19.056 66.1604C22.896 66.1604 26.16 67.9844 27.792 70.9604L33.504 67.6484C30.624 62.8484 25.2 59.7284 19.056 59.7284C8.88 59.7284 1.584 67.3604 1.584 77.2004C1.584 86.9924 8.88 94.6724 19.056 94.6724ZM37.6601 94.0004H43.8521V58.9604H37.6601V94.0004ZM52.5915 67.1204C54.7035 67.1204 56.4315 65.3924 56.4315 63.3284C56.4315 61.2644 54.7035 59.4884 52.5915 59.4884C50.5275 59.4884 48.7995 61.2644 48.7995 63.3284C48.7995 65.3924 50.5275 67.1204 52.5915 67.1204ZM49.5195 94.0004H55.7115V70.0004H49.5195V94.0004ZM66.6109 84.5444H84.7069C84.8509 83.7284 84.9469 82.9124 84.9469 82.0004C84.9469 74.9444 79.9069 69.3284 72.8029 69.3284C65.2669 69.3284 60.1309 74.8484 60.1309 82.0004C60.1309 89.1524 65.2189 94.6724 73.2829 94.6724C77.8909 94.6724 81.4909 92.8004 83.7469 89.5364L78.7549 86.6564C77.6989 88.0484 75.7789 89.0564 73.3789 89.0564C70.1149 89.0564 67.4749 87.7124 66.6109 84.5444ZM66.5149 79.7444C67.2349 76.6724 69.4909 74.8964 72.8029 74.8964C75.3949 74.8964 77.9869 76.2884 78.7549 79.7444H66.5149ZM102.614 69.3284C99.3975 69.3284 96.9015 70.5284 95.4615 72.6884V70.0004H89.2695V94.0004H95.4615V81.0404C95.4615 76.8644 97.7175 75.0884 100.742 75.0884C103.526 75.0884 105.494 76.7684 105.494 80.0324V94.0004H111.686V79.2644C111.686 72.8804 107.702 69.3284 102.614 69.3284ZM130.701 75.9524V70.0004H125.277V63.2804L119.085 65.1524V70.0004H114.909V75.9524H119.085V85.9364C119.085 92.4164 122.013 94.9604 130.701 94.0004V88.3844C127.149 88.5764 125.277 88.5284 125.277 85.9364V75.9524H130.701ZM159.201 94.6724C166.353 94.6724 171.393 90.8324 171.393 84.5444C171.393 77.6804 165.729 75.9044 160.401 74.2244C155.313 72.6884 154.017 71.5844 154.017 69.5204C154.017 67.6004 155.649 66.1604 158.433 66.1604C161.841 66.1604 163.665 67.9364 164.865 70.4804L170.433 67.2644C168.177 62.5604 163.953 59.7284 158.433 59.7284C152.673 59.7284 147.393 63.3764 147.393 69.7124C147.393 76.0964 152.385 78.2564 157.521 79.7444C162.513 81.1844 164.769 82.1444 164.769 84.6404C164.769 86.5124 163.377 88.1924 159.393 88.1924C155.217 88.1924 152.865 86.1764 151.665 83.0564L146.001 86.3684C147.825 91.3604 152.337 94.6724 159.201 94.6724ZM194.322 70.0004V72.8324C192.594 70.6724 190.002 69.3284 186.498 69.3284C180.114 69.3284 174.834 74.8484 174.834 82.0004C174.834 89.1524 180.114 94.6724 186.498 94.6724C190.002 94.6724 192.594 93.3284 194.322 91.1684V94.0004H200.514V70.0004H194.322ZM187.65 88.7684C183.858 88.7684 181.026 86.0324 181.026 82.0004C181.026 77.9684 183.858 75.2324 187.65 75.2324C191.49 75.2324 194.322 77.9684 194.322 82.0004C194.322 86.0324 191.49 88.7684 187.65 88.7684ZM221.777 70.0004L216.449 86.1284L210.209 70.0004H203.441L213.281 93.2324C212.129 96.4484 210.401 97.8884 206.993 97.8404V103.6C213.089 103.936 217.169 100.912 219.665 94.0004L228.401 70.0004H221.777ZM235.56 76.8164C235.56 75.5204 236.808 74.8484 238.344 74.8484C240.12 74.8484 241.464 75.7604 242.184 77.2964L247.464 74.4164C245.592 71.1044 242.232 69.3284 238.344 69.3284C233.4 69.3284 229.224 72.0644 229.224 76.9604C229.224 85.4084 241.608 83.4884 241.608 86.9924C241.608 88.3844 240.264 89.0564 238.296 89.0564C235.896 89.0564 234.264 87.9044 233.592 85.9364L228.216 88.9604C229.944 92.6564 233.496 94.6724 238.296 94.6724C243.432 94.6724 247.944 92.1764 247.944 86.9924C247.944 78.1604 235.56 80.3684 235.56 76.8164Z" fill="#2E2E2E"/>
</svg>
