<svg width="348" height="105" viewBox="0 0 348 105" fill="none" xmlns="http://www.w3.org/2000/svg">
<path d="M8.398 4.63841C8.398 5.02241 8.26 5.34641 7.984 5.61041C7.72 5.86241 7.378 5.98841 6.958 5.98841C6.562 5.98841 6.238 5.85641 5.986 5.59241C5.746 5.32841 5.626 4.98641 5.626 4.56641C5.626 3.67841 5.956 2.89241 6.616 2.20841C7.288 1.51241 8.092 1.14041 9.028 1.09241L8.812 2.08241C8.392 2.14241 7.996 2.32841 7.624 2.64041C7.264 2.94041 7.036 3.27641 6.94 3.64841C7.012 3.61241 7.132 3.59441 7.3 3.59441C7.624 3.59441 7.888 3.69641 8.092 3.90041C8.296 4.09241 8.398 4.33841 8.398 4.63841ZM4.96 4.63841C4.96 5.02241 4.822 5.34641 4.546 5.61041C4.282 5.86241 3.946 5.98841 3.538 5.98841C3.13 5.98841 2.806 5.85641 2.566 5.59241C2.326 5.32841 2.206 4.98641 2.206 4.56641C2.206 3.67841 2.536 2.89241 3.196 2.20841C3.856 1.51241 4.654 1.14041 5.59 1.09241L5.374 2.08241C4.954 2.14241 4.564 2.32841 4.204 2.64041C3.844 2.94041 3.61 3.27641 3.502 3.64841C3.574 3.61241 3.7 3.59441 3.88 3.59441C4.204 3.59441 4.462 3.69641 4.654 3.90041C4.858 4.09241 4.96 4.33841 4.96 4.63841ZM10.7404 13.9984H8.58039L11.2804 1.23641H19.1464L18.7144 3.27041H13.0084L12.2524 6.85241H17.3644L16.9504 8.85041H11.8384L10.7404 13.9984ZM23.0163 6.83441C22.2963 6.83441 21.6783 7.14041 21.1623 7.75241C20.6463 8.36441 20.3883 9.15641 20.3883 10.1284C20.3883 10.8124 20.5683 11.3644 20.9283 11.7844C21.3003 12.1924 21.7863 12.3964 22.3863 12.3964C23.0823 12.3964 23.6943 12.1024 24.2223 11.5144C24.7503 10.9264 25.0143 10.1164 25.0143 9.08441C25.0143 8.38841 24.8343 7.84241 24.4743 7.44641C24.1263 7.05041 23.6403 6.84641 23.0163 6.83441ZM27.1203 9.01241C27.1203 10.4764 26.6583 11.7184 25.7343 12.7384C24.8223 13.7584 23.6703 14.2684 22.2783 14.2684C21.0783 14.2684 20.1123 13.8784 19.3803 13.0984C18.6603 12.3184 18.3003 11.3524 18.3003 10.2004C18.3003 8.68841 18.7683 7.44041 19.7043 6.45641C20.6403 5.46041 21.7923 4.96241 23.1603 4.96241C24.3843 4.96241 25.3503 5.34641 26.0583 6.11441C26.7663 6.88241 27.1203 7.84841 27.1203 9.01241ZM32.9303 6.83441C32.2103 6.83441 31.5923 7.14041 31.0763 7.75241C30.5603 8.36441 30.3023 9.15641 30.3023 10.1284C30.3023 10.8124 30.4823 11.3644 30.8423 11.7844C31.2143 12.1924 31.7003 12.3964 32.3003 12.3964C32.9963 12.3964 33.6083 12.1024 34.1363 11.5144C34.6643 10.9264 34.9283 10.1164 34.9283 9.08441C34.9283 8.38841 34.7483 7.84241 34.3883 7.44641C34.0403 7.05041 33.5543 6.84641 32.9303 6.83441ZM37.0343 9.01241C37.0343 10.4764 36.5723 11.7184 35.6483 12.7384C34.7363 13.7584 33.5843 14.2684 32.1923 14.2684C30.9923 14.2684 30.0263 13.8784 29.2943 13.0984C28.5743 12.3184 28.2143 11.3524 28.2143 10.2004C28.2143 8.68841 28.6823 7.44041 29.6183 6.45641C30.5543 5.46041 31.7063 4.96241 33.0743 4.96241C34.2983 4.96241 35.2643 5.34641 35.9723 6.11441C36.6803 6.88241 37.0343 7.84841 37.0343 9.01241ZM48.4424 0.966412L46.1204 11.9104C45.9884 12.5704 45.9224 13.1224 45.9224 13.5664C45.9224 13.7704 45.9284 13.9144 45.9404 13.9984H44.0144C44.0024 13.8904 43.9964 13.7404 43.9964 13.5484C43.9964 13.3444 44.0084 13.1344 44.0324 12.9184C43.3844 13.7464 42.5804 14.1604 41.6204 14.1604C40.5284 14.1604 39.6704 13.8004 39.0464 13.0804C38.4344 12.3484 38.1284 11.4184 38.1284 10.2904C38.1284 8.81441 38.5544 7.56641 39.4064 6.54641C40.2704 5.51441 41.3504 4.99841 42.6464 4.99841C43.9184 4.99841 44.7884 5.41241 45.2564 6.24041L46.3724 0.966412H48.4424ZM42.8084 6.83441C42.0164 6.83441 41.3864 7.18241 40.9184 7.87841C40.4504 8.57441 40.2164 9.36041 40.2164 10.2364C40.2164 10.8844 40.3784 11.4064 40.7024 11.8024C41.0384 12.1864 41.5004 12.3784 42.0884 12.3784C42.8084 12.3784 43.4144 12.0484 43.9064 11.3884C44.3984 10.7284 44.6444 9.88841 44.6444 8.86841C44.6444 8.25641 44.4824 7.76441 44.1584 7.39241C43.8464 7.02041 43.3964 6.83441 42.8084 6.83441ZM58.4308 6.87041C57.6988 6.87041 57.0748 7.17641 56.5588 7.78841C56.0548 8.40041 55.8028 9.19241 55.8028 10.1644C55.8028 10.8604 55.9828 11.4064 56.3428 11.8024C56.7028 12.1864 57.1828 12.3784 57.7828 12.3784C58.4668 12.3784 59.0788 12.0784 59.6188 11.4784C60.1588 10.8664 60.4288 10.0504 60.4288 9.03041C60.4288 8.33441 60.2488 7.80041 59.8888 7.42841C59.5288 7.05641 59.0428 6.87041 58.4308 6.87041ZM56.5588 6.18641C56.8348 5.82641 57.2068 5.54441 57.6748 5.34041C58.1428 5.12441 58.6408 5.01641 59.1688 5.01641C60.2608 5.01641 61.0948 5.36441 61.6708 6.06041C62.2468 6.75641 62.5348 7.65641 62.5348 8.76041C62.5348 10.3324 62.1028 11.6404 61.2388 12.6844C60.3748 13.7164 59.2768 14.2324 57.9448 14.2324C57.3328 14.2324 56.7748 14.1004 56.2708 13.8364C55.7788 13.5724 55.4128 13.2304 55.1728 12.8104L54.2008 17.4184H52.1488L54.4168 6.74441C54.5488 6.13241 54.6148 5.62841 54.6148 5.23241H56.6308C56.6308 5.56841 56.6068 5.88641 56.5588 6.18641ZM68.3318 6.83441C67.5398 6.83441 66.9098 7.18241 66.4418 7.87841C65.9738 8.57441 65.7398 9.36041 65.7398 10.2364C65.7398 10.8844 65.9018 11.4064 66.2258 11.8024C66.5618 12.1864 67.0238 12.3784 67.6118 12.3784C68.3318 12.3784 68.9378 12.0484 69.4298 11.3884C69.9218 10.7284 70.1678 9.88841 70.1678 8.86841C70.1678 8.25641 70.0058 7.76441 69.6818 7.39241C69.3698 7.02041 68.9198 6.83441 68.3318 6.83441ZM71.0318 5.23241H73.0658L71.6438 11.9104C71.5238 12.5104 71.4638 13.0624 71.4638 13.5664C71.4638 13.7224 71.4698 13.8664 71.4818 13.9984H69.5378C69.5258 13.8904 69.5198 13.7704 69.5198 13.6384C69.5198 13.4224 69.5318 13.1824 69.5558 12.9184C68.9078 13.7464 68.1038 14.1604 67.1438 14.1604C66.0518 14.1604 65.1938 13.8004 64.5698 13.0804C63.9578 12.3484 63.6518 11.4184 63.6518 10.2904C63.6518 8.81441 64.0778 7.56641 64.9298 6.54641C65.7938 5.51441 66.8738 4.99841 68.1698 4.99841C68.8778 4.99841 69.4478 5.12441 69.8798 5.37641C70.3118 5.62841 70.6178 5.92841 70.7978 6.27641L71.0318 5.23241ZM75.9138 13.9984H73.8438L76.6158 0.966412H78.6858L75.9138 13.9984ZM83.449 6.83441C82.657 6.83441 82.027 7.18241 81.559 7.87841C81.091 8.57441 80.857 9.36041 80.857 10.2364C80.857 10.8844 81.019 11.4064 81.343 11.8024C81.679 12.1864 82.141 12.3784 82.729 12.3784C83.449 12.3784 84.055 12.0484 84.547 11.3884C85.039 10.7284 85.285 9.88841 85.285 8.86841C85.285 8.25641 85.123 7.76441 84.799 7.39241C84.487 7.02041 84.037 6.83441 83.449 6.83441ZM86.149 5.23241H88.183L86.761 11.9104C86.641 12.5104 86.581 13.0624 86.581 13.5664C86.581 13.7224 86.587 13.8664 86.599 13.9984H84.655C84.643 13.8904 84.637 13.7704 84.637 13.6384C84.637 13.4224 84.649 13.1824 84.673 12.9184C84.025 13.7464 83.221 14.1604 82.261 14.1604C81.169 14.1604 80.311 13.8004 79.687 13.0804C79.075 12.3484 78.769 11.4184 78.769 10.2904C78.769 8.81441 79.195 7.56641 80.047 6.54641C80.911 5.51441 81.991 4.99841 83.287 4.99841C83.995 4.99841 84.565 5.12441 84.997 5.37641C85.429 5.62841 85.735 5.92841 85.915 6.27641L86.149 5.23241ZM97.6549 7.82441L95.7649 8.41841C95.6689 7.97441 95.4529 7.60241 95.1169 7.30241C94.7809 7.00241 94.3369 6.85241 93.7849 6.85241C93.0649 6.85241 92.4409 7.14641 91.9129 7.73441C91.3849 8.31041 91.1209 9.11441 91.1209 10.1464C91.1209 10.8304 91.3129 11.3764 91.6969 11.7844C92.0929 12.1924 92.6149 12.3964 93.2629 12.3964C94.2109 12.3964 94.9429 11.9104 95.4589 10.9384L97.1869 11.6404C96.8269 12.3964 96.3049 13.0264 95.6209 13.5304C94.9369 14.0224 94.1149 14.2684 93.1549 14.2684C91.9189 14.2684 90.9229 13.8844 90.1669 13.1164C89.4229 12.3484 89.0509 11.3704 89.0509 10.1824C89.0509 8.65841 89.5249 7.41041 90.4729 6.43841C91.4329 5.45441 92.5849 4.96241 93.9289 4.96241C95.0209 4.96241 95.8729 5.24441 96.4849 5.80841C97.0969 6.37241 97.4869 7.04441 97.6549 7.82441ZM100.601 8.65241H104.813C104.813 8.64041 104.813 8.60441 104.813 8.54441C104.825 8.47241 104.831 8.41841 104.831 8.38241C104.831 7.93841 104.687 7.54841 104.399 7.21241C104.111 6.87641 103.661 6.70841 103.049 6.70841C102.425 6.70841 101.903 6.89441 101.483 7.26641C101.063 7.63841 100.769 8.10041 100.601 8.65241ZM106.613 10.1824H100.367C100.355 10.2424 100.349 10.3084 100.349 10.3804C100.349 11.0044 100.541 11.5144 100.925 11.9104C101.321 12.2944 101.819 12.4864 102.419 12.4864C102.959 12.4864 103.415 12.3664 103.787 12.1264C104.171 11.8864 104.459 11.5804 104.651 11.2084L106.253 12.0904C105.929 12.7144 105.425 13.2364 104.741 13.6564C104.069 14.0644 103.277 14.2684 102.365 14.2684C101.237 14.2684 100.283 13.9084 99.503 13.1884C98.735 12.4564 98.351 11.4784 98.351 10.2544C98.351 8.68241 98.825 7.41041 99.773 6.43841C100.733 5.45441 101.843 4.96241 103.103 4.96241C104.279 4.96241 105.197 5.29841 105.857 5.97041C106.529 6.63041 106.865 7.50041 106.865 8.58041C106.865 9.12041 106.781 9.65441 106.613 10.1824ZM114.694 2.24441C114.694 1.83641 114.844 1.48841 115.144 1.20041C115.444 0.912413 115.792 0.768413 116.188 0.768413C116.548 0.768413 116.842 0.882413 117.07 1.11041C117.298 1.33841 117.412 1.62041 117.412 1.95641C117.412 2.37641 117.262 2.73041 116.962 3.01841C116.662 3.30641 116.314 3.45041 115.918 3.45041C115.558 3.45041 115.264 3.33641 115.036 3.10841C114.808 2.86841 114.694 2.58041 114.694 2.24441ZM114.586 13.9984H112.516L114.388 5.23241H116.458L114.586 13.9984ZM117.098 11.2804L118.898 10.9384C118.898 11.4184 119.036 11.8204 119.312 12.1444C119.6 12.4684 119.996 12.6304 120.5 12.6304C120.896 12.6304 121.202 12.5344 121.418 12.3424C121.634 12.1384 121.742 11.8984 121.742 11.6224C121.742 11.2144 121.496 10.9024 121.004 10.6864L119.888 10.2004C118.736 9.69641 118.16 8.91041 118.16 7.84241C118.16 7.06241 118.46 6.39041 119.06 5.82641C119.672 5.25041 120.464 4.96241 121.436 4.96241C122.024 4.96241 122.534 5.05241 122.966 5.23241C123.398 5.40041 123.728 5.62841 123.956 5.91641C124.184 6.20441 124.352 6.48641 124.46 6.76241C124.568 7.02641 124.628 7.29641 124.64 7.57241L122.822 7.95041C122.798 7.60241 122.672 7.29041 122.444 7.01441C122.216 6.72641 121.844 6.58241 121.328 6.58241C120.968 6.58241 120.68 6.67841 120.464 6.87041C120.248 7.06241 120.14 7.29641 120.14 7.57241C120.14 7.96841 120.344 8.25641 120.752 8.43641L121.904 8.94041C123.164 9.49241 123.794 10.3264 123.794 11.4424C123.794 12.1624 123.506 12.8164 122.93 13.4044C122.366 13.9804 121.55 14.2684 120.482 14.2684C119.834 14.2684 119.276 14.1664 118.808 13.9624C118.34 13.7584 117.986 13.4944 117.746 13.1704C117.518 12.8344 117.356 12.5104 117.26 12.1984C117.152 11.8864 117.098 11.5804 117.098 11.2804ZM134.83 6.83441C134.038 6.83441 133.408 7.18241 132.94 7.87841C132.472 8.57441 132.238 9.36041 132.238 10.2364C132.238 10.8844 132.4 11.4064 132.724 11.8024C133.06 12.1864 133.522 12.3784 134.11 12.3784C134.83 12.3784 135.436 12.0484 135.928 11.3884C136.42 10.7284 136.666 9.88841 136.666 8.86841C136.666 8.25641 136.504 7.76441 136.18 7.39241C135.868 7.02041 135.418 6.83441 134.83 6.83441ZM137.53 5.23241H139.564L138.142 11.9104C138.022 12.5104 137.962 13.0624 137.962 13.5664C137.962 13.7224 137.968 13.8664 137.98 13.9984H136.036C136.024 13.8904 136.018 13.7704 136.018 13.6384C136.018 13.4224 136.03 13.1824 136.054 12.9184C135.406 13.7464 134.602 14.1604 133.642 14.1604C132.55 14.1604 131.692 13.8004 131.068 13.0804C130.456 12.3484 130.15 11.4184 130.15 10.2904C130.15 8.81441 130.576 7.56641 131.428 6.54641C132.292 5.51441 133.372 4.99841 134.668 4.99841C135.376 4.99841 135.946 5.12441 136.378 5.37641C136.81 5.62841 137.116 5.92841 137.296 6.27641L137.53 5.23241ZM148.01 13.9984H145.94L147.056 8.81441C147.104 8.55041 147.128 8.36441 147.128 8.25641C147.128 7.81241 146.996 7.46441 146.732 7.21241C146.48 6.96041 146.12 6.83441 145.652 6.83441C145.1 6.83441 144.644 7.03241 144.284 7.42841C143.924 7.82441 143.678 8.31641 143.546 8.90441L142.448 13.9984H140.378L141.908 6.74441C142.04 6.13241 142.106 5.62841 142.106 5.23241H144.122C144.122 5.55641 144.092 5.86241 144.032 6.15041C144.608 5.37041 145.472 4.98041 146.624 4.98041C147.428 4.98041 148.07 5.23241 148.55 5.73641C149.03 6.22841 149.27 6.88241 149.27 7.69841C149.27 8.03441 149.234 8.35841 149.162 8.67041L148.01 13.9984ZM160.107 6.83441C159.315 6.83441 158.685 7.18241 158.217 7.87841C157.749 8.57441 157.515 9.36041 157.515 10.2364C157.515 10.8844 157.677 11.4064 158.001 11.8024C158.337 12.1864 158.799 12.3784 159.387 12.3784C160.107 12.3784 160.713 12.0484 161.205 11.3884C161.697 10.7284 161.943 9.88841 161.943 8.86841C161.943 8.25641 161.781 7.76441 161.457 7.39241C161.145 7.02041 160.695 6.83441 160.107 6.83441ZM162.807 5.23241H164.841L163.419 11.9104C163.299 12.5104 163.239 13.0624 163.239 13.5664C163.239 13.7224 163.245 13.8664 163.257 13.9984H161.313C161.301 13.8904 161.295 13.7704 161.295 13.6384C161.295 13.4224 161.307 13.1824 161.331 12.9184C160.683 13.7464 159.879 14.1604 158.919 14.1604C157.827 14.1604 156.969 13.8004 156.345 13.0804C155.733 12.3484 155.427 11.4184 155.427 10.2904C155.427 8.81441 155.853 7.56641 156.705 6.54641C157.569 5.51441 158.649 4.99841 159.945 4.99841C160.653 4.99841 161.223 5.12441 161.655 5.37641C162.087 5.62841 162.393 5.92841 162.573 6.27641L162.807 5.23241ZM171.937 5.23241H174.133L174.871 11.2624L177.841 5.23241H180.037L175.465 13.9984H173.377L172.585 7.73441L169.327 13.9984H167.167L166.303 5.23241H168.301L168.805 11.2444L171.937 5.23241ZM182.076 8.65241H186.288C186.288 8.64041 186.288 8.60441 186.288 8.54441C186.3 8.47241 186.306 8.41841 186.306 8.38241C186.306 7.93841 186.162 7.54841 185.874 7.21241C185.586 6.87641 185.136 6.70841 184.524 6.70841C183.9 6.70841 183.378 6.89441 182.958 7.26641C182.538 7.63841 182.244 8.10041 182.076 8.65241ZM188.088 10.1824H181.842C181.83 10.2424 181.824 10.3084 181.824 10.3804C181.824 11.0044 182.016 11.5144 182.4 11.9104C182.796 12.2944 183.294 12.4864 183.894 12.4864C184.434 12.4864 184.89 12.3664 185.262 12.1264C185.646 11.8864 185.934 11.5804 186.126 11.2084L187.728 12.0904C187.404 12.7144 186.9 13.2364 186.216 13.6564C185.544 14.0644 184.752 14.2684 183.84 14.2684C182.712 14.2684 181.758 13.9084 180.978 13.1884C180.21 12.4564 179.826 11.4784 179.826 10.2544C179.826 8.68241 180.3 7.41041 181.248 6.43841C182.208 5.45441 183.318 4.96241 184.578 4.96241C185.754 4.96241 186.672 5.29841 187.332 5.97041C188.004 6.63041 188.34 7.50041 188.34 8.58041C188.34 9.12041 188.256 9.65441 188.088 10.1824ZM189.063 11.2804L190.863 10.9384C190.863 11.4184 191.001 11.8204 191.277 12.1444C191.565 12.4684 191.961 12.6304 192.465 12.6304C192.861 12.6304 193.167 12.5344 193.383 12.3424C193.599 12.1384 193.707 11.8984 193.707 11.6224C193.707 11.2144 193.461 10.9024 192.969 10.6864L191.853 10.2004C190.701 9.69641 190.125 8.91041 190.125 7.84241C190.125 7.06241 190.425 6.39041 191.025 5.82641C191.637 5.25041 192.429 4.96241 193.401 4.96241C193.989 4.96241 194.499 5.05241 194.931 5.23241C195.363 5.40041 195.693 5.62841 195.921 5.91641C196.149 6.20441 196.317 6.48641 196.425 6.76241C196.533 7.02641 196.593 7.29641 196.605 7.57241L194.787 7.95041C194.763 7.60241 194.637 7.29041 194.409 7.01441C194.181 6.72641 193.809 6.58241 193.293 6.58241C192.933 6.58241 192.645 6.67841 192.429 6.87041C192.213 7.06241 192.105 7.29641 192.105 7.57241C192.105 7.96841 192.309 8.25641 192.717 8.43641L193.869 8.94041C195.129 9.49241 195.759 10.3264 195.759 11.4424C195.759 12.1624 195.471 12.8164 194.895 13.4044C194.331 13.9804 193.515 14.2684 192.447 14.2684C191.799 14.2684 191.241 14.1664 190.773 13.9624C190.305 13.7584 189.951 13.4944 189.711 13.1704C189.483 12.8344 189.321 12.5104 189.225 12.1984C189.117 11.8864 189.063 11.5804 189.063 11.2804ZM202.137 6.83441C201.417 6.83441 200.799 7.14041 200.283 7.75241C199.767 8.36441 199.509 9.15641 199.509 10.1284C199.509 10.8124 199.689 11.3644 200.049 11.7844C200.421 12.1924 200.907 12.3964 201.507 12.3964C202.203 12.3964 202.815 12.1024 203.343 11.5144C203.871 10.9264 204.135 10.1164 204.135 9.08441C204.135 8.38841 203.955 7.84241 203.595 7.44641C203.247 7.05041 202.761 6.84641 202.137 6.83441ZM206.241 9.01241C206.241 10.4764 205.779 11.7184 204.855 12.7384C203.943 13.7584 202.791 14.2684 201.399 14.2684C200.199 14.2684 199.233 13.8784 198.501 13.0984C197.781 12.3184 197.421 11.3524 197.421 10.2004C197.421 8.68841 197.889 7.44041 198.825 6.45641C199.761 5.46041 200.913 4.96241 202.281 4.96241C203.505 4.96241 204.471 5.34641 205.179 6.11441C205.887 6.88241 206.241 7.84841 206.241 9.01241ZM214.608 13.9984H212.538L213.654 8.68841C213.69 8.50841 213.708 8.32841 213.708 8.14841C213.708 7.74041 213.588 7.41641 213.348 7.17641C213.12 6.93641 212.778 6.81641 212.322 6.81641C211.806 6.81641 211.38 6.99641 211.044 7.35641C210.72 7.70441 210.492 8.17841 210.36 8.77841L209.244 13.9984H207.192L208.722 6.74441C208.854 6.13241 208.92 5.62841 208.92 5.23241H210.936C210.936 5.52041 210.912 5.81441 210.864 6.11441C211.476 5.35841 212.298 4.98041 213.33 4.98041C213.858 4.98041 214.314 5.10641 214.698 5.35841C215.094 5.59841 215.388 5.92841 215.58 6.34841C216.288 5.43641 217.278 4.98041 218.55 4.98041C219.306 4.98041 219.936 5.22641 220.44 5.71841C220.944 6.19841 221.196 6.84041 221.196 7.64441C221.196 7.93241 221.166 8.21441 221.106 8.49041L219.936 13.9984H217.866L219 8.68841C219.036 8.50841 219.054 8.34041 219.054 8.18441C219.054 7.76441 218.934 7.43441 218.694 7.19441C218.466 6.94241 218.124 6.81641 217.668 6.81641C217.164 6.81641 216.744 6.99641 216.408 7.35641C216.072 7.71641 215.844 8.19041 215.724 8.77841L214.608 13.9984ZM224.861 8.65241H229.073C229.073 8.64041 229.073 8.60441 229.073 8.54441C229.085 8.47241 229.091 8.41841 229.091 8.38241C229.091 7.93841 228.947 7.54841 228.659 7.21241C228.371 6.87641 227.921 6.70841 227.309 6.70841C226.685 6.70841 226.163 6.89441 225.743 7.26641C225.323 7.63841 225.029 8.10041 224.861 8.65241ZM230.873 10.1824H224.627C224.615 10.2424 224.609 10.3084 224.609 10.3804C224.609 11.0044 224.801 11.5144 225.185 11.9104C225.581 12.2944 226.079 12.4864 226.679 12.4864C227.219 12.4864 227.675 12.3664 228.047 12.1264C228.431 11.8864 228.719 11.5804 228.911 11.2084L230.513 12.0904C230.189 12.7144 229.685 13.2364 229.001 13.6564C228.329 14.0644 227.537 14.2684 226.625 14.2684C225.497 14.2684 224.543 13.9084 223.763 13.1884C222.995 12.4564 222.611 11.4784 222.611 10.2544C222.611 8.68241 223.085 7.41041 224.033 6.43841C224.993 5.45441 226.103 4.96241 227.363 4.96241C228.539 4.96241 229.457 5.29841 230.117 5.97041C230.789 6.63041 231.125 7.50041 231.125 8.58041C231.125 9.12041 231.041 9.65441 230.873 10.1824ZM242.157 6.87041C241.425 6.87041 240.801 7.17641 240.285 7.78841C239.781 8.40041 239.529 9.19241 239.529 10.1644C239.529 10.8604 239.709 11.4064 240.069 11.8024C240.429 12.1864 240.909 12.3784 241.509 12.3784C242.193 12.3784 242.805 12.0784 243.345 11.4784C243.885 10.8664 244.155 10.0504 244.155 9.03041C244.155 8.33441 243.975 7.80041 243.615 7.42841C243.255 7.05641 242.769 6.87041 242.157 6.87041ZM240.285 6.18641C240.561 5.82641 240.933 5.54441 241.401 5.34041C241.869 5.12441 242.367 5.01641 242.895 5.01641C243.987 5.01641 244.821 5.36441 245.397 6.06041C245.973 6.75641 246.261 7.65641 246.261 8.76041C246.261 10.3324 245.829 11.6404 244.965 12.6844C244.101 13.7164 243.003 14.2324 241.671 14.2324C241.059 14.2324 240.501 14.1004 239.997 13.8364C239.505 13.5724 239.139 13.2304 238.899 12.8104L237.927 17.4184H235.875L238.143 6.74441C238.275 6.13241 238.341 5.62841 238.341 5.23241H240.357C240.357 5.56841 240.333 5.88641 240.285 6.18641ZM249.304 13.9984H247.234L250.006 0.966412H252.076L249.304 13.9984ZM256.84 6.83441C256.048 6.83441 255.418 7.18241 254.95 7.87841C254.482 8.57441 254.248 9.36041 254.248 10.2364C254.248 10.8844 254.41 11.4064 254.734 11.8024C255.07 12.1864 255.532 12.3784 256.12 12.3784C256.84 12.3784 257.446 12.0484 257.938 11.3884C258.43 10.7284 258.676 9.88841 258.676 8.86841C258.676 8.25641 258.514 7.76441 258.19 7.39241C257.878 7.02041 257.428 6.83441 256.84 6.83441ZM259.54 5.23241H261.574L260.152 11.9104C260.032 12.5104 259.972 13.0624 259.972 13.5664C259.972 13.7224 259.978 13.8664 259.99 13.9984H258.046C258.034 13.8904 258.028 13.7704 258.028 13.6384C258.028 13.4224 258.04 13.1824 258.064 12.9184C257.416 13.7464 256.612 14.1604 255.652 14.1604C254.56 14.1604 253.702 13.8004 253.078 13.0804C252.466 12.3484 252.16 11.4184 252.16 10.2904C252.16 8.81441 252.586 7.56641 253.438 6.54641C254.302 5.51441 255.382 4.99841 256.678 4.99841C257.386 4.99841 257.956 5.12441 258.388 5.37641C258.82 5.62841 259.126 5.92841 259.306 6.27641L259.54 5.23241ZM271.046 7.82441L269.156 8.41841C269.06 7.97441 268.844 7.60241 268.508 7.30241C268.172 7.00241 267.728 6.85241 267.176 6.85241C266.456 6.85241 265.832 7.14641 265.304 7.73441C264.776 8.31041 264.512 9.11441 264.512 10.1464C264.512 10.8304 264.704 11.3764 265.088 11.7844C265.484 12.1924 266.006 12.3964 266.654 12.3964C267.602 12.3964 268.334 11.9104 268.85 10.9384L270.578 11.6404C270.218 12.3964 269.696 13.0264 269.012 13.5304C268.328 14.0224 267.506 14.2684 266.546 14.2684C265.31 14.2684 264.314 13.8844 263.558 13.1164C262.814 12.3484 262.442 11.3704 262.442 10.1824C262.442 8.65841 262.916 7.41041 263.864 6.43841C264.824 5.45441 265.976 4.96241 267.32 4.96241C268.412 4.96241 269.264 5.24441 269.876 5.80841C270.488 6.37241 270.878 7.04441 271.046 7.82441ZM273.992 8.65241H278.204C278.204 8.64041 278.204 8.60441 278.204 8.54441C278.216 8.47241 278.222 8.41841 278.222 8.38241C278.222 7.93841 278.078 7.54841 277.79 7.21241C277.502 6.87641 277.052 6.70841 276.44 6.70841C275.816 6.70841 275.294 6.89441 274.874 7.26641C274.454 7.63841 274.16 8.10041 273.992 8.65241ZM280.004 10.1824H273.758C273.746 10.2424 273.74 10.3084 273.74 10.3804C273.74 11.0044 273.932 11.5144 274.316 11.9104C274.712 12.2944 275.21 12.4864 275.81 12.4864C276.35 12.4864 276.806 12.3664 277.178 12.1264C277.562 11.8864 277.85 11.5804 278.042 11.2084L279.644 12.0904C279.32 12.7144 278.816 13.2364 278.132 13.6564C277.46 14.0644 276.668 14.2684 275.756 14.2684C274.628 14.2684 273.674 13.9084 272.894 13.1884C272.126 12.4564 271.742 11.4784 271.742 10.2544C271.742 8.68241 272.216 7.41041 273.164 6.43841C274.124 5.45441 275.234 4.96241 276.494 4.96241C277.67 4.96241 278.588 5.29841 279.248 5.97041C279.92 6.63041 280.256 7.50041 280.256 8.58041C280.256 9.12041 280.172 9.65441 280.004 10.1824ZM282.563 14.1064C282.167 14.1064 281.843 13.9804 281.591 13.7284C281.339 13.4644 281.213 13.1524 281.213 12.7924C281.213 12.3604 281.375 11.9884 281.699 11.6764C282.023 11.3524 282.407 11.1904 282.851 11.1904C283.247 11.1904 283.565 11.3164 283.805 11.5684C284.057 11.8204 284.183 12.1264 284.183 12.4864C284.183 12.9304 284.021 13.3144 283.697 13.6384C283.385 13.9504 283.007 14.1064 282.563 14.1064ZM293.151 13.9984H290.991L293.691 1.23641H301.557L301.125 3.27041H295.419L294.663 6.85241H299.775L299.361 8.85041H294.249L293.151 13.9984ZM305.426 6.83441C304.706 6.83441 304.088 7.14041 303.572 7.75241C303.056 8.36441 302.798 9.15641 302.798 10.1284C302.798 10.8124 302.978 11.3644 303.338 11.7844C303.71 12.1924 304.196 12.3964 304.796 12.3964C305.492 12.3964 306.104 12.1024 306.632 11.5144C307.16 10.9264 307.424 10.1164 307.424 9.08441C307.424 8.38841 307.244 7.84241 306.884 7.44641C306.536 7.05041 306.05 6.84641 305.426 6.83441ZM309.53 9.01241C309.53 10.4764 309.068 11.7184 308.144 12.7384C307.232 13.7584 306.08 14.2684 304.688 14.2684C303.488 14.2684 302.522 13.8784 301.79 13.0984C301.07 12.3184 300.71 11.3524 300.71 10.2004C300.71 8.68841 301.178 7.44041 302.114 6.45641C303.05 5.46041 304.202 4.96241 305.57 4.96241C306.794 4.96241 307.76 5.34641 308.468 6.11441C309.176 6.88241 309.53 7.84841 309.53 9.01241ZM315.34 6.83441C314.62 6.83441 314.002 7.14041 313.486 7.75241C312.97 8.36441 312.712 9.15641 312.712 10.1284C312.712 10.8124 312.892 11.3644 313.252 11.7844C313.624 12.1924 314.11 12.3964 314.71 12.3964C315.406 12.3964 316.018 12.1024 316.546 11.5144C317.074 10.9264 317.338 10.1164 317.338 9.08441C317.338 8.38841 317.158 7.84241 316.798 7.44641C316.45 7.05041 315.964 6.84641 315.34 6.83441ZM319.444 9.01241C319.444 10.4764 318.982 11.7184 318.058 12.7384C317.146 13.7584 315.994 14.2684 314.602 14.2684C313.402 14.2684 312.436 13.8784 311.704 13.0984C310.984 12.3184 310.624 11.3524 310.624 10.2004C310.624 8.68841 311.092 7.44041 312.028 6.45641C312.964 5.46041 314.116 4.96241 315.484 4.96241C316.708 4.96241 317.674 5.34641 318.382 6.11441C319.09 6.88241 319.444 7.84841 319.444 9.01241ZM330.853 0.966412L328.531 11.9104C328.399 12.5704 328.333 13.1224 328.333 13.5664C328.333 13.7704 328.339 13.9144 328.351 13.9984H326.425C326.413 13.8904 326.407 13.7404 326.407 13.5484C326.407 13.3444 326.419 13.1344 326.443 12.9184C325.795 13.7464 324.991 14.1604 324.031 14.1604C322.939 14.1604 322.081 13.8004 321.457 13.0804C320.845 12.3484 320.539 11.4184 320.539 10.2904C320.539 8.81441 320.965 7.56641 321.817 6.54641C322.681 5.51441 323.761 4.99841 325.057 4.99841C326.329 4.99841 327.199 5.41241 327.667 6.24041L328.783 0.966412H330.853ZM325.219 6.83441C324.427 6.83441 323.797 7.18241 323.329 7.87841C322.861 8.57441 322.627 9.36041 322.627 10.2364C322.627 10.8844 322.789 11.4064 323.113 11.8024C323.449 12.1864 323.911 12.3784 324.499 12.3784C325.219 12.3784 325.825 12.0484 326.317 11.3884C326.809 10.7284 327.055 9.88841 327.055 8.86841C327.055 8.25641 326.893 7.76441 326.569 7.39241C326.257 7.02041 325.807 6.83441 325.219 6.83441ZM337.637 2.24441C337.637 1.83641 337.787 1.48841 338.087 1.20041C338.387 0.912413 338.735 0.768413 339.131 0.768413C339.491 0.768413 339.785 0.882413 340.013 1.11041C340.241 1.33841 340.355 1.62041 340.355 1.95641C340.355 2.37641 340.205 2.73041 339.905 3.01841C339.605 3.30641 339.257 3.45041 338.861 3.45041C338.501 3.45041 338.207 3.33641 337.979 3.10841C337.751 2.86841 337.637 2.58041 337.637 2.24441ZM337.529 13.9984H335.459L337.331 5.23241H339.401L337.529 13.9984ZM340.041 11.2804L341.841 10.9384C341.841 11.4184 341.979 11.8204 342.255 12.1444C342.543 12.4684 342.939 12.6304 343.443 12.6304C343.839 12.6304 344.145 12.5344 344.361 12.3424C344.577 12.1384 344.685 11.8984 344.685 11.6224C344.685 11.2144 344.439 10.9024 343.947 10.6864L342.831 10.2004C341.679 9.69641 341.103 8.91041 341.103 7.84241C341.103 7.06241 341.403 6.39041 342.003 5.82641C342.615 5.25041 343.407 4.96241 344.379 4.96241C344.967 4.96241 345.477 5.05241 345.909 5.23241C346.341 5.40041 346.671 5.62841 346.899 5.91641C347.127 6.20441 347.295 6.48641 347.403 6.76241C347.511 7.02641 347.571 7.29641 347.583 7.57241L345.765 7.95041C345.741 7.60241 345.615 7.29041 345.387 7.01441C345.159 6.72641 344.787 6.58241 344.271 6.58241C343.911 6.58241 343.623 6.67841 343.407 6.87041C343.191 7.06241 343.083 7.29641 343.083 7.57241C343.083 7.96841 343.287 8.25641 343.695 8.43641L344.847 8.94041C346.107 9.49241 346.737 10.3264 346.737 11.4424C346.737 12.1624 346.449 12.8164 345.873 13.4044C345.309 13.9804 344.493 14.2684 343.425 14.2684C342.777 14.2684 342.219 14.1664 341.751 13.9624C341.283 13.7584 340.929 13.4944 340.689 13.1704C340.461 12.8344 340.299 12.5104 340.203 12.1984C340.095 11.8864 340.041 11.5804 340.041 11.2804ZM3.394 37.6524H7.606C7.606 37.6404 7.606 37.6044 7.606 37.5444C7.618 37.4724 7.624 37.4184 7.624 37.3824C7.624 36.9384 7.48 36.5484 7.192 36.2124C6.904 35.8764 6.454 35.7084 5.842 35.7084C5.218 35.7084 4.696 35.8944 4.276 36.2664C3.856 36.6384 3.562 37.1004 3.394 37.6524ZM9.406 39.1824H3.16C3.148 39.2424 3.142 39.3084 3.142 39.3804C3.142 40.0044 3.334 40.5144 3.718 40.9104C4.114 41.2944 4.612 41.4864 5.212 41.4864C5.752 41.4864 6.208 41.3664 6.58 41.1264C6.964 40.8864 7.252 40.5804 7.444 40.2084L9.046 41.0904C8.722 41.7144 8.218 42.2364 7.534 42.6564C6.862 43.0644 6.07 43.2684 5.158 43.2684C4.03 43.2684 3.076 42.9084 2.296 42.1884C1.528 41.4564 1.144 40.4784 1.144 39.2544C1.144 37.6824 1.618 36.4104 2.566 35.4384C3.526 34.4544 4.636 33.9624 5.896 33.9624C7.072 33.9624 7.99 34.2984 8.65 34.9704C9.322 35.6304 9.658 36.5004 9.658 37.5804C9.658 38.1204 9.574 38.6544 9.406 39.1824ZM19.5877 34.2324L14.4577 42.9984H12.4057L10.8577 34.2324H12.9997L13.8637 40.4964L17.2657 34.2324H19.5877ZM21.5698 37.6524H25.7818C25.7818 37.6404 25.7818 37.6044 25.7818 37.5444C25.7938 37.4724 25.7998 37.4184 25.7998 37.3824C25.7998 36.9384 25.6558 36.5484 25.3678 36.2124C25.0798 35.8764 24.6298 35.7084 24.0178 35.7084C23.3938 35.7084 22.8718 35.8944 22.4518 36.2664C22.0318 36.6384 21.7378 37.1004 21.5698 37.6524ZM27.5818 39.1824H21.3358C21.3238 39.2424 21.3178 39.3084 21.3178 39.3804C21.3178 40.0044 21.5098 40.5144 21.8938 40.9104C22.2898 41.2944 22.7878 41.4864 23.3878 41.4864C23.9278 41.4864 24.3838 41.3664 24.7558 41.1264C25.1398 40.8864 25.4278 40.5804 25.6198 40.2084L27.2218 41.0904C26.8978 41.7144 26.3938 42.2364 25.7098 42.6564C25.0378 43.0644 24.2458 43.2684 23.3338 43.2684C22.2058 43.2684 21.2518 42.9084 20.4718 42.1884C19.7038 41.4564 19.3198 40.4784 19.3198 39.2544C19.3198 37.6824 19.7938 36.4104 20.7418 35.4384C21.7018 34.4544 22.8118 33.9624 24.0718 33.9624C25.2478 33.9624 26.1658 34.2984 26.8258 34.9704C27.4978 35.6304 27.8338 36.5004 27.8338 37.5804C27.8338 38.1204 27.7498 38.6544 27.5818 39.1824ZM35.271 36.3564C34.995 36.2964 34.749 36.2664 34.533 36.2664C33.069 36.2664 32.145 37.1424 31.761 38.8944L30.879 42.9984H28.827L30.357 35.7444C30.489 35.1324 30.555 34.6284 30.555 34.2324H32.571C32.571 34.7124 32.529 35.1144 32.445 35.4384C33.021 34.5744 33.903 34.1424 35.091 34.1424C35.331 34.1424 35.541 34.1604 35.721 34.1964L35.271 36.3564ZM37.7432 46.4184H35.4212L38.5712 41.5584L36.5372 34.2324H38.7512L40.1012 39.4164L43.2512 34.2324H45.6272L37.7432 46.4184ZM46.4459 41.0184C46.4459 40.7304 46.4939 40.3764 46.5899 39.9564L47.4179 36.0864H45.8339L46.2299 34.2324H46.5539C47.5019 34.2324 48.0839 33.7584 48.2999 32.8104L48.5699 31.5504H50.4599L49.8659 34.2324H51.6119L51.2159 36.0864H49.4879L48.6239 40.1724C48.5879 40.3164 48.5699 40.4484 48.5699 40.5684C48.5699 41.0604 48.8879 41.3064 49.5239 41.3064C49.7159 41.3064 49.9199 41.2884 50.1359 41.2524L49.7939 42.9264C49.5179 43.0464 49.1699 43.1064 48.7499 43.1064C48.0419 43.1064 47.4779 42.9204 47.0579 42.5484C46.6499 42.1764 46.4459 41.6664 46.4459 41.0184ZM59.5215 42.9984H57.4515L58.5675 37.8144C58.6155 37.5504 58.6395 37.3644 58.6395 37.2564C58.6395 36.8124 58.5075 36.4644 58.2435 36.2124C57.9915 35.9604 57.6315 35.8344 57.1635 35.8344C56.6115 35.8344 56.1555 36.0324 55.7955 36.4284C55.4355 36.8244 55.1895 37.3164 55.0575 37.9044L53.9595 42.9984H51.8895L54.6435 29.9664H56.7315L55.6695 34.9524C56.2335 34.3044 57.0315 33.9804 58.0635 33.9804C58.9035 33.9804 59.5635 34.2264 60.0435 34.7184C60.5355 35.1984 60.7815 35.8464 60.7815 36.6624C60.7815 37.0344 60.7515 37.3404 60.6915 37.5804L59.5215 42.9984ZM64.2796 31.2444C64.2796 30.8364 64.4296 30.4884 64.7296 30.2004C65.0296 29.9124 65.3776 29.7684 65.7736 29.7684C66.1336 29.7684 66.4276 29.8824 66.6556 30.1104C66.8836 30.3384 66.9976 30.6204 66.9976 30.9564C66.9976 31.3764 66.8476 31.7304 66.5476 32.0184C66.2476 32.3064 65.8996 32.4504 65.5036 32.4504C65.1436 32.4504 64.8496 32.3364 64.6216 32.1084C64.3936 31.8684 64.2796 31.5804 64.2796 31.2444ZM64.1716 42.9984H62.1016L63.9736 34.2324H66.0436L64.1716 42.9984ZM74.586 42.9984H72.516L73.632 37.8144C73.68 37.5504 73.704 37.3644 73.704 37.2564C73.704 36.8124 73.572 36.4644 73.308 36.2124C73.056 35.9604 72.696 35.8344 72.228 35.8344C71.676 35.8344 71.22 36.0324 70.86 36.4284C70.5 36.8244 70.254 37.3164 70.122 37.9044L69.024 42.9984H66.954L68.484 35.7444C68.616 35.1324 68.682 34.6284 68.682 34.2324H70.698C70.698 34.5564 70.668 34.8624 70.608 35.1504C71.184 34.3704 72.048 33.9804 73.2 33.9804C74.004 33.9804 74.646 34.2324 75.126 34.7364C75.606 35.2284 75.846 35.8824 75.846 36.6984C75.846 37.0344 75.81 37.3584 75.738 37.6704L74.586 42.9984ZM83.8089 37.7784C83.8089 37.2504 83.6409 36.8004 83.3049 36.4284C82.9689 36.0564 82.5009 35.8704 81.9009 35.8704C81.1809 35.8704 80.5809 36.1344 80.1009 36.6624C79.6329 37.1784 79.3989 37.8684 79.3989 38.7324C79.3989 39.3444 79.5669 39.8424 79.9029 40.2264C80.2389 40.6104 80.7189 40.8024 81.3429 40.8024C82.0629 40.8024 82.6509 40.5324 83.1069 39.9924C83.5749 39.4404 83.8089 38.7024 83.8089 37.7784ZM76.2489 43.4124L78.1389 42.9984C78.1389 43.6104 78.3249 44.0784 78.6969 44.4024C79.0809 44.7264 79.5489 44.8884 80.1009 44.8884C81.5769 44.8884 82.5129 44.0004 82.9089 42.2244L83.0529 41.5764C82.5969 42.2124 81.8709 42.5304 80.8749 42.5304C79.7829 42.5304 78.9129 42.1884 78.2649 41.5044C77.6289 40.8084 77.3109 39.9324 77.3109 38.8764C77.3109 37.5084 77.7309 36.3624 78.5709 35.4384C79.4109 34.5144 80.4729 34.0524 81.7569 34.0524C82.3929 34.0524 82.9389 34.1724 83.3949 34.4124C83.8509 34.6404 84.1869 34.9404 84.4029 35.3124L84.6189 34.2324H86.6889L85.0329 42.2064C84.9009 42.8184 84.7149 43.3764 84.4749 43.8804C84.2349 44.3964 83.9229 44.8704 83.5389 45.3024C83.1669 45.7344 82.6869 46.0704 82.0989 46.3104C81.5109 46.5624 80.8449 46.6884 80.1009 46.6884C78.8769 46.6884 77.9289 46.3584 77.2569 45.6984C76.5849 45.0504 76.2489 44.2884 76.2489 43.4124ZM98.4606 34.2324H100.657L101.395 40.2624L104.365 34.2324H106.561L101.989 42.9984H99.9006L99.1086 36.7344L95.8506 42.9984H93.6906L92.8266 34.2324H94.8246L95.3286 40.2444L98.4606 34.2324ZM108.599 37.6524H112.811C112.811 37.6404 112.811 37.6044 112.811 37.5444C112.823 37.4724 112.829 37.4184 112.829 37.3824C112.829 36.9384 112.685 36.5484 112.397 36.2124C112.109 35.8764 111.659 35.7084 111.047 35.7084C110.423 35.7084 109.901 35.8944 109.481 36.2664C109.061 36.6384 108.767 37.1004 108.599 37.6524ZM114.611 39.1824H108.365C108.353 39.2424 108.347 39.3084 108.347 39.3804C108.347 40.0044 108.539 40.5144 108.923 40.9104C109.319 41.2944 109.817 41.4864 110.417 41.4864C110.957 41.4864 111.413 41.3664 111.785 41.1264C112.169 40.8864 112.457 40.5804 112.649 40.2084L114.251 41.0904C113.927 41.7144 113.423 42.2364 112.739 42.6564C112.067 43.0644 111.275 43.2684 110.363 43.2684C109.235 43.2684 108.281 42.9084 107.501 42.1884C106.733 41.4564 106.349 40.4784 106.349 39.2544C106.349 37.6824 106.823 36.4104 107.771 35.4384C108.731 34.4544 109.841 33.9624 111.101 33.9624C112.277 33.9624 113.195 34.2984 113.855 34.9704C114.527 35.6304 114.863 36.5004 114.863 37.5804C114.863 38.1204 114.779 38.6544 114.611 39.1824ZM125.338 35.8344C124.546 35.8344 123.916 36.1824 123.448 36.8784C122.98 37.5744 122.746 38.3604 122.746 39.2364C122.746 39.8844 122.908 40.4064 123.232 40.8024C123.568 41.1864 124.03 41.3784 124.618 41.3784C125.338 41.3784 125.944 41.0484 126.436 40.3884C126.928 39.7284 127.174 38.8884 127.174 37.8684C127.174 37.2564 127.012 36.7644 126.688 36.3924C126.376 36.0204 125.926 35.8344 125.338 35.8344ZM128.038 34.2324H130.072L128.65 40.9104C128.53 41.5104 128.47 42.0624 128.47 42.5664C128.47 42.7224 128.476 42.8664 128.488 42.9984H126.544C126.532 42.8904 126.526 42.7704 126.526 42.6384C126.526 42.4224 126.538 42.1824 126.562 41.9184C125.914 42.7464 125.11 43.1604 124.15 43.1604C123.058 43.1604 122.2 42.8004 121.576 42.0804C120.964 41.3484 120.658 40.4184 120.658 39.2904C120.658 37.8144 121.084 36.5664 121.936 35.5464C122.8 34.5144 123.88 33.9984 125.176 33.9984C125.884 33.9984 126.454 34.1244 126.886 34.3764C127.318 34.6284 127.624 34.9284 127.804 35.2764L128.038 34.2324ZM137.33 36.3564C137.054 36.2964 136.808 36.2664 136.592 36.2664C135.128 36.2664 134.204 37.1424 133.82 38.8944L132.938 42.9984H130.886L132.416 35.7444C132.548 35.1324 132.614 34.6284 132.614 34.2324H134.63C134.63 34.7124 134.588 35.1144 134.504 35.4384C135.08 34.5744 135.962 34.1424 137.15 34.1424C137.39 34.1424 137.6 34.1604 137.78 34.1964L137.33 36.3564ZM140.134 37.6524H144.346C144.346 37.6404 144.346 37.6044 144.346 37.5444C144.358 37.4724 144.364 37.4184 144.364 37.3824C144.364 36.9384 144.22 36.5484 143.932 36.2124C143.644 35.8764 143.194 35.7084 142.582 35.7084C141.958 35.7084 141.436 35.8944 141.016 36.2664C140.596 36.6384 140.302 37.1004 140.134 37.6524ZM146.146 39.1824H139.9C139.888 39.2424 139.882 39.3084 139.882 39.3804C139.882 40.0044 140.074 40.5144 140.458 40.9104C140.854 41.2944 141.352 41.4864 141.952 41.4864C142.492 41.4864 142.948 41.3664 143.32 41.1264C143.704 40.8864 143.992 40.5804 144.184 40.2084L145.786 41.0904C145.462 41.7144 144.958 42.2364 144.274 42.6564C143.602 43.0644 142.81 43.2684 141.898 43.2684C140.77 43.2684 139.816 42.9084 139.036 42.1884C138.268 41.4564 137.884 40.4784 137.884 39.2544C137.884 37.6824 138.358 36.4104 139.306 35.4384C140.266 34.4544 141.376 33.9624 142.636 33.9624C143.812 33.9624 144.73 34.2984 145.39 34.9704C146.062 35.6304 146.398 36.5004 146.398 37.5804C146.398 38.1204 146.314 38.6544 146.146 39.1824ZM148.705 43.1064C148.309 43.1064 147.985 42.9804 147.733 42.7284C147.481 42.4644 147.355 42.1524 147.355 41.7924C147.355 41.3604 147.517 40.9884 147.841 40.6764C148.165 40.3524 148.549 40.1904 148.993 40.1904C149.389 40.1904 149.707 40.3164 149.947 40.5684C150.199 40.8204 150.325 41.1264 150.325 41.4864C150.325 41.9304 150.163 42.3144 149.839 42.6384C149.527 42.9504 149.149 43.1064 148.705 43.1064ZM159.329 42.9984H157.133L159.833 30.2364H162.029L159.329 42.9984ZM163.235 41.0184C163.235 40.7304 163.283 40.3764 163.379 39.9564L164.207 36.0864H162.623L163.019 34.2324H163.343C164.291 34.2324 164.873 33.7584 165.089 32.8104L165.359 31.5504H167.249L166.655 34.2324H168.401L168.005 36.0864H166.277L165.413 40.1724C165.377 40.3164 165.359 40.4484 165.359 40.5684C165.359 41.0604 165.677 41.3064 166.313 41.3064C166.505 41.3064 166.709 41.2884 166.925 41.2524L166.583 42.9264C166.307 43.0464 165.959 43.1064 165.539 43.1064C164.831 43.1064 164.267 42.9204 163.847 42.5484C163.439 42.1764 163.235 41.6664 163.235 41.0184ZM170 31.4964C170 31.1124 170.144 30.7824 170.432 30.5064C170.72 30.2304 171.068 30.0924 171.476 30.0924C171.884 30.0924 172.214 30.2304 172.466 30.5064C172.718 30.7824 172.844 31.1304 172.844 31.5504C172.844 32.4744 172.502 33.2904 171.818 33.9984C171.134 34.7064 170.318 35.0844 169.37 35.1324L169.568 34.1064C170 34.0464 170.402 33.8664 170.774 33.5664C171.158 33.2544 171.398 32.9004 171.494 32.5044C171.398 32.5524 171.272 32.5764 171.116 32.5764C170.792 32.5764 170.522 32.4744 170.306 32.2704C170.102 32.0664 170 31.8084 170 31.4964ZM171.924 40.2804L173.724 39.9384C173.724 40.4184 173.862 40.8204 174.138 41.1444C174.426 41.4684 174.822 41.6304 175.326 41.6304C175.722 41.6304 176.028 41.5344 176.244 41.3424C176.46 41.1384 176.568 40.8984 176.568 40.6224C176.568 40.2144 176.322 39.9024 175.83 39.6864L174.714 39.2004C173.562 38.6964 172.986 37.9104 172.986 36.8424C172.986 36.0624 173.286 35.3904 173.886 34.8264C174.498 34.2504 175.29 33.9624 176.262 33.9624C176.85 33.9624 177.36 34.0524 177.792 34.2324C178.224 34.4004 178.554 34.6284 178.782 34.9164C179.01 35.2044 179.178 35.4864 179.286 35.7624C179.394 36.0264 179.454 36.2964 179.466 36.5724L177.648 36.9504C177.624 36.6024 177.498 36.2904 177.27 36.0144C177.042 35.7264 176.67 35.5824 176.154 35.5824C175.794 35.5824 175.506 35.6784 175.29 35.8704C175.074 36.0624 174.966 36.2964 174.966 36.5724C174.966 36.9684 175.17 37.2564 175.578 37.4364L176.73 37.9404C177.99 38.4924 178.62 39.3264 178.62 40.4424C178.62 41.1624 178.332 41.8164 177.756 42.4044C177.192 42.9804 176.376 43.2684 175.308 43.2684C174.66 43.2684 174.102 43.1664 173.634 42.9624C173.166 42.7584 172.812 42.4944 172.572 42.1704C172.344 41.8344 172.182 41.5104 172.086 41.1984C171.978 40.8864 171.924 40.5804 171.924 40.2804ZM189.656 35.8344C188.864 35.8344 188.234 36.1824 187.766 36.8784C187.298 37.5744 187.064 38.3604 187.064 39.2364C187.064 39.8844 187.226 40.4064 187.55 40.8024C187.886 41.1864 188.348 41.3784 188.936 41.3784C189.656 41.3784 190.262 41.0484 190.754 40.3884C191.246 39.7284 191.492 38.8884 191.492 37.8684C191.492 37.2564 191.33 36.7644 191.006 36.3924C190.694 36.0204 190.244 35.8344 189.656 35.8344ZM192.356 34.2324H194.39L192.968 40.9104C192.848 41.5104 192.788 42.0624 192.788 42.5664C192.788 42.7224 192.794 42.8664 192.806 42.9984H190.862C190.85 42.8904 190.844 42.7704 190.844 42.6384C190.844 42.4224 190.856 42.1824 190.88 41.9184C190.232 42.7464 189.428 43.1604 188.468 43.1604C187.376 43.1604 186.518 42.8004 185.894 42.0804C185.282 41.3484 184.976 40.4184 184.976 39.2904C184.976 37.8144 185.402 36.5664 186.254 35.5464C187.118 34.5144 188.198 33.9984 189.494 33.9984C190.202 33.9984 190.772 34.1244 191.204 34.3764C191.636 34.6284 191.942 34.9284 192.122 35.2764L192.356 34.2324ZM202.836 42.9984H200.766L201.882 37.8144C201.93 37.5504 201.954 37.3644 201.954 37.2564C201.954 36.8124 201.822 36.4644 201.558 36.2124C201.306 35.9604 200.946 35.8344 200.478 35.8344C199.926 35.8344 199.47 36.0324 199.11 36.4284C198.75 36.8244 198.504 37.3164 198.372 37.9044L197.274 42.9984H195.204L196.734 35.7444C196.866 35.1324 196.932 34.6284 196.932 34.2324H198.948C198.948 34.5564 198.918 34.8624 198.858 35.1504C199.434 34.3704 200.298 33.9804 201.45 33.9804C202.254 33.9804 202.896 34.2324 203.376 34.7364C203.856 35.2284 204.096 35.8824 204.096 36.6984C204.096 37.0344 204.06 37.3584 203.988 37.6704L202.836 42.9984ZM212.503 37.6524H216.715C216.715 37.6404 216.715 37.6044 216.715 37.5444C216.727 37.4724 216.733 37.4184 216.733 37.3824C216.733 36.9384 216.589 36.5484 216.301 36.2124C216.013 35.8764 215.563 35.7084 214.951 35.7084C214.327 35.7084 213.805 35.8944 213.385 36.2664C212.965 36.6384 212.671 37.1004 212.503 37.6524ZM218.515 39.1824H212.269C212.257 39.2424 212.251 39.3084 212.251 39.3804C212.251 40.0044 212.443 40.5144 212.827 40.9104C213.223 41.2944 213.721 41.4864 214.321 41.4864C214.861 41.4864 215.317 41.3664 215.689 41.1264C216.073 40.8864 216.361 40.5804 216.553 40.2084L218.155 41.0904C217.831 41.7144 217.327 42.2364 216.643 42.6564C215.971 43.0644 215.179 43.2684 214.267 43.2684C213.139 43.2684 212.185 42.9084 211.405 42.1884C210.637 41.4564 210.253 40.4784 210.253 39.2544C210.253 37.6824 210.727 36.4104 211.675 35.4384C212.635 34.4544 213.745 33.9624 215.005 33.9624C216.181 33.9624 217.099 34.2984 217.759 34.9704C218.431 35.6304 218.767 36.5004 218.767 37.5804C218.767 38.1204 218.683 38.6544 218.515 39.1824ZM223.437 40.1004L220.863 42.9984H218.289L222.501 38.5164L220.215 34.2324H222.483C223.335 35.9484 223.803 36.8784 223.887 37.0224L226.353 34.2324H228.945C228.897 34.2804 228.285 34.9284 227.109 36.1764C225.945 37.4124 225.183 38.2224 224.823 38.6064C225.843 40.5384 226.629 42.0024 227.181 42.9984H224.913L223.437 40.1004ZM229.821 41.0184C229.821 40.7304 229.869 40.3764 229.965 39.9564L230.793 36.0864H229.209L229.605 34.2324H229.929C230.877 34.2324 231.459 33.7584 231.675 32.8104L231.945 31.5504H233.835L233.241 34.2324H234.987L234.591 36.0864H232.863L231.999 40.1724C231.963 40.3164 231.945 40.4484 231.945 40.5684C231.945 41.0604 232.263 41.3064 232.899 41.3064C233.091 41.3064 233.295 41.2884 233.511 41.2524L233.169 42.9264C232.893 43.0464 232.545 43.1064 232.125 43.1064C231.417 43.1064 230.853 42.9204 230.433 42.5484C230.025 42.1764 229.821 41.6664 229.821 41.0184ZM237.535 37.6524H241.747C241.747 37.6404 241.747 37.6044 241.747 37.5444C241.759 37.4724 241.765 37.4184 241.765 37.3824C241.765 36.9384 241.621 36.5484 241.333 36.2124C241.045 35.8764 240.595 35.7084 239.983 35.7084C239.359 35.7084 238.837 35.8944 238.417 36.2664C237.997 36.6384 237.703 37.1004 237.535 37.6524ZM243.547 39.1824H237.301C237.289 39.2424 237.283 39.3084 237.283 39.3804C237.283 40.0044 237.475 40.5144 237.859 40.9104C238.255 41.2944 238.753 41.4864 239.353 41.4864C239.893 41.4864 240.349 41.3664 240.721 41.1264C241.105 40.8864 241.393 40.5804 241.585 40.2084L243.187 41.0904C242.863 41.7144 242.359 42.2364 241.675 42.6564C241.003 43.0644 240.211 43.2684 239.299 43.2684C238.171 43.2684 237.217 42.9084 236.437 42.1884C235.669 41.4564 235.285 40.4784 235.285 39.2544C235.285 37.6824 235.759 36.4104 236.707 35.4384C237.667 34.4544 238.777 33.9624 240.037 33.9624C241.213 33.9624 242.131 34.2984 242.791 34.9704C243.463 35.6304 243.799 36.5004 243.799 37.5804C243.799 38.1204 243.715 38.6544 243.547 39.1824ZM252.424 42.9984H250.354L251.47 37.8144C251.518 37.5504 251.542 37.3644 251.542 37.2564C251.542 36.8124 251.41 36.4644 251.146 36.2124C250.894 35.9604 250.534 35.8344 250.066 35.8344C249.514 35.8344 249.058 36.0324 248.698 36.4284C248.338 36.8244 248.092 37.3164 247.96 37.9044L246.862 42.9984H244.792L246.322 35.7444C246.454 35.1324 246.52 34.6284 246.52 34.2324H248.536C248.536 34.5564 248.506 34.8624 248.446 35.1504C249.022 34.3704 249.886 33.9804 251.038 33.9804C251.842 33.9804 252.484 34.2324 252.964 34.7364C253.444 35.2284 253.684 35.8824 253.684 36.6984C253.684 37.0344 253.648 37.3584 253.576 37.6704L252.424 42.9984ZM254.77 40.2804L256.57 39.9384C256.57 40.4184 256.708 40.8204 256.984 41.1444C257.272 41.4684 257.668 41.6304 258.172 41.6304C258.568 41.6304 258.874 41.5344 259.09 41.3424C259.306 41.1384 259.414 40.8984 259.414 40.6224C259.414 40.2144 259.168 39.9024 258.676 39.6864L257.56 39.2004C256.408 38.6964 255.832 37.9104 255.832 36.8424C255.832 36.0624 256.132 35.3904 256.732 34.8264C257.344 34.2504 258.136 33.9624 259.108 33.9624C259.696 33.9624 260.206 34.0524 260.638 34.2324C261.07 34.4004 261.4 34.6284 261.628 34.9164C261.856 35.2044 262.024 35.4864 262.132 35.7624C262.24 36.0264 262.3 36.2964 262.312 36.5724L260.494 36.9504C260.47 36.6024 260.344 36.2904 260.116 36.0144C259.888 35.7264 259.516 35.5824 259 35.5824C258.64 35.5824 258.352 35.6784 258.136 35.8704C257.92 36.0624 257.812 36.2964 257.812 36.5724C257.812 36.9684 258.016 37.2564 258.424 37.4364L259.576 37.9404C260.836 38.4924 261.466 39.3264 261.466 40.4424C261.466 41.1624 261.178 41.8164 260.602 42.4044C260.038 42.9804 259.222 43.2684 258.154 43.2684C257.506 43.2684 256.948 43.1664 256.48 42.9624C256.012 42.7584 255.658 42.4944 255.418 42.1704C255.19 41.8344 255.028 41.5104 254.932 41.1984C254.824 40.8864 254.77 40.5804 254.77 40.2804ZM265.162 31.2444C265.162 30.8364 265.312 30.4884 265.612 30.2004C265.912 29.9124 266.26 29.7684 266.656 29.7684C267.016 29.7684 267.31 29.8824 267.538 30.1104C267.766 30.3384 267.88 30.6204 267.88 30.9564C267.88 31.3764 267.73 31.7304 267.43 32.0184C267.13 32.3064 266.782 32.4504 266.386 32.4504C266.026 32.4504 265.732 32.3364 265.504 32.1084C265.276 31.8684 265.162 31.5804 265.162 31.2444ZM265.054 42.9984H262.984L264.856 34.2324H266.926L265.054 42.9984ZM272.661 35.8344C271.941 35.8344 271.323 36.1404 270.807 36.7524C270.291 37.3644 270.033 38.1564 270.033 39.1284C270.033 39.8124 270.213 40.3644 270.573 40.7844C270.945 41.1924 271.431 41.3964 272.031 41.3964C272.727 41.3964 273.339 41.1024 273.867 40.5144C274.395 39.9264 274.659 39.1164 274.659 38.0844C274.659 37.3884 274.479 36.8424 274.119 36.4464C273.771 36.0504 273.285 35.8464 272.661 35.8344ZM276.765 38.0124C276.765 39.4764 276.303 40.7184 275.379 41.7384C274.467 42.7584 273.315 43.2684 271.923 43.2684C270.723 43.2684 269.757 42.8784 269.025 42.0984C268.305 41.3184 267.945 40.3524 267.945 39.2004C267.945 37.6884 268.413 36.4404 269.349 35.4564C270.285 34.4604 271.437 33.9624 272.805 33.9624C274.029 33.9624 274.995 34.3464 275.703 35.1144C276.411 35.8824 276.765 36.8484 276.765 38.0124ZM285.348 42.9984H283.278L284.394 37.8144C284.442 37.5504 284.466 37.3644 284.466 37.2564C284.466 36.8124 284.334 36.4644 284.07 36.2124C283.818 35.9604 283.458 35.8344 282.99 35.8344C282.438 35.8344 281.982 36.0324 281.622 36.4284C281.262 36.8244 281.016 37.3164 280.884 37.9044L279.786 42.9984H277.716L279.246 35.7444C279.378 35.1324 279.444 34.6284 279.444 34.2324H281.46C281.46 34.5564 281.43 34.8624 281.37 35.1504C281.946 34.3704 282.81 33.9804 283.962 33.9804C284.766 33.9804 285.408 34.2324 285.888 34.7364C286.368 35.2284 286.608 35.8824 286.608 36.6984C286.608 37.0344 286.572 37.3584 286.5 37.6704L285.348 42.9984ZM297.481 35.8344C296.761 35.8344 296.143 36.1404 295.627 36.7524C295.111 37.3644 294.853 38.1564 294.853 39.1284C294.853 39.8124 295.033 40.3644 295.393 40.7844C295.765 41.1924 296.251 41.3964 296.851 41.3964C297.547 41.3964 298.159 41.1024 298.687 40.5144C299.215 39.9264 299.479 39.1164 299.479 38.0844C299.479 37.3884 299.299 36.8424 298.939 36.4464C298.591 36.0504 298.105 35.8464 297.481 35.8344ZM301.585 38.0124C301.585 39.4764 301.123 40.7184 300.199 41.7384C299.287 42.7584 298.135 43.2684 296.743 43.2684C295.543 43.2684 294.577 42.8784 293.845 42.0984C293.125 41.3184 292.765 40.3524 292.765 39.2004C292.765 37.6884 293.233 36.4404 294.169 35.4564C295.105 34.4604 296.257 33.9624 297.625 33.9624C298.849 33.9624 299.815 34.3464 300.523 35.1144C301.231 35.8824 301.585 36.8484 301.585 38.0124ZM308.441 36.0324H306.515L305.039 42.9984H302.933L304.409 36.0324H302.933L303.311 34.2324H304.805L305.147 32.6304C305.531 30.7824 306.629 29.8584 308.441 29.8584C309.005 29.8584 309.443 29.9484 309.755 30.1284L309.377 31.8564L309.287 31.8384C309.239 31.8144 309.149 31.7904 309.017 31.7664C308.885 31.7304 308.753 31.7124 308.621 31.7124C307.829 31.7124 307.343 32.1444 307.163 33.0084L306.893 34.2324H308.819L308.441 36.0324ZM8.668 71.9984H6.598L7.714 66.8144C7.762 66.5504 7.786 66.3644 7.786 66.2564C7.786 65.8124 7.654 65.4644 7.39 65.2124C7.138 64.9604 6.778 64.8344 6.31 64.8344C5.758 64.8344 5.302 65.0324 4.942 65.4284C4.582 65.8244 4.336 66.3164 4.204 66.9044L3.106 71.9984H1.036L2.566 64.7444C2.698 64.1324 2.764 63.6284 2.764 63.2324H4.78C4.78 63.5564 4.75 63.8624 4.69 64.1504C5.266 63.3704 6.13 62.9804 7.282 62.9804C8.086 62.9804 8.728 63.2324 9.208 63.7364C9.688 64.2284 9.928 64.8824 9.928 65.6984C9.928 66.0344 9.892 66.3584 9.82 66.6704L8.668 71.9984ZM16.072 64.8344C15.28 64.8344 14.65 65.1824 14.182 65.8784C13.714 66.5744 13.48 67.3604 13.48 68.2364C13.48 68.8844 13.642 69.4064 13.966 69.8024C14.302 70.1864 14.764 70.3784 15.352 70.3784C16.072 70.3784 16.678 70.0484 17.17 69.3884C17.662 68.7284 17.908 67.8884 17.908 66.8684C17.908 66.2564 17.746 65.7644 17.422 65.3924C17.11 65.0204 16.66 64.8344 16.072 64.8344ZM18.772 63.2324H20.806L19.384 69.9104C19.264 70.5104 19.204 71.0624 19.204 71.5664C19.204 71.7224 19.21 71.8664 19.222 71.9984H17.278C17.266 71.8904 17.26 71.7704 17.26 71.6384C17.26 71.4224 17.272 71.1824 17.296 70.9184C16.648 71.7464 15.844 72.1604 14.884 72.1604C13.792 72.1604 12.934 71.8004 12.31 71.0804C11.698 70.3484 11.392 69.4184 11.392 68.2904C11.392 66.8144 11.818 65.5664 12.67 64.5464C13.534 63.5144 14.614 62.9984 15.91 62.9984C16.618 62.9984 17.188 63.1244 17.62 63.3764C18.052 63.6284 18.358 63.9284 18.538 64.2764L18.772 63.2324ZM22.4869 70.0184C22.4869 69.7304 22.5349 69.3764 22.6309 68.9564L23.4589 65.0864H21.8749L22.2709 63.2324H22.5949C23.5429 63.2324 24.1249 62.7584 24.3409 61.8104L24.6109 60.5504H26.5009L25.9069 63.2324H27.6529L27.2569 65.0864H25.5289L24.6649 69.1724C24.6289 69.3164 24.6109 69.4484 24.6109 69.5684C24.6109 70.0604 24.9289 70.3064 25.5649 70.3064C25.7569 70.3064 25.9609 70.2884 26.1769 70.2524L25.8349 71.9264C25.5589 72.0464 25.2109 72.1064 24.7909 72.1064C24.0829 72.1064 23.5189 71.9204 23.0989 71.5484C22.6909 71.1764 22.4869 70.6664 22.4869 70.0184ZM30.0725 60.2444C30.0725 59.8364 30.2225 59.4884 30.5225 59.2004C30.8225 58.9124 31.1705 58.7684 31.5665 58.7684C31.9265 58.7684 32.2205 58.8824 32.4485 59.1104C32.6765 59.3384 32.7905 59.6204 32.7905 59.9564C32.7905 60.3764 32.6405 60.7304 32.3405 61.0184C32.0405 61.3064 31.6925 61.4504 31.2965 61.4504C30.9365 61.4504 30.6425 61.3364 30.4145 61.1084C30.1865 60.8684 30.0725 60.5804 30.0725 60.2444ZM29.9645 71.9984H27.8945L29.7665 63.2324H31.8365L29.9645 71.9984ZM37.5709 64.8344C36.8509 64.8344 36.2329 65.1404 35.7169 65.7524C35.2009 66.3644 34.9429 67.1564 34.9429 68.1284C34.9429 68.8124 35.1229 69.3644 35.4829 69.7844C35.8549 70.1924 36.3409 70.3964 36.9409 70.3964C37.6369 70.3964 38.2489 70.1024 38.7769 69.5144C39.3049 68.9264 39.5689 68.1164 39.5689 67.0844C39.5689 66.3884 39.3889 65.8424 39.0289 65.4464C38.6809 65.0504 38.1949 64.8464 37.5709 64.8344ZM41.6749 67.0124C41.6749 68.4764 41.2129 69.7184 40.2889 70.7384C39.3769 71.7584 38.2249 72.2684 36.8329 72.2684C35.6329 72.2684 34.6669 71.8784 33.9349 71.0984C33.2149 70.3184 32.8549 69.3524 32.8549 68.2004C32.8549 66.6884 33.3229 65.4404 34.2589 64.4564C35.1949 63.4604 36.3469 62.9624 37.7149 62.9624C38.9389 62.9624 39.9049 63.3464 40.6129 64.1144C41.3209 64.8824 41.6749 65.8484 41.6749 67.0124ZM50.2578 71.9984H48.1878L49.3038 66.8144C49.3518 66.5504 49.3758 66.3644 49.3758 66.2564C49.3758 65.8124 49.2438 65.4644 48.9798 65.2124C48.7278 64.9604 48.3678 64.8344 47.8998 64.8344C47.3478 64.8344 46.8918 65.0324 46.5318 65.4284C46.1718 65.8244 45.9258 66.3164 45.7938 66.9044L44.6958 71.9984H42.6258L44.1558 64.7444C44.2878 64.1324 44.3538 63.6284 44.3538 63.2324H46.3698C46.3698 63.5564 46.3398 63.8624 46.2798 64.1504C46.8558 63.3704 47.7198 62.9804 48.8718 62.9804C49.6758 62.9804 50.3178 63.2324 50.7978 63.7364C51.2778 64.2284 51.5178 64.8824 51.5178 65.6984C51.5178 66.0344 51.4818 66.3584 51.4098 66.6704L50.2578 71.9984ZM57.6619 64.8344C56.8699 64.8344 56.2399 65.1824 55.7719 65.8784C55.3039 66.5744 55.0699 67.3604 55.0699 68.2364C55.0699 68.8844 55.2319 69.4064 55.5559 69.8024C55.8919 70.1864 56.3539 70.3784 56.9419 70.3784C57.6619 70.3784 58.2679 70.0484 58.7599 69.3884C59.2519 68.7284 59.4979 67.8884 59.4979 66.8684C59.4979 66.2564 59.3359 65.7644 59.0119 65.3924C58.6999 65.0204 58.2499 64.8344 57.6619 64.8344ZM60.3619 63.2324H62.3959L60.9739 69.9104C60.8539 70.5104 60.7939 71.0624 60.7939 71.5664C60.7939 71.7224 60.7999 71.8664 60.8119 71.9984H58.8679C58.8559 71.8904 58.8499 71.7704 58.8499 71.6384C58.8499 71.4224 58.8619 71.1824 58.8859 70.9184C58.2379 71.7464 57.4339 72.1604 56.4739 72.1604C55.3819 72.1604 54.5239 71.8004 53.8999 71.0804C53.2879 70.3484 52.9819 69.4184 52.9819 68.2904C52.9819 66.8144 53.4079 65.5664 54.2599 64.5464C55.1239 63.5144 56.2039 62.9984 57.4999 62.9984C58.2079 62.9984 58.7779 63.1244 59.2099 63.3764C59.6419 63.6284 59.9479 63.9284 60.1279 64.2764L60.3619 63.2324ZM65.2438 71.9984H63.1738L65.9458 58.9664H68.0158L65.2438 71.9984ZM70.1331 60.2444C70.1331 59.8364 70.2831 59.4884 70.5831 59.2004C70.8831 58.9124 71.2311 58.7684 71.6271 58.7684C71.9871 58.7684 72.2811 58.8824 72.5091 59.1104C72.7371 59.3384 72.8511 59.6204 72.8511 59.9564C72.8511 60.3764 72.7011 60.7304 72.4011 61.0184C72.1011 61.3064 71.7531 61.4504 71.3571 61.4504C70.9971 61.4504 70.7031 61.3364 70.4751 61.1084C70.2471 60.8684 70.1331 60.5804 70.1331 60.2444ZM70.0251 71.9984H67.9551L69.8271 63.2324H71.8971L70.0251 71.9984ZM72.5375 69.2804L74.3375 68.9384C74.3375 69.4184 74.4755 69.8204 74.7515 70.1444C75.0395 70.4684 75.4355 70.6304 75.9395 70.6304C76.3355 70.6304 76.6415 70.5344 76.8575 70.3424C77.0735 70.1384 77.1815 69.8984 77.1815 69.6224C77.1815 69.2144 76.9355 68.9024 76.4435 68.6864L75.3275 68.2004C74.1755 67.6964 73.5995 66.9104 73.5995 65.8424C73.5995 65.0624 73.8995 64.3904 74.4995 63.8264C75.1115 63.2504 75.9035 62.9624 76.8755 62.9624C77.4635 62.9624 77.9735 63.0524 78.4055 63.2324C78.8375 63.4004 79.1675 63.6284 79.3955 63.9164C79.6235 64.2044 79.7915 64.4864 79.8995 64.7624C80.0075 65.0264 80.0675 65.2964 80.0795 65.5724L78.2615 65.9504C78.2375 65.6024 78.1115 65.2904 77.8835 65.0144C77.6555 64.7264 77.2835 64.5824 76.7675 64.5824C76.4075 64.5824 76.1195 64.6784 75.9035 64.8704C75.6875 65.0624 75.5795 65.2964 75.5795 65.5724C75.5795 65.9684 75.7835 66.2564 76.1915 66.4364L77.3435 66.9404C78.6035 67.4924 79.2335 68.3264 79.2335 69.4424C79.2335 70.1624 78.9455 70.8164 78.3695 71.4044C77.8055 71.9804 76.9895 72.2684 75.9215 72.2684C75.2735 72.2684 74.7155 72.1664 74.2475 71.9624C73.7795 71.7584 73.4255 71.4944 73.1855 71.1704C72.9575 70.8344 72.7955 70.5104 72.6995 70.1984C72.5915 69.8864 72.5375 69.5804 72.5375 69.2804ZM81.778 70.0184C81.778 69.7304 81.826 69.3764 81.922 68.9564L82.75 65.0864H81.166L81.562 63.2324H81.886C82.834 63.2324 83.416 62.7584 83.632 61.8104L83.902 60.5504H85.792L85.198 63.2324H86.944L86.548 65.0864H84.82L83.956 69.1724C83.92 69.3164 83.902 69.4484 83.902 69.5684C83.902 70.0604 84.22 70.3064 84.856 70.3064C85.048 70.3064 85.252 70.2884 85.468 70.2524L85.126 71.9264C84.85 72.0464 84.502 72.1064 84.082 72.1064C83.374 72.1064 82.81 71.9204 82.39 71.5484C81.982 71.1764 81.778 70.6664 81.778 70.0184ZM97.8729 65.0324H95.9469L94.4709 71.9984H92.3649L93.8409 65.0324H92.3649L92.7429 63.2324H94.2369L94.5789 61.6304C94.9629 59.7824 96.0609 58.8584 97.8729 58.8584C98.4369 58.8584 98.8749 58.9484 99.1869 59.1284L98.8089 60.8564L98.7189 60.8384C98.6709 60.8144 98.5809 60.7904 98.4489 60.7664C98.3169 60.7304 98.1849 60.7124 98.0529 60.7124C97.2609 60.7124 96.7749 61.1444 96.5949 62.0084L96.3249 63.2324H98.2509L97.8729 65.0324ZM100.513 66.6524H104.725C104.725 66.6404 104.725 66.6044 104.725 66.5444C104.737 66.4724 104.743 66.4184 104.743 66.3824C104.743 65.9384 104.599 65.5484 104.311 65.2124C104.023 64.8764 103.573 64.7084 102.961 64.7084C102.337 64.7084 101.815 64.8944 101.395 65.2664C100.975 65.6384 100.681 66.1004 100.513 66.6524ZM106.525 68.1824H100.279C100.267 68.2424 100.261 68.3084 100.261 68.3804C100.261 69.0044 100.453 69.5144 100.837 69.9104C101.233 70.2944 101.731 70.4864 102.331 70.4864C102.871 70.4864 103.327 70.3664 103.699 70.1264C104.083 69.8864 104.371 69.5804 104.563 69.2084L106.165 70.0904C105.841 70.7144 105.337 71.2364 104.653 71.6564C103.981 72.0644 103.189 72.2684 102.277 72.2684C101.149 72.2684 100.195 71.9084 99.4151 71.1884C98.6471 70.4564 98.2631 69.4784 98.2631 68.2544C98.2631 66.6824 98.7371 65.4104 99.6851 64.4384C100.645 63.4544 101.755 62.9624 103.015 62.9624C104.191 62.9624 105.109 63.2984 105.769 63.9704C106.441 64.6304 106.777 65.5004 106.777 66.5804C106.777 67.1204 106.693 67.6544 106.525 68.1824ZM110.128 66.6524H114.34C114.34 66.6404 114.34 66.6044 114.34 66.5444C114.352 66.4724 114.358 66.4184 114.358 66.3824C114.358 65.9384 114.214 65.5484 113.926 65.2124C113.638 64.8764 113.188 64.7084 112.576 64.7084C111.952 64.7084 111.43 64.8944 111.01 65.2664C110.59 65.6384 110.296 66.1004 110.128 66.6524ZM116.14 68.1824H109.894C109.882 68.2424 109.876 68.3084 109.876 68.3804C109.876 69.0044 110.068 69.5144 110.452 69.9104C110.848 70.2944 111.346 70.4864 111.946 70.4864C112.486 70.4864 112.942 70.3664 113.314 70.1264C113.698 69.8864 113.986 69.5804 114.178 69.2084L115.78 70.0904C115.456 70.7144 114.952 71.2364 114.268 71.6564C113.596 72.0644 112.804 72.2684 111.892 72.2684C110.764 72.2684 109.81 71.9084 109.03 71.1884C108.262 70.4564 107.878 69.4784 107.878 68.2544C107.878 66.6824 108.352 65.4104 109.3 64.4384C110.26 63.4544 111.37 62.9624 112.63 62.9624C113.806 62.9624 114.724 63.2984 115.384 63.9704C116.056 64.6304 116.392 65.5004 116.392 66.5804C116.392 67.1204 116.308 67.6544 116.14 68.1824ZM119.42 71.9984H117.35L120.122 58.9664H122.192L119.42 71.9984ZM124.309 60.2444C124.309 59.8364 124.459 59.4884 124.759 59.2004C125.059 58.9124 125.407 58.7684 125.803 58.7684C126.163 58.7684 126.457 58.8824 126.685 59.1104C126.913 59.3384 127.027 59.6204 127.027 59.9564C127.027 60.3764 126.877 60.7304 126.577 61.0184C126.277 61.3064 125.929 61.4504 125.533 61.4504C125.173 61.4504 124.879 61.3364 124.651 61.1084C124.423 60.8684 124.309 60.5804 124.309 60.2444ZM124.201 71.9984H122.131L124.003 63.2324H126.073L124.201 71.9984ZM134.615 71.9984H132.545L133.661 66.8144C133.709 66.5504 133.733 66.3644 133.733 66.2564C133.733 65.8124 133.601 65.4644 133.337 65.2124C133.085 64.9604 132.725 64.8344 132.257 64.8344C131.705 64.8344 131.249 65.0324 130.889 65.4284C130.529 65.8244 130.283 66.3164 130.151 66.9044L129.053 71.9984H126.983L128.513 64.7444C128.645 64.1324 128.711 63.6284 128.711 63.2324H130.727C130.727 63.5564 130.697 63.8624 130.637 64.1504C131.213 63.3704 132.077 62.9804 133.229 62.9804C134.033 62.9804 134.675 63.2324 135.155 63.7364C135.635 64.2284 135.875 64.8824 135.875 65.6984C135.875 66.0344 135.839 66.3584 135.767 66.6704L134.615 71.9984ZM143.838 66.7784C143.838 66.2504 143.67 65.8004 143.334 65.4284C142.998 65.0564 142.53 64.8704 141.93 64.8704C141.21 64.8704 140.61 65.1344 140.13 65.6624C139.662 66.1784 139.428 66.8684 139.428 67.7324C139.428 68.3444 139.596 68.8424 139.932 69.2264C140.268 69.6104 140.748 69.8024 141.372 69.8024C142.092 69.8024 142.68 69.5324 143.136 68.9924C143.604 68.4404 143.838 67.7024 143.838 66.7784ZM136.278 72.4124L138.168 71.9984C138.168 72.6104 138.354 73.0784 138.726 73.4024C139.11 73.7264 139.578 73.8884 140.13 73.8884C141.606 73.8884 142.542 73.0004 142.938 71.2244L143.082 70.5764C142.626 71.2124 141.9 71.5304 140.904 71.5304C139.812 71.5304 138.942 71.1884 138.294 70.5044C137.658 69.8084 137.34 68.9324 137.34 67.8764C137.34 66.5084 137.76 65.3624 138.6 64.4384C139.44 63.5144 140.502 63.0524 141.786 63.0524C142.422 63.0524 142.968 63.1724 143.424 63.4124C143.88 63.6404 144.216 63.9404 144.432 64.3124L144.648 63.2324H146.718L145.062 71.2064C144.93 71.8184 144.744 72.3764 144.504 72.8804C144.264 73.3964 143.952 73.8704 143.568 74.3024C143.196 74.7344 142.716 75.0704 142.128 75.3104C141.54 75.5624 140.874 75.6884 140.13 75.6884C138.906 75.6884 137.958 75.3584 137.286 74.6984C136.614 74.0504 136.278 73.2884 136.278 72.4124ZM147.551 70.8644C147.551 70.4204 147.707 70.0544 148.019 69.7664C148.331 69.4664 148.715 69.3164 149.171 69.3164C149.627 69.3164 149.993 69.4664 150.269 69.7664C150.557 70.0664 150.701 70.4624 150.701 70.9544C150.701 72.0104 150.329 72.9284 149.585 73.7084C148.841 74.4884 147.929 74.9084 146.849 74.9684L147.083 73.8704C147.563 73.7984 148.013 73.5824 148.433 73.2224C148.853 72.8744 149.111 72.4724 149.207 72.0164C149.111 72.0644 148.973 72.0884 148.793 72.0884C148.433 72.0884 148.133 71.9744 147.893 71.7464C147.665 71.5184 147.551 71.2244 147.551 70.8644ZM159.716 66.6524H163.928C163.928 66.6404 163.928 66.6044 163.928 66.5444C163.94 66.4724 163.946 66.4184 163.946 66.3824C163.946 65.9384 163.802 65.5484 163.514 65.2124C163.226 64.8764 162.776 64.7084 162.164 64.7084C161.54 64.7084 161.018 64.8944 160.598 65.2664C160.178 65.6384 159.884 66.1004 159.716 66.6524ZM165.728 68.1824H159.482C159.47 68.2424 159.464 68.3084 159.464 68.3804C159.464 69.0044 159.656 69.5144 160.04 69.9104C160.436 70.2944 160.934 70.4864 161.534 70.4864C162.074 70.4864 162.53 70.3664 162.902 70.1264C163.286 69.8864 163.574 69.5804 163.766 69.2084L165.368 70.0904C165.044 70.7144 164.54 71.2364 163.856 71.6564C163.184 72.0644 162.392 72.2684 161.48 72.2684C160.352 72.2684 159.398 71.9084 158.618 71.1884C157.85 70.4564 157.466 69.4784 157.466 68.2544C157.466 66.6824 157.94 65.4104 158.888 64.4384C159.848 63.4544 160.958 62.9624 162.218 62.9624C163.394 62.9624 164.312 63.2984 164.972 63.9704C165.644 64.6304 165.98 65.5004 165.98 66.5804C165.98 67.1204 165.896 67.6544 165.728 68.1824ZM167.735 70.0184C167.735 69.7304 167.783 69.3764 167.879 68.9564L168.707 65.0864H167.123L167.519 63.2324H167.843C168.791 63.2324 169.373 62.7584 169.589 61.8104L169.859 60.5504H171.749L171.155 63.2324H172.901L172.505 65.0864H170.777L169.913 69.1724C169.877 69.3164 169.859 69.4484 169.859 69.5684C169.859 70.0604 170.177 70.3064 170.813 70.3064C171.005 70.3064 171.209 70.2884 171.425 70.2524L171.083 71.9264C170.807 72.0464 170.459 72.1064 170.039 72.1064C169.331 72.1064 168.767 71.9204 168.347 71.5484C167.939 71.1764 167.735 70.6664 167.735 70.0184ZM180.811 71.9984H178.741L179.857 66.8144C179.905 66.5504 179.929 66.3644 179.929 66.2564C179.929 65.8124 179.797 65.4644 179.533 65.2124C179.281 64.9604 178.921 64.8344 178.453 64.8344C177.901 64.8344 177.445 65.0324 177.085 65.4284C176.725 65.8244 176.479 66.3164 176.347 66.9044L175.249 71.9984H173.179L175.933 58.9664H178.021L176.959 63.9524C177.523 63.3044 178.321 62.9804 179.353 62.9804C180.193 62.9804 180.853 63.2264 181.333 63.7184C181.825 64.1984 182.071 64.8464 182.071 65.6624C182.071 66.0344 182.041 66.3404 181.981 66.5804L180.811 71.9984ZM191.059 71.9984H188.989L190.105 66.8144C190.153 66.5504 190.177 66.3644 190.177 66.2564C190.177 65.8124 190.045 65.4644 189.781 65.2124C189.529 64.9604 189.169 64.8344 188.701 64.8344C188.149 64.8344 187.693 65.0324 187.333 65.4284C186.973 65.8244 186.727 66.3164 186.595 66.9044L185.497 71.9984H183.427L184.957 64.7444C185.089 64.1324 185.155 63.6284 185.155 63.2324H187.171C187.171 63.5564 187.141 63.8624 187.081 64.1504C187.657 63.3704 188.521 62.9804 189.673 62.9804C190.477 62.9804 191.119 63.2324 191.599 63.7364C192.079 64.2284 192.319 64.8824 192.319 65.6984C192.319 66.0344 192.283 66.3584 192.211 66.6704L191.059 71.9984ZM195.817 60.2444C195.817 59.8364 195.967 59.4884 196.267 59.2004C196.567 58.9124 196.915 58.7684 197.311 58.7684C197.671 58.7684 197.965 58.8824 198.193 59.1104C198.421 59.3384 198.535 59.6204 198.535 59.9564C198.535 60.3764 198.385 60.7304 198.085 61.0184C197.785 61.3064 197.437 61.4504 197.041 61.4504C196.681 61.4504 196.387 61.3364 196.159 61.1084C195.931 60.8684 195.817 60.5804 195.817 60.2444ZM195.709 71.9984H193.639L195.511 63.2324H197.581L195.709 71.9984ZM207.149 65.8244L205.259 66.4184C205.163 65.9744 204.947 65.6024 204.611 65.3024C204.275 65.0024 203.831 64.8524 203.279 64.8524C202.559 64.8524 201.935 65.1464 201.407 65.7344C200.879 66.3104 200.615 67.1144 200.615 68.1464C200.615 68.8304 200.807 69.3764 201.191 69.7844C201.587 70.1924 202.109 70.3964 202.757 70.3964C203.705 70.3964 204.437 69.9104 204.953 68.9384L206.681 69.6404C206.321 70.3964 205.799 71.0264 205.115 71.5304C204.431 72.0224 203.609 72.2684 202.649 72.2684C201.413 72.2684 200.417 71.8844 199.661 71.1164C198.917 70.3484 198.545 69.3704 198.545 68.1824C198.545 66.6584 199.019 65.4104 199.967 64.4384C200.927 63.4544 202.079 62.9624 203.423 62.9624C204.515 62.9624 205.367 63.2444 205.979 63.8084C206.591 64.3724 206.981 65.0444 207.149 65.8244ZM218.336 65.0324H216.41L214.934 71.9984H212.828L214.304 65.0324H212.828L213.206 63.2324H214.7L215.042 61.6304C215.426 59.7824 216.524 58.8584 218.336 58.8584C218.9 58.8584 219.338 58.9484 219.65 59.1284L219.272 60.8564L219.182 60.8384C219.134 60.8144 219.044 60.7904 218.912 60.7664C218.78 60.7304 218.648 60.7124 218.516 60.7124C217.724 60.7124 217.238 61.1444 217.058 62.0084L216.788 63.2324H218.714L218.336 65.0324ZM220.976 66.6524H225.188C225.188 66.6404 225.188 66.6044 225.188 66.5444C225.2 66.4724 225.206 66.4184 225.206 66.3824C225.206 65.9384 225.062 65.5484 224.774 65.2124C224.486 64.8764 224.036 64.7084 223.424 64.7084C222.8 64.7084 222.278 64.8944 221.858 65.2664C221.438 65.6384 221.144 66.1004 220.976 66.6524ZM226.988 68.1824H220.742C220.73 68.2424 220.724 68.3084 220.724 68.3804C220.724 69.0044 220.916 69.5144 221.3 69.9104C221.696 70.2944 222.194 70.4864 222.794 70.4864C223.334 70.4864 223.79 70.3664 224.162 70.1264C224.546 69.8864 224.834 69.5804 225.026 69.2084L226.628 70.0904C226.304 70.7144 225.8 71.2364 225.116 71.6564C224.444 72.0644 223.652 72.2684 222.74 72.2684C221.612 72.2684 220.658 71.9084 219.878 71.1884C219.11 70.4564 218.726 69.4784 218.726 68.2544C218.726 66.6824 219.2 65.4104 220.148 64.4384C221.108 63.4544 222.218 62.9624 223.478 62.9624C224.654 62.9624 225.572 63.2984 226.232 63.9704C226.904 64.6304 227.24 65.5004 227.24 66.5804C227.24 67.1204 227.156 67.6544 226.988 68.1824ZM230.591 66.6524H234.803C234.803 66.6404 234.803 66.6044 234.803 66.5444C234.815 66.4724 234.821 66.4184 234.821 66.3824C234.821 65.9384 234.677 65.5484 234.389 65.2124C234.101 64.8764 233.651 64.7084 233.039 64.7084C232.415 64.7084 231.893 64.8944 231.473 65.2664C231.053 65.6384 230.759 66.1004 230.591 66.6524ZM236.603 68.1824H230.357C230.345 68.2424 230.339 68.3084 230.339 68.3804C230.339 69.0044 230.531 69.5144 230.915 69.9104C231.311 70.2944 231.809 70.4864 232.409 70.4864C232.949 70.4864 233.405 70.3664 233.777 70.1264C234.161 69.8864 234.449 69.5804 234.641 69.2084L236.243 70.0904C235.919 70.7144 235.415 71.2364 234.731 71.6564C234.059 72.0644 233.267 72.2684 232.355 72.2684C231.227 72.2684 230.273 71.9084 229.493 71.1884C228.725 70.4564 228.341 69.4784 228.341 68.2544C228.341 66.6824 228.815 65.4104 229.763 64.4384C230.723 63.4544 231.833 62.9624 233.093 62.9624C234.269 62.9624 235.187 63.2984 235.847 63.9704C236.519 64.6304 236.855 65.5004 236.855 66.5804C236.855 67.1204 236.771 67.6544 236.603 68.1824ZM239.883 71.9984H237.812L240.585 58.9664H242.655L239.883 71.9984ZM244.772 60.2444C244.772 59.8364 244.922 59.4884 245.222 59.2004C245.522 58.9124 245.87 58.7684 246.266 58.7684C246.626 58.7684 246.92 58.8824 247.148 59.1104C247.376 59.3384 247.49 59.6204 247.49 59.9564C247.49 60.3764 247.34 60.7304 247.04 61.0184C246.74 61.3064 246.392 61.4504 245.996 61.4504C245.636 61.4504 245.342 61.3364 245.114 61.1084C244.886 60.8684 244.772 60.5804 244.772 60.2444ZM244.664 71.9984H242.594L244.466 63.2324H246.536L244.664 71.9984ZM255.078 71.9984H253.008L254.124 66.8144C254.172 66.5504 254.196 66.3644 254.196 66.2564C254.196 65.8124 254.064 65.4644 253.8 65.2124C253.548 64.9604 253.188 64.8344 252.72 64.8344C252.168 64.8344 251.712 65.0324 251.352 65.4284C250.992 65.8244 250.746 66.3164 250.614 66.9044L249.516 71.9984H247.446L248.976 64.7444C249.108 64.1324 249.174 63.6284 249.174 63.2324H251.19C251.19 63.5564 251.16 63.8624 251.1 64.1504C251.676 63.3704 252.54 62.9804 253.692 62.9804C254.496 62.9804 255.138 63.2324 255.618 63.7364C256.098 64.2284 256.338 64.8824 256.338 65.6984C256.338 66.0344 256.302 66.3584 256.23 66.6704L255.078 71.9984ZM264.301 66.7784C264.301 66.2504 264.133 65.8004 263.797 65.4284C263.461 65.0564 262.993 64.8704 262.393 64.8704C261.673 64.8704 261.073 65.1344 260.593 65.6624C260.125 66.1784 259.891 66.8684 259.891 67.7324C259.891 68.3444 260.059 68.8424 260.395 69.2264C260.731 69.6104 261.211 69.8024 261.835 69.8024C262.555 69.8024 263.143 69.5324 263.599 68.9924C264.067 68.4404 264.301 67.7024 264.301 66.7784ZM256.741 72.4124L258.631 71.9984C258.631 72.6104 258.817 73.0784 259.189 73.4024C259.573 73.7264 260.041 73.8884 260.593 73.8884C262.069 73.8884 263.005 73.0004 263.401 71.2244L263.545 70.5764C263.089 71.2124 262.363 71.5304 261.367 71.5304C260.275 71.5304 259.405 71.1884 258.757 70.5044C258.121 69.8084 257.803 68.9324 257.803 67.8764C257.803 66.5084 258.223 65.3624 259.063 64.4384C259.903 63.5144 260.965 63.0524 262.249 63.0524C262.885 63.0524 263.431 63.1724 263.887 63.4124C264.343 63.6404 264.679 63.9404 264.895 64.3124L265.111 63.2324H267.181L265.525 71.2064C265.393 71.8184 265.207 72.3764 264.967 72.8804C264.727 73.3964 264.415 73.8704 264.031 74.3024C263.659 74.7344 263.179 75.0704 262.591 75.3104C262.003 75.5624 261.337 75.6884 260.593 75.6884C259.369 75.6884 258.421 75.3584 257.749 74.6984C257.077 74.0504 256.741 73.2884 256.741 72.4124ZM268.013 70.8644C268.013 70.4204 268.169 70.0544 268.481 69.7664C268.793 69.4664 269.177 69.3164 269.633 69.3164C270.089 69.3164 270.455 69.4664 270.731 69.7664C271.019 70.0664 271.163 70.4624 271.163 70.9544C271.163 72.0104 270.791 72.9284 270.047 73.7084C269.303 74.4884 268.391 74.9084 267.311 74.9684L267.545 73.8704C268.025 73.7984 268.475 73.5824 268.895 73.2224C269.315 72.8744 269.573 72.4724 269.669 72.0164C269.573 72.0644 269.435 72.0884 269.255 72.0884C268.895 72.0884 268.595 71.9744 268.355 71.7464C268.127 71.5184 268.013 71.2244 268.013 70.8644ZM279.495 75.4184H277.173L280.323 70.5584L278.289 63.2324H280.503L281.853 68.4164L285.003 63.2324H287.379L279.495 75.4184ZM291.557 64.8344C290.837 64.8344 290.219 65.1404 289.703 65.7524C289.187 66.3644 288.929 67.1564 288.929 68.1284C288.929 68.8124 289.109 69.3644 289.469 69.7844C289.841 70.1924 290.327 70.3964 290.927 70.3964C291.623 70.3964 292.235 70.1024 292.763 69.5144C293.291 68.9264 293.555 68.1164 293.555 67.0844C293.555 66.3884 293.375 65.8424 293.015 65.4464C292.667 65.0504 292.181 64.8464 291.557 64.8344ZM295.661 67.0124C295.661 68.4764 295.199 69.7184 294.275 70.7384C293.363 71.7584 292.211 72.2684 290.819 72.2684C289.619 72.2684 288.653 71.8784 287.921 71.0984C287.201 70.3184 286.841 69.3524 286.841 68.2004C286.841 66.6884 287.309 65.4404 288.245 64.4564C289.181 63.4604 290.333 62.9624 291.701 62.9624C292.925 62.9624 293.891 63.3464 294.599 64.1144C295.307 64.8824 295.661 65.8484 295.661 67.0124ZM298.285 63.2324H300.373L299.293 68.2724C299.233 68.5484 299.203 68.7824 299.203 68.9744C299.203 69.9224 299.683 70.3964 300.643 70.3964C301.171 70.3964 301.609 70.2044 301.957 69.8204C302.305 69.4244 302.545 68.9324 302.677 68.3444L303.757 63.2324H305.809L304.405 70.0004C304.273 70.6604 304.207 71.1944 304.207 71.6024C304.207 71.7344 304.213 71.8664 304.225 71.9984H302.209C302.185 71.8544 302.173 71.6804 302.173 71.4764C302.173 71.2964 302.179 71.1524 302.191 71.0444C301.951 71.4164 301.621 71.7044 301.201 71.9084C300.793 72.1004 300.373 72.1964 299.941 72.1964C299.041 72.1964 298.339 71.9324 297.835 71.4044C297.331 70.8764 297.079 70.1864 297.079 69.3344C297.079 69.0224 297.115 68.6984 297.187 68.3624L298.285 63.2324ZM313.111 65.3564C312.835 65.2964 312.589 65.2664 312.373 65.2664C310.909 65.2664 309.985 66.1424 309.601 67.8944L308.719 71.9984H306.667L308.197 64.7444C308.329 64.1324 308.395 63.6284 308.395 63.2324H310.411C310.411 63.7124 310.369 64.1144 310.285 64.4384C310.861 63.5744 311.743 63.1424 312.931 63.1424C313.171 63.1424 313.381 63.1604 313.561 63.1964L313.111 65.3564ZM6.382 93.8704C5.65 93.8704 5.026 94.1764 4.51 94.7884C4.006 95.4004 3.754 96.1924 3.754 97.1644C3.754 97.8604 3.934 98.4064 4.294 98.8024C4.654 99.1864 5.134 99.3784 5.734 99.3784C6.418 99.3784 7.03 99.0784 7.57 98.4784C8.11 97.8664 8.38 97.0504 8.38 96.0304C8.38 95.3344 8.2 94.8004 7.84 94.4284C7.48 94.0564 6.994 93.8704 6.382 93.8704ZM4.51 93.1864C4.786 92.8264 5.158 92.5444 5.626 92.3404C6.094 92.1244 6.592 92.0164 7.12 92.0164C8.212 92.0164 9.046 92.3644 9.622 93.0604C10.198 93.7564 10.486 94.6564 10.486 95.7604C10.486 97.3324 10.054 98.6404 9.19 99.6844C8.326 100.716 7.228 101.232 5.896 101.232C5.284 101.232 4.726 101.1 4.222 100.836C3.73 100.572 3.364 100.23 3.124 99.8104L2.152 104.418H0.1L2.368 93.7444C2.5 93.1324 2.566 92.6284 2.566 92.2324H4.582C4.582 92.5684 4.558 92.8864 4.51 93.1864ZM13.853 95.6524H18.065C18.065 95.6404 18.065 95.6044 18.065 95.5444C18.077 95.4724 18.083 95.4184 18.083 95.3824C18.083 94.9384 17.939 94.5484 17.651 94.2124C17.363 93.8764 16.913 93.7084 16.301 93.7084C15.677 93.7084 15.155 93.8944 14.735 94.2664C14.315 94.6384 14.021 95.1004 13.853 95.6524ZM19.865 97.1824H13.619C13.607 97.2424 13.601 97.3084 13.601 97.3804C13.601 98.0044 13.793 98.5144 14.177 98.9104C14.573 99.2944 15.071 99.4864 15.671 99.4864C16.211 99.4864 16.667 99.3664 17.039 99.1264C17.423 98.8864 17.711 98.5804 17.903 98.2084L19.505 99.0904C19.181 99.7144 18.677 100.236 17.993 100.656C17.321 101.064 16.529 101.268 15.617 101.268C14.489 101.268 13.535 100.908 12.755 100.188C11.987 99.4564 11.603 98.4784 11.603 97.2544C11.603 95.6824 12.077 94.4104 13.025 93.4384C13.985 92.4544 15.095 91.9624 16.355 91.9624C17.531 91.9624 18.449 92.2984 19.109 92.9704C19.781 93.6304 20.117 94.5004 20.117 95.5804C20.117 96.1204 20.033 96.6544 19.865 97.1824ZM27.5542 94.3564C27.2782 94.2964 27.0322 94.2664 26.8162 94.2664C25.3522 94.2664 24.4282 95.1424 24.0442 96.8944L23.1622 100.998H21.1102L22.6402 93.7444C22.7722 93.1324 22.8382 92.6284 22.8382 92.2324H24.8542C24.8542 92.7124 24.8122 93.1144 24.7282 93.4384C25.3042 92.5744 26.1862 92.1424 27.3742 92.1424C27.6142 92.1424 27.8242 92.1604 28.0042 92.1964L27.5542 94.3564ZM27.8715 98.2804L29.6715 97.9384C29.6715 98.4184 29.8095 98.8204 30.0855 99.1444C30.3735 99.4684 30.7695 99.6304 31.2735 99.6304C31.6695 99.6304 31.9755 99.5344 32.1915 99.3424C32.4075 99.1384 32.5155 98.8984 32.5155 98.6224C32.5155 98.2144 32.2695 97.9024 31.7775 97.6864L30.6615 97.2004C29.5095 96.6964 28.9335 95.9104 28.9335 94.8424C28.9335 94.0624 29.2335 93.3904 29.8335 92.8264C30.4455 92.2504 31.2375 91.9624 32.2095 91.9624C32.7975 91.9624 33.3075 92.0524 33.7395 92.2324C34.1715 92.4004 34.5015 92.6284 34.7295 92.9164C34.9575 93.2044 35.1255 93.4864 35.2335 93.7624C35.3415 94.0264 35.4015 94.2964 35.4135 94.5724L33.5955 94.9504C33.5715 94.6024 33.4455 94.2904 33.2175 94.0144C32.9895 93.7264 32.6175 93.5824 32.1015 93.5824C31.7415 93.5824 31.4535 93.6784 31.2375 93.8704C31.0215 94.0624 30.9135 94.2964 30.9135 94.5724C30.9135 94.9684 31.1175 95.2564 31.5255 95.4364L32.6775 95.9404C33.9375 96.4924 34.5675 97.3264 34.5675 98.4424C34.5675 99.1624 34.2795 99.8164 33.7035 100.404C33.1395 100.98 32.3235 101.268 31.2555 101.268C30.6075 101.268 30.0495 101.166 29.5815 100.962C29.1135 100.758 28.7595 100.494 28.5195 100.17C28.2915 99.8344 28.1295 99.5104 28.0335 99.1984C27.9255 98.8864 27.8715 98.5804 27.8715 98.2804ZM40.9459 93.8344C40.2259 93.8344 39.6079 94.1404 39.0919 94.7524C38.5759 95.3644 38.3179 96.1564 38.3179 97.1284C38.3179 97.8124 38.4979 98.3644 38.8579 98.7844C39.2299 99.1924 39.7159 99.3964 40.3159 99.3964C41.0119 99.3964 41.6239 99.1024 42.1519 98.5144C42.6799 97.9264 42.9439 97.1164 42.9439 96.0844C42.9439 95.3884 42.7639 94.8424 42.4039 94.4464C42.0559 94.0504 41.5699 93.8464 40.9459 93.8344ZM45.0499 96.0124C45.0499 97.4764 44.5879 98.7184 43.6639 99.7384C42.7519 100.758 41.5999 101.268 40.2079 101.268C39.0079 101.268 38.0419 100.878 37.3099 100.098C36.5899 99.3184 36.2299 98.3524 36.2299 97.2004C36.2299 95.6884 36.6979 94.4404 37.6339 93.4564C38.5699 92.4604 39.7219 91.9624 41.0899 91.9624C42.3139 91.9624 43.2799 92.3464 43.9879 93.1144C44.6959 93.8824 45.0499 94.8484 45.0499 96.0124ZM53.6328 100.998H51.5628L52.6788 95.8144C52.7268 95.5504 52.7508 95.3644 52.7508 95.2564C52.7508 94.8124 52.6188 94.4644 52.3548 94.2124C52.1028 93.9604 51.7428 93.8344 51.2748 93.8344C50.7228 93.8344 50.2668 94.0324 49.9068 94.4284C49.5468 94.8244 49.3008 95.3164 49.1688 95.9044L48.0708 100.998H46.0008L47.5308 93.7444C47.6628 93.1324 47.7288 92.6284 47.7288 92.2324H49.7448C49.7448 92.5564 49.7148 92.8624 49.6548 93.1504C50.2308 92.3704 51.0948 91.9804 52.2468 91.9804C53.0508 91.9804 53.6928 92.2324 54.1728 92.7364C54.6528 93.2284 54.8928 93.8824 54.8928 94.6984C54.8928 95.0344 54.8568 95.3584 54.7848 95.6704L53.6328 100.998ZM61.0369 93.8344C60.2449 93.8344 59.6149 94.1824 59.1469 94.8784C58.6789 95.5744 58.4449 96.3604 58.4449 97.2364C58.4449 97.8844 58.6069 98.4064 58.9309 98.8024C59.2669 99.1864 59.7289 99.3784 60.3169 99.3784C61.0369 99.3784 61.6429 99.0484 62.1349 98.3884C62.6269 97.7284 62.8729 96.8884 62.8729 95.8684C62.8729 95.2564 62.7109 94.7644 62.3869 94.3924C62.0749 94.0204 61.6249 93.8344 61.0369 93.8344ZM63.7369 92.2324H65.7709L64.3489 98.9104C64.2289 99.5104 64.1689 100.062 64.1689 100.566C64.1689 100.722 64.1749 100.866 64.1869 100.998H62.2429C62.2309 100.89 62.2249 100.77 62.2249 100.638C62.2249 100.422 62.2369 100.182 62.2609 99.9184C61.6129 100.746 60.8089 101.16 59.8489 101.16C58.7569 101.16 57.8989 100.8 57.2749 100.08C56.6629 99.3484 56.3569 98.4184 56.3569 97.2904C56.3569 95.8144 56.7829 94.5664 57.6349 93.5464C58.4989 92.5144 59.5789 91.9984 60.8749 91.9984C61.5829 91.9984 62.1529 92.1244 62.5849 92.3764C63.0169 92.6284 63.3229 92.9284 63.5029 93.2764L63.7369 92.2324ZM68.6188 100.998H66.5488L69.3208 87.9664H71.3908L68.6188 100.998ZM83.6914 100.998H81.6214L82.7374 95.8144C82.7854 95.5504 82.8094 95.3644 82.8094 95.2564C82.8094 94.8124 82.6774 94.4644 82.4134 94.2124C82.1614 93.9604 81.8014 93.8344 81.3334 93.8344C80.7814 93.8344 80.3254 94.0324 79.9654 94.4284C79.6054 94.8244 79.3594 95.3164 79.2274 95.9044L78.1294 100.998H76.0594L78.8134 87.9664H80.9014L79.8394 92.9524C80.4034 92.3044 81.2014 91.9804 82.2334 91.9804C83.0734 91.9804 83.7334 92.2264 84.2134 92.7184C84.7054 93.1984 84.9514 93.8464 84.9514 94.6624C84.9514 95.0344 84.9214 95.3404 84.8614 95.5804L83.6914 100.998ZM88.4495 89.2444C88.4495 88.8364 88.5995 88.4884 88.8995 88.2004C89.1995 87.9124 89.5475 87.7684 89.9435 87.7684C90.3035 87.7684 90.5975 87.8824 90.8255 88.1104C91.0535 88.3384 91.1675 88.6204 91.1675 88.9564C91.1675 89.3764 91.0175 89.7304 90.7175 90.0184C90.4175 90.3064 90.0695 90.4504 89.6735 90.4504C89.3135 90.4504 89.0195 90.3364 88.7915 90.1084C88.5635 89.8684 88.4495 89.5804 88.4495 89.2444ZM88.3415 100.998H86.2715L88.1435 92.2324H90.2135L88.3415 100.998ZM90.8539 98.2804L92.6539 97.9384C92.6539 98.4184 92.7919 98.8204 93.0679 99.1444C93.3559 99.4684 93.7519 99.6304 94.2559 99.6304C94.6519 99.6304 94.9579 99.5344 95.1739 99.3424C95.3899 99.1384 95.4979 98.8984 95.4979 98.6224C95.4979 98.2144 95.2519 97.9024 94.7599 97.6864L93.6439 97.2004C92.4919 96.6964 91.9159 95.9104 91.9159 94.8424C91.9159 94.0624 92.2159 93.3904 92.8159 92.8264C93.4279 92.2504 94.2199 91.9624 95.1919 91.9624C95.7799 91.9624 96.2899 92.0524 96.7219 92.2324C97.1539 92.4004 97.4839 92.6284 97.7119 92.9164C97.9399 93.2044 98.1079 93.4864 98.2159 93.7624C98.3239 94.0264 98.3839 94.2964 98.3959 94.5724L96.5779 94.9504C96.5539 94.6024 96.4279 94.2904 96.1999 94.0144C95.9719 93.7264 95.5999 93.5824 95.0839 93.5824C94.7239 93.5824 94.4359 93.6784 94.2199 93.8704C94.0039 94.0624 93.8959 94.2964 93.8959 94.5724C93.8959 94.9684 94.0999 95.2564 94.5079 95.4364L95.6599 95.9404C96.9199 96.4924 97.5499 97.3264 97.5499 98.4424C97.5499 99.1624 97.2619 99.8164 96.6859 100.404C96.1219 100.98 95.3059 101.268 94.2379 101.268C93.5899 101.268 93.0319 101.166 92.5639 100.962C92.0959 100.758 91.7419 100.494 91.5019 100.17C91.2739 99.8344 91.1119 99.5104 91.0159 99.1984C90.9079 98.8864 90.8539 98.5804 90.8539 98.2804ZM100.094 99.0184C100.094 98.7304 100.142 98.3764 100.238 97.9564L101.066 94.0864H99.4824L99.8784 92.2324H100.202C101.15 92.2324 101.732 91.7584 101.948 90.8104L102.218 89.5504H104.108L103.514 92.2324H105.26L104.864 94.0864H103.136L102.272 98.1724C102.236 98.3164 102.218 98.4484 102.218 98.5684C102.218 99.0604 102.536 99.3064 103.172 99.3064C103.364 99.3064 103.568 99.2884 103.784 99.2524L103.442 100.926C103.166 101.046 102.818 101.106 102.398 101.106C101.69 101.106 101.126 100.92 100.706 100.548C100.298 100.176 100.094 99.6664 100.094 99.0184ZM110.274 93.8344C109.554 93.8344 108.936 94.1404 108.42 94.7524C107.904 95.3644 107.646 96.1564 107.646 97.1284C107.646 97.8124 107.826 98.3644 108.186 98.7844C108.558 99.1924 109.044 99.3964 109.644 99.3964C110.34 99.3964 110.952 99.1024 111.48 98.5144C112.008 97.9264 112.272 97.1164 112.272 96.0844C112.272 95.3884 112.092 94.8424 111.732 94.4464C111.384 94.0504 110.898 93.8464 110.274 93.8344ZM114.378 96.0124C114.378 97.4764 113.916 98.7184 112.992 99.7384C112.08 100.758 110.928 101.268 109.536 101.268C108.336 101.268 107.37 100.878 106.638 100.098C105.918 99.3184 105.558 98.3524 105.558 97.2004C105.558 95.6884 106.026 94.4404 106.962 93.4564C107.898 92.4604 109.05 91.9624 110.418 91.9624C111.642 91.9624 112.608 92.3464 113.316 93.1144C114.024 93.8824 114.378 94.8484 114.378 96.0124ZM121.773 94.3564C121.497 94.2964 121.251 94.2664 121.035 94.2664C119.571 94.2664 118.647 95.1424 118.263 96.8944L117.381 100.998H115.329L116.859 93.7444C116.991 93.1324 117.057 92.6284 117.057 92.2324H119.073C119.073 92.7124 119.031 93.1144 118.947 93.4384C119.523 92.5744 120.405 92.1424 121.593 92.1424C121.833 92.1424 122.043 92.1604 122.223 92.1964L121.773 94.3564ZM124.245 104.418H121.923L125.073 99.5584L123.039 92.2324H125.253L126.603 97.4164L129.753 92.2324H132.129L124.245 104.418ZM130.289 99.8644C130.289 99.4204 130.445 99.0544 130.757 98.7664C131.069 98.4664 131.453 98.3164 131.909 98.3164C132.365 98.3164 132.731 98.4664 133.007 98.7664C133.295 99.0664 133.439 99.4624 133.439 99.9544C133.439 101.01 133.067 101.928 132.323 102.708C131.579 103.488 130.667 103.908 129.587 103.968L129.821 102.87C130.301 102.798 130.751 102.582 131.171 102.222C131.591 101.874 131.849 101.472 131.945 101.016C131.849 101.064 131.711 101.088 131.531 101.088C131.171 101.088 130.871 100.974 130.631 100.746C130.403 100.518 130.289 100.224 130.289 99.8644ZM141.771 104.418H139.449L142.599 99.5584L140.565 92.2324H142.779L144.129 97.4164L147.279 92.2324H149.655L141.771 104.418ZM153.833 93.8344C153.113 93.8344 152.495 94.1404 151.979 94.7524C151.463 95.3644 151.205 96.1564 151.205 97.1284C151.205 97.8124 151.385 98.3644 151.745 98.7844C152.117 99.1924 152.603 99.3964 153.203 99.3964C153.899 99.3964 154.511 99.1024 155.039 98.5144C155.567 97.9264 155.831 97.1164 155.831 96.0844C155.831 95.3884 155.651 94.8424 155.291 94.4464C154.943 94.0504 154.457 93.8464 153.833 93.8344ZM157.937 96.0124C157.937 97.4764 157.475 98.7184 156.551 99.7384C155.639 100.758 154.487 101.268 153.095 101.268C151.895 101.268 150.929 100.878 150.197 100.098C149.477 99.3184 149.117 98.3524 149.117 97.2004C149.117 95.6884 149.585 94.4404 150.521 93.4564C151.457 92.4604 152.609 91.9624 153.977 91.9624C155.201 91.9624 156.167 92.3464 156.875 93.1144C157.583 93.8824 157.937 94.8484 157.937 96.0124ZM160.561 92.2324H162.649L161.569 97.2724C161.509 97.5484 161.479 97.7824 161.479 97.9744C161.479 98.9224 161.959 99.3964 162.919 99.3964C163.447 99.3964 163.885 99.2044 164.233 98.8204C164.581 98.4244 164.821 97.9324 164.953 97.3444L166.033 92.2324H168.085L166.681 99.0004C166.549 99.6604 166.483 100.194 166.483 100.602C166.483 100.734 166.489 100.866 166.501 100.998H164.485C164.461 100.854 164.449 100.68 164.449 100.476C164.449 100.296 164.455 100.152 164.467 100.044C164.227 100.416 163.897 100.704 163.477 100.908C163.069 101.1 162.649 101.196 162.217 101.196C161.317 101.196 160.615 100.932 160.111 100.404C159.607 99.8764 159.355 99.1864 159.355 98.3344C159.355 98.0224 159.391 97.6984 159.463 97.3624L160.561 92.2324ZM175.386 94.3564C175.11 94.2964 174.864 94.2664 174.648 94.2664C173.184 94.2664 172.26 95.1424 171.876 96.8944L170.994 100.998H168.942L170.472 93.7444C170.604 93.1324 170.67 92.6284 170.67 92.2324H172.686C172.686 92.7124 172.644 93.1144 172.56 93.4384C173.136 92.5744 174.018 92.1424 175.206 92.1424C175.446 92.1424 175.656 92.1604 175.836 92.1964L175.386 94.3564ZM185.872 93.8704C185.14 93.8704 184.516 94.1764 184 94.7884C183.496 95.4004 183.244 96.1924 183.244 97.1644C183.244 97.8604 183.424 98.4064 183.784 98.8024C184.144 99.1864 184.624 99.3784 185.224 99.3784C185.908 99.3784 186.52 99.0784 187.06 98.4784C187.6 97.8664 187.87 97.0504 187.87 96.0304C187.87 95.3344 187.69 94.8004 187.33 94.4284C186.97 94.0564 186.484 93.8704 185.872 93.8704ZM184 93.1864C184.276 92.8264 184.648 92.5444 185.116 92.3404C185.584 92.1244 186.082 92.0164 186.61 92.0164C187.702 92.0164 188.536 92.3644 189.112 93.0604C189.688 93.7564 189.976 94.6564 189.976 95.7604C189.976 97.3324 189.544 98.6404 188.68 99.6844C187.816 100.716 186.718 101.232 185.386 101.232C184.774 101.232 184.216 101.1 183.712 100.836C183.22 100.572 182.854 100.23 182.614 99.8104L181.642 104.418H179.59L181.858 93.7444C181.99 93.1324 182.056 92.6284 182.056 92.2324H184.072C184.072 92.5684 184.048 92.8864 184 93.1864ZM197.394 94.3564C197.118 94.2964 196.872 94.2664 196.656 94.2664C195.192 94.2664 194.268 95.1424 193.884 96.8944L193.002 100.998H190.95L192.48 93.7444C192.612 93.1324 192.678 92.6284 192.678 92.2324H194.694C194.694 92.7124 194.652 93.1144 194.568 93.4384C195.144 92.5744 196.026 92.1424 197.214 92.1424C197.454 92.1424 197.664 92.1604 197.844 92.1964L197.394 94.3564ZM202.665 93.8344C201.945 93.8344 201.327 94.1404 200.811 94.7524C200.295 95.3644 200.037 96.1564 200.037 97.1284C200.037 97.8124 200.217 98.3644 200.577 98.7844C200.949 99.1924 201.435 99.3964 202.035 99.3964C202.731 99.3964 203.343 99.1024 203.871 98.5144C204.399 97.9264 204.663 97.1164 204.663 96.0844C204.663 95.3884 204.483 94.8424 204.123 94.4464C203.775 94.0504 203.289 93.8464 202.665 93.8344ZM206.769 96.0124C206.769 97.4764 206.307 98.7184 205.383 99.7384C204.471 100.758 203.319 101.268 201.927 101.268C200.727 101.268 199.761 100.878 199.029 100.098C198.309 99.3184 197.949 98.3524 197.949 97.2004C197.949 95.6884 198.417 94.4404 199.353 93.4564C200.289 92.4604 201.441 91.9624 202.809 91.9624C204.033 91.9624 204.999 92.3464 205.707 93.1144C206.415 93.8824 206.769 94.8484 206.769 96.0124ZM216.551 92.2324L211.421 100.998H209.369L207.821 92.2324H209.963L210.827 98.4964L214.229 92.2324H216.551ZM218.405 89.2444C218.405 88.8364 218.555 88.4884 218.855 88.2004C219.155 87.9124 219.503 87.7684 219.899 87.7684C220.259 87.7684 220.553 87.8824 220.781 88.1104C221.009 88.3384 221.123 88.6204 221.123 88.9564C221.123 89.3764 220.973 89.7304 220.673 90.0184C220.373 90.3064 220.025 90.4504 219.629 90.4504C219.269 90.4504 218.975 90.3364 218.747 90.1084C218.519 89.8684 218.405 89.5804 218.405 89.2444ZM218.297 100.998H216.227L218.099 92.2324H220.169L218.297 100.998ZM228.711 100.998H226.641L227.757 95.8144C227.805 95.5504 227.829 95.3644 227.829 95.2564C227.829 94.8124 227.697 94.4644 227.433 94.2124C227.181 93.9604 226.821 93.8344 226.353 93.8344C225.801 93.8344 225.345 94.0324 224.985 94.4284C224.625 94.8244 224.379 95.3164 224.247 95.9044L223.149 100.998H221.079L222.609 93.7444C222.741 93.1324 222.807 92.6284 222.807 92.2324H224.823C224.823 92.5564 224.793 92.8624 224.733 93.1504C225.309 92.3704 226.173 91.9804 227.325 91.9804C228.129 91.9804 228.771 92.2324 229.251 92.7364C229.731 93.2284 229.971 93.8824 229.971 94.6984C229.971 95.0344 229.935 95.3584 229.863 95.6704L228.711 100.998ZM239.95 94.8244L238.06 95.4184C237.964 94.9744 237.748 94.6024 237.412 94.3024C237.076 94.0024 236.632 93.8524 236.08 93.8524C235.36 93.8524 234.736 94.1464 234.208 94.7344C233.68 95.3104 233.416 96.1144 233.416 97.1464C233.416 97.8304 233.608 98.3764 233.992 98.7844C234.388 99.1924 234.91 99.3964 235.558 99.3964C236.506 99.3964 237.238 98.9104 237.754 97.9384L239.482 98.6404C239.122 99.3964 238.6 100.026 237.916 100.53C237.232 101.022 236.41 101.268 235.45 101.268C234.214 101.268 233.218 100.884 232.462 100.116C231.718 99.3484 231.346 98.3704 231.346 97.1824C231.346 95.6584 231.82 94.4104 232.768 93.4384C233.728 92.4544 234.88 91.9624 236.224 91.9624C237.316 91.9624 238.168 92.2444 238.78 92.8084C239.392 93.3724 239.782 94.0444 239.95 94.8244ZM242.896 95.6524H247.108C247.108 95.6404 247.108 95.6044 247.108 95.5444C247.12 95.4724 247.126 95.4184 247.126 95.3824C247.126 94.9384 246.982 94.5484 246.694 94.2124C246.406 93.8764 245.956 93.7084 245.344 93.7084C244.72 93.7084 244.198 93.8944 243.778 94.2664C243.358 94.6384 243.064 95.1004 242.896 95.6524ZM248.908 97.1824H242.662C242.65 97.2424 242.644 97.3084 242.644 97.3804C242.644 98.0044 242.836 98.5144 243.22 98.9104C243.616 99.2944 244.114 99.4864 244.714 99.4864C245.254 99.4864 245.71 99.3664 246.082 99.1264C246.466 98.8864 246.754 98.5804 246.946 98.2084L248.548 99.0904C248.224 99.7144 247.72 100.236 247.036 100.656C246.364 101.064 245.572 101.268 244.66 101.268C243.532 101.268 242.578 100.908 241.798 100.188C241.03 99.4564 240.646 98.4784 240.646 97.2544C240.646 95.6824 241.12 94.4104 242.068 93.4384C243.028 92.4544 244.138 91.9624 245.398 91.9624C246.574 91.9624 247.492 92.2984 248.152 92.9704C248.824 93.6304 249.16 94.5004 249.16 95.5804C249.16 96.1204 249.076 96.6544 248.908 97.1824ZM251 89.4964C251 89.1124 251.132 88.7884 251.396 88.5244C251.672 88.2604 252.014 88.1284 252.422 88.1284C252.818 88.1284 253.136 88.2604 253.376 88.5244C253.628 88.7884 253.754 89.1304 253.754 89.5504C253.754 90.4504 253.418 91.2484 252.746 91.9444C252.086 92.6284 251.294 92.9884 250.37 93.0244L250.568 92.0344C250.988 91.9744 251.378 91.8004 251.738 91.5124C252.11 91.2124 252.344 90.8644 252.44 90.4684C252.392 90.5164 252.272 90.5404 252.08 90.5404C251.756 90.5404 251.492 90.4444 251.288 90.2524C251.096 90.0484 251 89.7964 251 89.4964ZM254.438 89.4964C254.438 89.1124 254.576 88.7884 254.852 88.5244C255.128 88.2604 255.47 88.1284 255.878 88.1284C256.274 88.1284 256.592 88.2604 256.832 88.5244C257.084 88.7884 257.21 89.1304 257.21 89.5504C257.21 90.4504 256.874 91.2484 256.202 91.9444C255.542 92.6284 254.744 92.9884 253.808 93.0244L254.024 92.0344C254.444 91.9744 254.834 91.8004 255.194 91.5124C255.566 91.2124 255.8 90.8644 255.896 90.4684C255.848 90.5164 255.728 90.5404 255.536 90.5404C255.212 90.5404 254.948 90.4444 254.744 90.2524C254.54 90.0484 254.438 89.7964 254.438 89.4964Z" fill="#3F3232"/>
</svg>
