<svg width="56" height="17" viewBox="0 0 56 17" fill="none" xmlns="http://www.w3.org/2000/svg">
<path d="M6.318 7.692L6.84 4.722C7.326 4.938 7.668 5.352 7.938 5.874L10.134 4.74C9.612 3.462 8.604 2.598 7.29 2.274L7.578 0.6H6.354L6.084 2.148C4.194 2.166 2.142 3.228 1.728 5.55C1.296 7.962 3.024 8.916 4.752 9.654L4.194 12.804C3.222 12.624 2.646 12.03 2.376 11.202L0.126 12.354C0.576 13.902 1.854 14.964 3.78 15.198L3.492 16.8H4.716L4.986 15.234C7.218 15.126 9 13.992 9.396 11.814C9.864 9.186 7.884 8.394 6.318 7.692ZM4.248 5.748C4.374 5.064 4.95 4.65 5.652 4.56L5.202 7.152C4.536 6.81 4.14 6.414 4.248 5.748ZM6.858 11.544C6.732 12.138 6.228 12.642 5.418 12.804L5.886 10.14C6.57 10.482 6.984 10.86 6.858 11.544ZM19.5223 2.4L15.9943 3.57L16.2283 5.784L18.7123 5.118L16.9843 15H19.4683L21.6823 2.4H19.5223ZM31.5768 5.946C32.0088 3.516 30.1908 2.148 28.0488 2.148C25.8348 2.148 23.8188 3.3 23.3868 5.73C23.1888 6.882 23.5668 7.764 24.2688 8.358C23.0268 8.988 22.2168 10.032 21.9828 11.328C21.5688 13.65 23.2248 15.252 25.9428 15.252C28.6968 15.252 30.5688 13.974 30.9828 11.652C31.2168 10.374 30.7308 9.24 29.7588 8.52C30.6948 7.98 31.3608 7.134 31.5768 5.946ZM25.8348 5.964C25.9968 5.028 26.7888 4.488 27.7248 4.488C28.6428 4.488 29.2368 5.028 29.0748 5.964C28.9308 6.882 28.1388 7.458 27.1848 7.458C26.2848 7.458 25.6908 6.882 25.8348 5.964ZM28.5888 11.166C28.3728 12.3 27.4188 12.912 26.2308 12.912C25.0788 12.912 24.2868 12.3 24.5028 11.166C24.6828 10.05 25.6908 9.438 26.8608 9.438C27.9948 9.438 28.7688 10.05 28.5888 11.166ZM33.3473 15.234C34.2833 15.234 35.0033 14.568 35.1473 13.74C35.3093 12.894 34.7333 12.174 33.8873 12.174C32.9873 12.174 32.2493 12.822 32.1053 13.668C31.9613 14.514 32.5013 15.234 33.3473 15.234ZM41.632 2.148C38.914 2.148 36.916 3.786 36.466 6.36C36.034 8.808 37.636 10.698 39.976 10.878L36.466 15H39.454L44.26 9.33C44.908 8.646 45.358 7.746 45.556 6.702C45.988 4.128 44.332 2.148 41.632 2.148ZM38.95 6.522C39.166 5.262 40.192 4.488 41.362 4.488C42.55 4.488 43.306 5.244 43.072 6.522C42.856 7.8 41.83 8.574 40.642 8.574C39.472 8.574 38.716 7.8 38.95 6.522ZM51.5813 2.148C48.8633 2.148 46.8653 3.786 46.4153 6.36C45.9833 8.808 47.5853 10.698 49.9253 10.878L46.4153 15H49.4033L54.2093 9.33C54.8573 8.646 55.3073 7.746 55.5053 6.702C55.9373 4.128 54.2812 2.148 51.5813 2.148ZM48.8993 6.522C49.1153 5.262 50.1413 4.488 51.3113 4.488C52.4993 4.488 53.2553 5.244 53.0213 6.522C52.8053 7.8 51.7793 8.574 50.5913 8.574C49.4213 8.574 48.6653 7.8 48.8993 6.522Z" fill="#FF9401"/>
</svg>
