<svg width="59" height="17" viewBox="0 0 59 17" fill="none" xmlns="http://www.w3.org/2000/svg">
<path d="M6.318 7.692L6.84 4.722C7.326 4.938 7.668 5.352 7.938 5.874L10.134 4.74C9.612 3.462 8.604 2.598 7.29 2.274L7.578 0.6H6.354L6.084 2.148C4.194 2.166 2.142 3.228 1.728 5.55C1.296 7.962 3.024 8.916 4.752 9.654L4.194 12.804C3.222 12.624 2.646 12.03 2.376 11.202L0.126 12.354C0.576 13.902 1.854 14.964 3.78 15.198L3.492 16.8H4.716L4.986 15.234C7.218 15.126 9 13.992 9.396 11.814C9.864 9.186 7.884 8.394 6.318 7.692ZM4.248 5.748C4.374 5.064 4.95 4.65 5.652 4.56L5.202 7.152C4.536 6.81 4.14 6.414 4.248 5.748ZM6.858 11.544C6.732 12.138 6.228 12.642 5.418 12.804L5.886 10.14C6.57 10.482 6.984 10.86 6.858 11.544ZM14.2663 15H22.7083L23.1223 12.606H18.5503L21.4483 10.14C22.8523 8.934 23.7883 7.818 24.0583 6.288C24.5083 3.768 22.6723 2.148 20.5843 2.148C18.7843 2.148 17.1103 3.012 15.9763 4.812L17.9563 6.09C18.5503 5.154 19.3603 4.56 20.2603 4.56C21.1603 4.56 21.7543 5.19 21.5743 6.198C21.4123 7.044 20.6563 7.872 19.6843 8.718L14.5903 13.146L14.2663 15ZM28.9626 15.252C32.1486 15.252 34.3086 12.75 34.9926 8.862C35.6766 4.974 34.2186 2.148 30.9966 2.148C27.7926 2.148 25.6326 4.632 24.9486 8.52C24.2646 12.408 25.7226 15.252 28.9626 15.252ZM29.2506 12.822C27.5586 12.822 26.9466 11.364 27.4326 8.7C27.9006 6.036 29.0166 4.56 30.6906 4.56C32.3826 4.56 32.9946 6.036 32.5086 8.7C32.0406 11.364 30.9246 12.822 29.2506 12.822ZM36.3531 15.234C37.2891 15.234 38.0091 14.568 38.1531 13.74C38.3151 12.894 37.7391 12.174 36.8931 12.174C35.9931 12.174 35.2551 12.822 35.1111 13.668C34.9671 14.514 35.5071 15.234 36.3531 15.234ZM44.6379 2.148C41.9199 2.148 39.9219 3.786 39.4719 6.36C39.0399 8.808 40.6419 10.698 42.9819 10.878L39.4719 15H42.4599L47.2659 9.33C47.9139 8.646 48.3639 7.746 48.5619 6.702C48.9939 4.128 47.3379 2.148 44.6379 2.148ZM41.9559 6.522C42.1719 5.262 43.1979 4.488 44.3679 4.488C45.5559 4.488 46.3119 5.244 46.0779 6.522C45.8619 7.8 44.8359 8.574 43.6479 8.574C42.4779 8.574 41.7219 7.8 41.9559 6.522ZM54.5871 2.148C51.8691 2.148 49.8711 3.786 49.4211 6.36C48.9891 8.808 50.5911 10.698 52.9311 10.878L49.4211 15H52.4091L57.2151 9.33C57.8631 8.646 58.3131 7.746 58.5111 6.702C58.9431 4.128 57.2871 2.148 54.5871 2.148ZM51.9051 6.522C52.1211 5.262 53.1471 4.488 54.3171 4.488C55.5051 4.488 56.2611 5.244 56.0271 6.522C55.8111 7.8 54.7851 8.574 53.5971 8.574C52.4271 8.574 51.6711 7.8 51.9051 6.522Z" fill="#FF9401"/>
</svg>
