<svg width="23" height="13" viewBox="0 0 23 13" fill="none" xmlns="http://www.w3.org/2000/svg">
<path d="M6.768 6.176C7.536 5.68 8.048 4.88 8.048 3.808C8.048 1.648 6.352 0.591999 4.496 0.591999C2.624 0.591999 0.944 1.648 0.944 3.808C0.944 4.88 1.456 5.68 2.208 6.176C1.184 6.752 0.56 7.728 0.56 8.896C0.56 10.976 2.16 12.208 4.496 12.208C6.832 12.208 8.416 10.976 8.416 8.896C8.416 7.712 7.808 6.752 6.768 6.176ZM4.496 2.336C5.424 2.336 6.208 2.848 6.208 3.888C6.208 4.88 5.424 5.44 4.496 5.44C3.552 5.44 2.784 4.88 2.784 3.888C2.784 2.848 3.552 2.336 4.496 2.336ZM4.496 10.464C3.28 10.464 2.4 9.856 2.4 8.72C2.4 7.568 3.28 6.976 4.496 6.976C5.696 6.976 6.576 7.568 6.576 8.72C6.576 9.856 5.696 10.464 4.496 10.464ZM11.0168 12.192C11.6728 12.192 12.2168 11.648 12.2168 10.992C12.2168 10.32 11.6728 9.792 11.0168 9.792C10.3448 9.792 9.81675 10.32 9.81675 10.992C9.81675 11.648 10.3448 12.192 11.0168 12.192ZM17.6025 12.208C20.4185 12.208 22.0025 9.856 22.0025 6.4C22.0025 2.944 20.4185 0.591999 17.6025 0.591999C14.7865 0.591999 13.2025 2.944 13.2025 6.4C13.2025 9.856 14.7865 12.208 17.6025 12.208ZM17.6025 10.416C15.9545 10.416 15.0425 8.976 15.0425 6.4C15.0425 3.824 15.9545 2.384 17.6025 2.384C19.2665 2.384 20.1625 3.824 20.1625 6.4C20.1625 8.976 19.2665 10.416 17.6025 10.416Z" fill="#818181"/>
</svg>
