<svg width="22" height="13" viewBox="0 0 22 13" fill="none" xmlns="http://www.w3.org/2000/svg">
<path d="M6.768 6.176C7.536 5.68 8.048 4.88 8.048 3.808C8.048 1.648 6.352 0.591999 4.496 0.591999C2.624 0.591999 0.944 1.648 0.944 3.808C0.944 4.88 1.456 5.68 2.208 6.176C1.184 6.752 0.56 7.728 0.56 8.896C0.56 10.976 2.16 12.208 4.496 12.208C6.832 12.208 8.416 10.976 8.416 8.896C8.416 7.712 7.808 6.752 6.768 6.176ZM4.496 2.336C5.424 2.336 6.208 2.848 6.208 3.888C6.208 4.88 5.424 5.44 4.496 5.44C3.552 5.44 2.784 4.88 2.784 3.888C2.784 2.848 3.552 2.336 4.496 2.336ZM4.496 10.464C3.28 10.464 2.4 9.856 2.4 8.72C2.4 7.568 3.28 6.976 4.496 6.976C5.696 6.976 6.576 7.568 6.576 8.72C6.576 9.856 5.696 10.464 4.496 10.464ZM11.0168 12.192C11.6728 12.192 12.2168 11.648 12.2168 10.992C12.2168 10.32 11.6728 9.792 11.0168 9.792C10.3448 9.792 9.81675 10.32 9.81675 10.992C9.81675 11.648 10.3448 12.192 11.0168 12.192ZM17.4469 5.024H16.0389L16.2309 2.528H20.7749V0.799999H14.5349L14.1029 6.816H17.3669C18.5829 6.816 19.4149 7.488 19.4149 8.608C19.4149 9.728 18.5829 10.416 17.3349 10.416C16.1669 10.416 15.3989 9.888 15.1109 8.896L13.5269 9.808C14.1189 11.424 15.6389 12.208 17.3349 12.208C19.3989 12.208 21.2549 10.96 21.2549 8.608C21.2549 6.272 19.4789 5.024 17.4469 5.024Z" fill="#818181"/>
</svg>
