<svg width="19" height="13" viewBox="0 0 19 13" fill="none" xmlns="http://www.w3.org/2000/svg">
<path d="M8.32 4.416C8.32 2.16 6.688 0.591999 4.368 0.591999C2.048 0.591999 0.4 2.16 0.4 4.416C0.4 6.672 2.048 8.24 4.368 8.24H4.56L2 12H4.112L7.648 6.672C8.08 6.048 8.32 5.28 8.32 4.416ZM2.24 4.416C2.24 3.136 3.152 2.336 4.368 2.336C5.584 2.336 6.48 3.136 6.48 4.416C6.48 5.696 5.584 6.496 4.368 6.496C3.152 6.496 2.24 5.68 2.24 4.416ZM8.53238 12.192C9.18838 12.192 9.73238 11.648 9.73238 10.992C9.73238 10.32 9.18838 9.792 8.53238 9.792C7.86038 9.792 7.33238 10.32 7.33238 10.992C7.33238 11.648 7.86038 12.192 8.53238 12.192ZM14.9625 5.024H13.5545L13.7465 2.528H18.2905V0.799999H12.0505L11.6185 6.816H14.8825C16.0985 6.816 16.9305 7.488 16.9305 8.608C16.9305 9.728 16.0985 10.416 14.8505 10.416C13.6825 10.416 12.9145 9.888 12.6265 8.896L11.0425 9.808C11.6345 11.424 13.1545 12.208 14.8505 12.208C16.9145 12.208 18.7705 10.96 18.7705 8.608C18.7705 6.272 16.9945 5.024 14.9625 5.024Z" fill="#818181"/>
</svg>
