<svg width="67" height="9" viewBox="0 0 67 9" fill="none" xmlns="http://www.w3.org/2000/svg">
<path d="M5.7 8L5.03 6.22H2.03L1.37 8H0.1L2.86 0.909999H4.25L7.01 8H5.7ZM3.53 2.21L2.45 5.11H4.61L3.53 2.21ZM9.15938 6.9H10.4194C11.0727 6.9 11.6094 6.69333 12.0294 6.28C12.456 5.86 12.6694 5.25667 12.6694 4.47C12.6694 3.67667 12.4594 3.07 12.0394 2.65C11.6194 2.22333 11.0827 2.01 10.4294 2.01H9.15938V6.9ZM10.4594 8H7.95938V0.909999H10.4694C11.4694 0.909999 12.2927 1.22667 12.9394 1.86C13.5927 2.49333 13.9194 3.36333 13.9194 4.47C13.9194 5.57 13.5927 6.43333 12.9394 7.06C12.286 7.68667 11.4594 8 10.4594 8ZM16.3762 6.9H17.6362C18.2895 6.9 18.8262 6.69333 19.2462 6.28C19.6728 5.86 19.8862 5.25667 19.8862 4.47C19.8862 3.67667 19.6762 3.07 19.2562 2.65C18.8362 2.22333 18.2995 2.01 17.6462 2.01H16.3762V6.9ZM17.6762 8H15.1762V0.909999H17.6862C18.6862 0.909999 19.5095 1.22667 20.1562 1.86C20.8095 2.49333 21.1362 3.36333 21.1362 4.47C21.1362 5.57 20.8095 6.43333 20.1562 7.06C19.5028 7.68667 18.6762 8 17.6762 8ZM29.9634 2.04H27.6534V8H26.4534V2.04H24.1534V0.909999H29.9634V2.04ZM32.223 2.57C31.7564 3.01667 31.523 3.64333 31.523 4.45C31.523 5.25667 31.7564 5.88667 32.223 6.34C32.6897 6.78667 33.2464 7.01 33.893 7.01C34.5397 7.01 35.0964 6.78667 35.563 6.34C36.0364 5.88667 36.273 5.25667 36.273 4.45C36.273 3.64333 36.0364 3.01667 35.563 2.57C35.0964 2.11667 34.5397 1.89 33.893 1.89C33.2464 1.89 32.6897 2.11667 32.223 2.57ZM30.803 6.43C30.463 5.85667 30.293 5.19667 30.293 4.45C30.293 3.70333 30.463 3.04667 30.803 2.48C31.1497 1.90667 31.593 1.47667 32.133 1.19C32.673 0.903333 33.2597 0.76 33.893 0.76C34.5264 0.76 35.113 0.903333 35.653 1.19C36.193 1.47667 36.6364 1.90667 36.983 2.48C37.3297 3.04667 37.503 3.70333 37.503 4.45C37.503 5.19667 37.3297 5.85667 36.983 6.43C36.6364 7.00333 36.193 7.43333 35.653 7.72C35.113 8.00667 34.5264 8.15 33.893 8.15C33.2597 8.15 32.673 8.00667 32.133 7.72C31.593 7.43333 31.1497 7.00333 30.803 6.43ZM44.4004 8.15C43.4071 8.15 42.5604 7.81333 41.8604 7.14C41.1671 6.46667 40.8204 5.57333 40.8204 4.46C40.8204 3.35333 41.1737 2.46 41.8804 1.78C42.5871 1.1 43.4237 0.76 44.3904 0.76C45.2437 0.76 45.9437 0.976666 46.4904 1.41C47.0437 1.84333 47.4071 2.39333 47.5804 3.06L46.4504 3.44C46.3371 2.98 46.1071 2.60667 45.7604 2.32C45.4137 2.03333 44.9571 1.89 44.3904 1.89C43.7571 1.89 43.2071 2.11667 42.7404 2.57C42.2804 3.01667 42.0504 3.64667 42.0504 4.46C42.0504 5.25333 42.2804 5.87667 42.7404 6.33C43.2004 6.77667 43.7537 7 44.4004 7C44.9537 7 45.4104 6.85 45.7704 6.55C46.1304 6.25 46.3771 5.88 46.5104 5.44L47.6104 5.8C47.4371 6.46 47.0704 7.01667 46.5104 7.47C45.9571 7.92333 45.2537 8.15 44.4004 8.15ZM53.4246 8L52.7546 6.22H49.7546L49.0946 8H47.8246L50.5846 0.909999H51.9746L54.7346 8H53.4246ZM51.2546 2.21L50.1746 5.11H52.3346L51.2546 2.21ZM59.264 8L57.774 5.2H56.894V8H55.684V0.909999H58.404C59.0707 0.909999 59.6073 1.11667 60.014 1.53C60.4207 1.93667 60.624 2.44667 60.624 3.06C60.624 3.56667 60.4807 4 60.194 4.36C59.9073 4.72 59.5173 4.96 59.024 5.08L60.624 8H59.264ZM56.894 4.14H58.184C58.5507 4.14 58.844 4.04333 59.064 3.85C59.2907 3.65 59.404 3.38667 59.404 3.06C59.404 2.72667 59.2907 2.46333 59.064 2.27C58.844 2.07 58.5507 1.97 58.184 1.97H56.894V4.14ZM66.9947 2.04H64.6847V8H63.4847V2.04H61.1847V0.909999H66.9947V2.04Z" fill="#696969"/>
</svg>
