<svg width="197" height="16" viewBox="0 0 197 16" fill="none" xmlns="http://www.w3.org/2000/svg">
<path d="M3.1 12.8H5.62C6.92667 12.8 8 12.3867 8.84 11.56C9.69333 10.72 10.12 9.51333 10.12 7.94C10.12 6.35333 9.7 5.14 8.86 4.3C8.02 3.44667 6.94667 3.02 5.64 3.02H3.1V12.8ZM5.7 15H0.7V0.819999H5.72C7.72 0.819999 9.36667 1.45333 10.66 2.72C11.9667 3.98667 12.62 5.72667 12.62 7.94C12.62 10.14 11.9667 11.8667 10.66 13.12C9.35333 14.3733 7.7 15 5.7 15ZM16.5927 9.06H21.3727C21.346 8.44667 21.126 7.93333 20.7127 7.52C20.3127 7.10667 19.7327 6.9 18.9727 6.9C18.2793 6.9 17.7193 7.12 17.2927 7.56C16.866 7.98667 16.6327 8.48667 16.5927 9.06ZM21.6327 11.6L23.5927 12.22C23.3127 13.1133 22.786 13.8533 22.0127 14.44C21.2527 15.0133 20.3127 15.3 19.1927 15.3C17.806 15.3 16.626 14.8267 15.6527 13.88C14.6927 12.9333 14.2127 11.6667 14.2127 10.08C14.2127 8.58667 14.6793 7.36 15.6127 6.4C16.5593 5.44 17.6727 4.96 18.9527 4.96C20.446 4.96 21.6127 5.42 22.4527 6.34C23.2927 7.24667 23.7127 8.47333 23.7127 10.02C23.7127 10.4333 23.6927 10.68 23.6527 10.76H16.5327C16.5593 11.4933 16.826 12.1 17.3327 12.58C17.8527 13.06 18.4727 13.3 19.1927 13.3C20.446 13.3 21.2593 12.7333 21.6327 11.6ZM28.2497 15H25.9297V0.519999H28.2497V15ZM33.5422 15H31.2422V5.26H33.4622V6.5C33.7289 6.02 34.1289 5.64667 34.6622 5.38C35.2089 5.11333 35.7689 4.98 36.3422 4.98C36.9955 4.98 37.5822 5.12667 38.1022 5.42C38.6222 5.71333 39.0089 6.14 39.2622 6.7C39.9422 5.55333 40.9955 4.98 42.4222 4.98C43.3822 4.98 44.1955 5.29333 44.8622 5.92C45.5289 6.54667 45.8622 7.46667 45.8622 8.68V15H43.6222V9.06C43.6222 8.46 43.4622 7.98 43.1422 7.62C42.8355 7.24667 42.3689 7.06 41.7422 7.06C41.1422 7.06 40.6555 7.26667 40.2822 7.68C39.9089 8.09333 39.7222 8.60667 39.7222 9.22V15H37.4422V9.06C37.4422 8.46 37.2822 7.98 36.9622 7.62C36.6555 7.24667 36.1889 7.06 35.5622 7.06C34.9489 7.06 34.4555 7.26667 34.0822 7.68C33.7222 8.08 33.5422 8.59333 33.5422 9.22V15ZM51.0431 12.4C51.5765 12.9467 52.2231 13.22 52.9831 13.22C53.7431 13.22 54.3831 12.9467 54.9031 12.4C55.4365 11.8533 55.7031 11.0933 55.7031 10.12C55.7031 9.16 55.4365 8.41333 54.9031 7.88C54.3831 7.33333 53.7431 7.06 52.9831 7.06C52.2231 7.06 51.5765 7.33333 51.0431 7.88C50.5231 8.41333 50.2631 9.16 50.2631 10.12C50.2631 11.08 50.5231 11.84 51.0431 12.4ZM52.9831 4.96C54.4498 4.96 55.6565 5.44667 56.6031 6.42C57.5631 7.39333 58.0431 8.62667 58.0431 10.12C58.0431 11.6133 57.5631 12.8533 56.6031 13.84C55.6565 14.8133 54.4498 15.3 52.9831 15.3C51.5298 15.3 50.3231 14.8133 49.3631 13.84C48.4165 12.8533 47.9431 11.6133 47.9431 10.12C47.9431 8.62667 48.4165 7.39333 49.3631 6.42C50.3231 5.44667 51.5298 4.96 52.9831 4.96ZM62.6052 9.38V15H60.2852V5.26H62.5452V6.56C62.8518 6.02667 63.2585 5.63333 63.7652 5.38C64.2852 5.11333 64.8385 4.98 65.4252 4.98C66.5718 4.98 67.4452 5.34 68.0452 6.06C68.6452 6.78 68.9452 7.70667 68.9452 8.84V15H66.6252V9.24C66.6252 8.58667 66.4652 8.06667 66.1452 7.68C65.8252 7.28 65.3185 7.08 64.6252 7.08C63.9852 7.08 63.4852 7.3 63.1252 7.74C62.7785 8.16667 62.6052 8.71333 62.6052 9.38ZM74.0695 15H71.7695V5.26H74.0695V15ZM71.8495 2.9C71.5562 2.60667 71.4095 2.25333 71.4095 1.84C71.4095 1.42667 71.5562 1.07333 71.8495 0.779999C72.1429 0.473333 72.4962 0.319999 72.9095 0.319999C73.3362 0.319999 73.6962 0.466666 73.9895 0.76C74.2829 1.05333 74.4295 1.41333 74.4295 1.84C74.4295 2.25333 74.2829 2.60667 73.9895 2.9C73.6962 3.19333 73.3362 3.34 72.9095 3.34C72.4962 3.34 72.1429 3.19333 71.8495 2.9ZM81.3025 7.1C80.5558 7.1 79.9225 7.37333 79.4025 7.92C78.8825 8.45333 78.6225 9.18667 78.6225 10.12C78.6225 11.0667 78.8825 11.8133 79.4025 12.36C79.9358 12.9067 80.5825 13.18 81.3425 13.18C82.0225 13.18 82.5625 13 82.9625 12.64C83.3758 12.2667 83.6492 11.8467 83.7825 11.38L85.8225 12.12C85.5558 12.9867 85.0358 13.7333 84.2625 14.36C83.5025 14.9867 82.5292 15.3 81.3425 15.3C79.9158 15.3 78.7158 14.8067 77.7425 13.82C76.7825 12.8333 76.3025 11.6 76.3025 10.12C76.3025 8.62667 76.7758 7.39333 77.7225 6.42C78.6825 5.44667 79.8692 4.96 81.2825 4.96C82.4958 4.96 83.4825 5.27333 84.2425 5.9C85.0158 6.52667 85.5158 7.28 85.7425 8.16L83.6625 8.92C83.5292 8.41333 83.2692 7.98667 82.8825 7.64C82.5092 7.28 81.9825 7.1 81.3025 7.1ZM90.1252 12.4C90.6585 12.9467 91.3052 13.22 92.0652 13.22C92.8252 13.22 93.4652 12.9467 93.9852 12.4C94.5185 11.8533 94.7852 11.0933 94.7852 10.12C94.7852 9.16 94.5185 8.41333 93.9852 7.88C93.4652 7.33333 92.8252 7.06 92.0652 7.06C91.3052 7.06 90.6585 7.33333 90.1252 7.88C89.6052 8.41333 89.3452 9.16 89.3452 10.12C89.3452 11.08 89.6052 11.84 90.1252 12.4ZM92.0652 4.96C93.5318 4.96 94.7385 5.44667 95.6852 6.42C96.6452 7.39333 97.1252 8.62667 97.1252 10.12C97.1252 11.6133 96.6452 12.8533 95.6852 13.84C94.7385 14.8133 93.5318 15.3 92.0652 15.3C90.6118 15.3 89.4052 14.8133 88.4452 13.84C87.4985 12.8533 87.0252 11.6133 87.0252 10.12C87.0252 8.62667 87.4985 7.39333 88.4452 6.42C89.4052 5.44667 90.6118 4.96 92.0652 4.96ZM113.848 4.14L111.688 4.82C111.595 4.27333 111.321 3.77333 110.868 3.32C110.415 2.86667 109.761 2.64 108.908 2.64C108.201 2.64 107.615 2.84 107.148 3.24C106.695 3.64 106.468 4.12 106.468 4.68C106.468 5.65333 107.021 6.26 108.128 6.5L110.168 6.92C111.395 7.16 112.341 7.64667 113.008 8.38C113.675 9.11333 114.008 9.98667 114.008 11C114.008 12.1733 113.555 13.1867 112.648 14.04C111.755 14.88 110.535 15.3 108.988 15.3C107.321 15.3 106.021 14.8667 105.088 14C104.155 13.12 103.628 12.1 103.508 10.94L105.748 10.3C105.828 11.1 106.148 11.7733 106.708 12.32C107.268 12.8667 108.028 13.14 108.988 13.14C109.815 13.14 110.448 12.96 110.888 12.6C111.341 12.2267 111.568 11.7533 111.568 11.18C111.568 10.7133 111.401 10.3133 111.068 9.98C110.735 9.63333 110.268 9.39333 109.668 9.26L107.668 8.84C106.561 8.61333 105.681 8.15333 105.028 7.46C104.388 6.76667 104.068 5.9 104.068 4.86C104.068 3.67333 104.541 2.65333 105.488 1.8C106.435 0.946666 107.568 0.519999 108.888 0.519999C110.395 0.519999 111.548 0.886666 112.348 1.62C113.148 2.34 113.648 3.18 113.848 4.14ZM119.202 2.28V5.26H121.222V7.32H119.202V11.84C119.202 12.2667 119.302 12.58 119.502 12.78C119.702 12.9667 120.015 13.06 120.442 13.06C120.708 13.06 120.975 13.0333 121.242 12.98V14.9C120.895 15.0467 120.422 15.12 119.822 15.12C118.915 15.12 118.202 14.8667 117.682 14.36C117.162 13.84 116.902 13.1267 116.902 12.22V7.32H115.102V5.26H115.602C116.095 5.26 116.468 5.12 116.722 4.84C116.975 4.56 117.102 4.19333 117.102 3.74V2.28H119.202ZM125.128 9.06H129.908C129.881 8.44667 129.661 7.93333 129.248 7.52C128.848 7.10667 128.268 6.9 127.508 6.9C126.814 6.9 126.254 7.12 125.828 7.56C125.401 7.98667 125.168 8.48667 125.128 9.06ZM130.168 11.6L132.128 12.22C131.848 13.1133 131.321 13.8533 130.548 14.44C129.788 15.0133 128.848 15.3 127.728 15.3C126.341 15.3 125.161 14.8267 124.188 13.88C123.228 12.9333 122.748 11.6667 122.748 10.08C122.748 8.58667 123.214 7.36 124.148 6.4C125.094 5.44 126.208 4.96 127.488 4.96C128.981 4.96 130.148 5.42 130.988 6.34C131.828 7.24667 132.248 8.47333 132.248 10.02C132.248 10.4333 132.228 10.68 132.188 10.76H125.068C125.094 11.4933 125.361 12.1 125.868 12.58C126.388 13.06 127.008 13.3 127.728 13.3C128.981 13.3 129.794 12.7333 130.168 11.6ZM133.865 12.36C133.865 11.5333 134.132 10.8733 134.665 10.38C135.212 9.87333 135.925 9.55333 136.805 9.42L139.305 9.04C139.785 8.97333 140.025 8.74 140.025 8.34C140.025 7.9 139.872 7.54667 139.565 7.28C139.258 7 138.798 6.86 138.185 6.86C137.598 6.86 137.132 7.02667 136.785 7.36C136.438 7.68 136.238 8.1 136.185 8.62L134.065 8.14C134.158 7.26 134.578 6.51333 135.325 5.9C136.072 5.27333 137.018 4.96 138.165 4.96C139.578 4.96 140.618 5.3 141.285 5.98C141.965 6.66 142.305 7.53333 142.305 8.6V13.44C142.305 14.08 142.345 14.6 142.425 15H140.265C140.198 14.8 140.165 14.3867 140.165 13.76C139.525 14.7867 138.525 15.3 137.165 15.3C136.178 15.3 135.378 15.0133 134.765 14.44C134.165 13.8533 133.865 13.16 133.865 12.36ZM137.605 13.48C138.325 13.48 138.905 13.2867 139.345 12.9C139.798 12.5 140.025 11.8533 140.025 10.96V10.52L137.485 10.9C136.618 11.0467 136.185 11.4867 136.185 12.22C136.185 12.5667 136.312 12.8667 136.565 13.12C136.818 13.36 137.165 13.48 137.605 13.48ZM154.229 5.26L150.229 9.38L154.309 15H151.469L148.609 11.02L147.409 12.28V15H145.109V0.519999H147.409V9.2L151.149 5.26H154.229ZM162.509 10.1C162.509 11.0333 162.749 11.7867 163.229 12.36C163.709 12.92 164.343 13.2 165.129 13.2C165.889 13.2 166.509 12.9133 166.989 12.34C167.469 11.7667 167.709 11.0133 167.709 10.08C167.709 9.16 167.476 8.42667 167.009 7.88C166.543 7.33333 165.923 7.06 165.149 7.06C164.376 7.06 163.743 7.34 163.249 7.9C162.756 8.44667 162.509 9.18 162.509 10.1ZM169.949 0.519999V13.22C169.949 13.8733 169.983 14.4667 170.049 15H167.829C167.763 14.6267 167.729 14.2067 167.729 13.74C167.489 14.18 167.116 14.54 166.609 14.82C166.103 15.1 165.523 15.24 164.869 15.24C163.483 15.24 162.356 14.7533 161.489 13.78C160.623 12.8067 160.189 11.58 160.189 10.1C160.189 8.67333 160.623 7.46667 161.489 6.48C162.369 5.49333 163.483 5 164.829 5C165.603 5 166.223 5.14 166.689 5.42C167.169 5.7 167.503 6.02667 167.689 6.4V0.519999H169.949ZM175.28 15H172.98V5.26H175.28V15ZM173.06 2.9C172.767 2.60667 172.62 2.25333 172.62 1.84C172.62 1.42667 172.767 1.07333 173.06 0.779999C173.354 0.473333 173.707 0.319999 174.12 0.319999C174.547 0.319999 174.907 0.466666 175.2 0.76C175.494 1.05333 175.64 1.41333 175.64 1.84C175.64 2.25333 175.494 2.60667 175.2 2.9C174.907 3.19333 174.547 3.34 174.12 3.34C173.707 3.34 173.354 3.19333 173.06 2.9ZM177.413 12.36L179.433 11.8C179.473 12.2667 179.667 12.66 180.013 12.98C180.36 13.3 180.827 13.46 181.413 13.46C181.867 13.46 182.22 13.3533 182.473 13.14C182.74 12.9267 182.873 12.66 182.873 12.34C182.873 11.78 182.493 11.42 181.733 11.26L180.293 10.94C179.453 10.7533 178.807 10.4067 178.353 9.9C177.9 9.39333 177.673 8.79333 177.673 8.1C177.673 7.24667 178.02 6.51333 178.713 5.9C179.407 5.27333 180.253 4.96 181.253 4.96C181.893 4.96 182.46 5.05333 182.953 5.24C183.447 5.42667 183.827 5.67333 184.093 5.98C184.373 6.27333 184.587 6.56 184.733 6.84C184.88 7.12 184.973 7.4 185.013 7.68L183.053 8.24C183 7.86667 182.827 7.53333 182.533 7.24C182.253 6.93333 181.827 6.78 181.253 6.78C180.853 6.78 180.52 6.89333 180.253 7.12C179.987 7.33333 179.853 7.59333 179.853 7.9C179.853 8.44667 180.18 8.78667 180.833 8.92L182.313 9.22C183.22 9.42 183.913 9.78 184.393 10.3C184.873 10.82 185.113 11.4467 185.113 12.18C185.113 12.9933 184.787 13.72 184.133 14.36C183.493 14.9867 182.593 15.3 181.433 15.3C180.767 15.3 180.167 15.2 179.633 15C179.113 14.8 178.7 14.5467 178.393 14.24C178.1 13.92 177.867 13.6067 177.693 13.3C177.533 12.98 177.44 12.6667 177.413 12.36ZM189.734 9.28V15H187.414V0.519999H189.734V6.2C190.361 5.38667 191.287 4.98 192.514 4.98C193.661 4.98 194.541 5.34 195.154 6.06C195.767 6.78 196.074 7.70667 196.074 8.84V15H193.754V9.24C193.754 8.58667 193.594 8.06667 193.274 7.68C192.954 7.28 192.447 7.08 191.754 7.08C191.141 7.08 190.654 7.28667 190.294 7.7C189.947 8.11333 189.761 8.64 189.734 9.28Z" fill="#2E2E2E"/>
</svg>
