<svg width="161" height="16" viewBox="0 0 161 16" fill="none" xmlns="http://www.w3.org/2000/svg">
<path d="M3.1 15H0.7V0.819999H9.52V3.08H3.1V7.06H8.86V9.28H3.1V15ZM14.0114 15H11.6914V0.519999H14.0114V15ZM16.3648 12.36C16.3648 11.5333 16.6315 10.8733 17.1648 10.38C17.7115 9.87333 18.4248 9.55333 19.3048 9.42L21.8048 9.04C22.2848 8.97333 22.5248 8.74 22.5248 8.34C22.5248 7.9 22.3715 7.54667 22.0648 7.28C21.7582 7 21.2982 6.86 20.6848 6.86C20.0982 6.86 19.6315 7.02667 19.2848 7.36C18.9382 7.68 18.7382 8.1 18.6848 8.62L16.5648 8.14C16.6582 7.26 17.0782 6.51333 17.8248 5.9C18.5715 5.27333 19.5182 4.96 20.6648 4.96C22.0782 4.96 23.1182 5.3 23.7848 5.98C24.4648 6.66 24.8048 7.53333 24.8048 8.6V13.44C24.8048 14.08 24.8448 14.6 24.9248 15H22.7648C22.6982 14.8 22.6648 14.3867 22.6648 13.76C22.0248 14.7867 21.0248 15.3 19.6648 15.3C18.6782 15.3 17.8782 15.0133 17.2648 14.44C16.6648 13.8533 16.3648 13.16 16.3648 12.36ZM20.1048 13.48C20.8248 13.48 21.4048 13.2867 21.8448 12.9C22.2982 12.5 22.5248 11.8533 22.5248 10.96V10.52L19.9848 10.9C19.1182 11.0467 18.6848 11.4867 18.6848 12.22C18.6848 12.5667 18.8115 12.8667 19.0648 13.12C19.3182 13.36 19.6648 13.48 20.1048 13.48ZM29.9094 15H27.6094V5.26H29.8294V6.5C30.096 6.02 30.496 5.64667 31.0294 5.38C31.576 5.11333 32.136 4.98 32.7094 4.98C33.3627 4.98 33.9494 5.12667 34.4694 5.42C34.9894 5.71333 35.376 6.14 35.6294 6.7C36.3094 5.55333 37.3627 4.98 38.7894 4.98C39.7494 4.98 40.5627 5.29333 41.2294 5.92C41.896 6.54667 42.2294 7.46667 42.2294 8.68V15H39.9894V9.06C39.9894 8.46 39.8294 7.98 39.5094 7.62C39.2027 7.24667 38.736 7.06 38.1094 7.06C37.5094 7.06 37.0227 7.26667 36.6494 7.68C36.276 8.09333 36.0894 8.60667 36.0894 9.22V15H33.8094V9.06C33.8094 8.46 33.6494 7.98 33.3294 7.62C33.0227 7.24667 32.556 7.06 31.9294 7.06C31.316 7.06 30.8227 7.26667 30.4494 7.68C30.0894 8.08 29.9094 8.59333 29.9094 9.22V15ZM46.6903 9.06H51.4703C51.4436 8.44667 51.2236 7.93333 50.8103 7.52C50.4103 7.10667 49.8303 6.9 49.0703 6.9C48.377 6.9 47.817 7.12 47.3903 7.56C46.9636 7.98667 46.7303 8.48667 46.6903 9.06ZM51.7303 11.6L53.6903 12.22C53.4103 13.1133 52.8836 13.8533 52.1103 14.44C51.3503 15.0133 50.4103 15.3 49.2903 15.3C47.9036 15.3 46.7236 14.8267 45.7503 13.88C44.7903 12.9333 44.3103 11.6667 44.3103 10.08C44.3103 8.58667 44.777 7.36 45.7103 6.4C46.657 5.44 47.7703 4.96 49.0503 4.96C50.5436 4.96 51.7103 5.42 52.5503 6.34C53.3903 7.24667 53.8103 8.47333 53.8103 10.02C53.8103 10.4333 53.7903 10.68 53.7503 10.76H46.6303C46.657 11.4933 46.9236 12.1 47.4303 12.58C47.9503 13.06 48.5703 13.3 49.2903 13.3C50.5436 13.3 51.357 12.7333 51.7303 11.6ZM61.0673 10.18H55.4273V8.12H61.0673V10.18ZM65.7288 15H63.4688V0.519999H65.7488V6.46C65.9888 6.04667 66.3821 5.7 66.9288 5.42C67.4754 5.14 68.1021 5 68.8088 5C70.2221 5 71.3221 5.48 72.1088 6.44C72.9088 7.38667 73.3088 8.6 73.3088 10.08C73.3088 11.5867 72.8888 12.8267 72.0488 13.8C71.2221 14.76 70.1154 15.24 68.7288 15.24C67.3421 15.24 66.3421 14.7267 65.7288 13.7V15ZM70.2288 12.36C70.7221 11.8 70.9688 11.0467 70.9688 10.1C70.9688 9.15333 70.7288 8.41333 70.2488 7.88C69.7688 7.33333 69.1354 7.06 68.3488 7.06C67.5888 7.06 66.9621 7.33333 66.4688 7.88C65.9754 8.41333 65.7288 9.15333 65.7288 10.1C65.7288 11.0333 65.9754 11.78 66.4688 12.34C66.9621 12.9 67.5888 13.18 68.3488 13.18C69.1221 13.18 69.7488 12.9067 70.2288 12.36ZM77.8791 12.4C78.4124 12.9467 79.0591 13.22 79.8191 13.22C80.5791 13.22 81.2191 12.9467 81.7391 12.4C82.2724 11.8533 82.5391 11.0933 82.5391 10.12C82.5391 9.16 82.2724 8.41333 81.7391 7.88C81.2191 7.33333 80.5791 7.06 79.8191 7.06C79.0591 7.06 78.4124 7.33333 77.8791 7.88C77.3591 8.41333 77.0991 9.16 77.0991 10.12C77.0991 11.08 77.3591 11.84 77.8791 12.4ZM79.8191 4.96C81.2857 4.96 82.4924 5.44667 83.4391 6.42C84.3991 7.39333 84.8791 8.62667 84.8791 10.12C84.8791 11.6133 84.3991 12.8533 83.4391 13.84C82.4924 14.8133 81.2857 15.3 79.8191 15.3C78.3657 15.3 77.1591 14.8133 76.1991 13.84C75.2524 12.8533 74.7791 11.6133 74.7791 10.12C74.7791 8.62667 75.2524 7.39333 76.1991 6.42C77.1591 5.44667 78.3657 4.96 79.8191 4.96ZM89.4211 15H87.1211V5.26H89.4211V15ZM87.2011 2.9C86.9078 2.60667 86.7611 2.25333 86.7611 1.84C86.7611 1.42667 86.9078 1.07333 87.2011 0.779999C87.4944 0.473333 87.8478 0.319999 88.2611 0.319999C88.6878 0.319999 89.0478 0.466666 89.3411 0.76C89.6344 1.05333 89.7811 1.41333 89.7811 1.84C89.7811 2.25333 89.6344 2.60667 89.3411 2.9C89.0478 3.19333 88.6878 3.34 88.2611 3.34C87.8478 3.34 87.4944 3.19333 87.2011 2.9ZM94.7341 15H92.4141V0.519999H94.7341V15ZM99.3466 9.06H104.127C104.1 8.44667 103.88 7.93333 103.467 7.52C103.067 7.10667 102.487 6.9 101.727 6.9C101.033 6.9 100.473 7.12 100.047 7.56C99.6199 7.98667 99.3866 8.48667 99.3466 9.06ZM104.387 11.6L106.347 12.22C106.067 13.1133 105.54 13.8533 104.767 14.44C104.007 15.0133 103.067 15.3 101.947 15.3C100.56 15.3 99.3799 14.8267 98.4066 13.88C97.4466 12.9333 96.9666 11.6667 96.9666 10.08C96.9666 8.58667 97.4332 7.36 98.3666 6.4C99.3132 5.44 100.427 4.96 101.707 4.96C103.2 4.96 104.367 5.42 105.207 6.34C106.047 7.24667 106.467 8.47333 106.467 10.02C106.467 10.4333 106.447 10.68 106.407 10.76H99.2866C99.3132 11.4933 99.5799 12.1 100.087 12.58C100.607 13.06 101.227 13.3 101.947 13.3C103.2 13.3 104.013 12.7333 104.387 11.6ZM110.244 10.1C110.244 11.0333 110.484 11.7867 110.964 12.36C111.444 12.92 112.077 13.2 112.864 13.2C113.624 13.2 114.244 12.9133 114.724 12.34C115.204 11.7667 115.444 11.0133 115.444 10.08C115.444 9.16 115.21 8.42667 114.744 7.88C114.277 7.33333 113.657 7.06 112.884 7.06C112.11 7.06 111.477 7.34 110.984 7.9C110.49 8.44667 110.244 9.18 110.244 10.1ZM117.684 0.519999V13.22C117.684 13.8733 117.717 14.4667 117.784 15H115.564C115.497 14.6267 115.464 14.2067 115.464 13.74C115.224 14.18 114.85 14.54 114.344 14.82C113.837 15.1 113.257 15.24 112.604 15.24C111.217 15.24 110.09 14.7533 109.224 13.78C108.357 12.8067 107.924 11.58 107.924 10.1C107.924 8.67333 108.357 7.46667 109.224 6.48C110.104 5.49333 111.217 5 112.564 5C113.337 5 113.957 5.14 114.424 5.42C114.904 5.7 115.237 6.02667 115.424 6.4V0.519999H117.684ZM127.236 10.1C127.236 11.0333 127.476 11.7867 127.956 12.36C128.436 12.92 129.069 13.2 129.856 13.2C130.616 13.2 131.236 12.9133 131.716 12.34C132.196 11.7667 132.436 11.0133 132.436 10.08C132.436 9.16 132.202 8.42667 131.736 7.88C131.269 7.33333 130.649 7.06 129.876 7.06C129.102 7.06 128.469 7.34 127.976 7.9C127.482 8.44667 127.236 9.18 127.236 10.1ZM134.676 0.519999V13.22C134.676 13.8733 134.709 14.4667 134.776 15H132.556C132.489 14.6267 132.456 14.2067 132.456 13.74C132.216 14.18 131.842 14.54 131.336 14.82C130.829 15.1 130.249 15.24 129.596 15.24C128.209 15.24 127.082 14.7533 126.216 13.78C125.349 12.8067 124.916 11.58 124.916 10.1C124.916 8.67333 125.349 7.46667 126.216 6.48C127.096 5.49333 128.209 5 129.556 5C130.329 5 130.949 5.14 131.416 5.42C131.896 5.7 132.229 6.02667 132.416 6.4V0.519999H134.676ZM140.007 15H137.707V5.26H140.007V15ZM137.787 2.9C137.494 2.60667 137.347 2.25333 137.347 1.84C137.347 1.42667 137.494 1.07333 137.787 0.779999C138.08 0.473333 138.434 0.319999 138.847 0.319999C139.274 0.319999 139.634 0.466666 139.927 0.76C140.22 1.05333 140.367 1.41333 140.367 1.84C140.367 2.25333 140.22 2.60667 139.927 2.9C139.634 3.19333 139.274 3.34 138.847 3.34C138.434 3.34 138.08 3.19333 137.787 2.9ZM142.14 12.36L144.16 11.8C144.2 12.2667 144.393 12.66 144.74 12.98C145.087 13.3 145.553 13.46 146.14 13.46C146.593 13.46 146.947 13.3533 147.2 13.14C147.467 12.9267 147.6 12.66 147.6 12.34C147.6 11.78 147.22 11.42 146.46 11.26L145.02 10.94C144.18 10.7533 143.533 10.4067 143.08 9.9C142.627 9.39333 142.4 8.79333 142.4 8.1C142.4 7.24667 142.747 6.51333 143.44 5.9C144.133 5.27333 144.98 4.96 145.98 4.96C146.62 4.96 147.187 5.05333 147.68 5.24C148.173 5.42667 148.553 5.67333 148.82 5.98C149.1 6.27333 149.313 6.56 149.46 6.84C149.607 7.12 149.7 7.4 149.74 7.68L147.78 8.24C147.727 7.86667 147.553 7.53333 147.26 7.24C146.98 6.93333 146.553 6.78 145.98 6.78C145.58 6.78 145.247 6.89333 144.98 7.12C144.713 7.33333 144.58 7.59333 144.58 7.9C144.58 8.44667 144.907 8.78667 145.56 8.92L147.04 9.22C147.947 9.42 148.64 9.78 149.12 10.3C149.6 10.82 149.84 11.4467 149.84 12.18C149.84 12.9933 149.513 13.72 148.86 14.36C148.22 14.9867 147.32 15.3 146.16 15.3C145.493 15.3 144.893 15.2 144.36 15C143.84 14.8 143.427 14.5467 143.12 14.24C142.827 13.92 142.593 13.6067 142.42 13.3C142.26 12.98 142.167 12.6667 142.14 12.36ZM154.461 9.28V15H152.141V0.519999H154.461V6.2C155.087 5.38667 156.014 4.98 157.241 4.98C158.387 4.98 159.267 5.34 159.881 6.06C160.494 6.78 160.801 7.70667 160.801 8.84V15H158.481V9.24C158.481 8.58667 158.321 8.06667 158.001 7.68C157.681 7.28 157.174 7.08 156.481 7.08C155.867 7.08 155.381 7.28667 155.021 7.7C154.674 8.11333 154.487 8.64 154.461 9.28Z" fill="#2E2E2E"/>
</svg>
