<svg width="418" height="46" viewBox="0 0 418 46" fill="none" xmlns="http://www.w3.org/2000/svg">
<path d="M32.52 2.4H26.616L16.44 19.2L6.312 2.4H0.36V36H5.88V12L16.104 28.944H16.776L27 12.048V36H32.52V2.4ZM50.2114 36.624C57.2674 36.624 62.8834 31.104 62.8834 24C62.8834 16.848 57.2674 11.376 50.2114 11.376C43.2034 11.376 37.5394 16.848 37.5394 24C37.5394 31.104 43.2034 36.624 50.2114 36.624ZM50.2114 31.584C45.9874 31.584 42.7234 28.368 42.7234 24C42.7234 19.632 45.9874 16.416 50.2114 16.416C54.4354 16.416 57.6994 19.632 57.6994 24C57.6994 28.368 54.4354 31.584 50.2114 31.584ZM71.7581 18.624C71.7581 16.896 73.3901 16.08 75.2621 16.08C77.2301 16.08 78.9101 16.944 79.7741 18.816L84.1421 16.368C82.4621 13.2 79.1981 11.376 75.2621 11.376C70.3661 11.376 66.4781 14.208 66.4781 18.72C66.4781 27.312 79.3901 24.912 79.3901 29.184C79.3901 31.104 77.6141 31.872 75.3101 31.872C72.6701 31.872 70.7501 30.576 69.9821 28.416L65.5181 31.008C67.0541 34.464 70.5101 36.624 75.3101 36.624C80.4941 36.624 84.6701 34.032 84.6701 29.232C84.6701 20.352 71.7581 22.992 71.7581 18.624ZM101.682 16.992V12H95.7296V5.28L90.5456 6.816V12H86.1296V16.992H90.5456V28.512C90.5456 34.752 93.7136 36.96 101.682 36V31.344C97.7456 31.536 95.7296 31.584 95.7296 28.512V16.992H101.682ZM131.338 2.4H118.954V36H124.474V24.48H131.338C137.674 24.48 142.474 19.632 142.474 13.44C142.474 7.2 137.674 2.4 131.338 2.4ZM131.338 19.296H124.474V7.584H131.338C134.602 7.584 136.954 10.032 136.954 13.44C136.954 16.8 134.602 19.296 131.338 19.296ZM156.571 36.624C163.627 36.624 169.243 31.104 169.243 24C169.243 16.848 163.627 11.376 156.571 11.376C149.563 11.376 143.899 16.848 143.899 24C143.899 31.104 149.563 36.624 156.571 36.624ZM156.571 31.584C152.347 31.584 149.083 28.368 149.083 24C149.083 19.632 152.347 16.416 156.571 16.416C160.795 16.416 164.059 19.632 164.059 24C164.059 28.368 160.795 31.584 156.571 31.584ZM187.514 11.376C183.77 11.376 180.938 12.912 179.114 15.456V12H173.93V45.6H179.114V32.592C180.938 35.088 183.77 36.624 187.514 36.624C194.042 36.624 199.466 31.152 199.466 24C199.466 16.896 194.042 11.376 187.514 11.376ZM186.698 31.68C182.378 31.68 179.114 28.464 179.114 24C179.114 19.536 182.378 16.32 186.698 16.32C191.018 16.32 194.282 19.536 194.282 24C194.282 28.464 191.018 31.68 186.698 31.68ZM220.341 12V24.864C220.341 29.76 217.653 31.776 214.245 31.776C210.981 31.776 208.869 29.856 208.869 26.208V12H203.685V26.736C203.685 32.976 207.525 36.624 212.901 36.624C216.165 36.624 218.757 35.424 220.341 32.928V36H225.525V12H220.341ZM231.587 36H236.771V0.959999H231.587V36ZM261.798 12V15.408C259.974 12.912 257.142 11.376 253.398 11.376C246.87 11.376 241.446 16.848 241.446 24C241.446 31.104 246.87 36.624 253.398 36.624C257.142 36.624 259.974 35.088 261.798 32.544V36H266.982V12H261.798ZM254.214 31.68C249.894 31.68 246.63 28.464 246.63 24C246.63 19.536 249.894 16.32 254.214 16.32C258.534 16.32 261.798 19.536 261.798 24C261.798 28.464 258.534 31.68 254.214 31.68ZM278.208 16.032V12H273.024V36H278.208V23.904C278.208 18.528 282.192 16.944 285.6 17.184V11.568C282.576 11.568 279.648 12.768 278.208 16.032ZM301.766 2.4V36H307.286V2.4H301.766ZM327.057 16.992V12H321.105V5.28L315.921 6.816V12H311.505V16.992H315.921V28.512C315.921 34.752 319.089 36.96 327.057 36V31.344C323.121 31.536 321.105 31.584 321.105 28.512V16.992H327.057ZM334.854 26.208H353.958C354.054 25.536 354.15 24.768 354.15 24.048C354.15 17.136 349.254 11.376 342.102 11.376C334.566 11.376 329.43 16.896 329.43 24C329.43 31.2 334.566 36.624 342.486 36.624C347.19 36.624 350.79 34.656 352.998 31.392L348.726 28.896C347.574 30.576 345.414 31.872 342.534 31.872C338.694 31.872 335.67 29.952 334.854 26.208ZM334.806 21.984C335.526 18.384 338.166 16.08 342.054 16.08C345.174 16.08 348.198 17.856 348.918 21.984H334.806ZM384.92 11.376C381.704 11.376 379.16 12.672 377.576 15.168C376.184 12.768 373.88 11.376 370.76 11.376C367.784 11.376 365.432 12.528 363.896 14.88V12H358.712V36H363.896V22.56C363.896 18.192 366.296 16.224 369.224 16.224C372.056 16.224 373.736 18.096 373.736 21.456V36H378.92V22.56C378.92 18.192 381.08 16.224 384.152 16.224C386.984 16.224 388.808 18.096 388.808 21.456V36H393.992V21.12C393.992 15.12 390.344 11.376 384.92 11.376ZM404.196 18.624C404.196 16.896 405.828 16.08 407.7 16.08C409.668 16.08 411.348 16.944 412.212 18.816L416.58 16.368C414.9 13.2 411.636 11.376 407.7 11.376C402.804 11.376 398.916 14.208 398.916 18.72C398.916 27.312 411.828 24.912 411.828 29.184C411.828 31.104 410.052 31.872 407.748 31.872C405.108 31.872 403.188 30.576 402.42 28.416L397.956 31.008C399.492 34.464 402.948 36.624 407.748 36.624C412.932 36.624 417.108 34.032 417.108 29.232C417.108 20.352 404.196 22.992 404.196 18.624Z" fill="#2E2E2E"/>
</svg>
