<svg width="159" height="16" viewBox="0 0 159 16" fill="none" xmlns="http://www.w3.org/2000/svg">
<path d="M3.1 7.34H5.6C6.36 7.34 6.95333 7.14667 7.38 6.76C7.82 6.36 8.04 5.82667 8.04 5.16C8.04 4.48 7.82 3.94 7.38 3.54C6.95333 3.14 6.36 2.94 5.6 2.94H3.1V7.34ZM5.96 9.46H3.1V15H0.7V0.819999H5.96C7.30667 0.819999 8.39333 1.22667 9.22 2.04C10.06 2.85333 10.48 3.88667 10.48 5.14C10.48 6.40667 10.06 7.44667 9.22 8.26C8.39333 9.06 7.30667 9.46 5.96 9.46ZM13.4481 9.06H18.2281C18.2015 8.44667 17.9815 7.93333 17.5681 7.52C17.1681 7.10667 16.5881 6.9 15.8281 6.9C15.1348 6.9 14.5748 7.12 14.1481 7.56C13.7215 7.98667 13.4881 8.48667 13.4481 9.06ZM18.4881 11.6L20.4481 12.22C20.1681 13.1133 19.6415 13.8533 18.8681 14.44C18.1081 15.0133 17.1681 15.3 16.0481 15.3C14.6615 15.3 13.4815 14.8267 12.5081 13.88C11.5481 12.9333 11.0681 11.6667 11.0681 10.08C11.0681 8.58667 11.5348 7.36 12.4681 6.4C13.4148 5.44 14.5281 4.96 15.8081 4.96C17.3015 4.96 18.4681 5.42 19.3081 6.34C20.1481 7.24667 20.5681 8.47333 20.5681 10.02C20.5681 10.4333 20.5481 10.68 20.5081 10.76H13.3881C13.4148 11.4933 13.6815 12.1 14.1881 12.58C14.7081 13.06 15.3281 13.3 16.0481 13.3C17.3015 13.3 18.1148 12.7333 18.4881 11.6ZM22.1852 12.36C22.1852 11.5333 22.4518 10.8733 22.9852 10.38C23.5318 9.87333 24.2452 9.55333 25.1252 9.42L27.6252 9.04C28.1052 8.97333 28.3452 8.74 28.3452 8.34C28.3452 7.9 28.1918 7.54667 27.8852 7.28C27.5785 7 27.1185 6.86 26.5052 6.86C25.9185 6.86 25.4518 7.02667 25.1052 7.36C24.7585 7.68 24.5585 8.1 24.5052 8.62L22.3852 8.14C22.4785 7.26 22.8985 6.51333 23.6452 5.9C24.3918 5.27333 25.3385 4.96 26.4852 4.96C27.8985 4.96 28.9385 5.3 29.6052 5.98C30.2852 6.66 30.6252 7.53333 30.6252 8.6V13.44C30.6252 14.08 30.6652 14.6 30.7452 15H28.5852C28.5185 14.8 28.4852 14.3867 28.4852 13.76C27.8452 14.7867 26.8452 15.3 25.4852 15.3C24.4985 15.3 23.6985 15.0133 23.0852 14.44C22.4852 13.8533 22.1852 13.16 22.1852 12.36ZM25.9252 13.48C26.6452 13.48 27.2252 13.2867 27.6652 12.9C28.1185 12.5 28.3452 11.8533 28.3452 10.96V10.52L25.8052 10.9C24.9385 11.0467 24.5052 11.4867 24.5052 12.22C24.5052 12.5667 24.6318 12.8667 24.8852 13.12C25.1385 13.36 25.4852 13.48 25.9252 13.48ZM37.6502 7.1C36.9035 7.1 36.2702 7.37333 35.7502 7.92C35.2302 8.45333 34.9702 9.18667 34.9702 10.12C34.9702 11.0667 35.2302 11.8133 35.7502 12.36C36.2835 12.9067 36.9302 13.18 37.6902 13.18C38.3702 13.18 38.9102 13 39.3102 12.64C39.7235 12.2667 39.9968 11.8467 40.1302 11.38L42.1702 12.12C41.9035 12.9867 41.3835 13.7333 40.6102 14.36C39.8502 14.9867 38.8768 15.3 37.6902 15.3C36.2635 15.3 35.0635 14.8067 34.0902 13.82C33.1302 12.8333 32.6502 11.6 32.6502 10.12C32.6502 8.62667 33.1235 7.39333 34.0702 6.42C35.0302 5.44667 36.2168 4.96 37.6302 4.96C38.8435 4.96 39.8302 5.27333 40.5902 5.9C41.3635 6.52667 41.8635 7.28 42.0902 8.16L40.0102 8.92C39.8768 8.41333 39.6168 7.98667 39.2302 7.64C38.8568 7.28 38.3302 7.1 37.6502 7.1ZM46.5505 9.28V15H44.2305V0.519999H46.5505V6.2C47.1771 5.38667 48.1038 4.98 49.3305 4.98C50.4771 4.98 51.3571 5.34 51.9705 6.06C52.5838 6.78 52.8905 7.70667 52.8905 8.84V15H50.5705V9.24C50.5705 8.58667 50.4105 8.06667 50.0905 7.68C49.7705 7.28 49.2638 7.08 48.5705 7.08C47.9571 7.08 47.4705 7.28667 47.1105 7.7C46.7638 8.11333 46.5771 8.64 46.5505 9.28ZM76.4758 15H74.0958V4.56L69.6758 15H67.5958L63.2158 4.6V15H60.8758V0.819999H64.0758L68.6758 11.64L73.2158 0.819999H76.4758V15ZM81.2606 9.06H86.0406C86.014 8.44667 85.794 7.93333 85.3806 7.52C84.9806 7.10667 84.4006 6.9 83.6406 6.9C82.9473 6.9 82.3873 7.12 81.9606 7.56C81.534 7.98667 81.3006 8.48667 81.2606 9.06ZM86.3006 11.6L88.2606 12.22C87.9806 13.1133 87.454 13.8533 86.6806 14.44C85.9206 15.0133 84.9806 15.3 83.8606 15.3C82.474 15.3 81.294 14.8267 80.3206 13.88C79.3606 12.9333 78.8806 11.6667 78.8806 10.08C78.8806 8.58667 79.3473 7.36 80.2806 6.4C81.2273 5.44 82.3406 4.96 83.6206 4.96C85.114 4.96 86.2806 5.42 87.1206 6.34C87.9606 7.24667 88.3806 8.47333 88.3806 10.02C88.3806 10.4333 88.3606 10.68 88.3206 10.76H81.2006C81.2273 11.4933 81.494 12.1 82.0006 12.58C82.5206 13.06 83.1406 13.3 83.8606 13.3C85.114 13.3 85.9273 12.7333 86.3006 11.6ZM92.9177 15H90.5977V0.519999H92.9177V15ZM98.1702 15H95.9102V0.519999H98.1902V6.46C98.4302 6.04667 98.8235 5.7 99.3702 5.42C99.9168 5.14 100.543 5 101.25 5C102.663 5 103.763 5.48 104.55 6.44C105.35 7.38667 105.75 8.6 105.75 10.08C105.75 11.5867 105.33 12.8267 104.49 13.8C103.663 14.76 102.557 15.24 101.17 15.24C99.7835 15.24 98.7835 14.7267 98.1702 13.7V15ZM102.67 12.36C103.163 11.8 103.41 11.0467 103.41 10.1C103.41 9.15333 103.17 8.41333 102.69 7.88C102.21 7.33333 101.577 7.06 100.79 7.06C100.03 7.06 99.4035 7.33333 98.9102 7.88C98.4168 8.41333 98.1702 9.15333 98.1702 10.1C98.1702 11.0333 98.4168 11.78 98.9102 12.34C99.4035 12.9 100.03 13.18 100.79 13.18C101.563 13.18 102.19 12.9067 102.67 12.36ZM107.38 12.36C107.38 11.5333 107.647 10.8733 108.18 10.38C108.727 9.87333 109.44 9.55333 110.32 9.42L112.82 9.04C113.3 8.97333 113.54 8.74 113.54 8.34C113.54 7.9 113.387 7.54667 113.08 7.28C112.774 7 112.314 6.86 111.7 6.86C111.114 6.86 110.647 7.02667 110.3 7.36C109.954 7.68 109.754 8.1 109.7 8.62L107.58 8.14C107.674 7.26 108.094 6.51333 108.84 5.9C109.587 5.27333 110.534 4.96 111.68 4.96C113.094 4.96 114.134 5.3 114.8 5.98C115.48 6.66 115.82 7.53333 115.82 8.6V13.44C115.82 14.08 115.86 14.6 115.94 15H113.78C113.714 14.8 113.68 14.3867 113.68 13.76C113.04 14.7867 112.04 15.3 110.68 15.3C109.694 15.3 108.894 15.0133 108.28 14.44C107.68 13.8533 107.38 13.16 107.38 12.36ZM111.12 13.48C111.84 13.48 112.42 13.2867 112.86 12.9C113.314 12.5 113.54 11.8533 113.54 10.96V10.52L111 10.9C110.134 11.0467 109.7 11.4867 109.7 12.22C109.7 12.5667 109.827 12.8667 110.08 13.12C110.334 13.36 110.68 13.48 111.12 13.48ZM125.146 10.1C125.146 11.0333 125.386 11.7867 125.866 12.36C126.346 12.92 126.979 13.2 127.766 13.2C128.526 13.2 129.146 12.9133 129.626 12.34C130.106 11.7667 130.346 11.0133 130.346 10.08C130.346 9.16 130.113 8.42667 129.646 7.88C129.179 7.33333 128.559 7.06 127.786 7.06C127.013 7.06 126.379 7.34 125.886 7.9C125.393 8.44667 125.146 9.18 125.146 10.1ZM132.586 0.519999V13.22C132.586 13.8733 132.619 14.4667 132.686 15H130.466C130.399 14.6267 130.366 14.2067 130.366 13.74C130.126 14.18 129.753 14.54 129.246 14.82C128.739 15.1 128.159 15.24 127.506 15.24C126.119 15.24 124.993 14.7533 124.126 13.78C123.259 12.8067 122.826 11.58 122.826 10.1C122.826 8.67333 123.259 7.46667 124.126 6.48C125.006 5.49333 126.119 5 127.466 5C128.239 5 128.859 5.14 129.326 5.42C129.806 5.7 130.139 6.02667 130.326 6.4V0.519999H132.586ZM137.917 15H135.617V5.26H137.917V15ZM135.697 2.9C135.404 2.60667 135.257 2.25333 135.257 1.84C135.257 1.42667 135.404 1.07333 135.697 0.779999C135.991 0.473333 136.344 0.319999 136.757 0.319999C137.184 0.319999 137.544 0.466666 137.837 0.76C138.131 1.05333 138.277 1.41333 138.277 1.84C138.277 2.25333 138.131 2.60667 137.837 2.9C137.544 3.19333 137.184 3.34 136.757 3.34C136.344 3.34 135.991 3.19333 135.697 2.9ZM140.05 12.36L142.07 11.8C142.11 12.2667 142.303 12.66 142.65 12.98C142.997 13.3 143.463 13.46 144.05 13.46C144.503 13.46 144.857 13.3533 145.11 13.14C145.377 12.9267 145.51 12.66 145.51 12.34C145.51 11.78 145.13 11.42 144.37 11.26L142.93 10.94C142.09 10.7533 141.443 10.4067 140.99 9.9C140.537 9.39333 140.31 8.79333 140.31 8.1C140.31 7.24667 140.657 6.51333 141.35 5.9C142.043 5.27333 142.89 4.96 143.89 4.96C144.53 4.96 145.097 5.05333 145.59 5.24C146.083 5.42667 146.463 5.67333 146.73 5.98C147.01 6.27333 147.223 6.56 147.37 6.84C147.517 7.12 147.61 7.4 147.65 7.68L145.69 8.24C145.637 7.86667 145.463 7.53333 145.17 7.24C144.89 6.93333 144.463 6.78 143.89 6.78C143.49 6.78 143.157 6.89333 142.89 7.12C142.623 7.33333 142.49 7.59333 142.49 7.9C142.49 8.44667 142.817 8.78667 143.47 8.92L144.95 9.22C145.857 9.42 146.55 9.78 147.03 10.3C147.51 10.82 147.75 11.4467 147.75 12.18C147.75 12.9933 147.423 13.72 146.77 14.36C146.13 14.9867 145.23 15.3 144.07 15.3C143.403 15.3 142.803 15.2 142.27 15C141.75 14.8 141.337 14.5467 141.03 14.24C140.737 13.92 140.503 13.6067 140.33 13.3C140.17 12.98 140.077 12.6667 140.05 12.36ZM152.371 9.28V15H150.051V0.519999H152.371V6.2C152.997 5.38667 153.924 4.98 155.151 4.98C156.297 4.98 157.177 5.34 157.791 6.06C158.404 6.78 158.711 7.70667 158.711 8.84V15H156.391V9.24C156.391 8.58667 156.231 8.06667 155.911 7.68C155.591 7.28 155.084 7.08 154.391 7.08C153.777 7.08 153.291 7.28667 152.931 7.7C152.584 8.11333 152.397 8.64 152.371 9.28Z" fill="#2E2E2E"/>
</svg>
