<svg width="85" height="23" viewBox="0 0 85 23" fill="none" xmlns="http://www.w3.org/2000/svg">
<path d="M10.256 18H13.28L9.464 11.472C11.432 10.68 12.8 8.76 12.8 6.6C12.8 3.6 10.4 1.2 7.4 1.2H0.68V18H3.44V11.88H6.704L10.256 18ZM3.44 3.792H7.4C8.864 3.792 10.04 5.016 10.04 6.6C10.04 8.16 8.864 9.408 7.4 9.408H3.44V3.792ZM16.6379 13.104H26.1899C26.2379 12.768 26.2859 12.384 26.2859 12.024C26.2859 8.568 23.8379 5.688 20.2619 5.688C16.4939 5.688 13.9259 8.448 13.9259 12C13.9259 15.6 16.4939 18.312 20.4539 18.312C22.8059 18.312 24.6059 17.328 25.7099 15.696L23.5739 14.448C22.9979 15.288 21.9179 15.936 20.4779 15.936C18.5579 15.936 17.0459 14.976 16.6379 13.104ZM16.6139 10.992C16.9739 9.192 18.2939 8.04 20.2379 8.04C21.7979 8.04 23.3099 8.928 23.6699 10.992H16.6139ZM34.1604 18.312C36.5124 18.312 38.5524 17.088 39.5604 15.192L37.3284 13.92C36.7524 15.024 35.5764 15.768 34.1364 15.768C32.0244 15.768 30.4164 14.16 30.4164 12C30.4164 9.84 32.0244 8.232 34.1364 8.232C35.5764 8.232 36.7524 8.952 37.2804 10.08L39.5124 8.784C38.5524 6.912 36.5124 5.688 34.1604 5.688C30.5364 5.688 27.8244 8.424 27.8244 12C27.8244 15.552 30.5364 18.312 34.1604 18.312ZM42.7299 4.2C43.6419 4.2 44.3859 3.432 44.3859 2.544C44.3859 1.632 43.6419 0.887999 42.7299 0.887999C41.8179 0.887999 41.0739 1.632 41.0739 2.544C41.0739 3.432 41.8179 4.2 42.7299 4.2ZM41.4339 18H44.0259V6H41.4339V18ZM53.8274 5.688C51.9554 5.688 50.5394 6.456 49.6274 7.728V6H47.0354V22.8H49.6274V16.296C50.5394 17.544 51.9554 18.312 53.8274 18.312C57.0914 18.312 59.8034 15.576 59.8034 12C59.8034 8.448 57.0914 5.688 53.8274 5.688ZM53.4194 15.84C51.2594 15.84 49.6274 14.232 49.6274 12C49.6274 9.768 51.2594 8.16 53.4194 8.16C55.5794 8.16 57.2114 9.768 57.2114 12C57.2114 14.232 55.5794 15.84 53.4194 15.84ZM64.1926 13.104H73.7446C73.7926 12.768 73.8406 12.384 73.8406 12.024C73.8406 8.568 71.3926 5.688 67.8166 5.688C64.0486 5.688 61.4806 8.448 61.4806 12C61.4806 15.6 64.0486 18.312 68.0086 18.312C70.3606 18.312 72.1606 17.328 73.2646 15.696L71.1286 14.448C70.5526 15.288 69.4726 15.936 68.0326 15.936C66.1126 15.936 64.6006 14.976 64.1926 13.104ZM64.1686 10.992C64.5286 9.192 65.8486 8.04 67.7926 8.04C69.3526 8.04 70.8646 8.928 71.2246 10.992H64.1686ZM77.9806 9.312C77.9806 8.448 78.7966 8.04 79.7326 8.04C80.7166 8.04 81.5566 8.472 81.9886 9.408L84.1726 8.184C83.3326 6.6 81.7006 5.688 79.7326 5.688C77.2846 5.688 75.3406 7.104 75.3406 9.36C75.3406 13.656 81.7966 12.456 81.7966 14.592C81.7966 15.552 80.9086 15.936 79.7566 15.936C78.4366 15.936 77.4766 15.288 77.0926 14.208L74.8606 15.504C75.6286 17.232 77.3566 18.312 79.7566 18.312C82.3486 18.312 84.4366 17.016 84.4366 14.616C84.4366 10.176 77.9806 11.496 77.9806 9.312Z" fill="#FF9401"/>
</svg>
