<svg width="164" height="19" viewBox="0 0 164 19" fill="none" xmlns="http://www.w3.org/2000/svg">
<path d="M11.02 4.14L8.86 4.82C8.76667 4.27333 8.49333 3.77333 8.04 3.32C7.58667 2.86667 6.93333 2.64 6.08 2.64C5.37333 2.64 4.78667 2.84 4.32 3.24C3.86667 3.64 3.64 4.12 3.64 4.68C3.64 5.65333 4.19333 6.26 5.3 6.5L7.34 6.92C8.56667 7.16 9.51333 7.64667 10.18 8.38C10.8467 9.11333 11.18 9.98667 11.18 11C11.18 12.1733 10.7267 13.1867 9.82 14.04C8.92667 14.88 7.70667 15.3 6.16 15.3C4.49333 15.3 3.19333 14.8667 2.26 14C1.32667 13.12 0.8 12.1 0.68 10.94L2.92 10.3C3 11.1 3.32 11.7733 3.88 12.32C4.44 12.8667 5.2 13.14 6.16 13.14C6.98667 13.14 7.62 12.96 8.06 12.6C8.51333 12.2267 8.74 11.7533 8.74 11.18C8.74 10.7133 8.57333 10.3133 8.24 9.98C7.90667 9.63333 7.44 9.39333 6.84 9.26L4.84 8.84C3.73333 8.61333 2.85333 8.15333 2.2 7.46C1.56 6.76667 1.24 5.9 1.24 4.86C1.24 3.67333 1.71333 2.65333 2.66 1.8C3.60667 0.946666 4.74 0.519999 6.06 0.519999C7.56667 0.519999 8.72 0.886666 9.52 1.62C10.32 2.34 10.82 3.18 11.02 4.14ZM14.9559 9.06H19.7359C19.7093 8.44667 19.4893 7.93333 19.0759 7.52C18.6759 7.10667 18.0959 6.9 17.3359 6.9C16.6426 6.9 16.0826 7.12 15.6559 7.56C15.2293 7.98667 14.9959 8.48667 14.9559 9.06ZM19.9959 11.6L21.9559 12.22C21.6759 13.1133 21.1493 13.8533 20.3759 14.44C19.6159 15.0133 18.6759 15.3 17.5559 15.3C16.1693 15.3 14.9893 14.8267 14.0159 13.88C13.0559 12.9333 12.5759 11.6667 12.5759 10.08C12.5759 8.58667 13.0426 7.36 13.9759 6.4C14.9226 5.44 16.0359 4.96 17.3159 4.96C18.8093 4.96 19.9759 5.42 20.8159 6.34C21.6559 7.24667 22.0759 8.47333 22.0759 10.02C22.0759 10.4333 22.0559 10.68 22.0159 10.76H14.8959C14.9226 11.4933 15.1893 12.1 15.6959 12.58C16.2159 13.06 16.8359 13.3 17.5559 13.3C18.8093 13.3 19.6226 12.7333 19.9959 11.6ZM25.913 9.06H30.693C30.6663 8.44667 30.4463 7.93333 30.033 7.52C29.633 7.10667 29.053 6.9 28.293 6.9C27.5996 6.9 27.0396 7.12 26.613 7.56C26.1863 7.98667 25.953 8.48667 25.913 9.06ZM30.953 11.6L32.913 12.22C32.633 13.1133 32.1063 13.8533 31.333 14.44C30.573 15.0133 29.633 15.3 28.513 15.3C27.1263 15.3 25.9463 14.8267 24.973 13.88C24.013 12.9333 23.533 11.6667 23.533 10.08C23.533 8.58667 23.9996 7.36 24.933 6.4C25.8796 5.44 26.993 4.96 28.273 4.96C29.7663 4.96 30.933 5.42 31.773 6.34C32.613 7.24667 33.033 8.47333 33.033 10.02C33.033 10.4333 33.013 10.68 32.973 10.76H25.853C25.8796 11.4933 26.1463 12.1 26.653 12.58C27.173 13.06 27.793 13.3 28.513 13.3C29.7663 13.3 30.5796 12.7333 30.953 11.6ZM56.0109 15H53.6309V4.56L49.2109 15H47.1309L42.7509 4.6V15H40.4109V0.819999H43.6109L48.2109 11.64L52.7509 0.819999H56.0109V15ZM61.5158 12.4C62.0491 12.9467 62.6958 13.22 63.4558 13.22C64.2158 13.22 64.8558 12.9467 65.3758 12.4C65.9091 11.8533 66.1758 11.0933 66.1758 10.12C66.1758 9.16 65.9091 8.41333 65.3758 7.88C64.8558 7.33333 64.2158 7.06 63.4558 7.06C62.6958 7.06 62.0491 7.33333 61.5158 7.88C60.9958 8.41333 60.7358 9.16 60.7358 10.12C60.7358 11.08 60.9958 11.84 61.5158 12.4ZM63.4558 4.96C64.9224 4.96 66.1291 5.44667 67.0758 6.42C68.0358 7.39333 68.5158 8.62667 68.5158 10.12C68.5158 11.6133 68.0358 12.8533 67.0758 13.84C66.1291 14.8133 64.9224 15.3 63.4558 15.3C62.0024 15.3 60.7958 14.8133 59.8358 13.84C58.8891 12.8533 58.4158 11.6133 58.4158 10.12C58.4158 8.62667 58.8891 7.39333 59.8358 6.42C60.7958 5.44667 62.0024 4.96 63.4558 4.96ZM76.4578 5.2V7.56C76.1911 7.52 75.9378 7.5 75.6978 7.5C73.9511 7.5 73.0778 8.45333 73.0778 10.36V15H70.7578V5.26H73.0178V6.82C73.2445 6.3 73.6111 5.89333 74.1178 5.6C74.6245 5.29333 75.1978 5.14 75.8378 5.14C76.0511 5.14 76.2578 5.16 76.4578 5.2ZM79.9169 9.06H84.6969C84.6702 8.44667 84.4502 7.93333 84.0369 7.52C83.6369 7.10667 83.0569 6.9 82.2969 6.9C81.6035 6.9 81.0435 7.12 80.6169 7.56C80.1902 7.98667 79.9569 8.48667 79.9169 9.06ZM84.9569 11.6L86.9169 12.22C86.6369 13.1133 86.1102 13.8533 85.3369 14.44C84.5769 15.0133 83.6369 15.3 82.5169 15.3C81.1302 15.3 79.9502 14.8267 78.9769 13.88C78.0169 12.9333 77.5369 11.6667 77.5369 10.08C77.5369 8.58667 78.0035 7.36 78.9369 6.4C79.8835 5.44 80.9969 4.96 82.2769 4.96C83.7702 4.96 84.9369 5.42 85.7769 6.34C86.6169 7.24667 87.0369 8.47333 87.0369 10.02C87.0369 10.4333 87.0169 10.68 86.9769 10.76H79.8569C79.8835 11.4933 80.1502 12.1 80.6569 12.58C81.1769 13.06 81.7969 13.3 82.5169 13.3C83.7702 13.3 84.5835 12.7333 84.9569 11.6ZM101.575 15L98.5948 9.4H96.8348V15H94.4148V0.819999H99.8548C101.188 0.819999 102.262 1.23333 103.075 2.06C103.888 2.87333 104.295 3.89333 104.295 5.12C104.295 6.13333 104.008 7 103.435 7.72C102.862 8.44 102.082 8.92 101.095 9.16L104.295 15H101.575ZM96.8348 7.28H99.4148C100.148 7.28 100.735 7.08667 101.175 6.7C101.628 6.3 101.855 5.77333 101.855 5.12C101.855 4.45333 101.628 3.92667 101.175 3.54C100.735 3.14 100.148 2.94 99.4148 2.94H96.8348V7.28ZM107.944 9.06H112.724C112.698 8.44667 112.478 7.93333 112.064 7.52C111.664 7.10667 111.084 6.9 110.324 6.9C109.631 6.9 109.071 7.12 108.644 7.56C108.218 7.98667 107.984 8.48667 107.944 9.06ZM112.984 11.6L114.944 12.22C114.664 13.1133 114.138 13.8533 113.364 14.44C112.604 15.0133 111.664 15.3 110.544 15.3C109.158 15.3 107.978 14.8267 107.004 13.88C106.044 12.9333 105.564 11.6667 105.564 10.08C105.564 8.58667 106.031 7.36 106.964 6.4C107.911 5.44 109.024 4.96 110.304 4.96C111.798 4.96 112.964 5.42 113.804 6.34C114.644 7.24667 115.064 8.47333 115.064 10.02C115.064 10.4333 115.044 10.68 115.004 10.76H107.884C107.911 11.4933 108.178 12.1 108.684 12.58C109.204 13.06 109.824 13.3 110.544 13.3C111.798 13.3 112.611 12.7333 112.984 11.6ZM121.521 7.1C120.775 7.1 120.141 7.37333 119.621 7.92C119.101 8.45333 118.841 9.18667 118.841 10.12C118.841 11.0667 119.101 11.8133 119.621 12.36C120.155 12.9067 120.801 13.18 121.561 13.18C122.241 13.18 122.781 13 123.181 12.64C123.595 12.2667 123.868 11.8467 124.001 11.38L126.041 12.12C125.775 12.9867 125.255 13.7333 124.481 14.36C123.721 14.9867 122.748 15.3 121.561 15.3C120.135 15.3 118.935 14.8067 117.961 13.82C117.001 12.8333 116.521 11.6 116.521 10.12C116.521 8.62667 116.995 7.39333 117.941 6.42C118.901 5.44667 120.088 4.96 121.501 4.96C122.715 4.96 123.701 5.27333 124.461 5.9C125.235 6.52667 125.735 7.28 125.961 8.16L123.881 8.92C123.748 8.41333 123.488 7.98667 123.101 7.64C122.728 7.28 122.201 7.1 121.521 7.1ZM130.402 15H128.102V5.26H130.402V15ZM128.182 2.9C127.888 2.60667 127.742 2.25333 127.742 1.84C127.742 1.42667 127.888 1.07333 128.182 0.779999C128.475 0.473333 128.828 0.319999 129.242 0.319999C129.668 0.319999 130.028 0.466666 130.322 0.76C130.615 1.05333 130.762 1.41333 130.762 1.84C130.762 2.25333 130.615 2.60667 130.322 2.9C130.028 3.19333 129.668 3.34 129.242 3.34C128.828 3.34 128.475 3.19333 128.182 2.9ZM135.695 18.8H133.395V5.26H135.635V6.58C135.888 6.14 136.288 5.77333 136.835 5.48C137.381 5.18667 138.015 5.04 138.735 5.04C140.135 5.04 141.235 5.52 142.035 6.48C142.835 7.42667 143.235 8.64 143.235 10.12C143.235 11.6 142.815 12.8267 141.975 13.8C141.135 14.76 140.028 15.24 138.655 15.24C137.988 15.24 137.395 15.1133 136.875 14.86C136.355 14.6067 135.961 14.2867 135.695 13.9V18.8ZM140.915 10.12C140.915 9.21333 140.675 8.48667 140.195 7.94C139.715 7.38 139.081 7.1 138.295 7.1C137.521 7.1 136.888 7.38 136.395 7.94C135.915 8.48667 135.675 9.21333 135.675 10.12C135.675 11.04 135.915 11.78 136.395 12.34C136.888 12.9 137.521 13.18 138.295 13.18C139.068 13.18 139.695 12.9 140.175 12.34C140.668 11.78 140.915 11.04 140.915 10.12ZM147.085 9.06H151.865C151.838 8.44667 151.618 7.93333 151.205 7.52C150.805 7.10667 150.225 6.9 149.465 6.9C148.772 6.9 148.212 7.12 147.785 7.56C147.358 7.98667 147.125 8.48667 147.085 9.06ZM152.125 11.6L154.085 12.22C153.805 13.1133 153.278 13.8533 152.505 14.44C151.745 15.0133 150.805 15.3 149.685 15.3C148.298 15.3 147.118 14.8267 146.145 13.88C145.185 12.9333 144.705 11.6667 144.705 10.08C144.705 8.58667 145.172 7.36 146.105 6.4C147.052 5.44 148.165 4.96 149.445 4.96C150.938 4.96 152.105 5.42 152.945 6.34C153.785 7.24667 154.205 8.47333 154.205 10.02C154.205 10.4333 154.185 10.68 154.145 10.76H147.025C147.052 11.4933 147.318 12.1 147.825 12.58C148.345 13.06 148.965 13.3 149.685 13.3C150.938 13.3 151.752 12.7333 152.125 11.6ZM155.562 12.36L157.582 11.8C157.622 12.2667 157.815 12.66 158.162 12.98C158.509 13.3 158.975 13.46 159.562 13.46C160.015 13.46 160.369 13.3533 160.622 13.14C160.889 12.9267 161.022 12.66 161.022 12.34C161.022 11.78 160.642 11.42 159.882 11.26L158.442 10.94C157.602 10.7533 156.955 10.4067 156.502 9.9C156.049 9.39333 155.822 8.79333 155.822 8.1C155.822 7.24667 156.169 6.51333 156.862 5.9C157.555 5.27333 158.402 4.96 159.402 4.96C160.042 4.96 160.609 5.05333 161.102 5.24C161.595 5.42667 161.975 5.67333 162.242 5.98C162.522 6.27333 162.735 6.56 162.882 6.84C163.029 7.12 163.122 7.4 163.162 7.68L161.202 8.24C161.149 7.86667 160.975 7.53333 160.682 7.24C160.402 6.93333 159.975 6.78 159.402 6.78C159.002 6.78 158.669 6.89333 158.402 7.12C158.135 7.33333 158.002 7.59333 158.002 7.9C158.002 8.44667 158.329 8.78667 158.982 8.92L160.462 9.22C161.369 9.42 162.062 9.78 162.542 10.3C163.022 10.82 163.262 11.4467 163.262 12.18C163.262 12.9933 162.935 13.72 162.282 14.36C161.642 14.9867 160.742 15.3 159.582 15.3C158.915 15.3 158.315 15.2 157.782 15C157.262 14.8 156.849 14.5467 156.542 14.24C156.249 13.92 156.015 13.6067 155.842 13.3C155.682 12.98 155.589 12.6667 155.562 12.36Z" fill="white"/>
</svg>
