<svg width="65" height="13" viewBox="0 0 65 13" fill="none" xmlns="http://www.w3.org/2000/svg">
<path d="M9.296 12L8.064 8.832H3.04L1.84 12H0.16L4.672 0.655999H6.48L10.992 12H9.296ZM5.536 2.288L3.6 7.376H7.504L5.536 2.288ZM13.9243 12H12.4363V0.415999H13.9243V5.392C14.1269 5.01867 14.4469 4.70933 14.8843 4.464C15.3323 4.208 15.8603 4.08 16.4683 4.08C17.5883 4.08 18.4576 4.45867 19.0763 5.216C19.6949 5.97333 20.0043 6.93867 20.0043 8.112C20.0043 9.296 19.6843 10.2773 19.0443 11.056C18.4043 11.824 17.5296 12.208 16.4203 12.208C15.2683 12.208 14.4363 11.7653 13.9243 10.88V12ZM17.8443 10.112C18.2603 9.61067 18.4683 8.944 18.4683 8.112C18.4683 7.28 18.2603 6.624 17.8443 6.144C17.4389 5.65333 16.8896 5.408 16.1963 5.408C15.5243 5.408 14.9749 5.65333 14.5483 6.144C14.1216 6.63467 13.9083 7.29067 13.9083 8.112C13.9083 8.93333 14.1216 9.6 14.5483 10.112C14.9749 10.6133 15.5243 10.864 16.1963 10.864C16.8789 10.864 17.4283 10.6133 17.8443 10.112ZM23.5046 10.176C23.974 10.656 24.5446 10.896 25.2166 10.896C25.8886 10.896 26.454 10.656 26.9126 10.176C27.382 9.68533 27.6166 9.008 27.6166 8.144C27.6166 7.29067 27.382 6.624 26.9126 6.144C26.454 5.65333 25.8886 5.408 25.2166 5.408C24.5446 5.408 23.974 5.65333 23.5046 6.144C23.046 6.624 22.8166 7.29067 22.8166 8.144C22.8166 9.008 23.046 9.68533 23.5046 10.176ZM22.3846 5.232C23.1313 4.45333 24.0753 4.064 25.2166 4.064C26.358 4.064 27.2966 4.45333 28.0326 5.232C28.7793 6 29.1526 6.97067 29.1526 8.144C29.1526 9.328 28.7846 10.3093 28.0486 11.088C27.3126 11.856 26.3686 12.24 25.2166 12.24C24.0646 12.24 23.1206 11.856 22.3846 11.088C21.6486 10.3093 21.2806 9.328 21.2806 8.144C21.2806 6.97067 21.6486 6 22.3846 5.232ZM36.0708 11.072C35.8681 11.456 35.5588 11.7493 35.1428 11.952C34.7268 12.144 34.2788 12.24 33.7988 12.24C32.9241 12.24 32.2254 11.952 31.7028 11.376C31.1801 10.7893 30.9188 10.048 30.9188 9.152V4.304H32.4228V8.928C32.4228 9.504 32.5614 9.97867 32.8388 10.352C33.1268 10.7253 33.5694 10.912 34.1668 10.912C34.7641 10.912 35.2174 10.736 35.5268 10.384C35.8361 10.0213 35.9908 9.54133 35.9908 8.944V4.304H37.4948V10.576C37.4948 11.0773 37.5214 11.552 37.5748 12H36.1348C36.0921 11.7653 36.0708 11.456 36.0708 11.072ZM42.0773 1.872V4.304H43.7413V5.664H42.0773V9.664C42.0773 10.0267 42.1573 10.2933 42.3173 10.464C42.4879 10.6347 42.7653 10.72 43.1493 10.72C43.3733 10.72 43.5706 10.6987 43.7413 10.656V11.936C43.4853 12.032 43.1439 12.08 42.7173 12.08C42.0559 12.08 41.5333 11.888 41.1493 11.504C40.7653 11.12 40.5733 10.5813 40.5733 9.888V5.664H39.1013V4.304H39.5173C39.9119 4.304 40.2053 4.19733 40.3973 3.984C40.5999 3.76 40.7013 3.472 40.7013 3.12V1.872H42.0773ZM54.8208 11.072C54.6181 11.456 54.3088 11.7493 53.8928 11.952C53.4768 12.144 53.0288 12.24 52.5488 12.24C51.6741 12.24 50.9754 11.952 50.4528 11.376C49.9301 10.7893 49.6688 10.048 49.6688 9.152V4.304H51.1728V8.928C51.1728 9.504 51.3114 9.97867 51.5888 10.352C51.8768 10.7253 52.3194 10.912 52.9168 10.912C53.5141 10.912 53.9674 10.736 54.2768 10.384C54.5861 10.0213 54.7408 9.54133 54.7408 8.944V4.304H56.2448V10.576C56.2448 11.0773 56.2714 11.552 56.3248 12H54.8848C54.8421 11.7653 54.8208 11.456 54.8208 11.072ZM58.0913 10L59.4513 9.52C59.5046 9.936 59.6859 10.2827 59.9953 10.56C60.3046 10.8267 60.7206 10.96 61.2433 10.96C61.6486 10.96 61.9686 10.864 62.2033 10.672C62.4379 10.4693 62.5553 10.224 62.5553 9.936C62.5553 9.424 62.2246 9.09333 61.5633 8.944L60.2513 8.656C59.6539 8.528 59.1846 8.272 58.8433 7.888C58.5019 7.504 58.3313 7.04 58.3313 6.496C58.3313 5.83467 58.5979 5.264 59.1313 4.784C59.6753 4.304 60.3206 4.064 61.0673 4.064C61.5579 4.064 61.9953 4.13867 62.3793 4.288C62.7633 4.42667 63.0619 4.61333 63.2753 4.848C63.4886 5.08267 63.6486 5.30133 63.7553 5.504C63.8619 5.70667 63.9419 5.91467 63.9953 6.128L62.6673 6.624C62.6459 6.496 62.6086 6.37333 62.5553 6.256C62.5019 6.128 62.4166 5.98933 62.2993 5.84C62.1926 5.69067 62.0326 5.57333 61.8193 5.488C61.6059 5.392 61.3553 5.344 61.0673 5.344C60.6939 5.344 60.3846 5.44533 60.1393 5.648C59.9046 5.85067 59.7873 6.09067 59.7873 6.368C59.7873 6.85867 60.0806 7.168 60.6673 7.296L61.9153 7.568C62.5979 7.71733 63.1206 7.99467 63.4833 8.4C63.8566 8.79467 64.0433 9.28 64.0433 9.856C64.0433 10.464 63.7926 11.0133 63.2913 11.504C62.8006 11.9947 62.1126 12.24 61.2273 12.24C60.2779 12.24 59.5366 12.0053 59.0033 11.536C58.4699 11.056 58.1659 10.544 58.0913 10Z" fill="#6A5C5C"/>
</svg>
