<svg width="75" height="15" viewBox="0 0 75 15" fill="none" xmlns="http://www.w3.org/2000/svg">
<path d="M0.62 1.238H4.778C5.966 1.238 6.902 1.556 7.586 2.192C8.282 2.828 8.63 3.662 8.63 4.694C8.63 5.354 8.456 5.924 8.108 6.404C7.76 6.884 7.298 7.232 6.722 7.448C7.43 7.628 7.988 8.006 8.396 8.582C8.816 9.146 9.026 9.794 9.026 10.526C9.026 11.534 8.66 12.368 7.928 13.028C7.196 13.676 6.248 14 5.084 14H0.62V1.238ZM2.384 6.818H4.58C5.276 6.818 5.828 6.632 6.236 6.26C6.644 5.876 6.848 5.384 6.848 4.784C6.848 4.172 6.638 3.686 6.218 3.326C5.798 2.966 5.228 2.786 4.508 2.786H2.384V6.818ZM2.384 12.452H4.832C5.552 12.452 6.128 12.266 6.56 11.894C7.004 11.522 7.226 11.03 7.226 10.418C7.226 9.782 7.028 9.278 6.632 8.906C6.236 8.522 5.66 8.33 4.904 8.33H2.384V12.452ZM16.0741 5.252V7.052C15.8221 7.016 15.5761 6.998 15.3361 6.998C13.7521 6.998 12.9601 7.886 12.9601 9.662V14H11.2681V5.342H12.9241V6.854C13.4521 5.75 14.3161 5.198 15.5161 5.198C15.7081 5.198 15.8941 5.216 16.0741 5.252ZM18.8876 8.78H23.6216C23.5976 8.132 23.3816 7.604 22.9736 7.196C22.5656 6.776 21.9896 6.566 21.2456 6.566C20.5736 6.566 20.0216 6.788 19.5896 7.232C19.1576 7.664 18.9236 8.18 18.8876 8.78ZM23.8736 11.03L25.3316 11.534C25.0796 12.338 24.6116 12.998 23.9276 13.514C23.2436 14.018 22.4156 14.27 21.4436 14.27C20.2316 14.27 19.1996 13.856 18.3476 13.028C17.5076 12.188 17.0876 11.06 17.0876 9.644C17.0876 8.324 17.4956 7.232 18.3116 6.368C19.1276 5.504 20.0996 5.072 21.2276 5.072C22.5356 5.072 23.5556 5.486 24.2876 6.314C25.0196 7.13 25.3856 8.228 25.3856 9.608C25.3856 9.824 25.3736 10.004 25.3496 10.148H18.8336C18.8456 10.916 19.0976 11.546 19.5896 12.038C20.0936 12.53 20.7116 12.776 21.4436 12.776C22.6796 12.776 23.4896 12.194 23.8736 11.03ZM27.0055 11.678C27.0055 10.934 27.2455 10.34 27.7255 9.896C28.2055 9.44 28.8415 9.158 29.6335 9.05L31.9735 8.708C32.4175 8.648 32.6395 8.432 32.6395 8.06C32.6395 7.604 32.4835 7.232 32.1715 6.944C31.8595 6.656 31.3915 6.512 30.7675 6.512C30.1915 6.512 29.7355 6.674 29.3995 6.998C29.0635 7.31 28.8655 7.73 28.8055 8.258L27.1855 7.88C27.2695 7.052 27.6475 6.38 28.3195 5.864C28.9915 5.336 29.7955 5.072 30.7315 5.072C31.9555 5.072 32.8615 5.372 33.4495 5.972C34.0375 6.56 34.3315 7.316 34.3315 8.24V12.578C34.3315 13.094 34.3675 13.568 34.4395 14H32.7835C32.7235 13.64 32.6935 13.25 32.6935 12.83C32.4535 13.214 32.0995 13.55 31.6315 13.838C31.1755 14.126 30.5995 14.27 29.9035 14.27C29.0515 14.27 28.3555 14.018 27.8155 13.514C27.2755 12.998 27.0055 12.386 27.0055 11.678ZM30.1375 12.848C30.8935 12.848 31.4995 12.644 31.9555 12.236C32.4115 11.828 32.6395 11.18 32.6395 10.292V9.896L29.9935 10.292C29.6095 10.352 29.3035 10.49 29.0755 10.706C28.8475 10.922 28.7335 11.216 28.7335 11.588C28.7335 11.924 28.8595 12.218 29.1115 12.47C29.3755 12.722 29.7175 12.848 30.1375 12.848ZM44.7253 5.342L41.0353 8.996L44.7973 14H42.6733L39.8473 10.184L38.6413 11.39V14H36.9673V0.967999H38.6413V9.176L42.3853 5.342H44.7253ZM50.7804 6.872H48.6924V14H46.9464V6.872H45.3444V5.342H46.9464V3.884C46.9464 2.96 47.2164 2.234 47.7564 1.706C48.2964 1.178 48.9744 0.913999 49.7904 0.913999C50.3064 0.913999 50.6424 0.973999 50.7984 1.094V2.606C50.6184 2.534 50.3724 2.498 50.0604 2.498C49.6884 2.498 49.3644 2.612 49.0884 2.84C48.8244 3.056 48.6924 3.434 48.6924 3.974V5.342H50.7804V6.872ZM51.7906 11.678C51.7906 10.934 52.0306 10.34 52.5106 9.896C52.9906 9.44 53.6266 9.158 54.4186 9.05L56.7586 8.708C57.2026 8.648 57.4246 8.432 57.4246 8.06C57.4246 7.604 57.2686 7.232 56.9566 6.944C56.6446 6.656 56.1766 6.512 55.5526 6.512C54.9766 6.512 54.5206 6.674 54.1846 6.998C53.8486 7.31 53.6506 7.73 53.5906 8.258L51.9706 7.88C52.0546 7.052 52.4326 6.38 53.1046 5.864C53.7766 5.336 54.5806 5.072 55.5166 5.072C56.7406 5.072 57.6466 5.372 58.2346 5.972C58.8226 6.56 59.1166 7.316 59.1166 8.24V12.578C59.1166 13.094 59.1526 13.568 59.2246 14H57.5686C57.5086 13.64 57.4786 13.25 57.4786 12.83C57.2386 13.214 56.8846 13.55 56.4166 13.838C55.9606 14.126 55.3846 14.27 54.6886 14.27C53.8366 14.27 53.1406 14.018 52.6006 13.514C52.0606 12.998 51.7906 12.386 51.7906 11.678ZM54.9226 12.848C55.6786 12.848 56.2846 12.644 56.7406 12.236C57.1966 11.828 57.4246 11.18 57.4246 10.292V9.896L54.7786 10.292C54.3946 10.352 54.0886 10.49 53.8606 10.706C53.6326 10.922 53.5186 11.216 53.5186 11.588C53.5186 11.924 53.6446 12.218 53.8966 12.47C54.1606 12.722 54.5026 12.848 54.9226 12.848ZM60.9425 11.75L62.4725 11.21C62.5325 11.678 62.7365 12.068 63.0845 12.38C63.4325 12.68 63.9005 12.83 64.4885 12.83C64.9445 12.83 65.3045 12.722 65.5685 12.506C65.8325 12.278 65.9645 12.002 65.9645 11.678C65.9645 11.102 65.5925 10.73 64.8485 10.562L63.3725 10.238C62.7005 10.094 62.1725 9.806 61.7885 9.374C61.4045 8.942 61.2125 8.42 61.2125 7.808C61.2125 7.064 61.5125 6.422 62.1125 5.882C62.7245 5.342 63.4505 5.072 64.2905 5.072C64.8425 5.072 65.3345 5.156 65.7665 5.324C66.1985 5.48 66.5345 5.69 66.7745 5.954C67.0145 6.218 67.1945 6.464 67.3145 6.692C67.4345 6.92 67.5245 7.154 67.5845 7.394L66.0905 7.952C66.0665 7.808 66.0245 7.67 65.9645 7.538C65.9045 7.394 65.8085 7.238 65.6765 7.07C65.5565 6.902 65.3765 6.77 65.1365 6.674C64.8965 6.566 64.6145 6.512 64.2905 6.512C63.8705 6.512 63.5225 6.626 63.2465 6.854C62.9825 7.082 62.8505 7.352 62.8505 7.664C62.8505 8.216 63.1805 8.564 63.8405 8.708L65.2445 9.014C66.0125 9.182 66.6005 9.494 67.0085 9.95C67.4285 10.394 67.6385 10.94 67.6385 11.588C67.6385 12.272 67.3565 12.89 66.7925 13.442C66.2405 13.994 65.4665 14.27 64.4705 14.27C63.4025 14.27 62.5685 14.006 61.9685 13.478C61.3685 12.938 61.0265 12.362 60.9425 11.75ZM72.1592 2.606V5.342H74.0312V6.872H72.1592V11.372C72.1592 11.78 72.2492 12.08 72.4292 12.272C72.6212 12.464 72.9332 12.56 73.3652 12.56C73.6172 12.56 73.8392 12.536 74.0312 12.488V13.928C73.7432 14.036 73.3592 14.09 72.8792 14.09C72.1352 14.09 71.5472 13.874 71.1152 13.442C70.6832 13.01 70.4672 12.404 70.4672 11.624V6.872H68.8112V5.342H69.2792C69.7232 5.342 70.0532 5.222 70.2692 4.982C70.4972 4.73 70.6112 4.406 70.6112 4.01V2.606H72.1592Z" fill="#6A5C5C"/>
</svg>
