<svg width="78" height="13" viewBox="0 0 78 13" fill="none" xmlns="http://www.w3.org/2000/svg">
<path d="M6.352 12.24C4.80533 12.24 3.47733 11.7067 2.368 10.64C1.26933 9.57333 0.72 8.13333 0.72 6.32C0.72 5.104 0.997333 4.03733 1.552 3.12C2.10667 2.20267 2.80533 1.52533 3.648 1.088C4.49067 0.639999 5.392 0.415999 6.352 0.415999C7.632 0.415999 8.70933 0.741333 9.584 1.392C10.4693 2.032 11.056 2.90667 11.344 4.016L9.888 4.528C9.67467 3.67467 9.264 3.01867 8.656 2.56C8.048 2.09067 7.28 1.856 6.352 1.856C5.24267 1.856 4.29333 2.25067 3.504 3.04C2.71467 3.81867 2.32 4.912 2.32 6.32C2.32 7.728 2.71467 8.82667 3.504 9.616C4.29333 10.4053 5.24267 10.8 6.352 10.8C7.28 10.8 8.05333 10.5547 8.672 10.064C9.29067 9.56267 9.72267 8.90133 9.968 8.08L11.36 8.592C11.0507 9.69067 10.4533 10.576 9.568 11.248C8.69333 11.9093 7.62133 12.24 6.352 12.24ZM14.864 10.176C15.3333 10.656 15.904 10.896 16.576 10.896C17.248 10.896 17.8133 10.656 18.272 10.176C18.7413 9.68533 18.976 9.008 18.976 8.144C18.976 7.29067 18.7413 6.624 18.272 6.144C17.8133 5.65333 17.248 5.408 16.576 5.408C15.904 5.408 15.3333 5.65333 14.864 6.144C14.4053 6.624 14.176 7.29067 14.176 8.144C14.176 9.008 14.4053 9.68533 14.864 10.176ZM13.744 5.232C14.4907 4.45333 15.4347 4.064 16.576 4.064C17.7173 4.064 18.656 4.45333 19.392 5.232C20.1387 6 20.512 6.97067 20.512 8.144C20.512 9.328 20.144 10.3093 19.408 11.088C18.672 11.856 17.728 12.24 16.576 12.24C15.424 12.24 14.48 11.856 13.744 11.088C13.008 10.3093 12.64 9.328 12.64 8.144C12.64 6.97067 13.008 6 13.744 5.232ZM23.9403 7.552V12H22.4363V4.304H23.9083V5.408C24.4203 4.52267 25.2096 4.08 26.2763 4.08C27.1616 4.08 27.8389 4.36267 28.3083 4.928C28.7883 5.49333 29.0283 6.224 29.0283 7.12V12H27.5243V7.376C27.5243 6.08533 26.9269 5.44 25.7323 5.44C25.1669 5.44 24.7243 5.64267 24.4043 6.048C24.0949 6.44267 23.9403 6.944 23.9403 7.552ZM32.3166 8.128C32.3166 8.93867 32.514 9.6 32.9086 10.112C33.314 10.624 33.8686 10.88 34.5726 10.88C35.2446 10.88 35.7833 10.6187 36.1886 10.096C36.594 9.57333 36.7966 8.90667 36.7966 8.096C36.7966 7.296 36.5993 6.65067 36.2046 6.16C35.81 5.66933 35.2713 5.424 34.5886 5.424C33.906 5.424 33.3566 5.67467 32.9406 6.176C32.5246 6.67733 32.3166 7.328 32.3166 8.128ZM36.8126 10.96V10.832C36.61 11.2267 36.3006 11.5573 35.8846 11.824C35.4793 12.08 34.994 12.208 34.4286 12.208C33.33 12.208 32.4446 11.824 31.7726 11.056C31.1113 10.2773 30.7806 9.30133 30.7806 8.128C30.7806 7.008 31.122 6.05867 31.8046 5.28C32.4873 4.49067 33.362 4.096 34.4286 4.096C35.058 4.096 35.57 4.224 35.9646 4.48C36.3593 4.72533 36.6313 5.02933 36.7806 5.392V0.415999H38.2686V10.576C38.2686 11.0987 38.2953 11.5733 38.3486 12H36.8926C36.8393 11.7013 36.8126 11.3547 36.8126 10.96ZM42.3149 12H40.8269V4.304H42.3149V12ZM40.7949 2.16C40.5922 1.94667 40.4909 1.69067 40.4909 1.392C40.4909 1.09333 40.5922 0.837333 40.7949 0.624C41.0082 0.410666 41.2642 0.304 41.5629 0.304C41.8615 0.304 42.1175 0.410666 42.3309 0.624C42.5442 0.826666 42.6509 1.08267 42.6509 1.392C42.6509 1.69067 42.5442 1.94667 42.3309 2.16C42.1175 2.36267 41.8615 2.464 41.5629 2.464C41.2642 2.464 41.0082 2.36267 40.7949 2.16ZM46.8898 1.872V4.304H48.5538V5.664H46.8898V9.664C46.8898 10.0267 46.9698 10.2933 47.1298 10.464C47.3004 10.6347 47.5778 10.72 47.9618 10.72C48.1858 10.72 48.3831 10.6987 48.5538 10.656V11.936C48.2978 12.032 47.9564 12.08 47.5298 12.08C46.8684 12.08 46.3458 11.888 45.9618 11.504C45.5778 11.12 45.3858 10.5813 45.3858 9.888V5.664H43.9138V4.304H44.3298C44.7244 4.304 45.0178 4.19733 45.2098 3.984C45.4124 3.76 45.5138 3.472 45.5138 3.12V1.872H46.8898ZM52.0493 12H50.5613V4.304H52.0493V12ZM50.5293 2.16C50.3266 1.94667 50.2253 1.69067 50.2253 1.392C50.2253 1.09333 50.3266 0.837333 50.5293 0.624C50.7426 0.410666 50.9986 0.304 51.2973 0.304C51.5959 0.304 51.8519 0.410666 52.0653 0.624C52.2786 0.826666 52.3853 1.08267 52.3853 1.392C52.3853 1.69067 52.2786 1.94667 52.0653 2.16C51.8519 2.36267 51.5959 2.464 51.2973 2.464C50.9986 2.464 50.7426 2.36267 50.5293 2.16ZM56.1921 10.176C56.6615 10.656 57.2321 10.896 57.9041 10.896C58.5761 10.896 59.1415 10.656 59.6001 10.176C60.0695 9.68533 60.3041 9.008 60.3041 8.144C60.3041 7.29067 60.0695 6.624 59.6001 6.144C59.1415 5.65333 58.5761 5.408 57.9041 5.408C57.2321 5.408 56.6615 5.65333 56.1921 6.144C55.7335 6.624 55.5041 7.29067 55.5041 8.144C55.5041 9.008 55.7335 9.68533 56.1921 10.176ZM55.0721 5.232C55.8188 4.45333 56.7628 4.064 57.9041 4.064C59.0455 4.064 59.9841 4.45333 60.7201 5.232C61.4668 6 61.8401 6.97067 61.8401 8.144C61.8401 9.328 61.4721 10.3093 60.7361 11.088C60.0001 11.856 59.0561 12.24 57.9041 12.24C56.7521 12.24 55.8081 11.856 55.0721 11.088C54.3361 10.3093 53.9681 9.328 53.9681 8.144C53.9681 6.97067 54.3361 6 55.0721 5.232ZM65.2684 7.552V12H63.7644V4.304H65.2364V5.408C65.7484 4.52267 66.5377 4.08 67.6044 4.08C68.4897 4.08 69.167 4.36267 69.6364 4.928C70.1164 5.49333 70.3564 6.224 70.3564 7.12V12H68.8524V7.376C68.8524 6.08533 68.255 5.44 67.0604 5.44C66.495 5.44 66.0524 5.64267 65.7324 6.048C65.423 6.44267 65.2684 6.944 65.2684 7.552ZM72.0288 10L73.3888 9.52C73.4421 9.936 73.6234 10.2827 73.9328 10.56C74.2421 10.8267 74.6581 10.96 75.1808 10.96C75.5861 10.96 75.9061 10.864 76.1408 10.672C76.3754 10.4693 76.4928 10.224 76.4928 9.936C76.4928 9.424 76.1621 9.09333 75.5008 8.944L74.1888 8.656C73.5914 8.528 73.1221 8.272 72.7808 7.888C72.4394 7.504 72.2688 7.04 72.2688 6.496C72.2688 5.83467 72.5354 5.264 73.0688 4.784C73.6128 4.304 74.2581 4.064 75.0048 4.064C75.4954 4.064 75.9328 4.13867 76.3168 4.288C76.7008 4.42667 76.9994 4.61333 77.2128 4.848C77.4261 5.08267 77.5861 5.30133 77.6928 5.504C77.7994 5.70667 77.8794 5.91467 77.9328 6.128L76.6048 6.624C76.5834 6.496 76.5461 6.37333 76.4928 6.256C76.4394 6.128 76.3541 5.98933 76.2368 5.84C76.1301 5.69067 75.9701 5.57333 75.7568 5.488C75.5434 5.392 75.2928 5.344 75.0048 5.344C74.6314 5.344 74.3221 5.44533 74.0768 5.648C73.8421 5.85067 73.7248 6.09067 73.7248 6.368C73.7248 6.85867 74.0181 7.168 74.6048 7.296L75.8528 7.568C76.5354 7.71733 77.0581 7.99467 77.4208 8.4C77.7941 8.79467 77.9808 9.28 77.9808 9.856C77.9808 10.464 77.7301 11.0133 77.2288 11.504C76.7381 11.9947 76.0501 12.24 75.1648 12.24C74.2154 12.24 73.4741 12.0053 72.9408 11.536C72.4074 11.056 72.1034 10.544 72.0288 10Z" fill="#6A5C5C"/>
</svg>
