<svg width="416" height="12" viewBox="0 0 416 12" fill="none" xmlns="http://www.w3.org/2000/svg">
<path d="M4.764 9.18C3.604 9.18 2.608 8.78 1.776 7.98C0.952 7.18 0.54 6.1 0.54 4.74C0.54 3.828 0.748 3.028 1.164 2.34C1.58 1.652 2.104 1.144 2.736 0.816C3.368 0.48 4.044 0.312 4.764 0.312C5.724 0.312 6.532 0.556 7.188 1.044C7.852 1.524 8.292 2.18 8.508 3.012L7.416 3.396C7.256 2.756 6.948 2.264 6.492 1.92C6.036 1.568 5.46 1.392 4.764 1.392C3.932 1.392 3.22 1.688 2.628 2.28C2.036 2.864 1.74 3.684 1.74 4.74C1.74 5.796 2.036 6.62 2.628 7.212C3.22 7.804 3.932 8.1 4.764 8.1C5.46 8.1 6.04 7.916 6.504 7.548C6.968 7.172 7.292 6.676 7.476 6.06L8.52 6.444C8.288 7.268 7.84 7.932 7.176 8.436C6.52 8.932 5.716 9.18 4.764 9.18ZM12.9882 3.168V4.368C12.8202 4.344 12.6562 4.332 12.4962 4.332C11.4402 4.332 10.9122 4.924 10.9122 6.108V9H9.78422V3.228H10.8882V4.236C11.2402 3.5 11.8162 3.132 12.6162 3.132C12.7442 3.132 12.8682 3.144 12.9882 3.168ZM14.8639 5.52H18.0199C18.0039 5.088 17.8599 4.736 17.5879 4.464C17.3159 4.184 16.9319 4.044 16.4359 4.044C15.9879 4.044 15.6199 4.192 15.3319 4.488C15.0439 4.776 14.8879 5.12 14.8639 5.52ZM18.1879 7.02L19.1599 7.356C18.9919 7.892 18.6799 8.332 18.2239 8.676C17.7679 9.012 17.2159 9.18 16.5679 9.18C15.7599 9.18 15.0719 8.904 14.5039 8.352C13.9439 7.792 13.6639 7.04 13.6639 6.096C13.6639 5.216 13.9359 4.488 14.4799 3.912C15.0239 3.336 15.6719 3.048 16.4239 3.048C17.2959 3.048 17.9759 3.324 18.4639 3.876C18.9519 4.42 19.1959 5.152 19.1959 6.072C19.1959 6.216 19.1879 6.336 19.1719 6.432H14.8279C14.8359 6.944 15.0039 7.364 15.3319 7.692C15.6679 8.02 16.0799 8.184 16.5679 8.184C17.3919 8.184 17.9319 7.796 18.1879 7.02ZM20.2758 7.452C20.2758 6.956 20.4358 6.56 20.7558 6.264C21.0758 5.96 21.4998 5.772 22.0278 5.7L23.5878 5.472C23.8838 5.432 24.0318 5.288 24.0318 5.04C24.0318 4.736 23.9278 4.488 23.7198 4.296C23.5118 4.104 23.1998 4.008 22.7838 4.008C22.3998 4.008 22.0958 4.116 21.8718 4.332C21.6478 4.54 21.5158 4.82 21.4758 5.172L20.3958 4.92C20.4518 4.368 20.7038 3.92 21.1518 3.576C21.5998 3.224 22.1358 3.048 22.7598 3.048C23.5758 3.048 24.1798 3.248 24.5718 3.648C24.9638 4.04 25.1598 4.544 25.1598 5.16V8.052C25.1598 8.396 25.1838 8.712 25.2318 9H24.1278C24.0878 8.76 24.0678 8.5 24.0678 8.22C23.9078 8.476 23.6718 8.7 23.3598 8.892C23.0558 9.084 22.6718 9.18 22.2078 9.18C21.6398 9.18 21.1758 9.012 20.8158 8.676C20.4558 8.332 20.2758 7.924 20.2758 7.452ZM22.3638 8.232C22.8678 8.232 23.2718 8.096 23.5758 7.824C23.8798 7.552 24.0318 7.12 24.0318 6.528V6.264L22.2678 6.528C22.0118 6.568 21.8078 6.66 21.6558 6.804C21.5038 6.948 21.4278 7.144 21.4278 7.392C21.4278 7.616 21.5118 7.812 21.6798 7.98C21.8558 8.148 22.0838 8.232 22.3638 8.232ZM28.429 1.404V3.228H29.677V4.248H28.429V7.248C28.429 7.52 28.489 7.72 28.609 7.848C28.737 7.976 28.945 8.04 29.233 8.04C29.401 8.04 29.549 8.024 29.677 7.992V8.952C29.485 9.024 29.229 9.06 28.909 9.06C28.413 9.06 28.021 8.916 27.733 8.628C27.445 8.34 27.301 7.936 27.301 7.416V4.248H26.197V3.228H26.509C26.805 3.228 27.025 3.148 27.169 2.988C27.321 2.82 27.397 2.604 27.397 2.34V1.404H28.429ZM31.8561 5.52H35.0121C34.9961 5.088 34.8521 4.736 34.5801 4.464C34.3081 4.184 33.9241 4.044 33.4281 4.044C32.9801 4.044 32.6121 4.192 32.3241 4.488C32.0361 4.776 31.8801 5.12 31.8561 5.52ZM35.1801 7.02L36.1521 7.356C35.9841 7.892 35.6721 8.332 35.2161 8.676C34.7601 9.012 34.2081 9.18 33.5601 9.18C32.7521 9.18 32.0641 8.904 31.4961 8.352C30.9361 7.792 30.6561 7.04 30.6561 6.096C30.6561 5.216 30.9281 4.488 31.4721 3.912C32.0161 3.336 32.6641 3.048 33.4161 3.048C34.2881 3.048 34.9681 3.324 35.4561 3.876C35.9441 4.42 36.1881 5.152 36.1881 6.072C36.1881 6.216 36.1801 6.336 36.1641 6.432H31.8201C31.8281 6.944 31.9961 7.364 32.3241 7.692C32.6601 8.02 33.0721 8.184 33.5601 8.184C34.3841 8.184 34.9241 7.796 35.1801 7.02ZM38.3 6.096C38.3 6.704 38.448 7.2 38.744 7.584C39.048 7.968 39.464 8.16 39.992 8.16C40.496 8.16 40.9 7.964 41.204 7.572C41.508 7.18 41.66 6.68 41.66 6.072C41.66 5.472 41.512 4.988 41.216 4.62C40.92 4.252 40.516 4.068 40.004 4.068C39.492 4.068 39.08 4.256 38.768 4.632C38.456 5.008 38.3 5.496 38.3 6.096ZM41.672 8.22V8.124C41.52 8.42 41.288 8.668 40.976 8.868C40.672 9.06 40.308 9.156 39.884 9.156C39.06 9.156 38.396 8.868 37.892 8.292C37.396 7.708 37.148 6.976 37.148 6.096C37.148 5.256 37.404 4.544 37.916 3.96C38.428 3.368 39.084 3.072 39.884 3.072C40.356 3.072 40.74 3.168 41.036 3.36C41.332 3.544 41.536 3.772 41.648 4.044V0.312H42.764V7.932C42.764 8.324 42.784 8.68 42.824 9H41.732C41.692 8.776 41.672 8.516 41.672 8.22ZM50.9347 3.228H52.0987L53.5987 7.572L54.8707 3.228H56.0587L54.1867 9H53.0227L51.4867 4.608L49.9867 9H48.7987L46.9027 3.228H48.1387L49.4347 7.572L50.9347 3.228ZM58.3143 9H57.1983V3.228H58.3143V9ZM57.1743 1.62C57.0223 1.46 56.9463 1.268 56.9463 1.044C56.9463 0.819999 57.0223 0.628 57.1743 0.468C57.3343 0.308 57.5263 0.228 57.7503 0.228C57.9743 0.228 58.1663 0.308 58.3263 0.468C58.4863 0.62 58.5663 0.812 58.5663 1.044C58.5663 1.268 58.4863 1.46 58.3263 1.62C58.1663 1.772 57.9743 1.848 57.7503 1.848C57.5263 1.848 57.3343 1.772 57.1743 1.62ZM61.7454 1.404V3.228H62.9934V4.248H61.7454V7.248C61.7454 7.52 61.8054 7.72 61.9254 7.848C62.0534 7.976 62.2614 8.04 62.5494 8.04C62.7174 8.04 62.8654 8.024 62.9934 7.992V8.952C62.8014 9.024 62.5454 9.06 62.2254 9.06C61.7294 9.06 61.3374 8.916 61.0494 8.628C60.7614 8.34 60.6174 7.936 60.6174 7.416V4.248H59.5134V3.228H59.8254C60.1214 3.228 60.3414 3.148 60.4854 2.988C60.6374 2.82 60.7134 2.604 60.7134 2.34V1.404H61.7454ZM65.6271 5.604V9H64.4991V0.312H65.6271V3.9C66.0111 3.34 66.5951 3.06 67.3791 3.06C68.0431 3.06 68.5511 3.272 68.9031 3.696C69.2631 4.12 69.4431 4.668 69.4431 5.34V9H68.3151V5.532C68.3151 4.564 67.8671 4.08 66.9711 4.08C66.5551 4.08 66.2311 4.224 65.9991 4.512C65.7671 4.792 65.6431 5.156 65.6271 5.604ZM90.3533 9H89.2373V0.312H90.3533V4.044C90.5053 3.764 90.7453 3.532 91.0733 3.348C91.4093 3.156 91.8053 3.06 92.2613 3.06C93.1013 3.06 93.7533 3.344 94.2173 3.912C94.6813 4.48 94.9133 5.204 94.9133 6.084C94.9133 6.972 94.6733 7.708 94.1933 8.292C93.7133 8.868 93.0573 9.156 92.2253 9.156C91.3613 9.156 90.7373 8.824 90.3533 8.16V9ZM93.2933 7.584C93.6053 7.208 93.7613 6.708 93.7613 6.084C93.7613 5.46 93.6053 4.968 93.2933 4.608C92.9893 4.24 92.5773 4.056 92.0573 4.056C91.5533 4.056 91.1413 4.24 90.8213 4.608C90.5013 4.976 90.3413 5.468 90.3413 6.084C90.3413 6.7 90.5013 7.2 90.8213 7.584C91.1413 7.96 91.5533 8.148 92.0573 8.148C92.5693 8.148 92.9813 7.96 93.2933 7.584ZM97.5563 11.412H96.3203L97.7603 8.364L95.2763 3.228H96.5723L98.3723 7.212L100.1 3.228H101.312L97.5563 11.412ZM113.942 2.424L112.886 2.796C112.83 2.428 112.65 2.096 112.346 1.8C112.042 1.496 111.622 1.344 111.086 1.344C110.614 1.344 110.222 1.48 109.91 1.752C109.598 2.024 109.442 2.36 109.442 2.76C109.442 3.072 109.534 3.336 109.718 3.552C109.91 3.768 110.182 3.916 110.534 3.996L111.806 4.272C112.51 4.424 113.054 4.712 113.438 5.136C113.822 5.552 114.014 6.06 114.014 6.66C114.014 7.348 113.742 7.94 113.198 8.436C112.654 8.932 111.946 9.18 111.074 9.18C110.122 9.18 109.374 8.932 108.83 8.436C108.294 7.932 107.982 7.336 107.894 6.648L109.021 6.288C109.07 6.8 109.27 7.232 109.622 7.584C109.974 7.936 110.454 8.112 111.062 8.112C111.622 8.112 112.054 7.984 112.358 7.728C112.662 7.472 112.814 7.148 112.814 6.756C112.814 6.436 112.706 6.16 112.49 5.928C112.274 5.688 111.958 5.524 111.542 5.436L110.33 5.172C109.698 5.036 109.194 4.768 108.818 4.368C108.442 3.968 108.254 3.46 108.254 2.844C108.254 2.172 108.526 1.584 109.07 1.08C109.622 0.568 110.286 0.312 111.062 0.312C111.934 0.312 112.602 0.524 113.066 0.948C113.53 1.372 113.822 1.864 113.942 2.424ZM115.092 7.452C115.092 6.956 115.252 6.56 115.572 6.264C115.892 5.96 116.316 5.772 116.844 5.7L118.404 5.472C118.7 5.432 118.848 5.288 118.848 5.04C118.848 4.736 118.744 4.488 118.536 4.296C118.328 4.104 118.016 4.008 117.6 4.008C117.216 4.008 116.912 4.116 116.688 4.332C116.464 4.54 116.332 4.82 116.292 5.172L115.212 4.92C115.268 4.368 115.52 3.92 115.968 3.576C116.416 3.224 116.952 3.048 117.576 3.048C118.392 3.048 118.996 3.248 119.388 3.648C119.78 4.04 119.976 4.544 119.976 5.16V8.052C119.976 8.396 120 8.712 120.048 9H118.944C118.904 8.76 118.884 8.5 118.884 8.22C118.724 8.476 118.488 8.7 118.176 8.892C117.872 9.084 117.488 9.18 117.024 9.18C116.456 9.18 115.992 9.012 115.632 8.676C115.272 8.332 115.092 7.924 115.092 7.452ZM117.18 8.232C117.684 8.232 118.088 8.096 118.392 7.824C118.696 7.552 118.848 7.12 118.848 6.528V6.264L117.084 6.528C116.828 6.568 116.624 6.66 116.472 6.804C116.32 6.948 116.244 7.144 116.244 7.392C116.244 7.616 116.328 7.812 116.496 7.98C116.672 8.148 116.9 8.232 117.18 8.232ZM121.733 9.624V3.228H122.861V9.672C122.861 10.2 122.717 10.628 122.429 10.956C122.141 11.292 121.753 11.46 121.265 11.46C120.985 11.46 120.761 11.432 120.593 11.376V10.428C120.713 10.452 120.833 10.464 120.953 10.464C121.473 10.464 121.733 10.184 121.733 9.624ZM121.709 1.596C121.557 1.436 121.481 1.244 121.481 1.02C121.481 0.796 121.557 0.604 121.709 0.443999C121.869 0.283999 122.061 0.204 122.285 0.204C122.509 0.204 122.701 0.283999 122.861 0.443999C123.021 0.596 123.101 0.788 123.101 1.02C123.101 1.244 123.021 1.436 122.861 1.596C122.701 1.748 122.509 1.824 122.285 1.824C122.061 1.824 121.869 1.748 121.709 1.596ZM125.896 9H124.78V3.228H125.896V9ZM124.756 1.62C124.604 1.46 124.528 1.268 124.528 1.044C124.528 0.819999 124.604 0.628 124.756 0.468C124.916 0.308 125.108 0.228 125.332 0.228C125.556 0.228 125.748 0.308 125.908 0.468C126.068 0.62 126.148 0.812 126.148 1.044C126.148 1.268 126.068 1.46 125.908 1.62C125.748 1.772 125.556 1.848 125.332 1.848C125.108 1.848 124.916 1.772 124.756 1.62ZM128.931 9H127.815V0.312H128.931V4.044C129.083 3.764 129.323 3.532 129.651 3.348C129.987 3.156 130.383 3.06 130.839 3.06C131.679 3.06 132.331 3.344 132.795 3.912C133.259 4.48 133.491 5.204 133.491 6.084C133.491 6.972 133.251 7.708 132.771 8.292C132.291 8.868 131.635 9.156 130.803 9.156C129.939 9.156 129.315 8.824 128.931 8.16V9ZM131.871 7.584C132.183 7.208 132.339 6.708 132.339 6.084C132.339 5.46 132.183 4.968 131.871 4.608C131.567 4.24 131.155 4.056 130.635 4.056C130.131 4.056 129.719 4.24 129.399 4.608C129.079 4.976 128.919 5.468 128.919 6.084C128.919 6.7 129.079 7.2 129.399 7.584C129.719 7.96 130.131 8.148 130.635 8.148C131.147 8.148 131.559 7.96 131.871 7.584ZM139.225 7.956H140.965C141.797 7.956 142.485 7.68 143.029 7.128C143.581 6.576 143.857 5.788 143.857 4.764C143.857 3.732 143.585 2.936 143.041 2.376C142.505 1.816 141.821 1.536 140.989 1.536H139.225V7.956ZM141.001 9H138.049V0.491999H141.025C142.169 0.491999 143.129 0.872 143.905 1.632C144.681 2.384 145.069 3.428 145.069 4.764C145.069 6.092 144.677 7.132 143.893 7.884C143.109 8.628 142.145 9 141.001 9ZM146.205 7.452C146.205 6.956 146.365 6.56 146.685 6.264C147.005 5.96 147.429 5.772 147.957 5.7L149.517 5.472C149.813 5.432 149.961 5.288 149.961 5.04C149.961 4.736 149.857 4.488 149.649 4.296C149.441 4.104 149.129 4.008 148.713 4.008C148.329 4.008 148.025 4.116 147.801 4.332C147.577 4.54 147.445 4.82 147.405 5.172L146.325 4.92C146.381 4.368 146.633 3.92 147.081 3.576C147.529 3.224 148.065 3.048 148.689 3.048C149.505 3.048 150.109 3.248 150.501 3.648C150.893 4.04 151.089 4.544 151.089 5.16V8.052C151.089 8.396 151.113 8.712 151.161 9H150.057C150.017 8.76 149.997 8.5 149.997 8.22C149.837 8.476 149.601 8.7 149.289 8.892C148.985 9.084 148.601 9.18 148.137 9.18C147.569 9.18 147.105 9.012 146.745 8.676C146.385 8.332 146.205 7.924 146.205 7.452ZM148.293 8.232C148.797 8.232 149.201 8.096 149.505 7.824C149.809 7.552 149.961 7.12 149.961 6.528V6.264L148.197 6.528C147.941 6.568 147.737 6.66 147.585 6.804C147.433 6.948 147.357 7.144 147.357 7.392C147.357 7.616 147.441 7.812 147.609 7.98C147.785 8.148 148.013 8.232 148.293 8.232ZM152.307 7.5L153.327 7.14C153.367 7.452 153.503 7.712 153.735 7.92C153.967 8.12 154.279 8.22 154.671 8.22C154.975 8.22 155.215 8.148 155.391 8.004C155.567 7.852 155.655 7.668 155.655 7.452C155.655 7.068 155.407 6.82 154.911 6.708L153.927 6.492C153.479 6.396 153.127 6.204 152.871 5.916C152.615 5.628 152.487 5.28 152.487 4.872C152.487 4.376 152.687 3.948 153.087 3.588C153.495 3.228 153.979 3.048 154.539 3.048C154.907 3.048 155.235 3.104 155.523 3.216C155.811 3.32 156.035 3.46 156.195 3.636C156.355 3.812 156.475 3.976 156.555 4.128C156.635 4.28 156.695 4.436 156.735 4.596L155.739 4.968C155.723 4.872 155.695 4.78 155.655 4.692C155.615 4.596 155.551 4.492 155.463 4.38C155.383 4.268 155.263 4.18 155.103 4.116C154.943 4.044 154.755 4.008 154.539 4.008C154.259 4.008 154.027 4.084 153.843 4.236C153.667 4.388 153.579 4.568 153.579 4.776C153.579 5.144 153.799 5.376 154.239 5.472L155.175 5.676C155.687 5.788 156.079 5.996 156.351 6.3C156.631 6.596 156.771 6.96 156.771 7.392C156.771 7.848 156.583 8.26 156.207 8.628C155.839 8.996 155.323 9.18 154.659 9.18C153.947 9.18 153.391 9.004 152.991 8.652C152.591 8.292 152.363 7.908 152.307 7.5ZM166.817 2.424L165.761 2.796C165.705 2.428 165.525 2.096 165.221 1.8C164.917 1.496 164.497 1.344 163.961 1.344C163.489 1.344 163.097 1.48 162.785 1.752C162.473 2.024 162.317 2.36 162.317 2.76C162.317 3.072 162.409 3.336 162.593 3.552C162.785 3.768 163.057 3.916 163.409 3.996L164.681 4.272C165.385 4.424 165.929 4.712 166.312 5.136C166.697 5.552 166.889 6.06 166.889 6.66C166.889 7.348 166.617 7.94 166.073 8.436C165.529 8.932 164.821 9.18 163.949 9.18C162.997 9.18 162.249 8.932 161.705 8.436C161.169 7.932 160.857 7.336 160.769 6.648L161.896 6.288C161.945 6.8 162.145 7.232 162.497 7.584C162.849 7.936 163.329 8.112 163.937 8.112C164.497 8.112 164.929 7.984 165.233 7.728C165.537 7.472 165.689 7.148 165.689 6.756C165.689 6.436 165.581 6.16 165.365 5.928C165.149 5.688 164.833 5.524 164.417 5.436L163.205 5.172C162.573 5.036 162.069 4.768 161.693 4.368C161.317 3.968 161.129 3.46 161.129 2.844C161.129 2.172 161.401 1.584 161.945 1.08C162.497 0.568 163.161 0.312 163.937 0.312C164.809 0.312 165.477 0.524 165.941 0.948C166.405 1.372 166.697 1.864 166.817 2.424ZM171.885 8.304C171.733 8.592 171.501 8.812 171.189 8.964C170.877 9.108 170.541 9.18 170.181 9.18C169.525 9.18 169.001 8.964 168.609 8.532C168.217 8.092 168.021 7.536 168.021 6.864V3.228H169.149V6.696C169.149 7.128 169.253 7.484 169.461 7.764C169.677 8.044 170.009 8.184 170.457 8.184C170.905 8.184 171.245 8.052 171.477 7.788C171.709 7.516 171.825 7.156 171.825 6.708V3.228H172.953V7.932C172.953 8.308 172.973 8.664 173.013 9H171.933C171.901 8.824 171.885 8.592 171.885 8.304ZM175.994 11.28H174.878V3.228H175.97V4.128C176.138 3.824 176.39 3.576 176.726 3.384C177.062 3.192 177.454 3.096 177.902 3.096C178.734 3.096 179.382 3.38 179.846 3.948C180.318 4.516 180.554 5.236 180.554 6.108C180.554 6.988 180.31 7.716 179.822 8.292C179.342 8.868 178.69 9.156 177.866 9.156C177.442 9.156 177.066 9.068 176.738 8.892C176.41 8.716 176.162 8.492 175.994 8.22V11.28ZM179.402 6.108C179.402 5.524 179.246 5.044 178.934 4.668C178.63 4.284 178.218 4.092 177.698 4.092C177.186 4.092 176.77 4.284 176.45 4.668C176.138 5.044 175.982 5.524 175.982 6.108C175.982 6.708 176.138 7.2 176.45 7.584C176.77 7.96 177.186 8.148 177.698 8.148C178.21 8.148 178.622 7.96 178.934 7.584C179.246 7.2 179.402 6.708 179.402 6.108ZM185.195 3.168V4.368C185.027 4.344 184.863 4.332 184.703 4.332C183.647 4.332 183.119 4.924 183.119 6.108V9H181.991V3.228H183.095V4.236C183.447 3.5 184.023 3.132 184.823 3.132C184.951 3.132 185.075 3.144 185.195 3.168ZM187.514 9H186.398V3.228H187.514V9ZM186.374 1.62C186.222 1.46 186.146 1.268 186.146 1.044C186.146 0.819999 186.222 0.628 186.374 0.468C186.534 0.308 186.726 0.228 186.95 0.228C187.174 0.228 187.366 0.308 187.526 0.468C187.686 0.62 187.766 0.812 187.766 1.044C187.766 1.268 187.686 1.46 187.526 1.62C187.366 1.772 187.174 1.848 186.95 1.848C186.726 1.848 186.534 1.772 186.374 1.62ZM190.873 11.412H189.637L191.077 8.364L188.593 3.228H189.889L191.689 7.212L193.417 3.228H194.629L190.873 11.412ZM196.668 7.632C197.02 7.992 197.448 8.172 197.952 8.172C198.456 8.172 198.88 7.992 199.224 7.632C199.576 7.264 199.752 6.756 199.752 6.108C199.752 5.468 199.576 4.968 199.224 4.608C198.88 4.24 198.456 4.056 197.952 4.056C197.448 4.056 197.02 4.24 196.668 4.608C196.324 4.968 196.152 5.468 196.152 6.108C196.152 6.756 196.324 7.264 196.668 7.632ZM195.828 3.924C196.388 3.34 197.096 3.048 197.952 3.048C198.808 3.048 199.512 3.34 200.064 3.924C200.624 4.5 200.904 5.228 200.904 6.108C200.904 6.996 200.628 7.732 200.076 8.316C199.524 8.892 198.816 9.18 197.952 9.18C197.088 9.18 196.38 8.892 195.828 8.316C195.276 7.732 195 6.996 195 6.108C195 5.228 195.276 4.5 195.828 3.924ZM208.251 4.248H206.859V9H205.695V4.248H204.627V3.228H205.695V2.256C205.695 1.64 205.875 1.156 206.235 0.804C206.595 0.451999 207.047 0.275999 207.591 0.275999C207.935 0.275999 208.159 0.316 208.263 0.396V1.404C208.143 1.356 207.979 1.332 207.771 1.332C207.523 1.332 207.307 1.408 207.123 1.56C206.947 1.704 206.859 1.956 206.859 2.316V3.228H208.251V4.248ZM210.414 7.632C210.766 7.992 211.194 8.172 211.698 8.172C212.202 8.172 212.626 7.992 212.97 7.632C213.322 7.264 213.498 6.756 213.498 6.108C213.498 5.468 213.322 4.968 212.97 4.608C212.626 4.24 212.202 4.056 211.698 4.056C211.194 4.056 210.766 4.24 210.414 4.608C210.07 4.968 209.898 5.468 209.898 6.108C209.898 6.756 210.07 7.264 210.414 7.632ZM209.574 3.924C210.134 3.34 210.842 3.048 211.698 3.048C212.554 3.048 213.258 3.34 213.81 3.924C214.37 4.5 214.65 5.228 214.65 6.108C214.65 6.996 214.374 7.732 213.822 8.316C213.27 8.892 212.562 9.18 211.698 9.18C210.834 9.18 210.126 8.892 209.574 8.316C209.022 7.732 208.746 6.996 208.746 6.108C208.746 5.228 209.022 4.5 209.574 3.924ZM219.297 3.168V4.368C219.129 4.344 218.965 4.332 218.805 4.332C217.749 4.332 217.221 4.924 217.221 6.108V9H216.093V3.228H217.197V4.236C217.549 3.5 218.125 3.132 218.925 3.132C219.053 3.132 219.177 3.144 219.297 3.168ZM229.523 1.584H226.679V9H225.503V1.584H222.659V0.491999H229.523V1.584ZM232.95 3.228H234.114L235.614 7.572L236.886 3.228H238.074L236.202 9H235.038L233.502 4.608L232.002 9H230.814L228.918 3.228H230.154L231.45 7.572L232.95 3.228ZM240.33 9H239.214V3.228H240.33V9ZM239.19 1.62C239.038 1.46 238.962 1.268 238.962 1.044C238.962 0.819999 239.038 0.628 239.19 0.468C239.35 0.308 239.542 0.228 239.766 0.228C239.99 0.228 240.182 0.308 240.342 0.468C240.502 0.62 240.582 0.812 240.582 1.044C240.582 1.268 240.502 1.46 240.342 1.62C240.182 1.772 239.99 1.848 239.766 1.848C239.542 1.848 239.35 1.772 239.19 1.62ZM243.377 5.664V9H242.249V3.228H243.353V4.056C243.737 3.392 244.329 3.06 245.129 3.06C245.793 3.06 246.301 3.272 246.653 3.696C247.013 4.12 247.193 4.668 247.193 5.34V9H246.065V5.532C246.065 4.564 245.617 4.08 244.721 4.08C244.297 4.08 243.965 4.232 243.725 4.536C243.493 4.832 243.377 5.208 243.377 5.664ZM254.159 3.228L251.699 5.664L254.207 9H252.791L250.907 6.456L250.103 7.26V9H248.987V0.312H250.103V5.784L252.599 3.228H254.159ZM256.42 9H255.292V0.312H256.42V9ZM259.071 5.52H262.227C262.211 5.088 262.067 4.736 261.795 4.464C261.523 4.184 261.139 4.044 260.643 4.044C260.195 4.044 259.827 4.192 259.539 4.488C259.251 4.776 259.095 5.12 259.071 5.52ZM262.395 7.02L263.367 7.356C263.199 7.892 262.887 8.332 262.431 8.676C261.975 9.012 261.423 9.18 260.775 9.18C259.967 9.18 259.279 8.904 258.711 8.352C258.151 7.792 257.871 7.04 257.871 6.096C257.871 5.216 258.143 4.488 258.687 3.912C259.231 3.336 259.879 3.048 260.631 3.048C261.503 3.048 262.183 3.324 262.671 3.876C263.159 4.42 263.403 5.152 263.403 6.072C263.403 6.216 263.395 6.336 263.379 6.432H259.035C259.043 6.944 259.211 7.364 259.539 7.692C259.875 8.02 260.287 8.184 260.775 8.184C261.599 8.184 262.139 7.796 262.395 7.02ZM271.647 9.18C270.487 9.18 269.491 8.78 268.659 7.98C267.835 7.18 267.423 6.1 267.423 4.74C267.423 3.828 267.631 3.028 268.047 2.34C268.463 1.652 268.987 1.144 269.619 0.816C270.251 0.48 270.927 0.312 271.647 0.312C272.607 0.312 273.415 0.556 274.071 1.044C274.735 1.524 275.175 2.18 275.391 3.012L274.299 3.396C274.139 2.756 273.831 2.264 273.375 1.92C272.919 1.568 272.343 1.392 271.647 1.392C270.815 1.392 270.103 1.688 269.511 2.28C268.919 2.864 268.623 3.684 268.623 4.74C268.623 5.796 268.919 6.62 269.511 7.212C270.103 7.804 270.815 8.1 271.647 8.1C272.343 8.1 272.923 7.916 273.387 7.548C273.851 7.172 274.175 6.676 274.359 6.06L275.403 6.444C275.171 7.268 274.723 7.932 274.059 8.436C273.403 8.932 272.599 9.18 271.647 9.18ZM279.871 3.168V4.368C279.703 4.344 279.539 4.332 279.379 4.332C278.323 4.332 277.795 4.924 277.795 6.108V9H276.667V3.228H277.771V4.236C278.123 3.5 278.699 3.132 279.499 3.132C279.627 3.132 279.751 3.144 279.871 3.168ZM281.747 5.52H284.903C284.887 5.088 284.743 4.736 284.471 4.464C284.199 4.184 283.815 4.044 283.319 4.044C282.871 4.044 282.503 4.192 282.215 4.488C281.927 4.776 281.771 5.12 281.747 5.52ZM285.071 7.02L286.043 7.356C285.875 7.892 285.563 8.332 285.107 8.676C284.651 9.012 284.099 9.18 283.451 9.18C282.643 9.18 281.955 8.904 281.387 8.352C280.827 7.792 280.547 7.04 280.547 6.096C280.547 5.216 280.819 4.488 281.363 3.912C281.907 3.336 282.555 3.048 283.307 3.048C284.179 3.048 284.859 3.324 285.347 3.876C285.835 4.42 286.079 5.152 286.079 6.072C286.079 6.216 286.071 6.336 286.055 6.432H281.711C281.719 6.944 281.887 7.364 282.215 7.692C282.551 8.02 282.963 8.184 283.451 8.184C284.275 8.184 284.815 7.796 285.071 7.02ZM287.159 7.452C287.159 6.956 287.319 6.56 287.639 6.264C287.959 5.96 288.383 5.772 288.911 5.7L290.471 5.472C290.767 5.432 290.915 5.288 290.915 5.04C290.915 4.736 290.811 4.488 290.603 4.296C290.395 4.104 290.083 4.008 289.667 4.008C289.283 4.008 288.979 4.116 288.755 4.332C288.531 4.54 288.399 4.82 288.359 5.172L287.279 4.92C287.335 4.368 287.587 3.92 288.035 3.576C288.483 3.224 289.019 3.048 289.643 3.048C290.459 3.048 291.063 3.248 291.455 3.648C291.847 4.04 292.043 4.544 292.043 5.16V8.052C292.043 8.396 292.067 8.712 292.115 9H291.011C290.971 8.76 290.951 8.5 290.951 8.22C290.791 8.476 290.555 8.7 290.243 8.892C289.939 9.084 289.555 9.18 289.091 9.18C288.523 9.18 288.059 9.012 287.699 8.676C287.339 8.332 287.159 7.924 287.159 7.452ZM289.247 8.232C289.751 8.232 290.155 8.096 290.459 7.824C290.763 7.552 290.915 7.12 290.915 6.528V6.264L289.151 6.528C288.895 6.568 288.691 6.66 288.539 6.804C288.387 6.948 288.311 7.144 288.311 7.392C288.311 7.616 288.395 7.812 288.563 7.98C288.739 8.148 288.967 8.232 289.247 8.232ZM295.312 1.404V3.228H296.56V4.248H295.312V7.248C295.312 7.52 295.372 7.72 295.492 7.848C295.62 7.976 295.828 8.04 296.116 8.04C296.284 8.04 296.432 8.024 296.56 7.992V8.952C296.368 9.024 296.112 9.06 295.792 9.06C295.296 9.06 294.904 8.916 294.616 8.628C294.328 8.34 294.184 7.936 294.184 7.416V4.248H293.08V3.228H293.392C293.688 3.228 293.908 3.148 294.052 2.988C294.204 2.82 294.28 2.604 294.28 2.34V1.404H295.312ZM299.181 9H298.065V3.228H299.181V9ZM298.041 1.62C297.889 1.46 297.813 1.268 297.813 1.044C297.813 0.819999 297.889 0.628 298.041 0.468C298.201 0.308 298.393 0.228 298.617 0.228C298.841 0.228 299.033 0.308 299.193 0.468C299.353 0.62 299.433 0.812 299.433 1.044C299.433 1.268 299.353 1.46 299.193 1.62C299.033 1.772 298.841 1.848 298.617 1.848C298.393 1.848 298.201 1.772 298.041 1.62ZM306.045 3.228L303.741 9H302.601L300.261 3.228H301.533L303.177 7.68L304.833 3.228H306.045ZM307.68 5.52H310.836C310.82 5.088 310.676 4.736 310.404 4.464C310.132 4.184 309.748 4.044 309.252 4.044C308.804 4.044 308.436 4.192 308.148 4.488C307.86 4.776 307.704 5.12 307.68 5.52ZM311.004 7.02L311.976 7.356C311.808 7.892 311.496 8.332 311.04 8.676C310.584 9.012 310.032 9.18 309.384 9.18C308.576 9.18 307.888 8.904 307.32 8.352C306.76 7.792 306.48 7.04 306.48 6.096C306.48 5.216 306.752 4.488 307.296 3.912C307.84 3.336 308.488 3.048 309.24 3.048C310.112 3.048 310.792 3.324 311.28 3.876C311.768 4.42 312.012 5.152 312.012 6.072C312.012 6.216 312.004 6.336 311.988 6.432H307.644C307.652 6.944 307.82 7.364 308.148 7.692C308.484 8.02 308.896 8.184 309.384 8.184C310.208 8.184 310.748 7.796 311.004 7.02ZM313.396 8.82C313.236 8.66 313.156 8.464 313.156 8.232C313.156 8 313.236 7.804 313.396 7.644C313.556 7.476 313.752 7.392 313.984 7.392C314.216 7.392 314.412 7.476 314.572 7.644C314.74 7.804 314.824 8 314.824 8.232C314.824 8.464 314.74 8.66 314.572 8.82C314.412 8.98 314.216 9.06 313.984 9.06C313.752 9.06 313.556 8.98 313.396 8.82ZM325.64 9L324.716 6.624H320.948L320.048 9H318.788L322.172 0.491999H323.528L326.912 9H325.64ZM322.82 1.716L321.368 5.532H324.296L322.82 1.716ZM329.123 9H327.995V0.312H329.123V9ZM332.17 9H331.042V0.312H332.17V9ZM340.293 3.168V4.368C340.125 4.344 339.961 4.332 339.801 4.332C338.745 4.332 338.217 4.924 338.217 6.108V9H337.089V3.228H338.193V4.236C338.545 3.5 339.121 3.132 339.921 3.132C340.049 3.132 340.173 3.144 340.293 3.168ZM342.611 9H341.495V3.228H342.611V9ZM341.471 1.62C341.319 1.46 341.243 1.268 341.243 1.044C341.243 0.819999 341.319 0.628 341.471 0.468C341.631 0.308 341.823 0.228 342.047 0.228C342.271 0.228 342.463 0.308 342.623 0.468C342.783 0.62 342.863 0.812 342.863 1.044C342.863 1.268 342.783 1.46 342.623 1.62C342.463 1.772 342.271 1.848 342.047 1.848C341.823 1.848 341.631 1.772 341.471 1.62ZM344.11 9.312L345.202 9.06C345.242 9.468 345.406 9.804 345.694 10.068C345.982 10.34 346.342 10.476 346.774 10.476C347.95 10.476 348.538 9.852 348.538 8.604V7.776C348.394 8.056 348.166 8.284 347.854 8.46C347.55 8.636 347.19 8.724 346.774 8.724C346.006 8.724 345.37 8.464 344.866 7.944C344.37 7.416 344.122 6.744 344.122 5.928C344.122 5.136 344.37 4.472 344.866 3.936C345.362 3.392 345.998 3.12 346.774 3.12C347.654 3.12 348.246 3.424 348.55 4.032V3.228H349.666V8.568C349.666 8.952 349.614 9.308 349.51 9.636C349.414 9.972 349.258 10.28 349.042 10.56C348.826 10.84 348.522 11.06 348.13 11.22C347.746 11.38 347.294 11.46 346.774 11.46C346.062 11.46 345.458 11.256 344.962 10.848C344.466 10.448 344.182 9.936 344.11 9.312ZM346.942 7.776C347.43 7.776 347.826 7.608 348.13 7.272C348.434 6.928 348.586 6.48 348.586 5.928C348.586 5.376 348.434 4.932 348.13 4.596C347.826 4.252 347.43 4.08 346.942 4.08C346.446 4.08 346.042 4.248 345.73 4.584C345.426 4.92 345.274 5.368 345.274 5.928C345.274 6.496 345.422 6.948 345.718 7.284C346.022 7.612 346.43 7.776 346.942 7.776ZM352.596 5.604V9H351.468V0.312H352.596V3.9C352.98 3.34 353.564 3.06 354.348 3.06C355.012 3.06 355.52 3.272 355.872 3.696C356.232 4.12 356.412 4.668 356.412 5.34V9H355.284V5.532C355.284 4.564 354.836 4.08 353.94 4.08C353.524 4.08 353.2 4.224 352.968 4.512C352.736 4.792 352.612 5.156 352.596 5.604ZM359.718 1.404V3.228H360.966V4.248H359.718V7.248C359.718 7.52 359.778 7.72 359.898 7.848C360.026 7.976 360.234 8.04 360.522 8.04C360.69 8.04 360.838 8.024 360.966 7.992V8.952C360.774 9.024 360.518 9.06 360.198 9.06C359.702 9.06 359.31 8.916 359.022 8.628C358.734 8.34 358.59 7.936 358.59 7.416V4.248H357.486V3.228H357.798C358.094 3.228 358.314 3.148 358.458 2.988C358.61 2.82 358.686 2.604 358.686 2.34V1.404H359.718ZM361.99 7.5L363.01 7.14C363.05 7.452 363.186 7.712 363.418 7.92C363.65 8.12 363.962 8.22 364.354 8.22C364.658 8.22 364.898 8.148 365.074 8.004C365.25 7.852 365.338 7.668 365.338 7.452C365.338 7.068 365.09 6.82 364.594 6.708L363.61 6.492C363.162 6.396 362.81 6.204 362.554 5.916C362.298 5.628 362.17 5.28 362.17 4.872C362.17 4.376 362.37 3.948 362.77 3.588C363.178 3.228 363.662 3.048 364.222 3.048C364.59 3.048 364.918 3.104 365.206 3.216C365.494 3.32 365.718 3.46 365.878 3.636C366.038 3.812 366.158 3.976 366.238 4.128C366.318 4.28 366.378 4.436 366.418 4.596L365.422 4.968C365.406 4.872 365.378 4.78 365.338 4.692C365.298 4.596 365.234 4.492 365.146 4.38C365.066 4.268 364.946 4.18 364.786 4.116C364.626 4.044 364.438 4.008 364.222 4.008C363.942 4.008 363.71 4.084 363.526 4.236C363.35 4.388 363.262 4.568 363.262 4.776C363.262 5.144 363.482 5.376 363.922 5.472L364.858 5.676C365.37 5.788 365.762 5.996 366.034 6.3C366.314 6.596 366.454 6.96 366.454 7.392C366.454 7.848 366.266 8.26 365.89 8.628C365.522 8.996 365.006 9.18 364.342 9.18C363.63 9.18 363.074 9.004 362.674 8.652C362.274 8.292 362.046 7.908 361.99 7.5ZM374.16 3.168V4.368C373.992 4.344 373.828 4.332 373.668 4.332C372.612 4.332 372.084 4.924 372.084 6.108V9H370.956V3.228H372.06V4.236C372.412 3.5 372.988 3.132 373.788 3.132C373.916 3.132 374.04 3.144 374.16 3.168ZM376.036 5.52H379.192C379.176 5.088 379.032 4.736 378.76 4.464C378.488 4.184 378.104 4.044 377.608 4.044C377.16 4.044 376.792 4.192 376.504 4.488C376.216 4.776 376.06 5.12 376.036 5.52ZM379.36 7.02L380.332 7.356C380.164 7.892 379.852 8.332 379.396 8.676C378.94 9.012 378.388 9.18 377.74 9.18C376.932 9.18 376.244 8.904 375.676 8.352C375.116 7.792 374.836 7.04 374.836 6.096C374.836 5.216 375.108 4.488 375.652 3.912C376.196 3.336 376.844 3.048 377.596 3.048C378.468 3.048 379.148 3.324 379.636 3.876C380.124 4.42 380.368 5.152 380.368 6.072C380.368 6.216 380.36 6.336 380.344 6.432H376C376.008 6.944 376.176 7.364 376.504 7.692C376.84 8.02 377.252 8.184 377.74 8.184C378.564 8.184 379.104 7.796 379.36 7.02ZM381.268 7.5L382.288 7.14C382.328 7.452 382.464 7.712 382.696 7.92C382.928 8.12 383.24 8.22 383.632 8.22C383.936 8.22 384.176 8.148 384.352 8.004C384.528 7.852 384.616 7.668 384.616 7.452C384.616 7.068 384.368 6.82 383.872 6.708L382.888 6.492C382.44 6.396 382.088 6.204 381.832 5.916C381.576 5.628 381.448 5.28 381.448 4.872C381.448 4.376 381.648 3.948 382.048 3.588C382.456 3.228 382.94 3.048 383.5 3.048C383.868 3.048 384.196 3.104 384.484 3.216C384.772 3.32 384.996 3.46 385.156 3.636C385.316 3.812 385.436 3.976 385.516 4.128C385.596 4.28 385.656 4.436 385.696 4.596L384.7 4.968C384.684 4.872 384.656 4.78 384.616 4.692C384.576 4.596 384.512 4.492 384.424 4.38C384.344 4.268 384.224 4.18 384.064 4.116C383.904 4.044 383.716 4.008 383.5 4.008C383.22 4.008 382.988 4.084 382.804 4.236C382.628 4.388 382.54 4.568 382.54 4.776C382.54 5.144 382.76 5.376 383.2 5.472L384.136 5.676C384.648 5.788 385.04 5.996 385.312 6.3C385.592 6.596 385.732 6.96 385.732 7.392C385.732 7.848 385.544 8.26 385.168 8.628C384.8 8.996 384.284 9.18 383.62 9.18C382.908 9.18 382.352 9.004 381.952 8.652C381.552 8.292 381.324 7.908 381.268 7.5ZM387.907 5.52H391.063C391.047 5.088 390.903 4.736 390.631 4.464C390.359 4.184 389.975 4.044 389.479 4.044C389.031 4.044 388.663 4.192 388.375 4.488C388.087 4.776 387.931 5.12 387.907 5.52ZM391.231 7.02L392.203 7.356C392.035 7.892 391.723 8.332 391.267 8.676C390.811 9.012 390.259 9.18 389.611 9.18C388.803 9.18 388.115 8.904 387.547 8.352C386.987 7.792 386.707 7.04 386.707 6.096C386.707 5.216 386.979 4.488 387.523 3.912C388.067 3.336 388.715 3.048 389.467 3.048C390.339 3.048 391.019 3.324 391.507 3.876C391.995 4.42 392.239 5.152 392.239 6.072C392.239 6.216 392.231 6.336 392.215 6.432H387.871C387.879 6.944 388.047 7.364 388.375 7.692C388.711 8.02 389.123 8.184 389.611 8.184C390.435 8.184 390.975 7.796 391.231 7.02ZM396.883 3.168V4.368C396.715 4.344 396.551 4.332 396.391 4.332C395.335 4.332 394.807 4.924 394.807 6.108V9H393.679V3.228H394.783V4.236C395.135 3.5 395.711 3.132 396.511 3.132C396.639 3.132 396.763 3.144 396.883 3.168ZM403.205 3.228L400.901 9H399.761L397.421 3.228H398.693L400.337 7.68L401.993 3.228H403.205ZM404.84 5.52H407.996C407.98 5.088 407.836 4.736 407.564 4.464C407.292 4.184 406.908 4.044 406.412 4.044C405.964 4.044 405.596 4.192 405.308 4.488C405.02 4.776 404.864 5.12 404.84 5.52ZM408.164 7.02L409.136 7.356C408.968 7.892 408.656 8.332 408.2 8.676C407.744 9.012 407.192 9.18 406.544 9.18C405.736 9.18 405.048 8.904 404.48 8.352C403.92 7.792 403.64 7.04 403.64 6.096C403.64 5.216 403.912 4.488 404.456 3.912C405 3.336 405.648 3.048 406.4 3.048C407.272 3.048 407.952 3.324 408.44 3.876C408.928 4.42 409.172 5.152 409.172 6.072C409.172 6.216 409.164 6.336 409.148 6.432H404.804C404.812 6.944 404.98 7.364 405.308 7.692C405.644 8.02 406.056 8.184 406.544 8.184C407.368 8.184 407.908 7.796 408.164 7.02ZM411.284 6.096C411.284 6.704 411.432 7.2 411.728 7.584C412.032 7.968 412.448 8.16 412.976 8.16C413.48 8.16 413.884 7.964 414.188 7.572C414.492 7.18 414.644 6.68 414.644 6.072C414.644 5.472 414.496 4.988 414.2 4.62C413.904 4.252 413.5 4.068 412.988 4.068C412.476 4.068 412.064 4.256 411.752 4.632C411.44 5.008 411.284 5.496 411.284 6.096ZM414.656 8.22V8.124C414.504 8.42 414.272 8.668 413.96 8.868C413.656 9.06 413.292 9.156 412.868 9.156C412.044 9.156 411.38 8.868 410.876 8.292C410.38 7.708 410.132 6.976 410.132 6.096C410.132 5.256 410.388 4.544 410.9 3.96C411.412 3.368 412.068 3.072 412.868 3.072C413.34 3.072 413.724 3.168 414.02 3.36C414.316 3.544 414.52 3.772 414.632 4.044V0.312H415.748V7.932C415.748 8.324 415.768 8.68 415.808 9H414.716C414.676 8.776 414.656 8.516 414.656 8.22Z" fill="#685D5D"/>
</svg>
