<svg width="53" height="15" viewBox="0 0 53 15" fill="none" xmlns="http://www.w3.org/2000/svg">
<path d="M2.384 12.434H4.994C6.242 12.434 7.274 12.02 8.09 11.192C8.918 10.364 9.332 9.182 9.332 7.646C9.332 6.098 8.924 4.904 8.108 4.064C7.304 3.224 6.278 2.804 5.03 2.804H2.384V12.434ZM5.048 14H0.62V1.238H5.084C6.8 1.238 8.24 1.808 9.404 2.948C10.568 4.076 11.15 5.642 11.15 7.646C11.15 9.638 10.562 11.198 9.386 12.326C8.21 13.442 6.764 14 5.048 14ZM15.0691 14H13.3951V5.342H15.0691V14ZM13.3591 2.93C13.1311 2.69 13.0171 2.402 13.0171 2.066C13.0171 1.73 13.1311 1.442 13.3591 1.202C13.5991 0.962 13.8871 0.842 14.2231 0.842C14.5591 0.842 14.8471 0.962 15.0871 1.202C15.3271 1.43 15.4471 1.718 15.4471 2.066C15.4471 2.402 15.3271 2.69 15.0871 2.93C14.8471 3.158 14.5591 3.272 14.2231 3.272C13.8871 3.272 13.5991 3.158 13.3591 2.93ZM19.6398 8.996V14H17.9478V5.342H19.6038V6.584C20.1798 5.588 21.0678 5.09 22.2678 5.09C23.2638 5.09 24.0258 5.408 24.5538 6.044C25.0938 6.68 25.3638 7.502 25.3638 8.51V14H23.6718V8.798C23.6718 7.346 22.9998 6.62 21.6558 6.62C21.0198 6.62 20.5218 6.848 20.1618 7.304C19.8138 7.748 19.6398 8.312 19.6398 8.996ZM29.7472 8.996V14H28.0552V5.342H29.7112V6.584C30.2872 5.588 31.1752 5.09 32.3752 5.09C33.3712 5.09 34.1332 5.408 34.6612 6.044C35.2012 6.68 35.4712 7.502 35.4712 8.51V14H33.7792V8.798C33.7792 7.346 33.1072 6.62 31.7632 6.62C31.1272 6.62 30.6292 6.848 30.2692 7.304C29.9212 7.748 29.7472 8.312 29.7472 8.996ZM39.2607 8.78H43.9947C43.9707 8.132 43.7547 7.604 43.3467 7.196C42.9387 6.776 42.3627 6.566 41.6187 6.566C40.9467 6.566 40.3947 6.788 39.9627 7.232C39.5307 7.664 39.2967 8.18 39.2607 8.78ZM44.2467 11.03L45.7047 11.534C45.4527 12.338 44.9847 12.998 44.3007 13.514C43.6167 14.018 42.7887 14.27 41.8167 14.27C40.6047 14.27 39.5727 13.856 38.7207 13.028C37.8807 12.188 37.4607 11.06 37.4607 9.644C37.4607 8.324 37.8687 7.232 38.6847 6.368C39.5007 5.504 40.4727 5.072 41.6007 5.072C42.9087 5.072 43.9287 5.486 44.6607 6.314C45.3927 7.13 45.7587 8.228 45.7587 9.608C45.7587 9.824 45.7467 10.004 45.7227 10.148H39.2067C39.2187 10.916 39.4707 11.546 39.9627 12.038C40.4667 12.53 41.0847 12.776 41.8167 12.776C43.0527 12.776 43.8627 12.194 44.2467 11.03ZM52.7245 5.252V7.052C52.4725 7.016 52.2265 6.998 51.9865 6.998C50.4025 6.998 49.6105 7.886 49.6105 9.662V14H47.9185V5.342H49.5745V6.854C50.1025 5.75 50.9665 5.198 52.1665 5.198C52.3585 5.198 52.5445 5.216 52.7245 5.252Z" fill="#6A5C5C"/>
</svg>
