<svg width="39" height="13" viewBox="0 0 39 13" fill="none" xmlns="http://www.w3.org/2000/svg">
<path d="M7.336 12H0.44V0.655999H7.336V2.112H2.008V5.6H6.84V7.072H2.008V10.544H7.336V12ZM16.1689 4.304L13.0969 12H11.5769L8.45688 4.304H10.1529L12.3449 10.24L14.5529 4.304H16.1689ZM18.3498 7.36H22.5578C22.5364 6.784 22.3444 6.31467 21.9818 5.952C21.6191 5.57867 21.1071 5.392 20.4458 5.392C19.8484 5.392 19.3578 5.58933 18.9738 5.984C18.5898 6.368 18.3818 6.82667 18.3498 7.36ZM22.7818 9.36L24.0778 9.808C23.8538 10.5227 23.4378 11.1093 22.8298 11.568C22.2218 12.016 21.4858 12.24 20.6218 12.24C19.5444 12.24 18.6271 11.872 17.8698 11.136C17.1231 10.3893 16.7498 9.38667 16.7498 8.128C16.7498 6.95467 17.1124 5.984 17.8378 5.216C18.5631 4.448 19.4271 4.064 20.4298 4.064C21.5924 4.064 22.4991 4.432 23.1498 5.168C23.8004 5.89333 24.1258 6.86933 24.1258 8.096C24.1258 8.288 24.1151 8.448 24.0938 8.576H18.3018C18.3124 9.25867 18.5364 9.81867 18.9738 10.256C19.4218 10.6933 19.9711 10.912 20.6218 10.912C21.7204 10.912 22.4404 10.3947 22.7818 9.36ZM27.5496 7.552V12H26.0456V4.304H27.5176V5.408C28.0296 4.52267 28.819 4.08 29.8856 4.08C30.771 4.08 31.4483 4.36267 31.9176 4.928C32.3976 5.49333 32.6376 6.224 32.6376 7.12V12H31.1336V7.376C31.1336 6.08533 30.5363 5.44 29.3416 5.44C28.7763 5.44 28.3336 5.64267 28.0136 6.048C27.7043 6.44267 27.5496 6.944 27.5496 7.552ZM37.046 1.872V4.304H38.71V5.664H37.046V9.664C37.046 10.0267 37.126 10.2933 37.286 10.464C37.4567 10.6347 37.734 10.72 38.118 10.72C38.342 10.72 38.5393 10.6987 38.71 10.656V11.936C38.454 12.032 38.1127 12.08 37.686 12.08C37.0247 12.08 36.502 11.888 36.118 11.504C35.734 11.12 35.542 10.5813 35.542 9.888V5.664H34.07V4.304H34.486C34.8807 4.304 35.174 4.19733 35.366 3.984C35.5687 3.76 35.67 3.472 35.67 3.12V1.872H37.046Z" fill="#6A5C5C"/>
</svg>
