<svg width="5" height="15" viewBox="0 0 5 15" fill="none" xmlns="http://www.w3.org/2000/svg">
<path d="M4.24919 0.25C4.01908 0.25 3.83252 0.436563 3.83252 0.666667V4.24417L2.7046 5.37208C2.62117 5.45521 2.57679 5.56984 2.58252 5.6875L2.9471 12.9792C2.9558 13.1364 2.89872 13.2902 2.7896 13.4038C2.56153 13.6339 2.19007 13.6355 1.95992 13.4074C1.95867 13.4062 1.95747 13.4049 1.95627 13.4038C1.8471 13.2902 1.79007 13.1364 1.79877 12.9792L2.16585 5.6875C2.17169 5.5699 2.12747 5.45531 2.04419 5.37208L0.915853 4.24417V0.666667C0.915853 0.436563 0.729291 0.25 0.499186 0.25C0.269082 0.25 0.0825195 0.436563 0.0825195 0.666667V4.41667C0.0825195 4.52719 0.126478 4.63313 0.204603 4.71125L1.32377 5.83083L0.968353 12.9388C0.93054 13.7152 1.52929 14.3753 2.3057 14.4131C3.0821 14.4509 3.74221 13.8521 3.78002 13.0757C3.78226 13.0301 3.78226 12.9844 3.78002 12.9388L3.4246 5.83089L4.54377 4.7113C4.6219 4.63318 4.66585 4.52724 4.66585 4.41672V0.666719C4.66585 0.436563 4.47929 0.25 4.24919 0.25Z" fill="#FF9401"/>
</svg>
