<svg width="71" height="13" viewBox="0 0 71 13" fill="none" xmlns="http://www.w3.org/2000/svg">
<path d="M2.28 12H0.36V0.655999H7.416V2.464H2.28V5.648H6.888V7.424H2.28V12ZM8.62625 9.888C8.62625 9.22667 8.83958 8.69867 9.26625 8.304C9.70358 7.89867 10.2743 7.64267 10.9783 7.536L12.9783 7.232C13.3623 7.17867 13.5543 6.992 13.5543 6.672C13.5543 6.32 13.4316 6.03733 13.1863 5.824C12.9409 5.6 12.5729 5.488 12.0823 5.488C11.6129 5.488 11.2396 5.62133 10.9623 5.888C10.6849 6.144 10.5249 6.48 10.4823 6.896L8.78625 6.512C8.86092 5.808 9.19692 5.21067 9.79425 4.72C10.3916 4.21867 11.1489 3.968 12.0663 3.968C13.1969 3.968 14.0289 4.24 14.5623 4.784C15.1063 5.328 15.3783 6.02667 15.3783 6.88V10.752C15.3783 11.264 15.4103 11.68 15.4743 12H13.7463C13.6929 11.84 13.6663 11.5093 13.6663 11.008C13.1543 11.8293 12.3543 12.24 11.2663 12.24C10.4769 12.24 9.83692 12.0107 9.34625 11.552C8.86625 11.0827 8.62625 10.528 8.62625 9.888ZM11.6183 10.784C12.1943 10.784 12.6583 10.6293 13.0103 10.32C13.3729 10 13.5543 9.48267 13.5543 8.768V8.416L11.5223 8.72C10.8289 8.83733 10.4823 9.18933 10.4823 9.776C10.4823 10.0533 10.5836 10.2933 10.7863 10.496C10.9889 10.688 11.2663 10.784 11.6183 10.784ZM20.9983 5.68C20.4009 5.68 19.8943 5.89867 19.4783 6.336C19.0623 6.76267 18.8543 7.34933 18.8543 8.096C18.8543 8.85333 19.0623 9.45067 19.4783 9.888C19.9049 10.3253 20.4223 10.544 21.0303 10.544C21.5743 10.544 22.0063 10.4 22.3263 10.112C22.6569 9.81333 22.8756 9.47733 22.9823 9.104L24.6143 9.696C24.4009 10.3893 23.9849 10.9867 23.3663 11.488C22.7583 11.9893 21.9796 12.24 21.0303 12.24C19.8889 12.24 18.9289 11.8453 18.1503 11.056C17.3823 10.2667 16.9983 9.28 16.9983 8.096C16.9983 6.90133 17.3769 5.91467 18.1343 5.136C18.9023 4.35733 19.8516 3.968 20.9823 3.968C21.9529 3.968 22.7423 4.21867 23.3503 4.72C23.9689 5.22133 24.3689 5.824 24.5503 6.528L22.8863 7.136C22.7796 6.73067 22.5716 6.38933 22.2623 6.112C21.9636 5.824 21.5423 5.68 20.9983 5.68ZM27.4804 7.248H31.3044C31.283 6.75733 31.107 6.34667 30.7764 6.016C30.4564 5.68533 29.9924 5.52 29.3844 5.52C28.8297 5.52 28.3817 5.696 28.0404 6.048C27.699 6.38933 27.5124 6.78933 27.4804 7.248ZM31.5124 9.28L33.0804 9.776C32.8564 10.4907 32.435 11.0827 31.8164 11.552C31.2084 12.0107 30.4564 12.24 29.5604 12.24C28.451 12.24 27.507 11.8613 26.7284 11.104C25.9604 10.3467 25.5764 9.33333 25.5764 8.064C25.5764 6.86933 25.9497 5.888 26.6964 5.12C27.4537 4.352 28.3444 3.968 29.3684 3.968C30.563 3.968 31.4964 4.336 32.1684 5.072C32.8404 5.79733 33.1764 6.77867 33.1764 8.016C33.1764 8.34667 33.1604 8.544 33.1284 8.608H27.4324C27.4537 9.19467 27.667 9.68 28.0724 10.064C28.4884 10.448 28.9844 10.64 29.5604 10.64C30.563 10.64 31.2137 10.1867 31.5124 9.28ZM36.758 12H34.95V0.415999H36.774V5.168C36.966 4.83733 37.2807 4.56 37.718 4.336C38.1553 4.112 38.6567 4 39.222 4C40.3527 4 41.2327 4.384 41.862 5.152C42.502 5.90933 42.822 6.88 42.822 8.064C42.822 9.26933 42.486 10.2613 41.814 11.04C41.1527 11.808 40.2673 12.192 39.158 12.192C38.0487 12.192 37.2487 11.7813 36.758 10.96V12ZM40.358 9.888C40.7527 9.44 40.95 8.83733 40.95 8.08C40.95 7.32267 40.758 6.73067 40.374 6.304C39.99 5.86667 39.4833 5.648 38.854 5.648C38.246 5.648 37.7447 5.86667 37.35 6.304C36.9553 6.73067 36.758 7.32267 36.758 8.08C36.758 8.82667 36.9553 9.424 37.35 9.872C37.7447 10.32 38.246 10.544 38.854 10.544C39.4727 10.544 39.974 10.3253 40.358 9.888ZM46.4783 9.92C46.9049 10.3573 47.4223 10.576 48.0303 10.576C48.6383 10.576 49.1503 10.3573 49.5663 9.92C49.9929 9.48267 50.2063 8.87467 50.2063 8.096C50.2063 7.328 49.9929 6.73067 49.5663 6.304C49.1503 5.86667 48.6383 5.648 48.0303 5.648C47.4223 5.648 46.9049 5.86667 46.4783 6.304C46.0623 6.73067 45.8543 7.328 45.8543 8.096C45.8543 8.864 46.0623 9.472 46.4783 9.92ZM48.0303 3.968C49.2036 3.968 50.1689 4.35733 50.9263 5.136C51.6943 5.91467 52.0783 6.90133 52.0783 8.096C52.0783 9.29067 51.6943 10.2827 50.9263 11.072C50.1689 11.8507 49.2036 12.24 48.0303 12.24C46.8676 12.24 45.9023 11.8507 45.1343 11.072C44.3769 10.2827 43.9983 9.29067 43.9983 8.096C43.9983 6.90133 44.3769 5.91467 45.1343 5.136C45.9023 4.35733 46.8676 3.968 48.0303 3.968ZM55.7439 9.92C56.1705 10.3573 56.6879 10.576 57.2959 10.576C57.9039 10.576 58.4159 10.3573 58.8319 9.92C59.2585 9.48267 59.4719 8.87467 59.4719 8.096C59.4719 7.328 59.2585 6.73067 58.8319 6.304C58.4159 5.86667 57.9039 5.648 57.2959 5.648C56.6879 5.648 56.1705 5.86667 55.7439 6.304C55.3279 6.73067 55.1199 7.328 55.1199 8.096C55.1199 8.864 55.3279 9.472 55.7439 9.92ZM57.2959 3.968C58.4692 3.968 59.4345 4.35733 60.1919 5.136C60.9599 5.91467 61.3439 6.90133 61.3439 8.096C61.3439 9.29067 60.9599 10.2827 60.1919 11.072C59.4345 11.8507 58.4692 12.24 57.2959 12.24C56.1332 12.24 55.1679 11.8507 54.3999 11.072C53.6425 10.2827 53.2639 9.29067 53.2639 8.096C53.2639 6.90133 53.6425 5.91467 54.3999 5.136C55.1679 4.35733 56.1332 3.968 57.2959 3.968ZM70.4335 4.208L67.2335 7.504L70.4975 12H68.2255L65.9375 8.816L64.9775 9.824V12H63.1375V0.415999H64.9775V7.36L67.9695 4.208H70.4335Z" fill="#2E2E2E"/>
<path d="M-1 17.68H7.912V18.96H-1V17.68Z" fill="#2E2E2E"/>
<path d="M7.90625 17.68H70.6415V18.96H7.90625V17.68Z" fill="#2E2E2E"/>
</svg>
