<svg width="164" height="16" viewBox="0 0 164 16" fill="none" xmlns="http://www.w3.org/2000/svg">
<path d="M2.04 12H0.44V0.655999H2.04V12ZM6.26838 7.552V12H4.76438V4.304H6.23638V5.408C6.74838 4.52267 7.53771 4.08 8.60438 4.08C9.48971 4.08 10.167 4.36267 10.6364 4.928C11.1164 5.49333 11.3564 6.224 11.3564 7.12V12H9.85238V7.376C9.85238 6.08533 9.25504 5.44 8.06038 5.44C7.49504 5.44 7.05238 5.64267 6.73238 6.048C6.42304 6.44267 6.26838 6.944 6.26838 7.552ZM17.6208 5.664H15.7648V12H14.2128V5.664H12.7888V4.304H14.2128V3.008C14.2128 2.18667 14.4528 1.54133 14.9328 1.072C15.4128 0.602666 16.0154 0.367999 16.7408 0.367999C17.1994 0.367999 17.4981 0.421333 17.6368 0.528V1.872C17.4768 1.808 17.2581 1.776 16.9808 1.776C16.6501 1.776 16.3621 1.87733 16.1168 2.08C15.8821 2.272 15.7648 2.608 15.7648 3.088V4.304H17.6208V5.664ZM20.5046 10.176C20.974 10.656 21.5446 10.896 22.2166 10.896C22.8886 10.896 23.454 10.656 23.9126 10.176C24.382 9.68533 24.6166 9.008 24.6166 8.144C24.6166 7.29067 24.382 6.624 23.9126 6.144C23.454 5.65333 22.8886 5.408 22.2166 5.408C21.5446 5.408 20.974 5.65333 20.5046 6.144C20.046 6.624 19.8166 7.29067 19.8166 8.144C19.8166 9.008 20.046 9.68533 20.5046 10.176ZM19.3846 5.232C20.1313 4.45333 21.0753 4.064 22.2166 4.064C23.358 4.064 24.2966 4.45333 25.0326 5.232C25.7793 6 26.1526 6.97067 26.1526 8.144C26.1526 9.328 25.7846 10.3093 25.0486 11.088C24.3126 11.856 23.3686 12.24 22.2166 12.24C21.0646 12.24 20.1206 11.856 19.3846 11.088C18.6486 10.3093 18.2806 9.328 18.2806 8.144C18.2806 6.97067 18.6486 6 19.3846 5.232ZM36.4129 9.808C36.0182 9.808 35.6769 9.72267 35.3889 9.552C35.1009 9.38133 34.9142 9.12533 34.8289 8.784C34.3382 9.488 33.7035 9.84 32.9249 9.84C32.1995 9.84 31.6075 9.58933 31.1489 9.088C30.7009 8.58667 30.4769 7.92533 30.4769 7.104C30.4769 6.048 30.7915 5.16267 31.4209 4.448C32.0502 3.73333 32.8022 3.376 33.6769 3.376C34.0502 3.376 34.3969 3.46667 34.7169 3.648C35.0475 3.82933 35.2715 4.09067 35.3889 4.432L35.5329 3.584H36.7969L35.9329 7.6C35.9009 7.76 35.8849 7.90933 35.8849 8.048C35.8849 8.48533 36.0875 8.704 36.4929 8.704C36.9409 8.704 37.3409 8.4 37.6929 7.792C38.0449 7.17333 38.2209 6.464 38.2209 5.664C38.2209 4.48 37.8049 3.504 36.9729 2.736C36.1515 1.968 35.0742 1.584 33.7409 1.584C32.3222 1.584 31.1489 2.05867 30.2209 3.008C29.2929 3.94667 28.8289 5.17333 28.8289 6.688C28.8289 8.11733 29.2822 9.29067 30.1889 10.208C31.1062 11.1253 32.3489 11.584 33.9169 11.584C35.1649 11.584 36.2582 11.2107 37.1969 10.464L37.8529 11.328C37.3942 11.7547 36.7969 12.096 36.0609 12.352C35.3355 12.6187 34.6209 12.752 33.9169 12.752C32.0395 12.752 30.5035 12.192 29.3089 11.072C28.1142 9.94133 27.5169 8.47467 27.5169 6.672C27.5169 4.848 28.1195 3.34933 29.3249 2.176C30.5302 1.00267 31.9969 0.415999 33.7249 0.415999C35.3569 0.415999 36.7169 0.917333 37.8049 1.92C38.9035 2.912 39.4529 4.15467 39.4529 5.648C39.4529 6.832 39.1542 7.824 38.5569 8.624C37.9702 9.41333 37.2555 9.808 36.4129 9.808ZM35.0369 6.08C35.0369 5.6 34.9195 5.232 34.6849 4.976C34.4502 4.70933 34.1195 4.576 33.6929 4.576C33.1382 4.576 32.6795 4.816 32.3169 5.296C31.9649 5.76533 31.7889 6.30933 31.7889 6.928C31.7889 8.09067 32.2422 8.672 33.1489 8.672C33.6929 8.672 34.1355 8.432 34.4769 7.952C34.8289 7.46133 35.0155 6.83733 35.0369 6.08ZM45.1676 5.664H43.3116V12H41.7596V5.664H40.3356V4.304H41.7596V3.008C41.7596 2.18667 41.9996 1.54133 42.4796 1.072C42.9596 0.602666 43.5623 0.367999 44.2876 0.367999C44.7463 0.367999 45.045 0.421333 45.1836 0.528V1.872C45.0236 1.808 44.805 1.776 44.5276 1.776C44.197 1.776 43.909 1.87733 43.6636 2.08C43.429 2.272 43.3116 2.608 43.3116 3.088V4.304H45.1676V5.664ZM48.0515 10.176C48.5208 10.656 49.0915 10.896 49.7635 10.896C50.4355 10.896 51.0008 10.656 51.4595 10.176C51.9288 9.68533 52.1635 9.008 52.1635 8.144C52.1635 7.29067 51.9288 6.624 51.4595 6.144C51.0008 5.65333 50.4355 5.408 49.7635 5.408C49.0915 5.408 48.5208 5.65333 48.0515 6.144C47.5928 6.624 47.3635 7.29067 47.3635 8.144C47.3635 9.008 47.5928 9.68533 48.0515 10.176ZM46.9315 5.232C47.6782 4.45333 48.6222 4.064 49.7635 4.064C50.9048 4.064 51.8435 4.45333 52.5795 5.232C53.3262 6 53.6995 6.97067 53.6995 8.144C53.6995 9.328 53.3315 10.3093 52.5955 11.088C51.8595 11.856 50.9155 12.24 49.7635 12.24C48.6115 12.24 47.6675 11.856 46.9315 11.088C46.1955 10.3093 45.8275 9.328 45.8275 8.144C45.8275 6.97067 46.1955 6 46.9315 5.232ZM57.2078 10.176C57.6771 10.656 58.2478 10.896 58.9198 10.896C59.5918 10.896 60.1571 10.656 60.6158 10.176C61.0851 9.68533 61.3198 9.008 61.3198 8.144C61.3198 7.29067 61.0851 6.624 60.6158 6.144C60.1571 5.65333 59.5918 5.408 58.9198 5.408C58.2478 5.408 57.6771 5.65333 57.2078 6.144C56.7491 6.624 56.5198 7.29067 56.5198 8.144C56.5198 9.008 56.7491 9.68533 57.2078 10.176ZM56.0878 5.232C56.8344 4.45333 57.7784 4.064 58.9198 4.064C60.0611 4.064 60.9998 4.45333 61.7358 5.232C62.4824 6 62.8558 6.97067 62.8558 8.144C62.8558 9.328 62.4878 10.3093 61.7518 11.088C61.0158 11.856 60.0718 12.24 58.9198 12.24C57.7678 12.24 56.8238 11.856 56.0878 11.088C55.3518 10.3093 54.9838 9.328 54.9838 8.144C54.9838 6.97067 55.3518 6 56.0878 5.232ZM65.676 8.128C65.676 8.93867 65.8733 9.6 66.268 10.112C66.6733 10.624 67.228 10.88 67.932 10.88C68.604 10.88 69.1427 10.6187 69.548 10.096C69.9533 9.57333 70.156 8.90667 70.156 8.096C70.156 7.296 69.9587 6.65067 69.564 6.16C69.1693 5.66933 68.6307 5.424 67.948 5.424C67.2653 5.424 66.716 5.67467 66.3 6.176C65.884 6.67733 65.676 7.328 65.676 8.128ZM70.172 10.96V10.832C69.9693 11.2267 69.66 11.5573 69.244 11.824C68.8387 12.08 68.3533 12.208 67.788 12.208C66.6893 12.208 65.804 11.824 65.132 11.056C64.4707 10.2773 64.14 9.30133 64.14 8.128C64.14 7.008 64.4813 6.05867 65.164 5.28C65.8467 4.49067 66.7213 4.096 67.788 4.096C68.4173 4.096 68.9293 4.224 69.324 4.48C69.7187 4.72533 69.9907 5.02933 70.14 5.392V0.415999H71.628V10.576C71.628 11.0987 71.6547 11.5733 71.708 12H70.252C70.1987 11.7013 70.172 11.3547 70.172 10.96ZM81.3383 13.264H73.1463V12H81.3383V13.264ZM84.3461 15.04H82.8581V4.304H84.3141V5.504C84.5381 5.09867 84.8741 4.768 85.3221 4.512C85.7701 4.256 86.2928 4.128 86.8901 4.128C87.9995 4.128 88.8635 4.50667 89.4821 5.264C90.1115 6.02133 90.4261 6.98133 90.4261 8.144C90.4261 9.31733 90.1008 10.288 89.4501 11.056C88.8101 11.824 87.9408 12.208 86.8421 12.208C86.2768 12.208 85.7755 12.0907 85.3381 11.856C84.9008 11.6213 84.5701 11.3227 84.3461 10.96V15.04ZM88.8901 8.144C88.8901 7.36533 88.6821 6.72533 88.2661 6.224C87.8608 5.712 87.3115 5.456 86.6181 5.456C85.9355 5.456 85.3808 5.712 84.9541 6.224C84.5381 6.72533 84.3301 7.36533 84.3301 8.144C84.3301 8.944 84.5381 9.6 84.9541 10.112C85.3808 10.6133 85.9355 10.864 86.6181 10.864C87.3008 10.864 87.8501 10.6133 88.2661 10.112C88.6821 9.6 88.8901 8.944 88.8901 8.144ZM91.8625 9.936C91.8625 9.27467 92.0758 8.74667 92.5025 8.352C92.9292 7.94667 93.4945 7.696 94.1985 7.6L96.2785 7.296C96.6732 7.24267 96.8705 7.05067 96.8705 6.72C96.8705 6.31467 96.7318 5.984 96.4545 5.728C96.1772 5.472 95.7612 5.344 95.2065 5.344C94.6945 5.344 94.2892 5.488 93.9905 5.776C93.6918 6.05333 93.5158 6.42667 93.4625 6.896L92.0225 6.56C92.0972 5.824 92.4332 5.22667 93.0305 4.768C93.6278 4.29867 94.3425 4.064 95.1745 4.064C96.2625 4.064 97.0678 4.33067 97.5905 4.864C98.1132 5.38667 98.3745 6.05867 98.3745 6.88V10.736C98.3745 11.1947 98.4065 11.616 98.4705 12H96.9985C96.9452 11.68 96.9185 11.3333 96.9185 10.96C96.7052 11.3013 96.3905 11.6 95.9745 11.856C95.5692 12.112 95.0572 12.24 94.4385 12.24C93.6812 12.24 93.0625 12.016 92.5825 11.568C92.1025 11.1093 91.8625 10.5653 91.8625 9.936ZM94.6465 10.976C95.3185 10.976 95.8572 10.7947 96.2625 10.432C96.6678 10.0693 96.8705 9.49333 96.8705 8.704V8.352L94.5185 8.704C94.1772 8.75733 93.9052 8.88 93.7025 9.072C93.4998 9.264 93.3985 9.52533 93.3985 9.856C93.3985 10.1547 93.5105 10.416 93.7345 10.64C93.9692 10.864 94.2732 10.976 94.6465 10.976ZM102.222 12H100.718V0.415999H102.222V12ZM104.3 9.936C104.3 9.27467 104.513 8.74667 104.94 8.352C105.367 7.94667 105.932 7.696 106.636 7.6L108.716 7.296C109.111 7.24267 109.308 7.05067 109.308 6.72C109.308 6.31467 109.169 5.984 108.892 5.728C108.615 5.472 108.199 5.344 107.644 5.344C107.132 5.344 106.727 5.488 106.428 5.776C106.129 6.05333 105.953 6.42667 105.9 6.896L104.46 6.56C104.535 5.824 104.871 5.22667 105.468 4.768C106.065 4.29867 106.78 4.064 107.612 4.064C108.7 4.064 109.505 4.33067 110.028 4.864C110.551 5.38667 110.812 6.05867 110.812 6.88V10.736C110.812 11.1947 110.844 11.616 110.908 12H109.436C109.383 11.68 109.356 11.3333 109.356 10.96C109.143 11.3013 108.828 11.6 108.412 11.856C108.007 12.112 107.495 12.24 106.876 12.24C106.119 12.24 105.5 12.016 105.02 11.568C104.54 11.1093 104.3 10.5653 104.3 9.936ZM107.084 10.976C107.756 10.976 108.295 10.7947 108.7 10.432C109.105 10.0693 109.308 9.49333 109.308 8.704V8.352L106.956 8.704C106.615 8.75733 106.343 8.88 106.14 9.072C105.937 9.264 105.836 9.52533 105.836 9.856C105.836 10.1547 105.948 10.416 106.172 10.64C106.407 10.864 106.711 10.976 107.084 10.976ZM116.387 5.456C115.736 5.456 115.182 5.69067 114.723 6.16C114.275 6.62933 114.051 7.29067 114.051 8.144C114.051 8.98667 114.275 9.648 114.723 10.128C115.182 10.608 115.742 10.848 116.403 10.848C117.043 10.848 117.528 10.688 117.859 10.368C118.2 10.048 118.43 9.68 118.547 9.264L119.875 9.84C119.662 10.48 119.256 11.04 118.659 11.52C118.072 12 117.32 12.24 116.403 12.24C115.283 12.24 114.355 11.8507 113.619 11.072C112.883 10.2933 112.515 9.31733 112.515 8.144C112.515 6.94933 112.883 5.97333 113.619 5.216C114.355 4.448 115.278 4.064 116.387 4.064C117.326 4.064 118.083 4.304 118.659 4.784C119.246 5.264 119.63 5.84 119.811 6.512L118.451 7.088C118.334 6.64 118.11 6.256 117.779 5.936C117.448 5.616 116.984 5.456 116.387 5.456ZM122.537 7.36H126.745C126.724 6.784 126.532 6.31467 126.169 5.952C125.807 5.57867 125.295 5.392 124.633 5.392C124.036 5.392 123.545 5.58933 123.161 5.984C122.777 6.368 122.569 6.82667 122.537 7.36ZM126.969 9.36L128.265 9.808C128.041 10.5227 127.625 11.1093 127.017 11.568C126.409 12.016 125.673 12.24 124.809 12.24C123.732 12.24 122.815 11.872 122.057 11.136C121.311 10.3893 120.937 9.38667 120.937 8.128C120.937 6.95467 121.3 5.984 122.025 5.216C122.751 4.448 123.615 4.064 124.617 4.064C125.78 4.064 126.687 4.432 127.337 5.168C127.988 5.89333 128.313 6.86933 128.313 8.096C128.313 8.288 128.303 8.448 128.281 8.576H122.489C122.5 9.25867 122.724 9.81867 123.161 10.256C123.609 10.6933 124.159 10.912 124.809 10.912C125.908 10.912 126.628 10.3947 126.969 9.36ZM130.159 11.76C129.945 11.5467 129.839 11.2853 129.839 10.976C129.839 10.6667 129.945 10.4053 130.159 10.192C130.372 9.968 130.633 9.856 130.943 9.856C131.252 9.856 131.513 9.968 131.727 10.192C131.951 10.4053 132.063 10.6667 132.063 10.976C132.063 11.2853 131.951 11.5467 131.727 11.76C131.513 11.9733 131.252 12.08 130.943 12.08C130.633 12.08 130.372 11.9733 130.159 11.76ZM137.465 5.456C136.814 5.456 136.26 5.69067 135.801 6.16C135.353 6.62933 135.129 7.29067 135.129 8.144C135.129 8.98667 135.353 9.648 135.801 10.128C136.26 10.608 136.82 10.848 137.481 10.848C138.121 10.848 138.606 10.688 138.937 10.368C139.278 10.048 139.508 9.68 139.625 9.264L140.953 9.84C140.74 10.48 140.334 11.04 139.737 11.52C139.15 12 138.398 12.24 137.481 12.24C136.361 12.24 135.433 11.8507 134.697 11.072C133.961 10.2933 133.593 9.31733 133.593 8.144C133.593 6.94933 133.961 5.97333 134.697 5.216C135.433 4.448 136.356 4.064 137.465 4.064C138.404 4.064 139.161 4.304 139.737 4.784C140.324 5.264 140.708 5.84 140.889 6.512L139.529 7.088C139.412 6.64 139.188 6.256 138.857 5.936C138.526 5.616 138.062 5.456 137.465 5.456ZM144.223 10.176C144.693 10.656 145.263 10.896 145.935 10.896C146.607 10.896 147.173 10.656 147.631 10.176C148.101 9.68533 148.335 9.008 148.335 8.144C148.335 7.29067 148.101 6.624 147.631 6.144C147.173 5.65333 146.607 5.408 145.935 5.408C145.263 5.408 144.693 5.65333 144.223 6.144C143.765 6.624 143.535 7.29067 143.535 8.144C143.535 9.008 143.765 9.68533 144.223 10.176ZM143.103 5.232C143.85 4.45333 144.794 4.064 145.935 4.064C147.077 4.064 148.015 4.45333 148.751 5.232C149.498 6 149.871 6.97067 149.871 8.144C149.871 9.328 149.503 10.3093 148.767 11.088C148.031 11.856 147.087 12.24 145.935 12.24C144.783 12.24 143.839 11.856 143.103 11.088C142.367 10.3093 141.999 9.328 141.999 8.144C141.999 6.97067 142.367 6 143.103 5.232ZM153.284 12H151.796V4.304H153.236V5.328C153.47 4.92267 153.801 4.61333 154.228 4.4C154.654 4.18667 155.102 4.08 155.572 4.08C156.073 4.08 156.532 4.20267 156.948 4.448C157.364 4.69333 157.673 5.056 157.876 5.536C158.409 4.56533 159.268 4.08 160.452 4.08C161.188 4.08 161.812 4.33067 162.324 4.832C162.846 5.33333 163.108 6.05867 163.108 7.008V12H161.62V7.168C161.62 6.63467 161.481 6.208 161.204 5.888C160.937 5.568 160.532 5.408 159.988 5.408C159.465 5.408 159.038 5.59467 158.708 5.968C158.377 6.33067 158.212 6.78933 158.212 7.344V12H156.708V7.168C156.708 6.63467 156.569 6.208 156.292 5.888C156.025 5.568 155.62 5.408 155.076 5.408C154.542 5.408 154.11 5.58933 153.78 5.952C153.449 6.31467 153.284 6.784 153.284 7.36V12Z" fill="#3F3232"/>
</svg>
