<svg width="48" height="14" viewBox="0 0 48 14" fill="none" xmlns="http://www.w3.org/2000/svg">
<path d="M8.414 13H0.62V0.237999H2.384V11.344H8.414V13ZM16.0073 11.956C15.7793 12.388 15.4313 12.718 14.9633 12.946C14.4953 13.162 13.9913 13.27 13.4513 13.27C12.4673 13.27 11.6813 12.946 11.0933 12.298C10.5053 11.638 10.2113 10.804 10.2113 9.796V4.342H11.9033V9.544C11.9033 10.192 12.0593 10.726 12.3713 11.146C12.6953 11.566 13.1933 11.776 13.8653 11.776C14.5373 11.776 15.0473 11.578 15.3953 11.182C15.7433 10.774 15.9173 10.234 15.9173 9.562V4.342H17.6093V11.398C17.6093 11.962 17.6393 12.496 17.6993 13H16.0793C16.0313 12.736 16.0073 12.388 16.0073 11.956ZM22.1886 7.996V13H20.4966V4.342H22.1526V5.584C22.7286 4.588 23.6166 4.09 24.8166 4.09C25.8126 4.09 26.5746 4.408 27.1026 5.044C27.6426 5.68 27.9126 6.502 27.9126 7.51V13H26.2206V7.798C26.2206 6.346 25.5486 5.62 24.2046 5.62C23.5686 5.62 23.0706 5.848 22.7106 6.304C22.3626 6.748 22.1886 7.312 22.1886 7.996ZM34.2401 5.638C33.5081 5.638 32.8841 5.902 32.3681 6.43C31.8641 6.958 31.6121 7.702 31.6121 8.662C31.6121 9.61 31.8641 10.354 32.3681 10.894C32.8841 11.434 33.5141 11.704 34.2581 11.704C34.9781 11.704 35.5241 11.524 35.8961 11.164C36.2801 10.804 36.5381 10.39 36.6701 9.922L38.1641 10.57C37.9241 11.29 37.4681 11.92 36.7961 12.46C36.1361 13 35.2901 13.27 34.2581 13.27C32.9981 13.27 31.9541 12.832 31.1261 11.956C30.2981 11.08 29.8841 9.982 29.8841 8.662C29.8841 7.318 30.2981 6.22 31.1261 5.368C31.9541 4.504 32.9921 4.072 34.2401 4.072C35.2961 4.072 36.1481 4.342 36.7961 4.882C37.4561 5.422 37.8881 6.07 38.0921 6.826L36.5621 7.474C36.4301 6.97 36.1781 6.538 35.8061 6.178C35.4341 5.818 34.9121 5.638 34.2401 5.638ZM41.1591 7.78H45.8931C45.8691 7.132 45.6531 6.604 45.2451 6.196C44.8371 5.776 44.2611 5.566 43.5171 5.566C42.8451 5.566 42.2931 5.788 41.8611 6.232C41.4291 6.664 41.1951 7.18 41.1591 7.78ZM46.1451 10.03L47.6031 10.534C47.3511 11.338 46.8831 11.998 46.1991 12.514C45.5151 13.018 44.6871 13.27 43.7151 13.27C42.5031 13.27 41.4711 12.856 40.6191 12.028C39.7791 11.188 39.3591 10.06 39.3591 8.644C39.3591 7.324 39.7671 6.232 40.5831 5.368C41.3991 4.504 42.3711 4.072 43.4991 4.072C44.8071 4.072 45.8271 4.486 46.5591 5.314C47.2911 6.13 47.6571 7.228 47.6571 8.608C47.6571 8.824 47.6451 9.004 47.6211 9.148H41.1051C41.1171 9.916 41.3691 10.546 41.8611 11.038C42.3651 11.53 42.9831 11.776 43.7151 11.776C44.9511 11.776 45.7611 11.194 46.1451 10.03Z" fill="#6A5C5C"/>
</svg>
