<svg width="90" height="16" viewBox="0 0 90 16" fill="none" xmlns="http://www.w3.org/2000/svg">
<path d="M7.96 15.26C12.02 15.26 15.22 12.06 15.22 8C15.22 3.94 12.02 0.739999 7.96 0.739999C3.92 0.739999 0.7 3.94 0.7 8C0.7 12.06 3.92 15.26 7.96 15.26ZM7.96 13.02C5.16 13.02 3 10.88 3 8C3 5.12 5.16 2.98 7.96 2.98C10.76 2.98 12.92 5.12 12.92 8C12.92 10.88 10.76 13.02 7.96 13.02ZM23.918 5V10.36C23.918 12.4 22.798 13.24 21.378 13.24C20.018 13.24 19.138 12.44 19.138 10.92V5H16.978V11.14C16.978 13.74 18.578 15.26 20.818 15.26C22.178 15.26 23.258 14.76 23.918 13.72V15H26.078V5H23.918ZM30.7638 6.68V5H28.6038V15H30.7638V9.96C30.7638 7.72 32.4238 7.06 33.8438 7.16V4.82C32.5838 4.82 31.3638 5.32 30.7638 6.68ZM51.3597 4.74C50.0197 4.74 48.9597 5.28 48.2997 6.32C47.7197 5.32 46.7597 4.74 45.4597 4.74C44.2197 4.74 43.2397 5.22 42.5997 6.2V5H40.4397V15H42.5997V9.4C42.5997 7.58 43.5997 6.76 44.8197 6.76C45.9997 6.76 46.6997 7.54 46.6997 8.94V15H48.8597V9.4C48.8597 7.58 49.7597 6.76 51.0397 6.76C52.2197 6.76 52.9797 7.54 52.9797 8.94V15H55.1397V8.8C55.1397 6.3 53.6197 4.74 51.3597 4.74ZM59.1514 10.92H67.1114C67.1514 10.64 67.1914 10.32 67.1914 10.02C67.1914 7.14 65.1514 4.74 62.1714 4.74C59.0314 4.74 56.8914 7.04 56.8914 10C56.8914 13 59.0314 15.26 62.3314 15.26C64.2914 15.26 65.7914 14.44 66.7114 13.08L64.9314 12.04C64.4514 12.74 63.5514 13.28 62.3514 13.28C60.7514 13.28 59.4914 12.48 59.1514 10.92ZM59.1314 9.16C59.4314 7.66 60.5314 6.7 62.1514 6.7C63.4514 6.7 64.7114 7.44 65.0114 9.16H59.1314ZM74.352 4.74C72.992 4.74 71.912 5.24 71.252 6.28V5H69.092V15H71.252V9.64C71.252 7.6 72.372 6.76 73.792 6.76C75.152 6.76 76.032 7.56 76.032 9.08V15H78.192V8.86C78.192 6.26 76.592 4.74 74.352 4.74ZM87.2578 5V10.36C87.2578 12.4 86.1378 13.24 84.7178 13.24C83.3578 13.24 82.4778 12.44 82.4778 10.92V5H80.3178V11.14C80.3178 13.74 81.9178 15.26 84.1578 15.26C85.5178 15.26 86.5978 14.76 87.2578 13.72V15H89.4178V5H87.2578Z" fill="#2E2E2E"/>
</svg>
