<svg width="5" height="15" viewBox="0 0 5 15" fill="none" xmlns="http://www.w3.org/2000/svg">
<path d="M4.70215 2.42592L4.43465 1.5455C4.09485 0.545397 3.00866 0.0101365 2.00855 0.349928C1.44595 0.541074 1.00412 0.982897 0.812977 1.5455L0.545478 2.42592C0.320374 3.16842 0.273134 3.95347 0.407561 4.71759C0.530165 5.36092 0.938603 5.91363 1.51756 6.21967L1.21798 12.9168C1.17787 13.2906 1.29912 13.6637 1.55131 13.9426C2.09365 14.5358 3.01428 14.5771 3.60751 14.0347C3.63959 14.0054 3.67032 13.9747 3.69965 13.9426C3.94621 13.6717 4.06725 13.3094 4.03298 12.9447L3.73173 6.21884C4.30991 5.91264 4.71767 5.36029 4.84006 4.71759C4.97449 3.95347 4.92725 3.16842 4.70215 2.42592ZM4.01923 4.57259C3.92902 5.03477 3.59964 5.41399 3.15464 5.568C2.98574 5.63149 2.87694 5.79649 2.88506 5.97675L3.20173 13.0105C3.21631 13.1485 3.17079 13.286 3.07673 13.388C2.82584 13.6364 2.42178 13.6364 2.17089 13.388C2.07214 13.2778 2.0273 13.1295 2.04839 12.983L2.36256 5.97675C2.37069 5.79649 2.26189 5.63149 2.09298 5.568C1.64798 5.41399 1.3186 5.03477 1.22839 4.57259C1.11694 3.93821 1.15621 3.28649 1.34298 2.67009L1.61048 1.78925C1.81746 1.22962 2.43892 0.943731 2.9986 1.15071C3.29449 1.26014 3.52772 1.49342 3.63715 1.78925L3.90465 2.67009C4.09121 3.28654 4.13048 3.93821 4.01923 4.57259Z" fill="#FF9401"/>
</svg>
