<svg width="60" height="13" viewBox="0 0 60 13" fill="none" xmlns="http://www.w3.org/2000/svg">
<path d="M8.672 3.232L7.264 3.728C7.18933 3.23733 6.94933 2.79467 6.544 2.4C6.13867 1.99467 5.57867 1.792 4.864 1.792C4.23467 1.792 3.712 1.97333 3.296 2.336C2.88 2.69867 2.672 3.14667 2.672 3.68C2.672 4.096 2.79467 4.448 3.04 4.736C3.296 5.024 3.65867 5.22133 4.128 5.328L5.824 5.696C6.76267 5.89867 7.488 6.28267 8 6.848C8.512 7.40267 8.768 8.08 8.768 8.88C8.768 9.79733 8.40533 10.5867 7.68 11.248C6.95467 11.9093 6.01067 12.24 4.848 12.24C3.57867 12.24 2.58133 11.9093 1.856 11.248C1.14133 10.576 0.725333 9.78133 0.608 8.864L2.112 8.384C2.176 9.06667 2.44267 9.64267 2.912 10.112C3.38133 10.5813 4.02133 10.816 4.832 10.816C5.57867 10.816 6.15467 10.6453 6.56 10.304C6.96533 9.96267 7.168 9.53067 7.168 9.008C7.168 8.58133 7.024 8.21333 6.736 7.904C6.448 7.584 6.02667 7.36533 5.472 7.248L3.856 6.896C3.01333 6.71467 2.34133 6.35733 1.84 5.824C1.33867 5.29067 1.088 4.61333 1.088 3.792C1.088 2.896 1.45067 2.112 2.176 1.44C2.912 0.757333 3.79733 0.415999 4.832 0.415999C5.99467 0.415999 6.88533 0.698666 7.504 1.264C8.12267 1.82933 8.512 2.48533 8.672 3.232ZM11.7404 7.36H15.9484C15.927 6.784 15.735 6.31467 15.3724 5.952C15.0097 5.57867 14.4977 5.392 13.8364 5.392C13.239 5.392 12.7484 5.58933 12.3644 5.984C11.9804 6.368 11.7724 6.82667 11.7404 7.36ZM16.1724 9.36L17.4684 9.808C17.2444 10.5227 16.8284 11.1093 16.2204 11.568C15.6124 12.016 14.8764 12.24 14.0124 12.24C12.935 12.24 12.0177 11.872 11.2604 11.136C10.5137 10.3893 10.1404 9.38667 10.1404 8.128C10.1404 6.95467 10.503 5.984 11.2284 5.216C11.9537 4.448 12.8177 4.064 13.8204 4.064C14.983 4.064 15.8897 4.432 16.5404 5.168C17.191 5.89333 17.5164 6.86933 17.5164 8.096C17.5164 8.288 17.5057 8.448 17.4844 8.576H11.6924C11.703 9.25867 11.927 9.81867 12.3644 10.256C12.8124 10.6933 13.3617 10.912 14.0124 10.912C15.111 10.912 15.831 10.3947 16.1724 9.36ZM23.7083 4.224V5.824C23.4843 5.792 23.2656 5.776 23.0523 5.776C21.6443 5.776 20.9403 6.56533 20.9403 8.144V12H19.4363V4.304H20.9083V5.648C21.3776 4.66667 22.1456 4.176 23.2123 4.176C23.3829 4.176 23.5483 4.192 23.7083 4.224ZM32.1376 4.304L29.0656 12H27.5456L24.4256 4.304H26.1216L28.3136 10.24L30.5216 4.304H32.1376ZM35.0649 12H33.5769V4.304H35.0649V12ZM33.5449 2.16C33.3422 1.94667 33.2409 1.69067 33.2409 1.392C33.2409 1.09333 33.3422 0.837333 33.5449 0.624C33.7582 0.410666 34.0142 0.304 34.3129 0.304C34.6115 0.304 34.8675 0.410666 35.0809 0.624C35.2942 0.826666 35.4009 1.08267 35.4009 1.392C35.4009 1.69067 35.2942 1.94667 35.0809 2.16C34.8675 2.36267 34.6115 2.464 34.3129 2.464C34.0142 2.464 33.7582 2.36267 33.5449 2.16ZM40.8558 5.456C40.2051 5.456 39.6504 5.69067 39.1918 6.16C38.7438 6.62933 38.5198 7.29067 38.5198 8.144C38.5198 8.98667 38.7438 9.648 39.1918 10.128C39.6504 10.608 40.2104 10.848 40.8718 10.848C41.5118 10.848 41.9971 10.688 42.3278 10.368C42.6691 10.048 42.8984 9.68 43.0158 9.264L44.3438 9.84C44.1304 10.48 43.7251 11.04 43.1278 11.52C42.5411 12 41.7891 12.24 40.8718 12.24C39.7518 12.24 38.8238 11.8507 38.0878 11.072C37.3518 10.2933 36.9838 9.31733 36.9838 8.144C36.9838 6.94933 37.3518 5.97333 38.0878 5.216C38.8238 4.448 39.7464 4.064 40.8558 4.064C41.7944 4.064 42.5518 4.304 43.1278 4.784C43.7144 5.264 44.0984 5.84 44.2798 6.512L42.9198 7.088C42.8024 6.64 42.5784 6.256 42.2478 5.936C41.9171 5.616 41.4531 5.456 40.8558 5.456ZM47.006 7.36H51.214C51.1927 6.784 51.0007 6.31467 50.638 5.952C50.2753 5.57867 49.7633 5.392 49.102 5.392C48.5047 5.392 48.014 5.58933 47.63 5.984C47.246 6.368 47.038 6.82667 47.006 7.36ZM51.438 9.36L52.734 9.808C52.51 10.5227 52.094 11.1093 51.486 11.568C50.878 12.016 50.142 12.24 49.278 12.24C48.2007 12.24 47.2833 11.872 46.526 11.136C45.7793 10.3893 45.406 9.38667 45.406 8.128C45.406 6.95467 45.7687 5.984 46.494 5.216C47.2193 4.448 48.0833 4.064 49.086 4.064C50.2487 4.064 51.1553 4.432 51.806 5.168C52.4567 5.89333 52.782 6.86933 52.782 8.096C52.782 8.288 52.7713 8.448 52.75 8.576H46.958C46.9687 9.25867 47.1927 9.81867 47.63 10.256C48.078 10.6933 48.6273 10.912 49.278 10.912C50.3767 10.912 51.0967 10.3947 51.438 9.36ZM53.9819 10L55.3419 9.52C55.3952 9.936 55.5765 10.2827 55.8859 10.56C56.1952 10.8267 56.6112 10.96 57.1339 10.96C57.5392 10.96 57.8592 10.864 58.0939 10.672C58.3285 10.4693 58.4459 10.224 58.4459 9.936C58.4459 9.424 58.1152 9.09333 57.4539 8.944L56.1419 8.656C55.5445 8.528 55.0752 8.272 54.7339 7.888C54.3925 7.504 54.2219 7.04 54.2219 6.496C54.2219 5.83467 54.4885 5.264 55.0219 4.784C55.5659 4.304 56.2112 4.064 56.9579 4.064C57.4485 4.064 57.8859 4.13867 58.2699 4.288C58.6539 4.42667 58.9525 4.61333 59.1659 4.848C59.3792 5.08267 59.5392 5.30133 59.6459 5.504C59.7525 5.70667 59.8325 5.91467 59.8859 6.128L58.5579 6.624C58.5365 6.496 58.4992 6.37333 58.4459 6.256C58.3925 6.128 58.3072 5.98933 58.1899 5.84C58.0832 5.69067 57.9232 5.57333 57.7099 5.488C57.4965 5.392 57.2459 5.344 56.9579 5.344C56.5845 5.344 56.2752 5.44533 56.0299 5.648C55.7952 5.85067 55.6779 6.09067 55.6779 6.368C55.6779 6.85867 55.9712 7.168 56.5579 7.296L57.8059 7.568C58.4885 7.71733 59.0112 7.99467 59.3739 8.4C59.7472 8.79467 59.9339 9.28 59.9339 9.856C59.9339 10.464 59.6832 11.0133 59.1819 11.504C58.6912 11.9947 58.0032 12.24 57.1179 12.24C56.1685 12.24 55.4272 12.0053 54.8939 11.536C54.3605 11.056 54.0565 10.544 53.9819 10Z" fill="#6A5C5C"/>
</svg>
