<svg width="137" height="16" viewBox="0 0 137 16" fill="none" xmlns="http://www.w3.org/2000/svg">
<path d="M6.06 15.26C8.98 15.26 11.02 13.7 11.02 11.14C11.02 8.36 8.68 7.64 6.36 6.9C4.32 6.26 3.54 5.8 3.54 4.72C3.54 3.66 4.4 2.98 5.74 2.98C7.3 2.98 8.18 3.82 8.68 4.94L10.62 3.82C9.74 1.96 8.04 0.739999 5.74 0.739999C3.38 0.739999 1.24 2.2 1.24 4.78C1.24 7.42 3.36 8.22 5.54 8.88C7.62 9.52 8.72 9.94 8.72 11.18C8.72 12.2 7.94 13.02 6.12 13.02C4.22 13.02 3.14 12.08 2.64 10.66L0.66 11.82C1.4 13.9 3.3 15.26 6.06 15.26ZM17.855 15.26C20.795 15.26 23.135 12.96 23.135 10C23.135 7.02 20.795 4.74 17.855 4.74C14.935 4.74 12.575 7.02 12.575 10C12.575 12.96 14.935 15.26 17.855 15.26ZM17.855 13.16C16.095 13.16 14.735 11.82 14.735 10C14.735 8.18 16.095 6.84 17.855 6.84C19.615 6.84 20.975 8.18 20.975 10C20.975 11.82 19.615 13.16 17.855 13.16ZM29.8081 15.26C31.7681 15.26 33.4681 14.24 34.3081 12.66L32.4481 11.6C31.9681 12.52 30.9881 13.14 29.7881 13.14C28.0281 13.14 26.6881 11.8 26.6881 10C26.6881 8.2 28.0281 6.86 29.7881 6.86C30.9881 6.86 31.9681 7.46 32.4081 8.4L34.2681 7.32C33.4681 5.76 31.7681 4.74 29.8081 4.74C26.7881 4.74 24.5281 7.02 24.5281 10C24.5281 12.96 26.7881 15.26 29.8081 15.26ZM36.9494 3.5C37.7094 3.5 38.3294 2.86 38.3294 2.12C38.3294 1.36 37.7094 0.739999 36.9494 0.739999C36.1894 0.739999 35.5694 1.36 35.5694 2.12C35.5694 2.86 36.1894 3.5 36.9494 3.5ZM35.8694 15H38.0294V5H35.8694V15ZM48.4573 5V6.42C47.6973 5.38 46.5173 4.74 44.9573 4.74C42.2373 4.74 39.9773 7.02 39.9773 10C39.9773 12.96 42.2373 15.26 44.9573 15.26C46.5173 15.26 47.6973 14.62 48.4573 13.56V15H50.6173V5H48.4573ZM45.2973 13.2C43.4973 13.2 42.1373 11.86 42.1373 10C42.1373 8.14 43.4973 6.8 45.2973 6.8C47.0973 6.8 48.4573 8.14 48.4573 10C48.4573 11.86 47.0973 13.2 45.2973 13.2ZM53.135 15H55.295V0.4H53.135V15ZM71.243 0.999999V6.74H65.243V0.999999H62.943V15H65.243V8.94H71.243V15H73.543V0.999999H71.243ZM84.1214 5V6.42C83.3614 5.38 82.1814 4.74 80.6214 4.74C77.9014 4.74 75.6414 7.02 75.6414 10C75.6414 12.96 77.9014 15.26 80.6214 15.26C82.1814 15.26 83.3614 14.62 84.1214 13.56V15H86.2814V5H84.1214ZM80.9614 13.2C79.1614 13.2 77.8014 11.86 77.8014 10C77.8014 8.14 79.1614 6.8 80.9614 6.8C82.7614 6.8 84.1214 8.14 84.1214 10C84.1214 11.86 82.7614 13.2 80.9614 13.2ZM94.0591 4.74C92.6991 4.74 91.6191 5.24 90.9591 6.28V5H88.7991V15H90.9591V9.64C90.9591 7.6 92.0791 6.76 93.4991 6.76C94.8591 6.76 95.7391 7.56 95.7391 9.08V15H97.8991V8.86C97.8991 6.26 96.2991 4.74 94.0591 4.74ZM108.145 0.999999V6.42C107.385 5.38 106.205 4.74 104.645 4.74C101.925 4.74 99.6648 7.02 99.6648 10C99.6648 12.96 101.925 15.26 104.645 15.26C106.205 15.26 107.385 14.62 108.145 13.56V15H110.305V0.999999H108.145ZM104.985 13.2C103.185 13.2 101.825 11.86 101.825 10C101.825 8.14 103.185 6.8 104.985 6.8C106.785 6.8 108.145 8.14 108.145 10C108.145 11.86 106.785 13.2 104.985 13.2ZM112.823 15H114.983V0.4H112.823V15ZM119.19 10.92H127.15C127.19 10.64 127.23 10.32 127.23 10.02C127.23 7.14 125.19 4.74 122.21 4.74C119.07 4.74 116.93 7.04 116.93 10C116.93 13 119.07 15.26 122.37 15.26C124.33 15.26 125.83 14.44 126.75 13.08L124.97 12.04C124.49 12.74 123.59 13.28 122.39 13.28C120.79 13.28 119.53 12.48 119.19 10.92ZM119.17 9.16C119.47 7.66 120.57 6.7 122.19 6.7C123.49 6.7 124.75 7.44 125.05 9.16H119.17ZM130.68 7.76C130.68 7.04 131.36 6.7 132.14 6.7C132.96 6.7 133.66 7.06 134.02 7.84L135.84 6.82C135.14 5.5 133.78 4.74 132.14 4.74C130.1 4.74 128.48 5.92 128.48 7.8C128.48 11.38 133.86 10.38 133.86 12.16C133.86 12.96 133.12 13.28 132.16 13.28C131.06 13.28 130.26 12.74 129.94 11.84L128.08 12.92C128.72 14.36 130.16 15.26 132.16 15.26C134.32 15.26 136.06 14.18 136.06 12.18C136.06 8.48 130.68 9.58 130.68 7.76Z" fill="#2E2E2E"/>
</svg>
