<svg width="58" height="16" viewBox="0 0 58 16" fill="none" xmlns="http://www.w3.org/2000/svg">
<path d="M8.672 3.232L7.264 3.728C7.18933 3.23733 6.94933 2.79467 6.544 2.4C6.13867 1.99467 5.57867 1.792 4.864 1.792C4.23467 1.792 3.712 1.97333 3.296 2.336C2.88 2.69867 2.672 3.14667 2.672 3.68C2.672 4.096 2.79467 4.448 3.04 4.736C3.296 5.024 3.65867 5.22133 4.128 5.328L5.824 5.696C6.76267 5.89867 7.488 6.28267 8 6.848C8.512 7.40267 8.768 8.08 8.768 8.88C8.768 9.79733 8.40533 10.5867 7.68 11.248C6.95467 11.9093 6.01067 12.24 4.848 12.24C3.57867 12.24 2.58133 11.9093 1.856 11.248C1.14133 10.576 0.725333 9.78133 0.608 8.864L2.112 8.384C2.176 9.06667 2.44267 9.64267 2.912 10.112C3.38133 10.5813 4.02133 10.816 4.832 10.816C5.57867 10.816 6.15467 10.6453 6.56 10.304C6.96533 9.96267 7.168 9.53067 7.168 9.008C7.168 8.58133 7.024 8.21333 6.736 7.904C6.448 7.584 6.02667 7.36533 5.472 7.248L3.856 6.896C3.01333 6.71467 2.34133 6.35733 1.84 5.824C1.33867 5.29067 1.088 4.61333 1.088 3.792C1.088 2.896 1.45067 2.112 2.176 1.44C2.912 0.757333 3.79733 0.415999 4.832 0.415999C5.99467 0.415999 6.88533 0.698666 7.504 1.264C8.12267 1.82933 8.512 2.48533 8.672 3.232ZM15.8364 11.072C15.6337 11.456 15.3244 11.7493 14.9084 11.952C14.4924 12.144 14.0444 12.24 13.5644 12.24C12.6897 12.24 11.991 11.952 11.4684 11.376C10.9457 10.7893 10.6844 10.048 10.6844 9.152V4.304H12.1884V8.928C12.1884 9.504 12.327 9.97867 12.6044 10.352C12.8924 10.7253 13.335 10.912 13.9324 10.912C14.5297 10.912 14.983 10.736 15.2924 10.384C15.6017 10.0213 15.7564 9.54133 15.7564 8.944V4.304H17.2604V10.576C17.2604 11.0773 17.287 11.552 17.3404 12H15.9004C15.8577 11.7653 15.8364 11.456 15.8364 11.072ZM21.3149 15.04H19.8269V4.304H21.2829V5.504C21.5069 5.09867 21.8429 4.768 22.2909 4.512C22.7389 4.256 23.2615 4.128 23.8589 4.128C24.9682 4.128 25.8322 4.50667 26.4509 5.264C27.0802 6.02133 27.3949 6.98133 27.3949 8.144C27.3949 9.31733 27.0695 10.288 26.4189 11.056C25.7789 11.824 24.9095 12.208 23.8109 12.208C23.2455 12.208 22.7442 12.0907 22.3069 11.856C21.8695 11.6213 21.5389 11.3227 21.3149 10.96V15.04ZM25.8589 8.144C25.8589 7.36533 25.6509 6.72533 25.2349 6.224C24.8295 5.712 24.2802 5.456 23.5869 5.456C22.9042 5.456 22.3495 5.712 21.9229 6.224C21.5069 6.72533 21.2989 7.36533 21.2989 8.144C21.2989 8.944 21.5069 9.6 21.9229 10.112C22.3495 10.6133 22.9042 10.864 23.5869 10.864C24.2695 10.864 24.8189 10.6133 25.2349 10.112C25.6509 9.6 25.8589 8.944 25.8589 8.144ZM30.7993 15.04H29.3113V4.304H30.7673V5.504C30.9913 5.09867 31.3273 4.768 31.7753 4.512C32.2233 4.256 32.7459 4.128 33.3433 4.128C34.4526 4.128 35.3166 4.50667 35.9353 5.264C36.5646 6.02133 36.8793 6.98133 36.8793 8.144C36.8793 9.31733 36.5539 10.288 35.9033 11.056C35.2633 11.824 34.3939 12.208 33.2953 12.208C32.7299 12.208 32.2286 12.0907 31.7913 11.856C31.3539 11.6213 31.0233 11.3227 30.7993 10.96V15.04ZM35.3433 8.144C35.3433 7.36533 35.1353 6.72533 34.7193 6.224C34.3139 5.712 33.7646 5.456 33.0713 5.456C32.3886 5.456 31.8339 5.712 31.4073 6.224C30.9913 6.72533 30.7833 7.36533 30.7833 8.144C30.7833 8.944 30.9913 9.6 31.4073 10.112C31.8339 10.6133 32.3886 10.864 33.0713 10.864C33.7539 10.864 34.3033 10.6133 34.7193 10.112C35.1353 9.6 35.3433 8.944 35.3433 8.144ZM40.3796 10.176C40.849 10.656 41.4196 10.896 42.0916 10.896C42.7636 10.896 43.329 10.656 43.7876 10.176C44.257 9.68533 44.4916 9.008 44.4916 8.144C44.4916 7.29067 44.257 6.624 43.7876 6.144C43.329 5.65333 42.7636 5.408 42.0916 5.408C41.4196 5.408 40.849 5.65333 40.3796 6.144C39.921 6.624 39.6916 7.29067 39.6916 8.144C39.6916 9.008 39.921 9.68533 40.3796 10.176ZM39.2596 5.232C40.0063 4.45333 40.9503 4.064 42.0916 4.064C43.233 4.064 44.1716 4.45333 44.9076 5.232C45.6543 6 46.0276 6.97067 46.0276 8.144C46.0276 9.328 45.6596 10.3093 44.9236 11.088C44.1876 11.856 43.2436 12.24 42.0916 12.24C40.9396 12.24 39.9956 11.856 39.2596 11.088C38.5236 10.3093 38.1556 9.328 38.1556 8.144C38.1556 6.97067 38.5236 6 39.2596 5.232ZM52.2239 4.224V5.824C51.9999 5.792 51.7812 5.776 51.5679 5.776C50.1599 5.776 49.4559 6.56533 49.4559 8.144V12H47.9519V4.304H49.4239V5.648C49.8932 4.66667 50.6612 4.176 51.7279 4.176C51.8985 4.176 52.0639 4.192 52.2239 4.224ZM56.2491 1.872V4.304H57.9131V5.664H56.2491V9.664C56.2491 10.0267 56.3291 10.2933 56.4891 10.464C56.6598 10.6347 56.9371 10.72 57.3211 10.72C57.5451 10.72 57.7425 10.6987 57.9131 10.656V11.936C57.6571 12.032 57.3158 12.08 56.8891 12.08C56.2278 12.08 55.7051 11.888 55.3211 11.504C54.9371 11.12 54.7451 10.5813 54.7451 9.888V5.664H53.2731V4.304H53.6891C54.0838 4.304 54.3771 4.19733 54.5691 3.984C54.7718 3.76 54.8731 3.472 54.8731 3.12V1.872H56.2491Z" fill="#6A5C5C"/>
</svg>
