<svg width="83" height="13" viewBox="0 0 83 13" fill="none" xmlns="http://www.w3.org/2000/svg">
<path d="M9.312 2.112H5.52V12H3.952V2.112H0.16V0.655999H9.312V2.112ZM11.7248 7.36H15.9328C15.9114 6.784 15.7194 6.31467 15.3568 5.952C14.9941 5.57867 14.4821 5.392 13.8208 5.392C13.2234 5.392 12.7328 5.58933 12.3488 5.984C11.9648 6.368 11.7568 6.82667 11.7248 7.36ZM16.1568 9.36L17.4528 9.808C17.2288 10.5227 16.8128 11.1093 16.2048 11.568C15.5968 12.016 14.8608 12.24 13.9968 12.24C12.9194 12.24 12.0021 11.872 11.2448 11.136C10.4981 10.3893 10.1248 9.38667 10.1248 8.128C10.1248 6.95467 10.4874 5.984 11.2128 5.216C11.9381 4.448 12.8021 4.064 13.8048 4.064C14.9674 4.064 15.8741 4.432 16.5248 5.168C17.1754 5.89333 17.5008 6.86933 17.5008 8.096C17.5008 8.288 17.4901 8.448 17.4688 8.576H11.6768C11.6874 9.25867 11.9114 9.81867 12.3488 10.256C12.7968 10.6933 13.3461 10.912 13.9968 10.912C15.0954 10.912 15.8154 10.3947 16.1568 9.36ZM18.7006 10L20.0606 9.52C20.114 9.936 20.2953 10.2827 20.6046 10.56C20.914 10.8267 21.33 10.96 21.8526 10.96C22.258 10.96 22.578 10.864 22.8126 10.672C23.0473 10.4693 23.1646 10.224 23.1646 9.936C23.1646 9.424 22.834 9.09333 22.1726 8.944L20.8606 8.656C20.2633 8.528 19.794 8.272 19.4526 7.888C19.1113 7.504 18.9406 7.04 18.9406 6.496C18.9406 5.83467 19.2073 5.264 19.7406 4.784C20.2846 4.304 20.93 4.064 21.6766 4.064C22.1673 4.064 22.6046 4.13867 22.9886 4.288C23.3726 4.42667 23.6713 4.61333 23.8846 4.848C24.098 5.08267 24.258 5.30133 24.3646 5.504C24.4713 5.70667 24.5513 5.91467 24.6046 6.128L23.2766 6.624C23.2553 6.496 23.218 6.37333 23.1646 6.256C23.1113 6.128 23.026 5.98933 22.9086 5.84C22.802 5.69067 22.642 5.57333 22.4286 5.488C22.2153 5.392 21.9646 5.344 21.6766 5.344C21.3033 5.344 20.994 5.44533 20.7486 5.648C20.514 5.85067 20.3966 6.09067 20.3966 6.368C20.3966 6.85867 20.69 7.168 21.2766 7.296L22.5246 7.568C23.2073 7.71733 23.73 7.99467 24.0926 8.4C24.466 8.79467 24.6526 9.28 24.6526 9.856C24.6526 10.464 24.402 11.0133 23.9006 11.504C23.41 11.9947 22.722 12.24 21.8366 12.24C20.8873 12.24 20.146 12.0053 19.6126 11.536C19.0793 11.056 18.7753 10.544 18.7006 10ZM28.671 1.872V4.304H30.335V5.664H28.671V9.664C28.671 10.0267 28.751 10.2933 28.911 10.464C29.0817 10.6347 29.359 10.72 29.743 10.72C29.967 10.72 30.1643 10.6987 30.335 10.656V11.936C30.079 12.032 29.7377 12.08 29.311 12.08C28.6497 12.08 28.127 11.888 27.743 11.504C27.359 11.12 27.167 10.5813 27.167 9.888V5.664H25.695V4.304H26.111C26.5057 4.304 26.799 4.19733 26.991 3.984C27.1937 3.76 27.295 3.472 27.295 3.12V1.872H28.671ZM33.8305 12H32.3425V4.304H33.8305V12ZM32.3105 2.16C32.1078 1.94667 32.0065 1.69067 32.0065 1.392C32.0065 1.09333 32.1078 0.837333 32.3105 0.624C32.5238 0.410666 32.7798 0.304 33.0785 0.304C33.3772 0.304 33.6332 0.410666 33.8465 0.624C34.0598 0.826666 34.1665 1.08267 34.1665 1.392C34.1665 1.69067 34.0598 1.94667 33.8465 2.16C33.6332 2.36267 33.3772 2.464 33.0785 2.464C32.7798 2.464 32.5238 2.36267 32.3105 2.16ZM37.8774 12H36.3894V4.304H37.8294V5.328C38.064 4.92267 38.3947 4.61333 38.8214 4.4C39.248 4.18667 39.696 4.08 40.1654 4.08C40.6667 4.08 41.1254 4.20267 41.5414 4.448C41.9574 4.69333 42.2667 5.056 42.4694 5.536C43.0027 4.56533 43.8614 4.08 45.0454 4.08C45.7814 4.08 46.4054 4.33067 46.9174 4.832C47.44 5.33333 47.7014 6.05867 47.7014 7.008V12H46.2134V7.168C46.2134 6.63467 46.0747 6.208 45.7974 5.888C45.5307 5.568 45.1254 5.408 44.5814 5.408C44.0587 5.408 43.632 5.59467 43.3014 5.968C42.9707 6.33067 42.8054 6.78933 42.8054 7.344V12H41.3014V7.168C41.3014 6.63467 41.1627 6.208 40.8854 5.888C40.6187 5.568 40.2134 5.408 39.6694 5.408C39.136 5.408 38.704 5.58933 38.3734 5.952C38.0427 6.31467 37.8774 6.784 37.8774 7.36V12ZM51.6921 10.176C52.1615 10.656 52.7321 10.896 53.4041 10.896C54.0761 10.896 54.6415 10.656 55.1001 10.176C55.5695 9.68533 55.8041 9.008 55.8041 8.144C55.8041 7.29067 55.5695 6.624 55.1001 6.144C54.6415 5.65333 54.0761 5.408 53.4041 5.408C52.7321 5.408 52.1615 5.65333 51.6921 6.144C51.2335 6.624 51.0041 7.29067 51.0041 8.144C51.0041 9.008 51.2335 9.68533 51.6921 10.176ZM50.5721 5.232C51.3188 4.45333 52.2628 4.064 53.4041 4.064C54.5455 4.064 55.4841 4.45333 56.2201 5.232C56.9668 6 57.3401 6.97067 57.3401 8.144C57.3401 9.328 56.9721 10.3093 56.2361 11.088C55.5001 11.856 54.5561 12.24 53.4041 12.24C52.2521 12.24 51.3081 11.856 50.5721 11.088C49.8361 10.3093 49.4681 9.328 49.4681 8.144C49.4681 6.97067 49.8361 6 50.5721 5.232ZM60.7684 7.552V12H59.2644V4.304H60.7364V5.408C61.2484 4.52267 62.0377 4.08 63.1044 4.08C63.9897 4.08 64.667 4.36267 65.1364 4.928C65.6164 5.49333 65.8564 6.224 65.8564 7.12V12H64.3524V7.376C64.3524 6.08533 63.755 5.44 62.5604 5.44C61.995 5.44 61.5524 5.64267 61.2324 6.048C60.923 6.44267 60.7684 6.944 60.7684 7.552ZM69.7368 12H68.2488V4.304H69.7368V12ZM68.2168 2.16C68.0141 1.94667 67.9128 1.69067 67.9128 1.392C67.9128 1.09333 68.0141 0.837333 68.2168 0.624C68.4301 0.410666 68.6861 0.304 68.9848 0.304C69.2834 0.304 69.5394 0.410666 69.7528 0.624C69.9661 0.826666 70.0728 1.08267 70.0728 1.392C70.0728 1.69067 69.9661 1.94667 69.7528 2.16C69.5394 2.36267 69.2834 2.464 68.9848 2.464C68.6861 2.464 68.4301 2.36267 68.2168 2.16ZM71.8156 9.936C71.8156 9.27467 72.029 8.74667 72.4556 8.352C72.8823 7.94667 73.4476 7.696 74.1516 7.6L76.2316 7.296C76.6263 7.24267 76.8236 7.05067 76.8236 6.72C76.8236 6.31467 76.685 5.984 76.4076 5.728C76.1303 5.472 75.7143 5.344 75.1596 5.344C74.6476 5.344 74.2423 5.488 73.9436 5.776C73.645 6.05333 73.469 6.42667 73.4156 6.896L71.9756 6.56C72.0503 5.824 72.3863 5.22667 72.9836 4.768C73.581 4.29867 74.2956 4.064 75.1276 4.064C76.2156 4.064 77.021 4.33067 77.5436 4.864C78.0663 5.38667 78.3276 6.05867 78.3276 6.88V10.736C78.3276 11.1947 78.3596 11.616 78.4236 12H76.9516C76.8983 11.68 76.8716 11.3333 76.8716 10.96C76.6583 11.3013 76.3436 11.6 75.9276 11.856C75.5223 12.112 75.0103 12.24 74.3916 12.24C73.6343 12.24 73.0156 12.016 72.5356 11.568C72.0556 11.1093 71.8156 10.5653 71.8156 9.936ZM74.5996 10.976C75.2716 10.976 75.8103 10.7947 76.2156 10.432C76.621 10.0693 76.8236 9.49333 76.8236 8.704V8.352L74.4716 8.704C74.1303 8.75733 73.8583 8.88 73.6556 9.072C73.453 9.264 73.3516 9.52533 73.3516 9.856C73.3516 10.1547 73.4636 10.416 73.6876 10.64C73.9223 10.864 74.2263 10.976 74.5996 10.976ZM82.1746 12H80.6706V0.415999H82.1746V12Z" fill="#6A5C5C"/>
</svg>
