<svg width="54" height="13" viewBox="0 0 54 13" fill="none" xmlns="http://www.w3.org/2000/svg">
<path d="M9.504 2.464H5.808V12H3.888V2.464H0.208V0.655999H9.504V2.464ZM15.3348 4.208H17.2548L19.0948 9.6L20.6468 4.208H22.5348L20.0388 12H18.1828L16.2468 6.4L14.3588 12H12.4548L9.92675 4.208H11.9108L13.4948 9.6L15.3348 4.208ZM25.79 12H23.95V4.208H25.79V12ZM24.014 2.32C23.7793 2.08533 23.662 1.80267 23.662 1.472C23.662 1.14133 23.7793 0.858666 24.014 0.624C24.2487 0.378666 24.5313 0.256 24.862 0.256C25.2033 0.256 25.4913 0.373333 25.726 0.608C25.9607 0.842666 26.078 1.13067 26.078 1.472C26.078 1.80267 25.9607 2.08533 25.726 2.32C25.4913 2.55467 25.2033 2.672 24.862 2.672C24.5313 2.672 24.2487 2.55467 24.014 2.32ZM30.5364 1.824V4.208H32.1524V5.856H30.5364V9.472C30.5364 9.81333 30.6164 10.064 30.7764 10.224C30.9364 10.3733 31.187 10.448 31.5284 10.448C31.7417 10.448 31.955 10.4267 32.1684 10.384V11.92C31.891 12.0373 31.5124 12.096 31.0324 12.096C30.307 12.096 29.7364 11.8933 29.3204 11.488C28.9044 11.072 28.6964 10.5013 28.6964 9.776V5.856H27.2564V4.208H27.6564C28.051 4.208 28.3497 4.096 28.5524 3.872C28.755 3.648 28.8564 3.35467 28.8564 2.992V1.824H30.5364ZM36.3801 1.824V4.208H37.9961V5.856H36.3801V9.472C36.3801 9.81333 36.4601 10.064 36.6201 10.224C36.7801 10.3733 37.0308 10.448 37.3721 10.448C37.5855 10.448 37.7988 10.4267 38.0121 10.384V11.92C37.7348 12.0373 37.3561 12.096 36.8761 12.096C36.1508 12.096 35.5801 11.8933 35.1641 11.488C34.7481 11.072 34.5401 10.5013 34.5401 9.776V5.856H33.1001V4.208H33.5001C33.8948 4.208 34.1935 4.096 34.3961 3.872C34.5988 3.648 34.7001 3.35467 34.7001 2.992V1.824H36.3801ZM41.121 7.248H44.945C44.9237 6.75733 44.7477 6.34667 44.417 6.016C44.097 5.68533 43.633 5.52 43.025 5.52C42.4703 5.52 42.0223 5.696 41.681 6.048C41.3397 6.38933 41.153 6.78933 41.121 7.248ZM45.153 9.28L46.721 9.776C46.497 10.4907 46.0757 11.0827 45.457 11.552C44.849 12.0107 44.097 12.24 43.201 12.24C42.0917 12.24 41.1477 11.8613 40.369 11.104C39.601 10.3467 39.217 9.33333 39.217 8.064C39.217 6.86933 39.5903 5.888 40.337 5.12C41.0943 4.352 41.985 3.968 43.009 3.968C44.2037 3.968 45.137 4.336 45.809 5.072C46.481 5.79733 46.817 6.77867 46.817 8.016C46.817 8.34667 46.801 8.544 46.769 8.608H41.073C41.0943 9.19467 41.3077 9.68 41.713 10.064C42.129 10.448 42.625 10.64 43.201 10.64C44.2037 10.64 44.8543 10.1867 45.153 9.28ZM53.1506 4.16V6.048C52.9373 6.016 52.7346 6 52.5426 6C51.1453 6 50.4466 6.76267 50.4466 8.288V12H48.5906V4.208H50.3986V5.456C50.58 5.04 50.8733 4.71467 51.2786 4.48C51.684 4.23467 52.1426 4.112 52.6546 4.112C52.8253 4.112 52.9906 4.128 53.1506 4.16Z" fill="#2E2E2E"/>
<path d="M0 17.68H9.712V18.96H0V17.68Z" fill="#2E2E2E"/>
<path d="M9.71875 17.68H53.4706V18.96H9.71875V17.68Z" fill="#2E2E2E"/>
</svg>
