<svg width="104" height="16" viewBox="0 0 104 16" fill="none" xmlns="http://www.w3.org/2000/svg">
<path d="M5.56 15.26C8.62 15.26 10.86 13.38 10.86 10.36V0.999999H8.56V10.22C8.56 11.86 7.62 13.02 5.56 13.02C3.5 13.02 2.56 11.86 2.56 10.22V0.999999H0.26V10.36C0.26 13.38 2.48 15.26 5.56 15.26ZM15.1883 7.76C15.1883 7.04 15.8683 6.7 16.6483 6.7C17.4683 6.7 18.1683 7.06 18.5283 7.84L20.3483 6.82C19.6483 5.5 18.2883 4.74 16.6483 4.74C14.6083 4.74 12.9883 5.92 12.9883 7.8C12.9883 11.38 18.3683 10.38 18.3683 12.16C18.3683 12.96 17.6283 13.28 16.6683 13.28C15.5683 13.28 14.7683 12.74 14.4483 11.84L12.5883 12.92C13.2283 14.36 14.6683 15.26 16.6683 15.26C18.8283 15.26 20.5683 14.18 20.5683 12.18C20.5683 8.48 15.1883 9.58 15.1883 7.76ZM23.9131 10.92H31.8731C31.9131 10.64 31.9531 10.32 31.9531 10.02C31.9531 7.14 29.9131 4.74 26.9331 4.74C23.7931 4.74 21.6531 7.04 21.6531 10C21.6531 13 23.7931 15.26 27.0931 15.26C29.0531 15.26 30.5531 14.44 31.4731 13.08L29.6931 12.04C29.2131 12.74 28.3131 13.28 27.1131 13.28C25.5131 13.28 24.2531 12.48 23.9131 10.92ZM23.8931 9.16C24.1931 7.66 25.2931 6.7 26.9131 6.7C28.2131 6.7 29.4731 7.44 29.7731 9.16H23.8931ZM38.7813 2.82V0.739999C35.7813 0.539999 34.2613 2.1 34.2613 4.8V5H32.7413V7.08H34.2613V15H36.4213V7.08H38.7813V5H36.4213V4.8C36.4213 3.26 37.2613 2.68 38.7813 2.82ZM46.7852 5V10.36C46.7852 12.4 45.6652 13.24 44.2452 13.24C42.8852 13.24 42.0052 12.44 42.0052 10.92V5H39.8452V11.14C39.8452 13.74 41.4452 15.26 43.6852 15.26C45.0452 15.26 46.1252 14.76 46.7852 13.72V15H48.9452V5H46.7852ZM51.4709 15H53.6309V0.4H51.4709V15ZM63.5789 12.8V0.999999H61.2789V15H69.2789V12.8H63.5789ZM71.9259 3.5C72.6859 3.5 73.3059 2.86 73.3059 2.12C73.3059 1.36 72.6859 0.739999 71.9259 0.739999C71.1659 0.739999 70.5459 1.36 70.5459 2.12C70.5459 2.86 71.1659 3.5 71.9259 3.5ZM70.8459 15H73.0059V5H70.8459V15ZM80.7739 4.74C79.4139 4.74 78.3339 5.24 77.6739 6.28V5H75.5139V15H77.6739V9.64C77.6739 7.6 78.7939 6.76 80.2139 6.76C81.5739 6.76 82.4539 7.56 82.4539 9.08V15H84.6139V8.86C84.6139 6.26 83.0139 4.74 80.7739 4.74ZM95.7797 15L91.2197 9.9L95.6197 5H92.9797L89.0997 9.42V0.999999H86.9397V15H89.0997V10.38L93.1997 15H95.7797ZM98.4695 7.76C98.4695 7.04 99.1495 6.7 99.9295 6.7C100.75 6.7 101.45 7.06 101.81 7.84L103.63 6.82C102.93 5.5 101.57 4.74 99.9295 4.74C97.8895 4.74 96.2695 5.92 96.2695 7.8C96.2695 11.38 101.65 10.38 101.65 12.16C101.65 12.96 100.91 13.28 99.9495 13.28C98.8495 13.28 98.0495 12.74 97.7295 11.84L95.8695 12.92C96.5095 14.36 97.9495 15.26 99.9495 15.26C102.11 15.26 103.85 14.18 103.85 12.18C103.85 8.48 98.4695 9.58 98.4695 7.76Z" fill="#2E2E2E"/>
</svg>
