<svg width="165" height="16" viewBox="0 0 165 16" fill="none" xmlns="http://www.w3.org/2000/svg">
<path d="M5.616 4.304H7.168L9.168 10.096L10.864 4.304H12.448L9.952 12H8.4L6.352 6.144L4.352 12H2.768L0.24 4.304H1.888L3.616 10.096L5.616 4.304ZM18.3035 4.304H19.8555L21.8555 10.096L23.5515 4.304H25.1355L22.6395 12H21.0875L19.0395 6.144L17.0395 12H15.4555L12.9275 4.304H14.5755L16.3035 10.096L18.3035 4.304ZM30.991 4.304H32.543L34.543 10.096L36.239 4.304H37.823L35.327 12H33.775L31.727 6.144L29.727 12H28.143L25.615 4.304H27.263L28.991 10.096L30.991 4.304ZM38.8619 11.76C38.6485 11.5467 38.5419 11.2853 38.5419 10.976C38.5419 10.6667 38.6485 10.4053 38.8619 10.192C39.0752 9.968 39.3365 9.856 39.6459 9.856C39.9552 9.856 40.2165 9.968 40.4299 10.192C40.6539 10.4053 40.7659 10.6667 40.7659 10.976C40.7659 11.2853 40.6539 11.5467 40.4299 11.76C40.2165 11.9733 39.9552 12.08 39.6459 12.08C39.3365 12.08 39.0752 11.9733 38.8619 11.76ZM47.0426 5.664H45.1866V12H43.6346V5.664H42.2106V4.304H43.6346V3.008C43.6346 2.18667 43.8746 1.54133 44.3546 1.072C44.8346 0.602666 45.4373 0.367999 46.1626 0.367999C46.6213 0.367999 46.92 0.421333 47.0586 0.528V1.872C46.8986 1.808 46.68 1.776 46.4026 1.776C46.072 1.776 45.784 1.87733 45.5386 2.08C45.304 2.272 45.1866 2.608 45.1866 3.088V4.304H47.0426V5.664ZM49.9265 10.176C50.3958 10.656 50.9665 10.896 51.6385 10.896C52.3105 10.896 52.8758 10.656 53.3345 10.176C53.8038 9.68533 54.0385 9.008 54.0385 8.144C54.0385 7.29067 53.8038 6.624 53.3345 6.144C52.8758 5.65333 52.3105 5.408 51.6385 5.408C50.9665 5.408 50.3958 5.65333 49.9265 6.144C49.4678 6.624 49.2385 7.29067 49.2385 8.144C49.2385 9.008 49.4678 9.68533 49.9265 10.176ZM48.8065 5.232C49.5532 4.45333 50.4972 4.064 51.6385 4.064C52.7798 4.064 53.7185 4.45333 54.4545 5.232C55.2012 6 55.5745 6.97067 55.5745 8.144C55.5745 9.328 55.2065 10.3093 54.4705 11.088C53.7345 11.856 52.7905 12.24 51.6385 12.24C50.4865 12.24 49.5425 11.856 48.8065 11.088C48.0705 10.3093 47.7025 9.328 47.7025 8.144C47.7025 6.97067 48.0705 6 48.8065 5.232ZM59.0828 10.176C59.5521 10.656 60.1228 10.896 60.7948 10.896C61.4668 10.896 62.0321 10.656 62.4908 10.176C62.9601 9.68533 63.1948 9.008 63.1948 8.144C63.1948 7.29067 62.9601 6.624 62.4908 6.144C62.0321 5.65333 61.4668 5.408 60.7948 5.408C60.1228 5.408 59.5521 5.65333 59.0828 6.144C58.6241 6.624 58.3948 7.29067 58.3948 8.144C58.3948 9.008 58.6241 9.68533 59.0828 10.176ZM57.9628 5.232C58.7094 4.45333 59.6534 4.064 60.7948 4.064C61.9361 4.064 62.8748 4.45333 63.6108 5.232C64.3574 6 64.7308 6.97067 64.7308 8.144C64.7308 9.328 64.3628 10.3093 63.6268 11.088C62.8908 11.856 61.9468 12.24 60.7948 12.24C59.6428 12.24 58.6988 11.856 57.9628 11.088C57.2268 10.3093 56.8588 9.328 56.8588 8.144C56.8588 6.97067 57.2268 6 57.9628 5.232ZM67.551 8.128C67.551 8.93867 67.7483 9.6 68.143 10.112C68.5483 10.624 69.103 10.88 69.807 10.88C70.479 10.88 71.0177 10.6187 71.423 10.096C71.8283 9.57333 72.031 8.90667 72.031 8.096C72.031 7.296 71.8337 6.65067 71.439 6.16C71.0443 5.66933 70.5057 5.424 69.823 5.424C69.1403 5.424 68.591 5.67467 68.175 6.176C67.759 6.67733 67.551 7.328 67.551 8.128ZM72.047 10.96V10.832C71.8443 11.2267 71.535 11.5573 71.119 11.824C70.7137 12.08 70.2283 12.208 69.663 12.208C68.5643 12.208 67.679 11.824 67.007 11.056C66.3457 10.2773 66.015 9.30133 66.015 8.128C66.015 7.008 66.3563 6.05867 67.039 5.28C67.7217 4.49067 68.5963 4.096 69.663 4.096C70.2923 4.096 70.8043 4.224 71.199 4.48C71.5937 4.72533 71.8657 5.02933 72.015 5.392V0.415999H73.503V10.576C73.503 11.0987 73.5297 11.5733 73.583 12H72.127C72.0737 11.7013 72.047 11.3547 72.047 10.96ZM83.2133 13.264H75.0213V12H83.2133V13.264ZM86.2211 15.04H84.7331V4.304H86.1891V5.504C86.4131 5.09867 86.7491 4.768 87.1971 4.512C87.6451 4.256 88.1678 4.128 88.7651 4.128C89.8745 4.128 90.7385 4.50667 91.3571 5.264C91.9865 6.02133 92.3011 6.98133 92.3011 8.144C92.3011 9.31733 91.9758 10.288 91.3251 11.056C90.6851 11.824 89.8158 12.208 88.7171 12.208C88.1518 12.208 87.6505 12.0907 87.2131 11.856C86.7758 11.6213 86.4451 11.3227 86.2211 10.96V15.04ZM90.7651 8.144C90.7651 7.36533 90.5571 6.72533 90.1411 6.224C89.7358 5.712 89.1865 5.456 88.4931 5.456C87.8105 5.456 87.2558 5.712 86.8291 6.224C86.4131 6.72533 86.2051 7.36533 86.2051 8.144C86.2051 8.944 86.4131 9.6 86.8291 10.112C87.2558 10.6133 87.8105 10.864 88.4931 10.864C89.1758 10.864 89.7251 10.6133 90.1411 10.112C90.5571 9.6 90.7651 8.944 90.7651 8.144ZM93.7375 9.936C93.7375 9.27467 93.9508 8.74667 94.3775 8.352C94.8042 7.94667 95.3695 7.696 96.0735 7.6L98.1535 7.296C98.5482 7.24267 98.7455 7.05067 98.7455 6.72C98.7455 6.31467 98.6068 5.984 98.3295 5.728C98.0522 5.472 97.6362 5.344 97.0815 5.344C96.5695 5.344 96.1642 5.488 95.8655 5.776C95.5668 6.05333 95.3908 6.42667 95.3375 6.896L93.8975 6.56C93.9722 5.824 94.3082 5.22667 94.9055 4.768C95.5028 4.29867 96.2175 4.064 97.0495 4.064C98.1375 4.064 98.9428 4.33067 99.4655 4.864C99.9882 5.38667 100.25 6.05867 100.25 6.88V10.736C100.25 11.1947 100.282 11.616 100.346 12H98.8735C98.8202 11.68 98.7935 11.3333 98.7935 10.96C98.5802 11.3013 98.2655 11.6 97.8495 11.856C97.4442 12.112 96.9322 12.24 96.3135 12.24C95.5562 12.24 94.9375 12.016 94.4575 11.568C93.9775 11.1093 93.7375 10.5653 93.7375 9.936ZM96.5215 10.976C97.1935 10.976 97.7322 10.7947 98.1375 10.432C98.5428 10.0693 98.7455 9.49333 98.7455 8.704V8.352L96.3935 8.704C96.0522 8.75733 95.7802 8.88 95.5775 9.072C95.3748 9.264 95.2735 9.52533 95.2735 9.856C95.2735 10.1547 95.3855 10.416 95.6095 10.64C95.8442 10.864 96.1482 10.976 96.5215 10.976ZM104.097 12H102.593V0.415999H104.097V12ZM106.175 9.936C106.175 9.27467 106.388 8.74667 106.815 8.352C107.242 7.94667 107.807 7.696 108.511 7.6L110.591 7.296C110.986 7.24267 111.183 7.05067 111.183 6.72C111.183 6.31467 111.044 5.984 110.767 5.728C110.49 5.472 110.074 5.344 109.519 5.344C109.007 5.344 108.602 5.488 108.303 5.776C108.004 6.05333 107.828 6.42667 107.775 6.896L106.335 6.56C106.41 5.824 106.746 5.22667 107.343 4.768C107.94 4.29867 108.655 4.064 109.487 4.064C110.575 4.064 111.38 4.33067 111.903 4.864C112.426 5.38667 112.687 6.05867 112.687 6.88V10.736C112.687 11.1947 112.719 11.616 112.783 12H111.311C111.258 11.68 111.231 11.3333 111.231 10.96C111.018 11.3013 110.703 11.6 110.287 11.856C109.882 12.112 109.37 12.24 108.751 12.24C107.994 12.24 107.375 12.016 106.895 11.568C106.415 11.1093 106.175 10.5653 106.175 9.936ZM108.959 10.976C109.631 10.976 110.17 10.7947 110.575 10.432C110.98 10.0693 111.183 9.49333 111.183 8.704V8.352L108.831 8.704C108.49 8.75733 108.218 8.88 108.015 9.072C107.812 9.264 107.711 9.52533 107.711 9.856C107.711 10.1547 107.823 10.416 108.047 10.64C108.282 10.864 108.586 10.976 108.959 10.976ZM118.262 5.456C117.611 5.456 117.057 5.69067 116.598 6.16C116.15 6.62933 115.926 7.29067 115.926 8.144C115.926 8.98667 116.15 9.648 116.598 10.128C117.057 10.608 117.617 10.848 118.278 10.848C118.918 10.848 119.403 10.688 119.734 10.368C120.075 10.048 120.305 9.68 120.422 9.264L121.75 9.84C121.537 10.48 121.131 11.04 120.534 11.52C119.947 12 119.195 12.24 118.278 12.24C117.158 12.24 116.23 11.8507 115.494 11.072C114.758 10.2933 114.39 9.31733 114.39 8.144C114.39 6.94933 114.758 5.97333 115.494 5.216C116.23 4.448 117.153 4.064 118.262 4.064C119.201 4.064 119.958 4.304 120.534 4.784C121.121 5.264 121.505 5.84 121.686 6.512L120.326 7.088C120.209 6.64 119.985 6.256 119.654 5.936C119.323 5.616 118.859 5.456 118.262 5.456ZM124.412 7.36H128.62C128.599 6.784 128.407 6.31467 128.044 5.952C127.682 5.57867 127.17 5.392 126.508 5.392C125.911 5.392 125.42 5.58933 125.036 5.984C124.652 6.368 124.444 6.82667 124.412 7.36ZM128.844 9.36L130.14 9.808C129.916 10.5227 129.5 11.1093 128.892 11.568C128.284 12.016 127.548 12.24 126.684 12.24C125.607 12.24 124.69 11.872 123.932 11.136C123.186 10.3893 122.812 9.38667 122.812 8.128C122.812 6.95467 123.175 5.984 123.9 5.216C124.626 4.448 125.49 4.064 126.492 4.064C127.655 4.064 128.562 4.432 129.212 5.168C129.863 5.89333 130.188 6.86933 130.188 8.096C130.188 8.288 130.178 8.448 130.156 8.576H124.364C124.375 9.25867 124.599 9.81867 125.036 10.256C125.484 10.6933 126.034 10.912 126.684 10.912C127.783 10.912 128.503 10.3947 128.844 9.36ZM132.034 11.76C131.82 11.5467 131.714 11.2853 131.714 10.976C131.714 10.6667 131.82 10.4053 132.034 10.192C132.247 9.968 132.508 9.856 132.818 9.856C133.127 9.856 133.388 9.968 133.602 10.192C133.826 10.4053 133.938 10.6667 133.938 10.976C133.938 11.2853 133.826 11.5467 133.602 11.76C133.388 11.9733 133.127 12.08 132.818 12.08C132.508 12.08 132.247 11.9733 132.034 11.76ZM139.34 5.456C138.689 5.456 138.135 5.69067 137.676 6.16C137.228 6.62933 137.004 7.29067 137.004 8.144C137.004 8.98667 137.228 9.648 137.676 10.128C138.135 10.608 138.695 10.848 139.356 10.848C139.996 10.848 140.481 10.688 140.812 10.368C141.153 10.048 141.383 9.68 141.5 9.264L142.828 9.84C142.615 10.48 142.209 11.04 141.612 11.52C141.025 12 140.273 12.24 139.356 12.24C138.236 12.24 137.308 11.8507 136.572 11.072C135.836 10.2933 135.468 9.31733 135.468 8.144C135.468 6.94933 135.836 5.97333 136.572 5.216C137.308 4.448 138.231 4.064 139.34 4.064C140.279 4.064 141.036 4.304 141.612 4.784C142.199 5.264 142.583 5.84 142.764 6.512L141.404 7.088C141.287 6.64 141.063 6.256 140.732 5.936C140.401 5.616 139.937 5.456 139.34 5.456ZM146.098 10.176C146.568 10.656 147.138 10.896 147.81 10.896C148.482 10.896 149.048 10.656 149.506 10.176C149.976 9.68533 150.21 9.008 150.21 8.144C150.21 7.29067 149.976 6.624 149.506 6.144C149.048 5.65333 148.482 5.408 147.81 5.408C147.138 5.408 146.568 5.65333 146.098 6.144C145.64 6.624 145.41 7.29067 145.41 8.144C145.41 9.008 145.64 9.68533 146.098 10.176ZM144.978 5.232C145.725 4.45333 146.669 4.064 147.81 4.064C148.952 4.064 149.89 4.45333 150.626 5.232C151.373 6 151.746 6.97067 151.746 8.144C151.746 9.328 151.378 10.3093 150.642 11.088C149.906 11.856 148.962 12.24 147.81 12.24C146.658 12.24 145.714 11.856 144.978 11.088C144.242 10.3093 143.874 9.328 143.874 8.144C143.874 6.97067 144.242 6 144.978 5.232ZM155.159 12H153.671V4.304H155.111V5.328C155.345 4.92267 155.676 4.61333 156.103 4.4C156.529 4.18667 156.977 4.08 157.447 4.08C157.948 4.08 158.407 4.20267 158.823 4.448C159.239 4.69333 159.548 5.056 159.751 5.536C160.284 4.56533 161.143 4.08 162.327 4.08C163.063 4.08 163.687 4.33067 164.199 4.832C164.721 5.33333 164.983 6.05867 164.983 7.008V12H163.495V7.168C163.495 6.63467 163.356 6.208 163.079 5.888C162.812 5.568 162.407 5.408 161.863 5.408C161.34 5.408 160.913 5.59467 160.583 5.968C160.252 6.33067 160.087 6.78933 160.087 7.344V12H158.583V7.168C158.583 6.63467 158.444 6.208 158.167 5.888C157.9 5.568 157.495 5.408 156.951 5.408C156.417 5.408 155.985 5.58933 155.655 5.952C155.324 6.31467 155.159 6.784 155.159 7.36V12Z" fill="#3F3232"/>
</svg>
