<svg width="62" height="13" viewBox="0 0 62 13" fill="none" xmlns="http://www.w3.org/2000/svg">
<path d="M4.128 7.2L0.16 0.655999H2.432L5.152 5.408L7.888 0.655999H10.048L6.048 7.2V12H4.128V7.2ZM13.2751 9.92C13.7018 10.3573 14.2191 10.576 14.8271 10.576C15.4351 10.576 15.9471 10.3573 16.3631 9.92C16.7898 9.48267 17.0031 8.87467 17.0031 8.096C17.0031 7.328 16.7898 6.73067 16.3631 6.304C15.9471 5.86667 15.4351 5.648 14.8271 5.648C14.2191 5.648 13.7018 5.86667 13.2751 6.304C12.8591 6.73067 12.6511 7.328 12.6511 8.096C12.6511 8.864 12.8591 9.472 13.2751 9.92ZM14.8271 3.968C16.0005 3.968 16.9658 4.35733 17.7231 5.136C18.4911 5.91467 18.8751 6.90133 18.8751 8.096C18.8751 9.29067 18.4911 10.2827 17.7231 11.072C16.9658 11.8507 16.0005 12.24 14.8271 12.24C13.6645 12.24 12.6991 11.8507 11.9311 11.072C11.1738 10.2827 10.7951 9.29067 10.7951 8.096C10.7951 6.90133 11.1738 5.91467 11.9311 5.136C12.6991 4.35733 13.6645 3.968 14.8271 3.968ZM25.6939 11.136C25.5125 11.4773 25.2139 11.744 24.7979 11.936C24.3925 12.128 23.9552 12.224 23.4859 12.224C22.5792 12.224 21.8592 11.9307 21.3259 11.344C20.8032 10.7573 20.5419 10.016 20.5419 9.12V4.208H22.3979V8.784C22.3979 9.30667 22.5259 9.73333 22.7819 10.064C23.0379 10.3947 23.4325 10.56 23.9659 10.56C24.4885 10.56 24.8885 10.4 25.1659 10.08C25.4539 9.76 25.5979 9.33867 25.5979 8.816V4.208H27.4539V10.576C27.4539 11.0453 27.4805 11.52 27.5339 12H25.7579C25.7152 11.7653 25.6939 11.4773 25.6939 11.136ZM32.2083 1.824V4.208H33.8243V5.856H32.2083V9.472C32.2083 9.81333 32.2883 10.064 32.4483 10.224C32.6083 10.3733 32.8589 10.448 33.2003 10.448C33.4136 10.448 33.6269 10.4267 33.8403 10.384V11.92C33.5629 12.0373 33.1843 12.096 32.7043 12.096C31.9789 12.096 31.4083 11.8933 30.9923 11.488C30.5763 11.072 30.3683 10.5013 30.3683 9.776V5.856H28.9283V4.208H29.3283C29.7229 4.208 30.0216 4.096 30.2243 3.872C30.4269 3.648 30.5283 3.35467 30.5283 2.992V1.824H32.2083ZM40.8189 11.136C40.6375 11.4773 40.3389 11.744 39.9229 11.936C39.5175 12.128 39.0802 12.224 38.6109 12.224C37.7042 12.224 36.9842 11.9307 36.4509 11.344C35.9282 10.7573 35.6669 10.016 35.6669 9.12V4.208H37.5229V8.784C37.5229 9.30667 37.6509 9.73333 37.9069 10.064C38.1629 10.3947 38.5575 10.56 39.0909 10.56C39.6135 10.56 40.0135 10.4 40.2909 10.08C40.5789 9.76 40.7229 9.33867 40.7229 8.816V4.208H42.5789V10.576C42.5789 11.0453 42.6055 11.52 42.6589 12H40.8829C40.8402 11.7653 40.8189 11.4773 40.8189 11.136ZM46.7893 12H44.9813V0.415999H46.8053V5.168C46.9973 4.83733 47.3119 4.56 47.7493 4.336C48.1866 4.112 48.6879 4 49.2533 4C50.3839 4 51.2639 4.384 51.8933 5.152C52.5333 5.90933 52.8533 6.88 52.8533 8.064C52.8533 9.26933 52.5173 10.2613 51.8453 11.04C51.1839 11.808 50.2986 12.192 49.1893 12.192C48.0799 12.192 47.2799 11.7813 46.7893 10.96V12ZM50.3893 9.888C50.7839 9.44 50.9813 8.83733 50.9813 8.08C50.9813 7.32267 50.7893 6.73067 50.4053 6.304C50.0213 5.86667 49.5146 5.648 48.8853 5.648C48.2773 5.648 47.7759 5.86667 47.3813 6.304C46.9866 6.73067 46.7893 7.32267 46.7893 8.08C46.7893 8.82667 46.9866 9.424 47.3813 9.872C47.7759 10.32 48.2773 10.544 48.8853 10.544C49.5039 10.544 50.0053 10.3253 50.3893 9.888ZM55.9335 7.248H59.7575C59.7362 6.75733 59.5602 6.34667 59.2295 6.016C58.9095 5.68533 58.4455 5.52 57.8375 5.52C57.2828 5.52 56.8348 5.696 56.4935 6.048C56.1522 6.38933 55.9655 6.78933 55.9335 7.248ZM59.9655 9.28L61.5335 9.776C61.3095 10.4907 60.8882 11.0827 60.2695 11.552C59.6615 12.0107 58.9095 12.24 58.0135 12.24C56.9042 12.24 55.9602 11.8613 55.1815 11.104C54.4135 10.3467 54.0295 9.33333 54.0295 8.064C54.0295 6.86933 54.4028 5.888 55.1495 5.12C55.9068 4.352 56.7975 3.968 57.8215 3.968C59.0162 3.968 59.9495 4.336 60.6215 5.072C61.2935 5.79733 61.6295 6.77867 61.6295 8.016C61.6295 8.34667 61.6135 8.544 61.5815 8.608H55.8855C55.9068 9.19467 56.1202 9.68 56.5255 10.064C56.9415 10.448 57.4375 10.64 58.0135 10.64C59.0162 10.64 59.6668 10.1867 59.9655 9.28Z" fill="#2E2E2E"/>
<path d="M0 17.68H10.208V18.96H0V17.68Z" fill="#2E2E2E"/>
<path d="M10.2031 17.68H62.2055V18.96H10.2031V17.68Z" fill="#2E2E2E"/>
</svg>
