<svg width="360" height="97" viewBox="0 0 360 97" fill="none" xmlns="http://www.w3.org/2000/svg">
<path d="M13.592 36.672C20.744 36.672 25.784 32.832 25.784 26.544C25.784 19.68 20.12 17.904 14.792 16.224C9.704 14.688 8.408 13.584 8.408 11.52C8.408 9.6 10.04 8.16 12.824 8.16C16.232 8.16 18.056 9.936 19.256 12.48L24.824 9.264C22.568 4.56 18.344 1.728 12.824 1.728C7.064 1.728 1.784 5.376 1.784 11.712C1.784 18.096 6.776 20.256 11.912 21.744C16.904 23.184 19.16 24.144 19.16 26.64C19.16 28.512 17.768 30.192 13.784 30.192C9.608 30.192 7.256 28.176 6.056 25.056L0.392 28.368C2.216 33.36 6.728 36.672 13.592 36.672ZM32.8884 9.12C35.0004 9.12 36.7284 7.392 36.7284 5.328C36.7284 3.264 35.0004 1.488 32.8884 1.488C30.8244 1.488 29.0964 3.264 29.0964 5.328C29.0964 7.392 30.8244 9.12 32.8884 9.12ZM29.8164 36H36.0084V12H29.8164V36ZM68.2198 11.328C64.9558 11.328 62.5558 12.624 61.0678 14.784C59.7238 12.576 57.5158 11.328 54.5398 11.328C51.4678 11.328 49.2118 12.528 47.8678 14.544V12H41.6758V36H47.8678V22.512C47.8678 18.912 49.7398 17.088 52.3798 17.088C54.9718 17.088 56.4118 18.816 56.4118 21.648V36H62.6038V22.512C62.6038 18.912 64.3318 17.088 67.0677 17.088C69.6598 17.088 71.0998 18.816 71.0998 21.648V36H77.2918V21.216C77.2918 15.216 73.6918 11.328 68.2198 11.328ZM96.5188 11.328C93.0148 11.328 90.4708 12.624 88.7428 14.832V12H82.5508V45.6H88.7428V33.168C90.4708 35.376 93.0148 36.672 96.5188 36.672C102.951 36.672 108.231 31.152 108.231 24C108.231 16.848 102.951 11.328 96.5188 11.328ZM95.3668 30.768C91.5748 30.768 88.7428 28.032 88.7428 24C88.7428 19.968 91.5748 17.232 95.3668 17.232C99.2068 17.232 102.039 19.968 102.039 24C102.039 28.032 99.2068 30.768 95.3668 30.768ZM112.598 36H118.79V0.959999H112.598V36ZM129.689 26.544H147.785C147.929 25.728 148.025 24.912 148.025 24C148.025 16.944 142.985 11.328 135.881 11.328C128.345 11.328 123.209 16.848 123.209 24C123.209 31.152 128.297 36.672 136.361 36.672C140.969 36.672 144.569 34.8 146.825 31.536L141.833 28.656C140.777 30.048 138.857 31.056 136.457 31.056C133.193 31.056 130.553 29.712 129.689 26.544ZM129.593 21.744C130.313 18.672 132.569 16.896 135.881 16.896C138.473 16.896 141.065 18.288 141.833 21.744H129.593ZM171.644 36H179.18L185.468 13.824L191.804 36H199.34L208.748 2.4H201.788L195.356 27.312L188.3 2.4H182.636L175.628 27.312L169.196 2.4H162.236L171.644 36ZM227.681 12V14.832C225.953 12.672 223.361 11.328 219.857 11.328C213.473 11.328 208.193 16.848 208.193 24C208.193 31.152 213.473 36.672 219.857 36.672C223.361 36.672 225.953 35.328 227.681 33.168V36H233.873V12H227.681ZM221.009 30.768C217.217 30.768 214.385 28.032 214.385 24C214.385 19.968 217.217 17.232 221.009 17.232C224.849 17.232 227.681 19.968 227.681 24C227.681 28.032 224.849 30.768 221.009 30.768ZM255.136 12L249.808 28.128L243.568 12H236.8L246.64 35.232C245.488 38.448 243.76 39.888 240.352 39.84V45.6C246.448 45.936 250.528 42.912 253.024 36L261.76 12H255.136ZM299.219 2.4H274.499V8.736H283.523V36H290.147V8.736H299.219V2.4ZM309.694 36.672C316.75 36.672 322.414 31.152 322.414 24C322.414 16.848 316.75 11.328 309.694 11.328C302.638 11.328 297.021 16.848 297.021 24C297.021 31.152 302.638 36.672 309.694 36.672ZM309.694 30.624C306.046 30.624 303.214 27.888 303.214 24C303.214 20.112 306.046 17.376 309.694 17.376C313.39 17.376 316.222 20.112 316.222 24C316.222 27.888 313.39 30.624 309.694 30.624ZM18.008 96.672C27.704 96.672 35.48 88.992 35.48 79.2C35.48 69.36 27.704 61.728 18.008 61.728C8.312 61.728 0.584 69.36 0.584 79.2C0.584 88.992 8.312 96.672 18.008 96.672ZM18.008 90.192C11.912 90.192 7.16 85.632 7.16 79.2C7.16 72.72 11.912 68.16 18.008 68.16C24.104 68.16 28.856 72.72 28.856 79.2C28.856 85.632 24.104 90.192 18.008 90.192ZM46.0396 76.128V72H39.8476V96H46.0396V84.528C46.0396 79.488 50.1196 78.048 53.3356 78.432V71.52C50.3116 71.52 47.2876 72.864 46.0396 76.128ZM74.2584 62.4V74.832C72.5304 72.624 69.9864 71.328 66.4824 71.328C60.0504 71.328 54.7704 76.848 54.7704 84C54.7704 91.152 60.0504 96.672 66.4824 96.672C69.9864 96.672 72.5304 95.376 74.2584 93.168V96H80.4504V62.4H74.2584ZM67.6344 90.768C63.7944 90.768 60.9624 88.032 60.9624 84C60.9624 79.968 63.7944 77.232 67.6344 77.232C71.4264 77.232 74.2584 79.968 74.2584 84C74.2584 88.032 71.4264 90.768 67.6344 90.768ZM91.3453 86.544H109.441C109.585 85.728 109.681 84.912 109.681 84C109.681 76.944 104.641 71.328 97.5373 71.328C90.0013 71.328 84.8652 76.848 84.8652 84C84.8652 91.152 89.9533 96.672 98.0173 96.672C102.625 96.672 106.225 94.8 108.481 91.536L103.489 88.656C102.433 90.048 100.513 91.056 98.1133 91.056C94.8493 91.056 92.2093 89.712 91.3453 86.544ZM91.2493 81.744C91.9693 78.672 94.2253 76.896 97.5373 76.896C100.129 76.896 102.721 78.288 103.489 81.744H91.2493ZM120.196 76.128V72H114.004V96H120.196V84.528C120.196 79.488 124.276 78.048 127.492 78.432V71.52C124.468 71.52 121.444 72.864 120.196 76.128ZM169.993 62.4H162.505L155.209 76.416L147.913 62.4H140.425L151.897 82.896V96H158.473V82.896L169.993 62.4ZM179.569 96.672C186.625 96.672 192.289 91.152 192.289 84C192.289 76.848 186.625 71.328 179.569 71.328C172.513 71.328 166.896 76.848 166.896 84C166.896 91.152 172.513 96.672 179.569 96.672ZM179.569 90.624C175.921 90.624 173.089 87.888 173.089 84C173.089 80.112 175.921 77.376 179.569 77.376C183.265 77.376 186.097 80.112 186.097 84C186.097 87.888 183.265 90.624 179.569 90.624ZM212.485 72V84.96C212.485 89.136 210.229 90.912 207.205 90.912C204.421 90.912 202.453 89.232 202.453 85.968V72H196.261V86.736C196.261 93.12 200.245 96.672 205.333 96.672C208.549 96.672 211.045 95.472 212.485 93.312V96H218.677V72H212.485ZM230.54 76.128V72H224.348V96H230.54V84.528C230.54 79.488 234.62 78.048 237.836 78.432V71.52C234.812 71.52 231.788 72.864 230.54 76.128ZM273.809 68.736V62.4H253.745V96H260.369V83.04H273.425V76.704H260.369V68.736H273.809ZM289.772 96.672C296.828 96.672 302.492 91.152 302.492 84C302.492 76.848 296.828 71.328 289.772 71.328C282.716 71.328 277.1 76.848 277.1 84C277.1 91.152 282.716 96.672 289.772 96.672ZM289.772 90.624C286.124 90.624 283.292 87.888 283.292 84C283.292 80.112 286.124 77.376 289.772 77.376C293.468 77.376 296.3 80.112 296.3 84C296.3 87.888 293.468 90.624 289.772 90.624ZM318.272 96.672C325.328 96.672 330.992 91.152 330.992 84C330.992 76.848 325.328 71.328 318.272 71.328C311.216 71.328 305.6 76.848 305.6 84C305.6 91.152 311.216 96.672 318.272 96.672ZM318.272 90.624C314.624 90.624 311.792 87.888 311.792 84C311.792 80.112 314.624 77.376 318.272 77.376C321.968 77.376 324.8 80.112 324.8 84C324.8 87.888 321.968 90.624 318.272 90.624ZM353.54 62.4V74.832C351.812 72.624 349.268 71.328 345.764 71.328C339.332 71.328 334.052 76.848 334.052 84C334.052 91.152 339.332 96.672 345.764 96.672C349.268 96.672 351.812 95.376 353.54 93.168V96H359.732V62.4H353.54ZM346.916 90.768C343.076 90.768 340.244 88.032 340.244 84C340.244 79.968 343.076 77.232 346.916 77.232C350.708 77.232 353.54 79.968 353.54 84C353.54 88.032 350.708 90.768 346.916 90.768Z" fill="#2E2E2E"/>
</svg>
