<svg width="118" height="22" viewBox="0 0 118 22" fill="none" xmlns="http://www.w3.org/2000/svg">
<path d="M12.6 0.199999H0.36V2.84H5.112V17H7.872V2.84H12.6V0.199999ZM21.8207 5V6.704C20.9087 5.456 19.4927 4.688 17.6207 4.688C14.3567 4.688 11.6447 7.424 11.6447 11C11.6447 14.552 14.3567 17.312 17.6207 17.312C19.4927 17.312 20.9087 16.544 21.8207 15.272V17H24.4127V5H21.8207ZM18.0287 14.84C15.8687 14.84 14.2367 13.232 14.2367 11C14.2367 8.768 15.8687 7.16 18.0287 7.16C20.1887 7.16 21.8207 8.768 21.8207 11C21.8207 13.232 20.1887 14.84 18.0287 14.84ZM38.0419 17L32.5699 10.88L37.8499 5H34.6819L30.0259 10.304V0.199999H27.4339V17H30.0259V11.456L34.9459 17H38.0419ZM40.8645 12.104H50.4165C50.4645 11.768 50.5125 11.384 50.5125 11.024C50.5125 7.568 48.0645 4.688 44.4885 4.688C40.7205 4.688 38.1525 7.448 38.1525 11C38.1525 14.6 40.7205 17.312 44.6805 17.312C47.0325 17.312 48.8325 16.328 49.9365 14.696L47.8005 13.448C47.2245 14.288 46.1445 14.936 44.7045 14.936C42.7845 14.936 41.2725 13.976 40.8645 12.104ZM40.8405 9.992C41.2005 8.192 42.5205 7.04 44.4645 7.04C46.0245 7.04 47.5365 7.928 47.8965 9.992H40.8405ZM68.2973 5V6.704C67.3853 5.456 65.9693 4.688 64.0973 4.688C60.8333 4.688 58.1213 7.424 58.1213 11C58.1213 14.552 60.8333 17.312 64.0973 17.312C65.9693 17.312 67.3853 16.544 68.2973 15.272V17H70.8893V5H68.2973ZM64.5053 14.84C62.3453 14.84 60.7133 13.232 60.7133 11C60.7133 8.768 62.3453 7.16 64.5053 7.16C66.6653 7.16 68.2973 8.768 68.2973 11C68.2973 13.232 66.6653 14.84 64.5053 14.84ZM87.7344 5L85.3824 13.28L82.8864 5H80.4144L77.8944 13.28L75.5664 5H72.8304L76.5984 17H79.1424L81.6624 8.912L84.1584 17H86.7024L90.4704 5H87.7344ZM101.414 5V6.704C100.502 5.456 99.0864 4.688 97.2144 4.688C93.9504 4.688 91.2384 7.424 91.2384 11C91.2384 14.552 93.9504 17.312 97.2144 17.312C99.0864 17.312 100.502 16.544 101.414 15.272V17H104.006V5H101.414ZM97.6224 14.84C95.4624 14.84 93.8304 13.232 93.8304 11C93.8304 8.768 95.4624 7.16 97.6224 7.16C99.7824 7.16 101.414 8.768 101.414 11C101.414 13.232 99.7824 14.84 97.6224 14.84ZM115.116 5L112.044 13.712L108.468 5H105.636L110.724 16.784L110.604 17.024C110.004 18.608 109.092 19.472 107.412 19.376V21.8C110.172 21.968 112.14 20.432 113.268 17.384L117.876 5H115.116Z" fill="#FF9401"/>
</svg>
