<svg width="98" height="18" viewBox="0 0 98 18" fill="none" xmlns="http://www.w3.org/2000/svg">
<path d="M12.6238 16.998H15.5998L9.52776 0.198046H6.21576L0.119756 16.998H3.11976L4.29576 13.614H11.4478L12.6238 16.998ZM5.20776 11.022L7.87176 3.43805L10.5358 11.022H5.20776ZM24.0303 4.68605C22.1583 4.68605 20.7423 5.45405 19.8303 6.70205V0.198046H17.2383V16.998H19.8303V15.27C20.7423 16.542 22.1583 17.31 24.0303 17.31C27.2943 17.31 30.0063 14.55 30.0063 10.998C30.0063 7.42205 27.2943 4.68605 24.0303 4.68605ZM23.6223 14.838C21.4623 14.838 19.8303 13.23 19.8303 10.998C19.8303 8.76605 21.4623 7.15805 23.6223 7.15805C25.7823 7.15805 27.4143 8.76605 27.4143 10.998C27.4143 13.23 25.7823 14.838 23.6223 14.838ZM38.0195 17.31C41.5475 17.31 44.3555 14.55 44.3555 10.998C44.3555 7.42205 41.5475 4.68605 38.0195 4.68605C34.5155 4.68605 31.6835 7.42205 31.6835 10.998C31.6835 14.55 34.5155 17.31 38.0195 17.31ZM38.0195 14.79C35.9075 14.79 34.2755 13.182 34.2755 10.998C34.2755 8.81405 35.9075 7.20605 38.0195 7.20605C40.1315 7.20605 41.7635 8.81405 41.7635 10.998C41.7635 13.182 40.1315 14.79 38.0195 14.79ZM54.7873 4.99805V11.43C54.7873 13.878 53.4433 14.886 51.7393 14.886C50.1073 14.886 49.0513 13.926 49.0513 12.102V4.99805H46.4593V12.366C46.4593 15.486 48.3793 17.31 51.0673 17.31C52.6993 17.31 53.9953 16.71 54.7873 15.462V16.998H57.3793V4.99805H54.7873ZM67.1062 7.49405V4.99805H64.1302V1.63805L61.5382 2.40605V4.99805H59.3302V7.49405H61.5382V13.254C61.5382 16.374 63.1222 17.478 67.1062 16.998V14.67C65.1382 14.766 64.1302 14.79 64.1302 13.254V7.49405H67.1062ZM83.6623 4.99805V11.43C83.6623 13.878 82.3183 14.886 80.6143 14.886C78.9823 14.886 77.9263 13.926 77.9263 12.102V4.99805H75.3343V12.366C75.3343 15.486 77.2543 17.31 79.9423 17.31C81.5743 17.31 82.8703 16.71 83.6623 15.462V16.998H86.2543V4.99805H83.6623ZM91.5429 8.31005C91.5429 7.44605 92.3589 7.03805 93.2949 7.03805C94.2789 7.03805 95.1189 7.47005 95.5509 8.40605L97.7349 7.18205C96.8949 5.59805 95.2629 4.68605 93.2949 4.68605C90.8469 4.68605 88.9029 6.10205 88.9029 8.35805C88.9029 12.654 95.3589 11.454 95.3589 13.59C95.3589 14.55 94.4709 14.934 93.3189 14.934C91.9989 14.934 91.0389 14.286 90.6549 13.206L88.4229 14.502C89.1909 16.23 90.9189 17.31 93.3189 17.31C95.9109 17.31 97.9989 16.014 97.9989 13.614C97.9989 9.17405 91.5429 10.494 91.5429 8.31005Z" fill="#FF9401"/>
</svg>
