<svg width="163" height="19" viewBox="0 0 163 19" fill="none" xmlns="http://www.w3.org/2000/svg">
<path d="M9.45976 14.9998H0.699756V0.819755H9.45976V3.05976H3.09976V6.81976H8.85976V8.99976H3.09976V12.7598H9.45976V14.9998ZM10.8604 14.9998L14.4004 10.0798L10.9204 5.25976H13.6804C13.747 5.36642 14.107 5.89976 14.7604 6.85976C15.427 7.80642 15.7804 8.31309 15.8204 8.37976L17.9404 5.25976H20.5804L17.1604 10.0398L20.7004 14.9998H17.9804L15.7204 11.7398C15.6804 11.7931 15.4804 12.0864 15.1204 12.6198C14.7737 13.1398 14.4337 13.6464 14.1004 14.1398C13.767 14.6198 13.5737 14.9064 13.5204 14.9998H10.8604ZM24.6943 18.7998H22.3943V5.25976H24.6343V6.57976C24.8876 6.13976 25.2876 5.77309 25.8343 5.47976C26.381 5.18642 27.0143 5.03976 27.7343 5.03976C29.1343 5.03976 30.2343 5.51976 31.0343 6.47976C31.8343 7.42642 32.2343 8.63976 32.2343 10.1198C32.2343 11.5998 31.8143 12.8264 30.9743 13.7998C30.1343 14.7598 29.0276 15.2398 27.6543 15.2398C26.9876 15.2398 26.3943 15.1131 25.8743 14.8598C25.3543 14.6064 24.961 14.2864 24.6943 13.8998V18.7998ZM29.9143 10.1198C29.9143 9.21309 29.6743 8.48642 29.1943 7.93976C28.7143 7.37976 28.081 7.09976 27.2943 7.09976C26.521 7.09976 25.8876 7.37976 25.3943 7.93976C24.9143 8.48642 24.6743 9.21309 24.6743 10.1198C24.6743 11.0398 24.9143 11.7798 25.3943 12.3398C25.8876 12.8998 26.521 13.1798 27.2943 13.1798C28.0676 13.1798 28.6943 12.8998 29.1743 12.3398C29.6676 11.7798 29.9143 11.0398 29.9143 10.1198ZM36.7846 14.9998H34.4646V0.519755H36.7846V14.9998ZM42.1171 12.3998C42.6504 12.9464 43.2971 13.2198 44.0571 13.2198C44.8171 13.2198 45.4571 12.9464 45.9771 12.3998C46.5104 11.8531 46.7771 11.0931 46.7771 10.1198C46.7771 9.15976 46.5104 8.41309 45.9771 7.87976C45.4571 7.33309 44.8171 7.05976 44.0571 7.05976C43.2971 7.05976 42.6504 7.33309 42.1171 7.87976C41.5971 8.41309 41.3371 9.15976 41.3371 10.1198C41.3371 11.0798 41.5971 11.8398 42.1171 12.3998ZM44.0571 4.95976C45.5238 4.95976 46.7304 5.44642 47.6771 6.41976C48.6371 7.39309 49.1171 8.62642 49.1171 10.1198C49.1171 11.6131 48.6371 12.8531 47.6771 13.8398C46.7304 14.8131 45.5238 15.2998 44.0571 15.2998C42.6038 15.2998 41.3971 14.8131 40.4371 13.8398C39.4904 12.8531 39.0171 11.6131 39.0171 10.1198C39.0171 8.62642 39.4904 7.39309 40.4371 6.41976C41.3971 5.44642 42.6038 4.95976 44.0571 4.95976ZM57.0591 5.19976V7.55976C56.7925 7.51976 56.5391 7.49976 56.2991 7.49976C54.5525 7.49976 53.6791 8.45309 53.6791 10.3598V14.9998H51.3591V5.25976H53.6191V6.81976C53.8458 6.29976 54.2125 5.89309 54.7191 5.59976C55.2258 5.29309 55.7991 5.13976 56.4391 5.13976C56.6525 5.13976 56.8591 5.15976 57.0591 5.19976ZM60.5182 9.05976H65.2982C65.2715 8.44642 65.0515 7.93309 64.6382 7.51976C64.2382 7.10642 63.6582 6.89976 62.8982 6.89976C62.2049 6.89976 61.6449 7.11976 61.2182 7.55976C60.7915 7.98642 60.5582 8.48642 60.5182 9.05976ZM65.5582 11.5998L67.5182 12.2198C67.2382 13.1131 66.7115 13.8531 65.9382 14.4398C65.1782 15.0131 64.2382 15.2998 63.1182 15.2998C61.7315 15.2998 60.5515 14.8264 59.5782 13.8798C58.6182 12.9331 58.1382 11.6664 58.1382 10.0798C58.1382 8.58642 58.6049 7.35976 59.5382 6.39976C60.4849 5.43976 61.5982 4.95976 62.8782 4.95976C64.3715 4.95976 65.5382 5.41976 66.3782 6.33976C67.2182 7.24642 67.6382 8.47309 67.6382 10.0198C67.6382 10.4331 67.6182 10.6798 67.5782 10.7598H60.4582C60.4849 11.4931 60.7515 12.0998 61.2582 12.5798C61.7782 13.0598 62.3982 13.2998 63.1182 13.2998C64.3715 13.2998 65.1849 12.7331 65.5582 11.5998ZM78.0162 4.13976C77.0828 5.03309 76.6162 6.28642 76.6162 7.89976C76.6162 9.51309 77.0828 10.7731 78.0162 11.6798C78.9495 12.5731 80.0628 13.0198 81.3562 13.0198C82.6495 13.0198 83.7628 12.5731 84.6962 11.6798C85.6428 10.7731 86.1162 9.51309 86.1162 7.89976C86.1162 6.28642 85.6428 5.03309 84.6962 4.13976C83.7628 3.23309 82.6495 2.77976 81.3562 2.77976C80.0628 2.77976 78.9495 3.23309 78.0162 4.13976ZM75.1762 11.8598C74.4962 10.7131 74.1562 9.39309 74.1562 7.89976C74.1562 6.40642 74.4962 5.09309 75.1762 3.95975C75.8695 2.81309 76.7562 1.95309 77.8362 1.37975C78.9162 0.806422 80.0895 0.519755 81.3562 0.519755C82.6228 0.519755 83.7962 0.806422 84.8762 1.37975C85.9562 1.95309 86.8428 2.81309 87.5362 3.95975C88.2295 5.09309 88.5762 6.40642 88.5762 7.89976C88.5762 9.39309 88.2295 10.7131 87.5362 11.8598C86.8428 13.0064 85.9562 13.8664 84.8762 14.4398C83.7962 15.0131 82.6228 15.2998 81.3562 15.2998C80.0895 15.2998 78.9162 15.0131 77.8362 14.4398C76.7562 13.8664 75.8695 13.0064 75.1762 11.8598ZM97.2499 13.9198C97.0232 14.3464 96.6499 14.6798 96.1299 14.9198C95.6232 15.1598 95.0766 15.2798 94.4899 15.2798C93.3566 15.2798 92.4566 14.9131 91.7899 14.1798C91.1366 13.4464 90.8099 12.5198 90.8099 11.3998V5.25976H93.1299V10.9798C93.1299 11.6331 93.2899 12.1664 93.6099 12.5798C93.9299 12.9931 94.4232 13.1998 95.0899 13.1998C95.7432 13.1998 96.2432 12.9998 96.5899 12.5998C96.9499 12.1998 97.1299 11.6731 97.1299 11.0198V5.25976H99.4499V13.2198C99.4499 13.8064 99.4832 14.3998 99.5499 14.9998H97.3299C97.2766 14.7064 97.2499 14.3464 97.2499 13.9198ZM108.153 5.19976V7.55976C107.886 7.51976 107.633 7.49976 107.393 7.49976C105.646 7.49976 104.773 8.45309 104.773 10.3598V14.9998H102.453V5.25976H104.713V6.81976C104.94 6.29976 105.306 5.89309 105.813 5.59976C106.32 5.29309 106.893 5.13976 107.533 5.13976C107.746 5.13976 107.953 5.15976 108.153 5.19976ZM124.531 4.13976L122.371 4.81976C122.278 4.27309 122.005 3.77309 121.551 3.31975C121.098 2.86642 120.445 2.63976 119.591 2.63976C118.885 2.63976 118.298 2.83976 117.831 3.23976C117.378 3.63976 117.151 4.11976 117.151 4.67976C117.151 5.65309 117.705 6.25976 118.811 6.49976L120.851 6.91976C122.078 7.15976 123.025 7.64642 123.691 8.37976C124.358 9.11309 124.691 9.98642 124.691 10.9998C124.691 12.1731 124.238 13.1864 123.331 14.0398C122.438 14.8798 121.218 15.2998 119.671 15.2998C118.005 15.2998 116.705 14.8664 115.771 13.9998C114.838 13.1198 114.311 12.0998 114.191 10.9398L116.431 10.2998C116.511 11.0998 116.831 11.7731 117.391 12.3198C117.951 12.8664 118.711 13.1398 119.671 13.1398C120.498 13.1398 121.131 12.9598 121.571 12.5998C122.025 12.2264 122.251 11.7531 122.251 11.1798C122.251 10.7131 122.085 10.3131 121.751 9.97976C121.418 9.63309 120.951 9.39309 120.351 9.25976L118.351 8.83976C117.245 8.61309 116.365 8.15309 115.711 7.45976C115.071 6.76642 114.751 5.89976 114.751 4.85976C114.751 3.67309 115.225 2.65309 116.171 1.79976C117.118 0.946422 118.251 0.519755 119.571 0.519755C121.078 0.519755 122.231 0.886422 123.031 1.61976C123.831 2.33976 124.331 3.17976 124.531 4.13976ZM129.885 2.27976V5.25976H131.905V7.31976H129.885V11.8398C129.885 12.2664 129.985 12.5798 130.185 12.7798C130.385 12.9664 130.698 13.0598 131.125 13.0598C131.392 13.0598 131.658 13.0331 131.925 12.9798V14.8998C131.578 15.0464 131.105 15.1198 130.505 15.1198C129.598 15.1198 128.885 14.8664 128.365 14.3598C127.845 13.8398 127.585 13.1264 127.585 12.2198V7.31976H125.785V5.25976H126.285C126.778 5.25976 127.152 5.11976 127.405 4.83976C127.658 4.55976 127.785 4.19309 127.785 3.73976V2.27976H129.885ZM136.531 12.3998C137.064 12.9464 137.711 13.2198 138.471 13.2198C139.231 13.2198 139.871 12.9464 140.391 12.3998C140.924 11.8531 141.191 11.0931 141.191 10.1198C141.191 9.15976 140.924 8.41309 140.391 7.87976C139.871 7.33309 139.231 7.05976 138.471 7.05976C137.711 7.05976 137.064 7.33309 136.531 7.87976C136.011 8.41309 135.751 9.15976 135.751 10.1198C135.751 11.0798 136.011 11.8398 136.531 12.3998ZM138.471 4.95976C139.938 4.95976 141.144 5.44642 142.091 6.41976C143.051 7.39309 143.531 8.62642 143.531 10.1198C143.531 11.6131 143.051 12.8531 142.091 13.8398C141.144 14.8131 139.938 15.2998 138.471 15.2998C137.018 15.2998 135.811 14.8131 134.851 13.8398C133.904 12.8531 133.431 11.6131 133.431 10.1198C133.431 8.62642 133.904 7.39309 134.851 6.41976C135.811 5.44642 137.018 4.95976 138.471 4.95976ZM151.473 5.19976V7.55976C151.207 7.51976 150.953 7.49976 150.713 7.49976C148.967 7.49976 148.093 8.45309 148.093 10.3598V14.9998H145.773V5.25976H148.033V6.81976C148.26 6.29976 148.627 5.89309 149.133 5.59976C149.64 5.29309 150.213 5.13976 150.853 5.13976C151.067 5.13976 151.273 5.15976 151.473 5.19976ZM156.721 18.9398H154.241L156.581 13.8398L152.421 5.25976H155.041L157.841 11.4198L160.461 5.25976H162.921L156.721 18.9398Z" fill="white"/>
</svg>
