<svg width="414" height="84" viewBox="0 0 414 84" fill="none" xmlns="http://www.w3.org/2000/svg">
<path d="M10.5798 14.998L5.77976 8.55805L3.75976 10.718V14.998H1.79976V0.818046H3.75976V8.11805L10.3998 0.818046H12.9798L7.07976 7.13805L13.0598 14.998H10.5798ZM15.476 9.19805H20.736C20.7093 8.47805 20.4693 7.89138 20.016 7.43805C19.5627 6.97138 18.9227 6.73805 18.096 6.73805C17.3493 6.73805 16.736 6.98471 16.256 7.47805C15.776 7.95805 15.516 8.53138 15.476 9.19805ZM21.016 11.698L22.636 12.258C22.356 13.1514 21.836 13.8847 21.076 14.458C20.316 15.018 19.396 15.298 18.316 15.298C16.9693 15.298 15.8227 14.838 14.876 13.918C13.9427 12.9847 13.476 11.7314 13.476 10.158C13.476 8.69138 13.9293 7.47805 14.836 6.51805C15.7427 5.55805 16.8227 5.07805 18.076 5.07805C19.5293 5.07805 20.6627 5.53805 21.476 6.45805C22.2893 7.36471 22.696 8.58471 22.696 10.118C22.696 10.358 22.6827 10.558 22.656 10.718H15.416C15.4293 11.5714 15.7093 12.2714 16.256 12.818C16.816 13.3647 17.5027 13.638 18.316 13.638C19.6893 13.638 20.5893 12.9914 21.016 11.698ZM26.3158 9.19805H31.5758C31.5492 8.47805 31.3092 7.89138 30.8559 7.43805C30.4025 6.97138 29.7625 6.73805 28.9358 6.73805C28.1892 6.73805 27.5758 6.98471 27.0958 7.47805C26.6158 7.95805 26.3558 8.53138 26.3158 9.19805ZM31.8558 11.698L33.4758 12.258C33.1958 13.1514 32.6759 13.8847 31.9159 14.458C31.1559 15.018 30.2359 15.298 29.1559 15.298C27.8092 15.298 26.6625 14.838 25.7158 13.918C24.7825 12.9847 24.3158 11.7314 24.3158 10.158C24.3158 8.69138 24.7692 7.47805 25.6758 6.51805C26.5825 5.55805 27.6625 5.07805 28.9159 5.07805C30.3692 5.07805 31.5025 5.53805 32.3158 6.45805C33.1292 7.36471 33.5359 8.58471 33.5359 10.118C33.5359 10.358 33.5225 10.558 33.4958 10.718H26.2558C26.2692 11.5714 26.5492 12.2714 27.0958 12.818C27.6558 13.3647 28.3425 13.638 29.1559 13.638C30.5292 13.638 31.4292 12.9914 31.8558 11.698ZM37.7957 18.798H35.9357V5.37805H37.7557V6.87805C38.0357 6.37138 38.4557 5.95805 39.0157 5.63805C39.5757 5.31805 40.229 5.15805 40.9757 5.15805C42.3624 5.15805 43.4424 5.63138 44.2157 6.57805C45.0024 7.52471 45.3957 8.72471 45.3957 10.178C45.3957 11.6447 44.989 12.858 44.1757 13.818C43.3757 14.778 42.289 15.258 40.9157 15.258C40.209 15.258 39.5824 15.1114 39.0357 14.818C38.489 14.5247 38.0757 14.1514 37.7957 13.698V18.798ZM43.4757 10.178C43.4757 9.20471 43.2157 8.40471 42.6957 7.77805C42.189 7.13805 41.5024 6.81805 40.6357 6.81805C39.7824 6.81805 39.089 7.13805 38.5557 7.77805C38.0357 8.40471 37.7757 9.20471 37.7757 10.178C37.7757 11.178 38.0357 11.998 38.5557 12.638C39.089 13.2647 39.7824 13.578 40.6357 13.578C41.489 13.578 42.1757 13.2647 42.6957 12.638C43.2157 11.998 43.4757 11.178 43.4757 10.178ZM54.6712 9.33805V14.998H52.7912V0.518046H54.6712V6.49805C55.3112 5.56471 56.2845 5.09805 57.5912 5.09805C58.6978 5.09805 59.5445 5.45138 60.1312 6.15805C60.7312 6.86471 61.0312 7.77805 61.0312 8.89805V14.998H59.1512V9.21805C59.1512 7.60471 58.4045 6.79805 56.9112 6.79805C56.2178 6.79805 55.6778 7.03805 55.2912 7.51805C54.9045 7.98471 54.6978 8.59138 54.6712 9.33805ZM65.2416 9.19805H70.5016C70.475 8.47805 70.235 7.89138 69.7816 7.43805C69.3283 6.97138 68.6883 6.73805 67.8616 6.73805C67.115 6.73805 66.5016 6.98471 66.0216 7.47805C65.5416 7.95805 65.2816 8.53138 65.2416 9.19805ZM70.7816 11.698L72.4016 12.258C72.1216 13.1514 71.6016 13.8847 70.8416 14.458C70.0816 15.018 69.1616 15.298 68.0816 15.298C66.735 15.298 65.5883 14.838 64.6416 13.918C63.7083 12.9847 63.2416 11.7314 63.2416 10.158C63.2416 8.69138 63.695 7.47805 64.6016 6.51805C65.5083 5.55805 66.5883 5.07805 67.8416 5.07805C69.295 5.07805 70.4283 5.53805 71.2416 6.45805C72.055 7.36471 72.4616 8.58471 72.4616 10.118C72.4616 10.358 72.4483 10.558 72.4216 10.718H65.1816C65.195 11.5714 65.475 12.2714 66.0216 12.818C66.5816 13.3647 67.2683 13.638 68.0816 13.638C69.455 13.638 70.355 12.9914 70.7816 11.698ZM74.2615 12.418C74.2615 11.5914 74.5281 10.9314 75.0615 10.438C75.5948 9.93138 76.3015 9.61805 77.1815 9.49805L79.7815 9.11805C80.2748 9.05138 80.5215 8.81138 80.5215 8.39805C80.5215 7.89138 80.3481 7.47805 80.0015 7.15805C79.6548 6.83805 79.1348 6.67805 78.4415 6.67805C77.8015 6.67805 77.2948 6.85805 76.9215 7.21805C76.5481 7.56471 76.3281 8.03138 76.2615 8.61805L74.4615 8.19805C74.5548 7.27805 74.9748 6.53138 75.7215 5.95805C76.4681 5.37138 77.3615 5.07805 78.4015 5.07805C79.7615 5.07805 80.7681 5.41138 81.4215 6.07805C82.0748 6.73138 82.4015 7.57138 82.4015 8.59805V13.418C82.4015 13.9914 82.4415 14.518 82.5215 14.998H80.6815C80.6148 14.598 80.5815 14.1647 80.5815 13.698C80.3148 14.1247 79.9215 14.498 79.4015 14.818C78.8948 15.138 78.2548 15.298 77.4815 15.298C76.5348 15.298 75.7615 15.018 75.1615 14.458C74.5615 13.8847 74.2615 13.2047 74.2615 12.418ZM77.7415 13.718C78.5815 13.718 79.2548 13.4914 79.7615 13.038C80.2681 12.5847 80.5215 11.8647 80.5215 10.878V10.438L77.5815 10.878C77.1548 10.9447 76.8148 11.098 76.5615 11.338C76.3081 11.578 76.1815 11.9047 76.1815 12.318C76.1815 12.6914 76.3215 13.018 76.6015 13.298C76.8948 13.578 77.2748 13.718 77.7415 13.718ZM87.2102 14.998H85.3302V0.518046H87.2102V14.998ZM92.9283 2.33805V5.37805H95.0083V7.07805H92.9283V12.078C92.9283 12.5314 93.0283 12.8647 93.2283 13.078C93.4417 13.2914 93.7883 13.398 94.2683 13.398C94.5483 13.398 94.795 13.3714 95.0083 13.318V14.918C94.6883 15.038 94.2617 15.098 93.7283 15.098C92.9017 15.098 92.2483 14.858 91.7683 14.378C91.2883 13.898 91.0483 13.2247 91.0483 12.358V7.07805H89.2083V5.37805H89.7283C90.2217 5.37805 90.5883 5.24471 90.8283 4.97805C91.0817 4.69805 91.2083 4.33805 91.2083 3.89805V2.33805H92.9283ZM99.3977 9.33805V14.998H97.5177V0.518046H99.3977V6.49805C100.038 5.56471 101.011 5.09805 102.318 5.09805C103.424 5.09805 104.271 5.45138 104.858 6.15805C105.458 6.86471 105.758 7.77805 105.758 8.89805V14.998H103.878V9.21805C103.878 7.60471 103.131 6.79805 101.638 6.79805C100.944 6.79805 100.404 7.03805 100.018 7.51805C99.6311 7.98471 99.4244 8.59138 99.3977 9.33805ZM111.148 19.018H109.088L111.488 13.938L107.348 5.37805H109.508L112.508 12.018L115.388 5.37805H117.408L111.148 19.018ZM129.057 7.07805H126.737V14.998H124.797V7.07805H123.017V5.37805H124.797V3.75805C124.797 2.73138 125.097 1.92471 125.697 1.33805C126.297 0.751379 127.05 0.458046 127.957 0.458046C128.53 0.458046 128.904 0.524713 129.077 0.658047V2.33805C128.877 2.25805 128.604 2.21805 128.257 2.21805C127.844 2.21805 127.484 2.34471 127.177 2.59805C126.884 2.83805 126.737 3.25805 126.737 3.85805V5.37805H129.057V7.07805ZM132.662 12.718C133.248 13.318 133.962 13.618 134.802 13.618C135.642 13.618 136.348 13.318 136.922 12.718C137.508 12.1047 137.802 11.258 137.802 10.178C137.802 9.11138 137.508 8.27805 136.922 7.67805C136.348 7.06471 135.642 6.75805 134.802 6.75805C133.962 6.75805 133.248 7.06471 132.662 7.67805C132.088 8.27805 131.802 9.11138 131.802 10.178C131.802 11.258 132.088 12.1047 132.662 12.718ZM131.262 6.53805C132.195 5.56471 133.375 5.07805 134.802 5.07805C136.228 5.07805 137.402 5.56471 138.322 6.53805C139.255 7.49805 139.722 8.71138 139.722 10.178C139.722 11.658 139.262 12.8847 138.342 13.858C137.422 14.818 136.242 15.298 134.802 15.298C133.362 15.298 132.182 14.818 131.262 13.858C130.342 12.8847 129.882 11.658 129.882 10.178C129.882 8.71138 130.342 7.49805 131.262 6.53805ZM144.107 12.718C144.694 13.318 145.407 13.618 146.247 13.618C147.087 13.618 147.794 13.318 148.367 12.718C148.954 12.1047 149.247 11.258 149.247 10.178C149.247 9.11138 148.954 8.27805 148.367 7.67805C147.794 7.06471 147.087 6.75805 146.247 6.75805C145.407 6.75805 144.694 7.06471 144.107 7.67805C143.534 8.27805 143.247 9.11138 143.247 10.178C143.247 11.258 143.534 12.1047 144.107 12.718ZM142.707 6.53805C143.64 5.56471 144.82 5.07805 146.247 5.07805C147.674 5.07805 148.847 5.56471 149.767 6.53805C150.7 7.49805 151.167 8.71138 151.167 10.178C151.167 11.658 150.707 12.8847 149.787 13.858C148.867 14.818 147.687 15.298 146.247 15.298C144.807 15.298 143.627 14.818 142.707 13.858C141.787 12.8847 141.327 11.658 141.327 10.178C141.327 8.71138 141.787 7.49805 142.707 6.53805ZM154.692 10.158C154.692 11.1714 154.939 11.998 155.432 12.638C155.939 13.278 156.632 13.598 157.512 13.598C158.352 13.598 159.026 13.2714 159.532 12.618C160.039 11.9647 160.292 11.1314 160.292 10.118C160.292 9.11805 160.046 8.31138 159.552 7.69805C159.059 7.08471 158.386 6.77805 157.532 6.77805C156.679 6.77805 155.992 7.09138 155.472 7.71805C154.952 8.34471 154.692 9.15805 154.692 10.158ZM160.312 13.698V13.538C160.059 14.0314 159.672 14.4447 159.152 14.778C158.646 15.098 158.039 15.258 157.332 15.258C155.959 15.258 154.852 14.778 154.012 13.818C153.186 12.8447 152.772 11.6247 152.772 10.158C152.772 8.75805 153.199 7.57138 154.052 6.59805C154.906 5.61138 155.999 5.11805 157.332 5.11805C158.119 5.11805 158.759 5.27805 159.252 5.59805C159.746 5.90471 160.086 6.28471 160.272 6.73805V0.518046H162.132V13.218C162.132 13.8714 162.166 14.4647 162.232 14.998H160.412C160.346 14.6247 160.312 14.1914 160.312 13.698ZM175.67 5.27805V7.27805C175.39 7.23805 175.117 7.21805 174.85 7.21805C173.09 7.21805 172.21 8.20471 172.21 10.178V14.998H170.33V5.37805H172.17V7.05805C172.757 5.83138 173.717 5.21805 175.05 5.21805C175.264 5.21805 175.47 5.23805 175.67 5.27805ZM178.796 9.19805H184.056C184.03 8.47805 183.79 7.89138 183.336 7.43805C182.883 6.97138 182.243 6.73805 181.416 6.73805C180.67 6.73805 180.056 6.98471 179.576 7.47805C179.096 7.95805 178.836 8.53138 178.796 9.19805ZM184.336 11.698L185.956 12.258C185.676 13.1514 185.156 13.8847 184.396 14.458C183.636 15.018 182.716 15.298 181.636 15.298C180.29 15.298 179.143 14.838 178.196 13.918C177.263 12.9847 176.796 11.7314 176.796 10.158C176.796 8.69138 177.25 7.47805 178.156 6.51805C179.063 5.55805 180.143 5.07805 181.396 5.07805C182.85 5.07805 183.983 5.53805 184.796 6.45805C185.61 7.36471 186.016 8.58471 186.016 10.118C186.016 10.358 186.003 10.558 185.976 10.718H178.736C178.75 11.5714 179.03 12.2714 179.576 12.818C180.136 13.3647 180.823 13.638 181.636 13.638C183.01 13.638 183.91 12.9914 184.336 11.698ZM187.816 12.418C187.816 11.5914 188.083 10.9314 188.616 10.438C189.149 9.93138 189.856 9.61805 190.736 9.49805L193.336 9.11805C193.829 9.05138 194.076 8.81138 194.076 8.39805C194.076 7.89138 193.903 7.47805 193.556 7.15805C193.209 6.83805 192.689 6.67805 191.996 6.67805C191.356 6.67805 190.849 6.85805 190.476 7.21805C190.103 7.56471 189.883 8.03138 189.816 8.61805L188.016 8.19805C188.109 7.27805 188.529 6.53138 189.276 5.95805C190.023 5.37138 190.916 5.07805 191.956 5.07805C193.316 5.07805 194.323 5.41138 194.976 6.07805C195.629 6.73138 195.956 7.57138 195.956 8.59805V13.418C195.956 13.9914 195.996 14.518 196.076 14.998H194.236C194.169 14.598 194.136 14.1647 194.136 13.698C193.869 14.1247 193.476 14.498 192.956 14.818C192.449 15.138 191.809 15.298 191.036 15.298C190.089 15.298 189.316 15.018 188.716 14.458C188.116 13.8847 187.816 13.2047 187.816 12.418ZM191.296 13.718C192.136 13.718 192.809 13.4914 193.316 13.038C193.823 12.5847 194.076 11.8647 194.076 10.878V10.438L191.136 10.878C190.709 10.9447 190.369 11.098 190.116 11.338C189.863 11.578 189.736 11.9047 189.736 12.318C189.736 12.6914 189.876 13.018 190.156 13.298C190.449 13.578 190.829 13.718 191.296 13.718ZM200.005 10.158C200.005 11.1714 200.252 11.998 200.745 12.638C201.252 13.278 201.945 13.598 202.825 13.598C203.665 13.598 204.338 13.2714 204.845 12.618C205.352 11.9647 205.605 11.1314 205.605 10.118C205.605 9.11805 205.358 8.31138 204.865 7.69805C204.372 7.08471 203.698 6.77805 202.845 6.77805C201.992 6.77805 201.305 7.09138 200.785 7.71805C200.265 8.34471 200.005 9.15805 200.005 10.158ZM205.625 13.698V13.538C205.372 14.0314 204.985 14.4447 204.465 14.778C203.958 15.098 203.352 15.258 202.645 15.258C201.272 15.258 200.165 14.778 199.325 13.818C198.498 12.8447 198.085 11.6247 198.085 10.158C198.085 8.75805 198.512 7.57138 199.365 6.59805C200.218 5.61138 201.312 5.11805 202.645 5.11805C203.432 5.11805 204.072 5.27805 204.565 5.59805C205.058 5.90471 205.398 6.28471 205.585 6.73805V0.518046H207.445V13.218C207.445 13.8714 207.478 14.4647 207.545 14.998H205.725C205.658 14.6247 205.625 14.1914 205.625 13.698ZM212.503 14.998H210.643V5.37805H212.503V14.998ZM210.603 2.69805C210.349 2.43138 210.223 2.11138 210.223 1.73805C210.223 1.36471 210.349 1.04471 210.603 0.778046C210.869 0.51138 211.189 0.378047 211.563 0.378047C211.936 0.378047 212.256 0.51138 212.523 0.778046C212.789 1.03138 212.923 1.35138 212.923 1.73805C212.923 2.11138 212.789 2.43138 212.523 2.69805C212.256 2.95138 211.936 3.07805 211.563 3.07805C211.189 3.07805 210.869 2.95138 210.603 2.69805ZM217.581 14.998H215.701V0.518046H217.581V14.998ZM223.179 19.018H221.119L223.519 13.938L219.379 5.37805H221.539L224.539 12.018L227.419 5.37805H229.439L223.179 19.018ZM235.648 12.418C235.648 11.5914 235.915 10.9314 236.448 10.438C236.982 9.93138 237.688 9.61805 238.568 9.49805L241.168 9.11805C241.662 9.05138 241.908 8.81138 241.908 8.39805C241.908 7.89138 241.735 7.47805 241.388 7.15805C241.042 6.83805 240.522 6.67805 239.828 6.67805C239.188 6.67805 238.682 6.85805 238.308 7.21805C237.935 7.56471 237.715 8.03138 237.648 8.61805L235.848 8.19805C235.942 7.27805 236.362 6.53138 237.108 5.95805C237.855 5.37138 238.748 5.07805 239.788 5.07805C241.148 5.07805 242.155 5.41138 242.808 6.07805C243.462 6.73138 243.788 7.57138 243.788 8.59805V13.418C243.788 13.9914 243.828 14.518 243.908 14.998H242.068C242.002 14.598 241.968 14.1647 241.968 13.698C241.702 14.1247 241.308 14.498 240.788 14.818C240.282 15.138 239.642 15.298 238.868 15.298C237.922 15.298 237.148 15.018 236.548 14.458C235.948 13.8847 235.648 13.2047 235.648 12.418ZM239.128 13.718C239.968 13.718 240.642 13.4914 241.148 13.038C241.655 12.5847 241.908 11.8647 241.908 10.878V10.438L238.968 10.878C238.542 10.9447 238.202 11.098 237.948 11.338C237.695 11.578 237.568 11.9047 237.568 12.318C237.568 12.6914 237.708 13.018 237.988 13.298C238.282 13.578 238.662 13.718 239.128 13.718ZM254.957 5.37805L251.117 14.998H249.217L245.317 5.37805H247.437L250.177 12.798L252.937 5.37805H254.957ZM256.058 12.418C256.058 11.5914 256.325 10.9314 256.858 10.438C257.392 9.93138 258.098 9.61805 258.978 9.49805L261.578 9.11805C262.072 9.05138 262.318 8.81138 262.318 8.39805C262.318 7.89138 262.145 7.47805 261.798 7.15805C261.452 6.83805 260.932 6.67805 260.238 6.67805C259.598 6.67805 259.092 6.85805 258.718 7.21805C258.345 7.56471 258.125 8.03138 258.058 8.61805L256.258 8.19805C256.352 7.27805 256.772 6.53138 257.518 5.95805C258.265 5.37138 259.158 5.07805 260.198 5.07805C261.558 5.07805 262.565 5.41138 263.218 6.07805C263.872 6.73138 264.198 7.57138 264.198 8.59805V13.418C264.198 13.9914 264.238 14.518 264.318 14.998H262.478C262.412 14.598 262.378 14.1647 262.378 13.698C262.112 14.1247 261.718 14.498 261.198 14.818C260.692 15.138 260.052 15.298 259.278 15.298C258.332 15.298 257.558 15.018 256.958 14.458C256.358 13.8847 256.058 13.2047 256.058 12.418ZM259.538 13.718C260.378 13.718 261.052 13.4914 261.558 13.038C262.065 12.5847 262.318 11.8647 262.318 10.878V10.438L259.378 10.878C258.952 10.9447 258.612 11.098 258.358 11.338C258.105 11.578 257.978 11.9047 257.978 12.318C257.978 12.6914 258.118 13.018 258.398 13.298C258.692 13.578 259.072 13.718 259.538 13.718ZM268.987 14.998H267.127V5.37805H268.987V14.998ZM267.087 2.69805C266.834 2.43138 266.707 2.11138 266.707 1.73805C266.707 1.36471 266.834 1.04471 267.087 0.778046C267.354 0.51138 267.674 0.378047 268.047 0.378047C268.42 0.378047 268.74 0.51138 269.007 0.778046C269.274 1.03138 269.407 1.35138 269.407 1.73805C269.407 2.11138 269.274 2.43138 269.007 2.69805C268.74 2.95138 268.42 3.07805 268.047 3.07805C267.674 3.07805 267.354 2.95138 267.087 2.69805ZM274.066 14.998H272.186V0.518046H274.066V14.998ZM276.664 12.418C276.664 11.5914 276.93 10.9314 277.464 10.438C277.997 9.93138 278.704 9.61805 279.584 9.49805L282.184 9.11805C282.677 9.05138 282.924 8.81138 282.924 8.39805C282.924 7.89138 282.75 7.47805 282.404 7.15805C282.057 6.83805 281.537 6.67805 280.844 6.67805C280.204 6.67805 279.697 6.85805 279.324 7.21805C278.95 7.56471 278.73 8.03138 278.664 8.61805L276.864 8.19805C276.957 7.27805 277.377 6.53138 278.124 5.95805C278.87 5.37138 279.764 5.07805 280.804 5.07805C282.164 5.07805 283.17 5.41138 283.824 6.07805C284.477 6.73138 284.804 7.57138 284.804 8.59805V13.418C284.804 13.9914 284.844 14.518 284.924 14.998H283.084C283.017 14.598 282.984 14.1647 282.984 13.698C282.717 14.1247 282.324 14.498 281.804 14.818C281.297 15.138 280.657 15.298 279.884 15.298C278.937 15.298 278.164 15.018 277.564 14.458C276.964 13.8847 276.664 13.2047 276.664 12.418ZM280.144 13.718C280.984 13.718 281.657 13.4914 282.164 13.038C282.67 12.5847 282.924 11.8647 282.924 10.878V10.438L279.984 10.878C279.557 10.9447 279.217 11.098 278.964 11.338C278.71 11.578 278.584 11.9047 278.584 12.318C278.584 12.6914 278.724 13.018 279.004 13.298C279.297 13.578 279.677 13.718 280.144 13.718ZM289.593 14.998H287.733V0.518046H289.593V6.73805C289.846 6.27138 290.246 5.88471 290.793 5.57805C291.353 5.25805 292.013 5.09805 292.773 5.09805C294.173 5.09805 295.259 5.57138 296.033 6.51805C296.806 7.46471 297.193 8.67138 297.193 10.138C297.193 11.618 296.793 12.8447 295.993 13.818C295.193 14.778 294.099 15.258 292.713 15.258C291.273 15.258 290.233 14.7047 289.593 13.598V14.998ZM294.493 12.638C295.013 12.0114 295.273 11.178 295.273 10.138C295.273 9.09805 295.013 8.27805 294.493 7.67805C293.986 7.06471 293.299 6.75805 292.433 6.75805C291.593 6.75805 290.906 7.06471 290.373 7.67805C289.839 8.29138 289.573 9.11138 289.573 10.138C289.573 11.1647 289.839 11.998 290.373 12.638C290.906 13.2647 291.593 13.578 292.433 13.578C293.286 13.578 293.973 13.2647 294.493 12.638ZM301.468 14.998H299.588V0.518046H301.468V14.998ZM305.886 9.19805H311.146C311.119 8.47805 310.879 7.89138 310.426 7.43805C309.973 6.97138 309.333 6.73805 308.506 6.73805C307.759 6.73805 307.146 6.98471 306.666 7.47805C306.186 7.95805 305.926 8.53138 305.886 9.19805ZM311.426 11.698L313.046 12.258C312.766 13.1514 312.246 13.8847 311.486 14.458C310.726 15.018 309.806 15.298 308.726 15.298C307.379 15.298 306.233 14.838 305.286 13.918C304.353 12.9847 303.886 11.7314 303.886 10.158C303.886 8.69138 304.339 7.47805 305.246 6.51805C306.153 5.55805 307.233 5.07805 308.486 5.07805C309.939 5.07805 311.073 5.53805 311.886 6.45805C312.699 7.36471 313.106 8.58471 313.106 10.118C313.106 10.358 313.093 10.558 313.066 10.718H305.826C305.839 11.5714 306.119 12.2714 306.666 12.818C307.226 13.3647 307.913 13.638 308.726 13.638C310.099 13.638 310.999 12.9914 311.426 11.698ZM315.413 14.698C315.146 14.4314 315.013 14.1047 315.013 13.718C315.013 13.3314 315.146 13.0047 315.413 12.738C315.68 12.458 316.006 12.318 316.393 12.318C316.78 12.318 317.106 12.458 317.373 12.738C317.653 13.0047 317.793 13.3314 317.793 13.718C317.793 14.1047 317.653 14.4314 317.373 14.698C317.106 14.9647 316.78 15.098 316.393 15.098C316.006 15.098 315.68 14.9647 315.413 14.698ZM338.899 12.038L341.959 0.818046H343.979L339.939 14.998H337.919L334.219 3.49805L330.559 14.998H328.599L324.499 0.818046H326.519L329.639 11.918L333.199 0.818046H335.259L338.899 12.038ZM347.757 9.33805V14.998H345.877V0.518046H347.757V6.49805C348.397 5.56471 349.37 5.09805 350.677 5.09805C351.784 5.09805 352.63 5.45138 353.217 6.15805C353.817 6.86471 354.117 7.77805 354.117 8.89805V14.998H352.237V9.21805C352.237 7.60471 351.49 6.79805 349.997 6.79805C349.304 6.79805 348.764 7.03805 348.377 7.51805C347.99 7.98471 347.784 8.59138 347.757 9.33805ZM358.328 9.19805H363.588C363.561 8.47805 363.321 7.89138 362.868 7.43805C362.414 6.97138 361.774 6.73805 360.948 6.73805C360.201 6.73805 359.588 6.98471 359.108 7.47805C358.628 7.95805 358.368 8.53138 358.328 9.19805ZM363.868 11.698L365.488 12.258C365.208 13.1514 364.688 13.8847 363.928 14.458C363.168 15.018 362.248 15.298 361.168 15.298C359.821 15.298 358.674 14.838 357.728 13.918C356.794 12.9847 356.328 11.7314 356.328 10.158C356.328 8.69138 356.781 7.47805 357.688 6.51805C358.594 5.55805 359.674 5.07805 360.928 5.07805C362.381 5.07805 363.514 5.53805 364.328 6.45805C365.141 7.36471 365.548 8.58471 365.548 10.118C365.548 10.358 365.534 10.558 365.508 10.718H358.268C358.281 11.5714 358.561 12.2714 359.108 12.818C359.668 13.3647 360.354 13.638 361.168 13.638C362.541 13.638 363.441 12.9914 363.868 11.698ZM369.827 9.43805V14.998H367.947V5.37805H369.787V6.75805C370.427 5.65138 371.414 5.09805 372.747 5.09805C373.854 5.09805 374.701 5.45138 375.287 6.15805C375.887 6.86471 376.187 7.77805 376.187 8.89805V14.998H374.307V9.21805C374.307 7.60471 373.561 6.79805 372.067 6.79805C371.361 6.79805 370.807 7.05138 370.407 7.55805C370.021 8.05138 369.827 8.67805 369.827 9.43805ZM386.578 19.018H384.518L386.918 13.938L382.778 5.37805H384.938L387.938 12.018L390.818 5.37805H392.838L386.578 19.018ZM396.236 12.718C396.823 13.318 397.536 13.618 398.376 13.618C399.216 13.618 399.923 13.318 400.496 12.718C401.083 12.1047 401.376 11.258 401.376 10.178C401.376 9.11138 401.083 8.27805 400.496 7.67805C399.923 7.06471 399.216 6.75805 398.376 6.75805C397.536 6.75805 396.823 7.06471 396.236 7.67805C395.663 8.27805 395.376 9.11138 395.376 10.178C395.376 11.258 395.663 12.1047 396.236 12.718ZM394.836 6.53805C395.769 5.56471 396.949 5.07805 398.376 5.07805C399.803 5.07805 400.976 5.56471 401.896 6.53805C402.829 7.49805 403.296 8.71138 403.296 10.178C403.296 11.658 402.836 12.8847 401.916 13.858C400.996 14.818 399.816 15.298 398.376 15.298C396.936 15.298 395.756 14.818 394.836 13.858C393.916 12.8847 393.456 11.658 393.456 10.178C393.456 8.71138 393.916 7.49805 394.836 6.53805ZM411.944 13.838C411.69 14.318 411.304 14.6847 410.784 14.938C410.264 15.178 409.704 15.298 409.104 15.298C408.01 15.298 407.137 14.938 406.484 14.218C405.83 13.4847 405.504 12.558 405.504 11.438V5.37805H407.384V11.158C407.384 11.878 407.557 12.4714 407.904 12.938C408.264 13.4047 408.817 13.638 409.564 13.638C410.31 13.638 410.877 13.418 411.264 12.978C411.65 12.5247 411.844 11.9247 411.844 11.178V5.37805H413.724V13.218C413.724 13.8447 413.757 14.438 413.824 14.998H412.024C411.97 14.7047 411.944 14.318 411.944 13.838ZM0.899756 47.518L2.71976 47.098C2.78642 47.778 3.05976 48.338 3.53976 48.778C4.01976 49.2314 4.61976 49.458 5.33976 49.458C7.29976 49.458 8.27976 48.418 8.27976 46.338V44.958C8.03976 45.4247 7.65976 45.8047 7.13976 46.098C6.63309 46.3914 6.03309 46.538 5.33976 46.538C4.05976 46.538 2.99976 46.1047 2.15976 45.238C1.33309 44.358 0.919756 43.238 0.919756 41.878C0.919756 40.558 1.33309 39.4514 2.15976 38.558C2.98642 37.6514 4.04642 37.198 5.33976 37.198C6.80642 37.198 7.79309 37.7047 8.29976 38.718V37.378H10.1598V46.278C10.1598 46.918 10.0731 47.5114 9.89976 48.058C9.73976 48.618 9.47976 49.1314 9.11976 49.598C8.75976 50.0647 8.25309 50.4314 7.59976 50.698C6.95976 50.9647 6.20642 51.098 5.33976 51.098C4.15309 51.098 3.14642 50.758 2.31976 50.078C1.49309 49.4114 1.01976 48.558 0.899756 47.518ZM5.61976 44.958C6.43309 44.958 7.09309 44.678 7.59976 44.118C8.10642 43.5447 8.35976 42.798 8.35976 41.878C8.35976 40.958 8.10642 40.218 7.59976 39.658C7.09309 39.0847 6.43309 38.798 5.61976 38.798C4.79309 38.798 4.11976 39.078 3.59976 39.638C3.09309 40.198 2.83976 40.9447 2.83976 41.878C2.83976 42.8247 3.08642 43.578 3.57976 44.138C4.08642 44.6847 4.76642 44.958 5.61976 44.958ZM14.3823 41.198H19.6423C19.6156 40.478 19.3756 39.8914 18.9223 39.438C18.4689 38.9714 17.8289 38.738 17.0023 38.738C16.2556 38.738 15.6423 38.9847 15.1623 39.478C14.6823 39.958 14.4223 40.5314 14.3823 41.198ZM19.9223 43.698L21.5423 44.258C21.2623 45.1514 20.7423 45.8847 19.9823 46.458C19.2223 47.018 18.3023 47.298 17.2223 47.298C15.8756 47.298 14.7289 46.838 13.7823 45.918C12.8489 44.9847 12.3823 43.7314 12.3823 42.158C12.3823 40.6914 12.8356 39.478 13.7423 38.518C14.6489 37.558 15.7289 37.078 16.9823 37.078C18.4356 37.078 19.5689 37.538 20.3823 38.458C21.1956 39.3647 21.6023 40.5847 21.6023 42.118C21.6023 42.358 21.5889 42.558 21.5623 42.718H14.3223C14.3356 43.5714 14.6156 44.2714 15.1623 44.818C15.7223 45.3647 16.4089 45.638 17.2223 45.638C18.5956 45.638 19.4956 44.9914 19.9223 43.698ZM26.5221 34.338V37.378H28.6021V39.078H26.5221V44.078C26.5221 44.5314 26.6221 44.8647 26.8221 45.078C27.0354 45.2914 27.3821 45.398 27.8621 45.398C28.1421 45.398 28.3888 45.3714 28.6021 45.318V46.918C28.2821 47.038 27.8554 47.098 27.3221 47.098C26.4954 47.098 25.8421 46.858 25.3621 46.378C24.8821 45.898 24.6421 45.2247 24.6421 44.358V39.078H22.8021V37.378H23.3221C23.8154 37.378 24.1821 37.2447 24.4221 36.978C24.6754 36.698 24.8021 36.338 24.8021 35.898V34.338H26.5221ZM37.9915 41.338V46.998H36.1115V32.518H37.9915V38.498C38.6315 37.5647 39.6048 37.098 40.9115 37.098C42.0181 37.098 42.8648 37.4514 43.4515 38.158C44.0515 38.8647 44.3515 39.778 44.3515 40.898V46.998H42.4715V41.218C42.4715 39.6047 41.7248 38.798 40.2315 38.798C39.5381 38.798 38.9981 39.038 38.6115 39.518C38.2248 39.9847 38.0181 40.5914 37.9915 41.338ZM53.4866 45.838C53.2333 46.318 52.8466 46.6847 52.3266 46.938C51.8066 47.178 51.2466 47.298 50.6466 47.298C49.5533 47.298 48.68 46.938 48.0266 46.218C47.3733 45.4847 47.0466 44.558 47.0466 43.438V37.378H48.9266V43.158C48.9266 43.878 49.1 44.4714 49.4466 44.938C49.8066 45.4047 50.36 45.638 51.1066 45.638C51.8533 45.638 52.42 45.418 52.8066 44.978C53.1933 44.5247 53.3866 43.9247 53.3866 43.178V37.378H55.2666V45.218C55.2666 45.8447 55.3 46.438 55.3666 46.998H53.5666C53.5133 46.7047 53.4866 46.318 53.4866 45.838ZM60.3548 41.438V46.998H58.4748V37.378H60.3148V38.758C60.9548 37.6514 61.9414 37.098 63.2748 37.098C64.3814 37.098 65.2281 37.4514 65.8148 38.158C66.4148 38.8647 66.7148 39.778 66.7148 40.898V46.998H64.8348V41.218C64.8348 39.6047 64.0881 38.798 62.5948 38.798C61.8881 38.798 61.3348 39.0514 60.9348 39.558C60.5481 40.0514 60.3548 40.678 60.3548 41.438ZM69.0052 47.518L70.8252 47.098C70.8919 47.778 71.1652 48.338 71.6452 48.778C72.1252 49.2314 72.7252 49.458 73.4452 49.458C75.4052 49.458 76.3852 48.418 76.3852 46.338V44.958C76.1452 45.4247 75.7652 45.8047 75.2452 46.098C74.7386 46.3914 74.1386 46.538 73.4452 46.538C72.1652 46.538 71.1052 46.1047 70.2652 45.238C69.4386 44.358 69.0252 43.238 69.0252 41.878C69.0252 40.558 69.4386 39.4514 70.2652 38.558C71.0919 37.6514 72.1519 37.198 73.4452 37.198C74.9119 37.198 75.8986 37.7047 76.4052 38.718V37.378H78.2652V46.278C78.2652 46.918 78.1786 47.5114 78.0052 48.058C77.8452 48.618 77.5852 49.1314 77.2252 49.598C76.8652 50.0647 76.3586 50.4314 75.7052 50.698C75.0652 50.9647 74.3119 51.098 73.4452 51.098C72.2586 51.098 71.2519 50.758 70.4252 50.078C69.5986 49.4114 69.1252 48.558 69.0052 47.518ZM73.7252 44.958C74.5386 44.958 75.1986 44.678 75.7052 44.118C76.2119 43.5447 76.4652 42.798 76.4652 41.878C76.4652 40.958 76.2119 40.218 75.7052 39.658C75.1986 39.0847 74.5386 38.798 73.7252 38.798C72.8986 38.798 72.2252 39.078 71.7052 39.638C71.1986 40.198 70.9452 40.9447 70.9452 41.878C70.9452 42.8247 71.1919 43.578 71.6852 44.138C72.1919 44.6847 72.8719 44.958 73.7252 44.958ZM86.6077 37.278V39.278C86.3277 39.238 86.0544 39.218 85.7877 39.218C84.0277 39.218 83.1477 40.2047 83.1477 42.178V46.998H81.2677V37.378H83.1077V39.058C83.6944 37.8314 84.6544 37.218 85.9877 37.218C86.2011 37.218 86.4077 37.238 86.6077 37.278ZM91.3044 51.018H89.2444L91.6444 45.938L87.5044 37.378H89.6644L92.6644 44.018L95.5444 37.378H97.5644L91.3044 51.018ZM96.9662 45.718C96.9662 45.358 97.1062 45.0447 97.3862 44.778C97.6662 44.5114 98.0128 44.378 98.4262 44.378C98.8795 44.378 99.2595 44.5447 99.5662 44.878C99.8862 45.2114 100.046 45.678 100.046 46.278C100.046 47.478 99.7395 48.4047 99.1262 49.058C98.5128 49.7114 97.8328 50.0847 97.0862 50.178V49.138C97.5662 49.0314 97.9595 48.7647 98.2662 48.338C98.5728 47.9247 98.7328 47.4714 98.7462 46.978C98.6528 47.0447 98.5062 47.078 98.3062 47.078C97.9195 47.078 97.5995 46.958 97.3462 46.718C97.0928 46.4647 96.9662 46.1314 96.9662 45.718ZM110.445 51.018H108.385L110.785 45.938L106.645 37.378H108.805L111.805 44.018L114.685 37.378H116.705L110.445 51.018ZM120.103 44.718C120.69 45.318 121.403 45.618 122.243 45.618C123.083 45.618 123.79 45.318 124.363 44.718C124.95 44.1047 125.243 43.258 125.243 42.178C125.243 41.1114 124.95 40.278 124.363 39.678C123.79 39.0647 123.083 38.758 122.243 38.758C121.403 38.758 120.69 39.0647 120.103 39.678C119.53 40.278 119.243 41.1114 119.243 42.178C119.243 43.258 119.53 44.1047 120.103 44.718ZM118.703 38.538C119.637 37.5647 120.817 37.078 122.243 37.078C123.67 37.078 124.843 37.5647 125.763 38.538C126.697 39.498 127.163 40.7114 127.163 42.178C127.163 43.658 126.703 44.8847 125.783 45.858C124.863 46.818 123.683 47.298 122.243 47.298C120.803 47.298 119.623 46.818 118.703 45.858C117.783 44.8847 117.323 43.658 117.323 42.178C117.323 40.7114 117.783 39.498 118.703 38.538ZM135.811 45.838C135.558 46.318 135.171 46.6847 134.651 46.938C134.131 47.178 133.571 47.298 132.971 47.298C131.878 47.298 131.004 46.938 130.351 46.218C129.698 45.4847 129.371 44.558 129.371 43.438V37.378H131.251V43.158C131.251 43.878 131.424 44.4714 131.771 44.938C132.131 45.4047 132.684 45.638 133.431 45.638C134.178 45.638 134.744 45.418 135.131 44.978C135.518 44.5247 135.711 43.9247 135.711 43.178V37.378H137.591V45.218C137.591 45.8447 137.624 46.438 137.691 46.998H135.891C135.838 46.7047 135.811 46.318 135.811 45.838ZM139.999 33.878C139.999 33.5447 140.126 33.258 140.379 33.018C140.646 32.7647 140.972 32.638 141.359 32.638C141.786 32.638 142.146 32.7914 142.439 33.098C142.732 33.4047 142.879 33.838 142.879 34.398C142.879 35.518 142.592 36.3847 142.019 36.998C141.459 37.6114 140.826 37.958 140.119 38.038V37.078C140.559 36.9847 140.919 36.7447 141.199 36.358C141.492 35.958 141.646 35.5247 141.659 35.058C141.566 35.1247 141.432 35.158 141.259 35.158C140.899 35.158 140.599 35.0447 140.359 34.818C140.119 34.578 139.999 34.2647 139.999 33.878ZM149.811 37.278V39.278C149.531 39.238 149.258 39.218 148.991 39.218C147.231 39.218 146.351 40.2047 146.351 42.178V46.998H144.471V37.378H146.311V39.058C146.898 37.8314 147.858 37.218 149.191 37.218C149.404 37.218 149.611 37.238 149.811 37.278ZM152.937 41.198H158.197C158.17 40.478 157.93 39.8914 157.477 39.438C157.024 38.9714 156.384 38.738 155.557 38.738C154.81 38.738 154.197 38.9847 153.717 39.478C153.237 39.958 152.977 40.5314 152.937 41.198ZM158.477 43.698L160.097 44.258C159.817 45.1514 159.297 45.8847 158.537 46.458C157.777 47.018 156.857 47.298 155.777 47.298C154.43 47.298 153.284 46.838 152.337 45.918C151.404 44.9847 150.937 43.7314 150.937 42.158C150.937 40.6914 151.39 39.478 152.297 38.518C153.204 37.558 154.284 37.078 155.537 37.078C156.99 37.078 158.124 37.538 158.937 38.458C159.75 39.3647 160.157 40.5847 160.157 42.118C160.157 42.358 160.144 42.558 160.117 42.718H152.877C152.89 43.5714 153.17 44.2714 153.717 44.818C154.277 45.3647 154.964 45.638 155.777 45.638C157.15 45.638 158.05 44.9914 158.477 43.698ZM169.417 46.998H167.557V37.378H169.357V38.658C169.65 38.1514 170.063 37.7647 170.597 37.498C171.13 37.2314 171.69 37.098 172.277 37.098C172.903 37.098 173.477 37.2514 173.997 37.558C174.517 37.8647 174.903 38.318 175.157 38.918C175.823 37.7047 176.897 37.098 178.377 37.098C179.297 37.098 180.077 37.4114 180.717 38.038C181.37 38.6647 181.697 39.5714 181.697 40.758V46.998H179.837V40.958C179.837 40.2914 179.663 39.758 179.317 39.358C178.983 38.958 178.477 38.758 177.797 38.758C177.143 38.758 176.61 38.9914 176.197 39.458C175.783 39.9114 175.577 40.4847 175.577 41.178V46.998H173.697V40.958C173.697 40.2914 173.523 39.758 173.177 39.358C172.843 38.958 172.337 38.758 171.657 38.758C170.99 38.758 170.45 38.9847 170.037 39.438C169.623 39.8914 169.417 40.478 169.417 41.198V46.998ZM186.685 44.718C187.272 45.318 187.985 45.618 188.825 45.618C189.665 45.618 190.372 45.318 190.945 44.718C191.532 44.1047 191.825 43.258 191.825 42.178C191.825 41.1114 191.532 40.278 190.945 39.678C190.372 39.0647 189.665 38.758 188.825 38.758C187.985 38.758 187.272 39.0647 186.685 39.678C186.112 40.278 185.825 41.1114 185.825 42.178C185.825 43.258 186.112 44.1047 186.685 44.718ZM185.285 38.538C186.219 37.5647 187.399 37.078 188.825 37.078C190.252 37.078 191.425 37.5647 192.345 38.538C193.279 39.498 193.745 40.7114 193.745 42.178C193.745 43.658 193.285 44.8847 192.365 45.858C191.445 46.818 190.265 47.298 188.825 47.298C187.385 47.298 186.205 46.818 185.285 45.858C184.365 44.8847 183.905 43.658 183.905 42.178C183.905 40.7114 184.365 39.498 185.285 38.538ZM201.491 37.278V39.278C201.211 39.238 200.937 39.218 200.671 39.218C198.911 39.218 198.031 40.2047 198.031 42.178V46.998H196.151V37.378H197.991V39.058C198.577 37.8314 199.537 37.218 200.871 37.218C201.084 37.218 201.291 37.238 201.491 37.278ZM204.617 41.198H209.877C209.85 40.478 209.61 39.8914 209.157 39.438C208.703 38.9714 208.063 38.738 207.237 38.738C206.49 38.738 205.877 38.9847 205.397 39.478C204.917 39.958 204.657 40.5314 204.617 41.198ZM210.157 43.698L211.777 44.258C211.497 45.1514 210.977 45.8847 210.217 46.458C209.457 47.018 208.537 47.298 207.457 47.298C206.11 47.298 204.963 46.838 204.017 45.918C203.083 44.9847 202.617 43.7314 202.617 42.158C202.617 40.6914 203.07 39.478 203.977 38.518C204.883 37.558 205.963 37.078 207.217 37.078C208.67 37.078 209.803 37.538 210.617 38.458C211.43 39.3647 211.837 40.5847 211.837 42.118C211.837 42.358 211.823 42.558 211.797 42.718H204.557C204.57 43.5714 204.85 44.2714 205.397 44.818C205.957 45.3647 206.643 45.638 207.457 45.638C208.83 45.638 209.73 44.9914 210.157 43.698ZM221.116 46.998H219.236V32.518H221.116V46.998ZM226.175 46.998H224.315V37.378H226.175V46.998ZM224.275 34.698C224.021 34.4314 223.895 34.1114 223.895 33.738C223.895 33.3647 224.021 33.0447 224.275 32.778C224.541 32.5114 224.861 32.378 225.235 32.378C225.608 32.378 225.928 32.5114 226.195 32.778C226.461 33.0314 226.595 33.3514 226.595 33.738C226.595 34.1114 226.461 34.4314 226.195 34.698C225.928 34.9514 225.608 35.078 225.235 35.078C224.861 35.078 224.541 34.9514 224.275 34.698ZM237.993 37.378L233.893 41.438L238.073 46.998H235.713L232.573 42.758L231.233 44.098V46.998H229.373V32.518H231.233V41.638L235.393 37.378H237.993ZM240.593 41.198H245.853C245.827 40.478 245.587 39.8914 245.133 39.438C244.68 38.9714 244.04 38.738 243.213 38.738C242.467 38.738 241.853 38.9847 241.373 39.478C240.893 39.958 240.633 40.5314 240.593 41.198ZM246.133 43.698L247.753 44.258C247.473 45.1514 246.953 45.8847 246.193 46.458C245.433 47.018 244.513 47.298 243.433 47.298C242.087 47.298 240.94 46.838 239.993 45.918C239.06 44.9847 238.593 43.7314 238.593 42.158C238.593 40.6914 239.047 39.478 239.953 38.518C240.86 37.558 241.94 37.078 243.193 37.078C244.647 37.078 245.78 37.538 246.593 38.458C247.407 39.3647 247.813 40.5847 247.813 42.118C247.813 42.358 247.8 42.558 247.773 42.718H240.533C240.547 43.5714 240.827 44.2714 241.373 44.818C241.933 45.3647 242.62 45.638 243.433 45.638C244.807 45.638 245.707 44.9914 246.133 43.698ZM252.093 46.998H250.213V32.518H252.093V46.998ZM257.691 51.018H255.631L258.031 45.938L253.891 37.378H256.051L259.051 44.018L261.931 37.378H263.951L257.691 51.018ZM273.28 34.338V37.378H275.36V39.078H273.28V44.078C273.28 44.5314 273.38 44.8647 273.58 45.078C273.793 45.2914 274.14 45.398 274.62 45.398C274.9 45.398 275.147 45.3714 275.36 45.318V46.918C275.04 47.038 274.613 47.098 274.08 47.098C273.253 47.098 272.6 46.858 272.12 46.378C271.64 45.898 271.4 45.2247 271.4 44.358V39.078H269.56V37.378H270.08C270.573 37.378 270.94 37.2447 271.18 36.978C271.433 36.698 271.56 36.338 271.56 35.898V34.338H273.28ZM279.752 44.718C280.338 45.318 281.052 45.618 281.892 45.618C282.732 45.618 283.438 45.318 284.012 44.718C284.598 44.1047 284.892 43.258 284.892 42.178C284.892 41.1114 284.598 40.278 284.012 39.678C283.438 39.0647 282.732 38.758 281.892 38.758C281.052 38.758 280.338 39.0647 279.752 39.678C279.178 40.278 278.892 41.1114 278.892 42.178C278.892 43.258 279.178 44.1047 279.752 44.718ZM278.352 38.538C279.285 37.5647 280.465 37.078 281.892 37.078C283.318 37.078 284.492 37.5647 285.412 38.538C286.345 39.498 286.812 40.7114 286.812 42.178C286.812 43.658 286.352 44.8847 285.432 45.858C284.512 46.818 283.332 47.298 281.892 47.298C280.452 47.298 279.272 46.818 278.352 45.858C277.432 44.8847 276.972 43.658 276.972 42.178C276.972 40.7114 277.432 39.498 278.352 38.538ZM295.437 41.198H300.697C300.67 40.478 300.43 39.8914 299.977 39.438C299.524 38.9714 298.884 38.738 298.057 38.738C297.31 38.738 296.697 38.9847 296.217 39.478C295.737 39.958 295.477 40.5314 295.437 41.198ZM300.977 43.698L302.597 44.258C302.317 45.1514 301.797 45.8847 301.037 46.458C300.277 47.018 299.357 47.298 298.277 47.298C296.93 47.298 295.784 46.838 294.837 45.918C293.904 44.9847 293.437 43.7314 293.437 42.158C293.437 40.6914 293.89 39.478 294.797 38.518C295.704 37.558 296.784 37.078 298.037 37.078C299.49 37.078 300.624 37.538 301.437 38.458C302.25 39.3647 302.657 40.5847 302.657 42.118C302.657 42.358 302.644 42.558 302.617 42.718H295.377C295.39 43.5714 295.67 44.2714 296.217 44.818C296.777 45.3647 297.464 45.638 298.277 45.638C299.65 45.638 300.55 44.9914 300.977 43.698ZM304.457 44.418C304.457 43.5914 304.723 42.9314 305.257 42.438C305.79 41.9314 306.497 41.618 307.377 41.498L309.977 41.118C310.47 41.0514 310.717 40.8114 310.717 40.398C310.717 39.8914 310.543 39.478 310.197 39.158C309.85 38.838 309.33 38.678 308.637 38.678C307.997 38.678 307.49 38.858 307.117 39.218C306.743 39.5647 306.523 40.0314 306.457 40.618L304.657 40.198C304.75 39.278 305.17 38.5314 305.917 37.958C306.663 37.3714 307.557 37.078 308.597 37.078C309.957 37.078 310.963 37.4114 311.617 38.078C312.27 38.7314 312.597 39.5714 312.597 40.598V45.418C312.597 45.9914 312.637 46.518 312.717 46.998H310.877C310.81 46.598 310.777 46.1647 310.777 45.698C310.51 46.1247 310.117 46.498 309.597 46.818C309.09 47.138 308.45 47.298 307.677 47.298C306.73 47.298 305.957 47.018 305.357 46.458C304.757 45.8847 304.457 45.2047 304.457 44.418ZM307.937 45.718C308.777 45.718 309.45 45.4914 309.957 45.038C310.463 44.5847 310.717 43.8647 310.717 42.878V42.438L307.777 42.878C307.35 42.9447 307.01 43.098 306.757 43.338C306.503 43.578 306.377 43.9047 306.377 44.318C306.377 44.6914 306.517 45.018 306.797 45.298C307.09 45.578 307.47 45.718 307.937 45.718ZM318.046 34.338V37.378H320.126V39.078H318.046V44.078C318.046 44.5314 318.146 44.8647 318.346 45.078C318.559 45.2914 318.906 45.398 319.386 45.398C319.666 45.398 319.912 45.3714 320.126 45.318V46.918C319.806 47.038 319.379 47.098 318.846 47.098C318.019 47.098 317.366 46.858 316.886 46.378C316.406 45.898 316.166 45.2247 316.166 44.358V39.078H314.326V37.378H314.846C315.339 37.378 315.706 37.2447 315.946 36.978C316.199 36.698 316.326 36.338 316.326 35.898V34.338H318.046ZM330.155 34.338V37.378H332.235V39.078H330.155V44.078C330.155 44.5314 330.255 44.8647 330.455 45.078C330.668 45.2914 331.015 45.398 331.495 45.398C331.775 45.398 332.022 45.3714 332.235 45.318V46.918C331.915 47.038 331.488 47.098 330.955 47.098C330.128 47.098 329.475 46.858 328.995 46.378C328.515 45.898 328.275 45.2247 328.275 44.358V39.078H326.435V37.378H326.955C327.448 37.378 327.815 37.2447 328.055 36.978C328.308 36.698 328.435 36.338 328.435 35.898V34.338H330.155ZM336.624 41.338V46.998H334.744V32.518H336.624V38.498C337.264 37.5647 338.238 37.098 339.544 37.098C340.651 37.098 341.498 37.4514 342.084 38.158C342.684 38.8647 342.984 39.778 342.984 40.898V46.998H341.104V41.218C341.104 39.6047 340.358 38.798 338.864 38.798C338.171 38.798 337.631 39.038 337.244 39.518C336.858 39.9847 336.651 40.5914 336.624 41.338ZM347.195 41.198H352.455C352.428 40.478 352.188 39.8914 351.735 39.438C351.281 38.9714 350.641 38.738 349.815 38.738C349.068 38.738 348.455 38.9847 347.975 39.478C347.495 39.958 347.235 40.5314 347.195 41.198ZM352.735 43.698L354.355 44.258C354.075 45.1514 353.555 45.8847 352.795 46.458C352.035 47.018 351.115 47.298 350.035 47.298C348.688 47.298 347.541 46.838 346.595 45.918C345.661 44.9847 345.195 43.7314 345.195 42.158C345.195 40.6914 345.648 39.478 346.555 38.518C347.461 37.558 348.541 37.078 349.795 37.078C351.248 37.078 352.381 37.538 353.195 38.458C354.008 39.3647 354.415 40.5847 354.415 42.118C354.415 42.358 354.401 42.558 354.375 42.718H347.135C347.148 43.5714 347.428 44.2714 347.975 44.818C348.535 45.3647 349.221 45.638 350.035 45.638C351.408 45.638 352.308 44.9914 352.735 43.698ZM365.555 32.458C366.128 32.458 366.501 32.5247 366.675 32.658V34.338C366.475 34.258 366.201 34.218 365.855 34.218C365.441 34.218 365.081 34.338 364.775 34.578C364.481 34.818 364.335 35.238 364.335 35.838V37.378H370.695V46.998H368.835V39.078H364.335V46.998H362.395V39.078H360.615V37.378H362.395V35.758C362.395 34.7314 362.695 33.9247 363.295 33.338C363.895 32.7514 364.648 32.458 365.555 32.458ZM368.795 34.658C368.541 34.3914 368.415 34.0714 368.415 33.698C368.415 33.3247 368.541 33.0047 368.795 32.738C369.061 32.4714 369.381 32.338 369.755 32.338C370.141 32.338 370.461 32.4714 370.715 32.738C370.981 32.9914 371.115 33.3114 371.115 33.698C371.115 34.0714 370.981 34.3914 370.715 34.658C370.448 34.9114 370.128 35.038 369.755 35.038C369.381 35.038 369.061 34.9114 368.795 34.658ZM379.225 37.278V39.278C378.945 39.238 378.672 39.218 378.405 39.218C376.645 39.218 375.765 40.2047 375.765 42.178V46.998H373.885V37.378H375.725V39.058C376.312 37.8314 377.272 37.218 378.605 37.218C378.818 37.218 379.025 37.238 379.225 37.278ZM380.329 44.498L382.029 43.898C382.095 44.418 382.322 44.8514 382.709 45.198C383.095 45.5314 383.615 45.698 384.269 45.698C384.775 45.698 385.175 45.578 385.469 45.338C385.762 45.0847 385.909 44.778 385.909 44.418C385.909 43.778 385.495 43.3647 384.669 43.178L383.029 42.818C382.282 42.658 381.695 42.338 381.269 41.858C380.842 41.378 380.629 40.798 380.629 40.118C380.629 39.2914 380.962 38.578 381.629 37.978C382.309 37.378 383.115 37.078 384.049 37.078C384.662 37.078 385.209 37.1714 385.689 37.358C386.169 37.5314 386.542 37.7647 386.809 38.058C387.075 38.3514 387.275 38.6247 387.409 38.878C387.542 39.1314 387.642 39.3914 387.709 39.658L386.049 40.278C386.022 40.118 385.975 39.9647 385.909 39.818C385.842 39.658 385.735 39.4847 385.589 39.298C385.455 39.1114 385.255 38.9647 384.989 38.858C384.722 38.738 384.409 38.678 384.049 38.678C383.582 38.678 383.195 38.8047 382.889 39.058C382.595 39.3114 382.449 39.6114 382.449 39.958C382.449 40.5714 382.815 40.958 383.549 41.118L385.109 41.458C385.962 41.6447 386.615 41.9914 387.069 42.498C387.535 42.9914 387.769 43.598 387.769 44.318C387.769 45.078 387.455 45.7647 386.829 46.378C386.215 46.9914 385.355 47.298 384.249 47.298C383.062 47.298 382.135 47.0047 381.469 46.418C380.802 45.818 380.422 45.178 380.329 44.498ZM392.792 34.338V37.378H394.872V39.078H392.792V44.078C392.792 44.5314 392.892 44.8647 393.092 45.078C393.305 45.2914 393.652 45.398 394.132 45.398C394.412 45.398 394.658 45.3714 394.872 45.318V46.918C394.552 47.038 394.125 47.098 393.592 47.098C392.765 47.098 392.112 46.858 391.632 46.378C391.152 45.898 390.912 45.2247 390.912 44.358V39.078H389.072V37.378H389.592C390.085 37.378 390.452 37.2447 390.692 36.978C390.945 36.698 391.072 36.338 391.072 35.898V34.338H392.792ZM4.11976 66.338V69.378H6.19976V71.078H4.11976V76.078C4.11976 76.5314 4.21976 76.8647 4.41976 77.078C4.63309 77.2914 4.97976 77.398 5.45976 77.398C5.73976 77.398 5.98642 77.3714 6.19976 77.318V78.918C5.87976 79.038 5.45309 79.098 4.91976 79.098C4.09309 79.098 3.43976 78.858 2.95976 78.378C2.47976 77.898 2.23976 77.2247 2.23976 76.358V71.078H0.399756V69.378H0.919756C1.41309 69.378 1.77976 69.2447 2.01976 68.978C2.27309 68.698 2.39976 68.338 2.39976 67.898V66.338H4.11976ZM10.5891 73.338V78.998H8.70913V64.518H10.5891V70.498C11.2291 69.5647 12.2025 69.098 13.5091 69.098C14.6158 69.098 15.4625 69.4514 16.0491 70.158C16.6491 70.8647 16.9491 71.778 16.9491 72.898V78.998H15.0691V73.218C15.0691 71.6047 14.3225 70.798 12.8291 70.798C12.1358 70.798 11.5958 71.038 11.2091 71.518C10.8225 71.9847 10.6158 72.5914 10.5891 73.338ZM21.7996 78.998H19.9396V69.378H21.7996V78.998ZM19.8996 66.698C19.6463 66.4314 19.5196 66.1114 19.5196 65.738C19.5196 65.3647 19.6463 65.0447 19.8996 64.778C20.1663 64.5114 20.4863 64.378 20.8596 64.378C21.2329 64.378 21.5529 64.5114 21.8196 64.778C22.0863 65.0314 22.2196 65.3514 22.2196 65.738C22.2196 66.1114 22.0863 66.4314 21.8196 66.698C21.5529 66.9514 21.2329 67.078 20.8596 67.078C20.4863 67.078 20.1663 66.9514 19.8996 66.698ZM26.8782 73.438V78.998H24.9982V69.378H26.8382V70.758C27.4782 69.6514 28.4649 69.098 29.7982 69.098C30.9049 69.098 31.7515 69.4514 32.3382 70.158C32.9382 70.8647 33.2382 71.778 33.2382 72.898V78.998H31.3582V73.218C31.3582 71.6047 30.6115 70.798 29.1182 70.798C28.4115 70.798 27.8582 71.0514 27.4582 71.558C27.0715 72.0514 26.8782 72.678 26.8782 73.438ZM35.5287 79.518L37.3487 79.098C37.4153 79.778 37.6887 80.338 38.1687 80.778C38.6487 81.2314 39.2487 81.458 39.9687 81.458C41.9287 81.458 42.9087 80.418 42.9087 78.338V76.958C42.6687 77.4247 42.2887 77.8047 41.7687 78.098C41.262 78.3914 40.662 78.538 39.9687 78.538C38.6887 78.538 37.6287 78.1047 36.7887 77.238C35.962 76.358 35.5487 75.238 35.5487 73.878C35.5487 72.558 35.962 71.4514 36.7887 70.558C37.6153 69.6514 38.6753 69.198 39.9687 69.198C41.4353 69.198 42.422 69.7047 42.9287 70.718V69.378H44.7887V78.278C44.7887 78.918 44.702 79.5114 44.5287 80.058C44.3687 80.618 44.1087 81.1314 43.7487 81.598C43.3887 82.0647 42.882 82.4314 42.2287 82.698C41.5887 82.9647 40.8353 83.098 39.9687 83.098C38.782 83.098 37.7753 82.758 36.9487 82.078C36.122 81.4114 35.6487 80.558 35.5287 79.518ZM40.2487 76.958C41.062 76.958 41.722 76.678 42.2287 76.118C42.7353 75.5447 42.9887 74.798 42.9887 73.878C42.9887 72.958 42.7353 72.218 42.2287 71.658C41.722 71.0847 41.062 70.798 40.2487 70.798C39.422 70.798 38.7487 71.078 38.2287 71.638C37.722 72.198 37.4687 72.9447 37.4687 73.878C37.4687 74.8247 37.7153 75.578 38.2087 76.138C38.7153 76.6847 39.3953 76.958 40.2487 76.958ZM55.1912 83.018H53.1312L55.5312 77.938L51.3912 69.378H53.5512L56.5512 76.018L59.4312 69.378H61.4512L55.1912 83.018ZM64.8493 76.718C65.436 77.318 66.1493 77.618 66.9893 77.618C67.8293 77.618 68.536 77.318 69.1093 76.718C69.696 76.1047 69.9893 75.258 69.9893 74.178C69.9893 73.1114 69.696 72.278 69.1093 71.678C68.536 71.0647 67.8293 70.758 66.9893 70.758C66.1493 70.758 65.436 71.0647 64.8493 71.678C64.276 72.278 63.9893 73.1114 63.9893 74.178C63.9893 75.258 64.276 76.1047 64.8493 76.718ZM63.4493 70.538C64.3826 69.5647 65.5626 69.078 66.9893 69.078C68.416 69.078 69.5893 69.5647 70.5093 70.538C71.4426 71.498 71.9093 72.7114 71.9093 74.178C71.9093 75.658 71.4493 76.8847 70.5293 77.858C69.6093 78.818 68.4293 79.298 66.9893 79.298C65.5493 79.298 64.3693 78.818 63.4493 77.858C62.5293 76.8847 62.0693 75.658 62.0693 74.178C62.0693 72.7114 62.5293 71.498 63.4493 70.538ZM80.5569 77.838C80.3036 78.318 79.9169 78.6847 79.3969 78.938C78.8769 79.178 78.3169 79.298 77.7169 79.298C76.6236 79.298 75.7503 78.938 75.0969 78.218C74.4436 77.4847 74.1169 76.558 74.1169 75.438V69.378H75.9969V75.158C75.9969 75.878 76.1703 76.4714 76.5169 76.938C76.8769 77.4047 77.4303 77.638 78.1769 77.638C78.9236 77.638 79.4903 77.418 79.8769 76.978C80.2636 76.5247 80.4569 75.9247 80.4569 75.178V69.378H82.3369V77.218C82.3369 77.8447 82.3703 78.438 82.4369 78.998H80.6369C80.5836 78.7047 80.5569 78.318 80.5569 77.838ZM89.6451 76.498L91.3451 75.898C91.4117 76.418 91.6384 76.8514 92.0251 77.198C92.4117 77.5314 92.9317 77.698 93.5851 77.698C94.0917 77.698 94.4917 77.578 94.7851 77.338C95.0784 77.0847 95.2251 76.778 95.2251 76.418C95.2251 75.778 94.8117 75.3647 93.9851 75.178L92.3451 74.818C91.5984 74.658 91.0117 74.338 90.5851 73.858C90.1584 73.378 89.9451 72.798 89.9451 72.118C89.9451 71.2914 90.2784 70.578 90.9451 69.978C91.6251 69.378 92.4317 69.078 93.3651 69.078C93.9784 69.078 94.5251 69.1714 95.0051 69.358C95.4851 69.5314 95.8584 69.7647 96.1251 70.058C96.3917 70.3514 96.5917 70.6247 96.7251 70.878C96.8584 71.1314 96.9584 71.3914 97.0251 71.658L95.3651 72.278C95.3384 72.118 95.2917 71.9647 95.2251 71.818C95.1584 71.658 95.0517 71.4847 94.9051 71.298C94.7717 71.1114 94.5717 70.9647 94.3051 70.858C94.0384 70.738 93.7251 70.678 93.3651 70.678C92.8984 70.678 92.5117 70.8047 92.2051 71.058C91.9117 71.3114 91.7651 71.6114 91.7651 71.958C91.7651 72.5714 92.1317 72.958 92.8651 73.118L94.4251 73.458C95.2784 73.6447 95.9317 73.9914 96.3851 74.498C96.8517 74.9914 97.0851 75.598 97.0851 76.318C97.0851 77.078 96.7717 77.7647 96.1451 78.378C95.5317 78.9914 94.6717 79.298 93.5651 79.298C92.3784 79.298 91.4517 79.0047 90.7851 78.418C90.1184 77.818 89.7384 77.178 89.6451 76.498ZM100.71 73.198H105.97C105.944 72.478 105.704 71.8914 105.25 71.438C104.797 70.9714 104.157 70.738 103.33 70.738C102.584 70.738 101.97 70.9847 101.49 71.478C101.01 71.958 100.75 72.5314 100.71 73.198ZM106.25 75.698L107.87 76.258C107.59 77.1514 107.07 77.8847 106.31 78.458C105.55 79.018 104.63 79.298 103.55 79.298C102.204 79.298 101.057 78.838 100.11 77.918C99.177 76.9847 98.7104 75.7314 98.7104 74.158C98.7104 72.6914 99.1637 71.478 100.07 70.518C100.977 69.558 102.057 69.078 103.31 69.078C104.764 69.078 105.897 69.538 106.71 70.458C107.524 71.3647 107.93 72.5847 107.93 74.118C107.93 74.358 107.917 74.558 107.89 74.718H100.65C100.664 75.5714 100.944 76.2714 101.49 76.818C102.05 77.3647 102.737 77.638 103.55 77.638C104.924 77.638 105.824 76.9914 106.25 75.698ZM111.55 73.198H116.81C116.784 72.478 116.544 71.8914 116.09 71.438C115.637 70.9714 114.997 70.738 114.17 70.738C113.424 70.738 112.81 70.9847 112.33 71.478C111.85 71.958 111.59 72.5314 111.55 73.198ZM117.09 75.698L118.71 76.258C118.43 77.1514 117.91 77.8847 117.15 78.458C116.39 79.018 115.47 79.298 114.39 79.298C113.044 79.298 111.897 78.838 110.95 77.918C110.017 76.9847 109.55 75.7314 109.55 74.158C109.55 72.6914 110.004 71.478 110.91 70.518C111.817 69.558 112.897 69.078 114.15 69.078C115.604 69.078 116.737 69.538 117.55 70.458C118.364 71.3647 118.77 72.5847 118.77 74.118C118.77 74.358 118.757 74.558 118.73 74.718H111.49C111.504 75.5714 111.784 76.2714 112.33 76.818C112.89 77.3647 113.577 77.638 114.39 77.638C115.764 77.638 116.664 76.9914 117.09 75.698ZM128.15 76.718C128.737 77.318 129.45 77.618 130.29 77.618C131.13 77.618 131.837 77.318 132.41 76.718C132.997 76.1047 133.29 75.258 133.29 74.178C133.29 73.1114 132.997 72.278 132.41 71.678C131.837 71.0647 131.13 70.758 130.29 70.758C129.45 70.758 128.737 71.0647 128.15 71.678C127.577 72.278 127.29 73.1114 127.29 74.178C127.29 75.258 127.577 76.1047 128.15 76.718ZM126.75 70.538C127.683 69.5647 128.863 69.078 130.29 69.078C131.717 69.078 132.89 69.5647 133.81 70.538C134.743 71.498 135.21 72.7114 135.21 74.178C135.21 75.658 134.75 76.8847 133.83 77.858C132.91 78.818 131.73 79.298 130.29 79.298C128.85 79.298 127.67 78.818 126.75 77.858C125.83 76.8847 125.37 75.658 125.37 74.178C125.37 72.7114 125.83 71.498 126.75 70.538ZM139.495 73.438V78.998H137.615V69.378H139.455V70.758C140.095 69.6514 141.082 69.098 142.415 69.098C143.522 69.098 144.369 69.4514 144.955 70.158C145.555 70.8647 145.855 71.778 145.855 72.898V78.998H143.975V73.218C143.975 71.6047 143.229 70.798 141.735 70.798C141.029 70.798 140.475 71.0514 140.075 71.558C139.689 72.0514 139.495 72.678 139.495 73.438ZM156.366 66.338V69.378H158.446V71.078H156.366V76.078C156.366 76.5314 156.466 76.8647 156.666 77.078C156.879 77.2914 157.226 77.398 157.706 77.398C157.986 77.398 158.233 77.3714 158.446 77.318V78.918C158.126 79.038 157.699 79.098 157.166 79.098C156.339 79.098 155.686 78.858 155.206 78.378C154.726 77.898 154.486 77.2247 154.486 76.358V71.078H152.646V69.378H153.166C153.659 69.378 154.026 69.2447 154.266 68.978C154.519 68.698 154.646 68.338 154.646 67.898V66.338H156.366ZM162.835 73.338V78.998H160.955V64.518H162.835V70.498C163.475 69.5647 164.449 69.098 165.755 69.098C166.862 69.098 167.709 69.4514 168.295 70.158C168.895 70.8647 169.195 71.778 169.195 72.898V78.998H167.315V73.218C167.315 71.6047 166.569 70.798 165.075 70.798C164.382 70.798 163.842 71.038 163.455 71.518C163.069 71.9847 162.862 72.5914 162.835 73.338ZM173.406 73.198H178.666C178.639 72.478 178.399 71.8914 177.946 71.438C177.492 70.9714 176.852 70.738 176.026 70.738C175.279 70.738 174.666 70.9847 174.186 71.478C173.706 71.958 173.446 72.5314 173.406 73.198ZM178.946 75.698L180.566 76.258C180.286 77.1514 179.766 77.8847 179.006 78.458C178.246 79.018 177.326 79.298 176.246 79.298C174.899 79.298 173.752 78.838 172.806 77.918C171.872 76.9847 171.406 75.7314 171.406 74.158C171.406 72.6914 171.859 71.478 172.766 70.518C173.672 69.558 174.752 69.078 176.006 69.078C177.459 69.078 178.592 69.538 179.406 70.458C180.219 71.3647 180.626 72.5847 180.626 74.118C180.626 74.358 180.612 74.558 180.586 74.718H173.346C173.359 75.5714 173.639 76.2714 174.186 76.818C174.746 77.3647 175.432 77.638 176.246 77.638C177.619 77.638 178.519 76.9914 178.946 75.698ZM192.066 70.818C191.252 70.818 190.559 71.1114 189.986 71.698C189.426 72.2847 189.146 73.1114 189.146 74.178C189.146 75.2314 189.426 76.058 189.986 76.658C190.559 77.258 191.259 77.558 192.086 77.558C192.886 77.558 193.492 77.358 193.906 76.958C194.332 76.558 194.619 76.098 194.766 75.578L196.426 76.298C196.159 77.098 195.652 77.798 194.906 78.398C194.172 78.998 193.232 79.298 192.086 79.298C190.686 79.298 189.526 78.8114 188.606 77.838C187.686 76.8647 187.226 75.6447 187.226 74.178C187.226 72.6847 187.686 71.4647 188.606 70.518C189.526 69.558 190.679 69.078 192.066 69.078C193.239 69.078 194.186 69.378 194.906 69.978C195.639 70.578 196.119 71.298 196.346 72.138L194.646 72.858C194.499 72.298 194.219 71.818 193.806 71.418C193.392 71.018 192.812 70.818 192.066 70.818ZM200.513 76.718C201.1 77.318 201.813 77.618 202.653 77.618C203.493 77.618 204.2 77.318 204.773 76.718C205.36 76.1047 205.653 75.258 205.653 74.178C205.653 73.1114 205.36 72.278 204.773 71.678C204.2 71.0647 203.493 70.758 202.653 70.758C201.813 70.758 201.1 71.0647 200.513 71.678C199.94 72.278 199.653 73.1114 199.653 74.178C199.653 75.258 199.94 76.1047 200.513 76.718ZM199.113 70.538C200.047 69.5647 201.227 69.078 202.653 69.078C204.08 69.078 205.253 69.5647 206.173 70.538C207.107 71.498 207.573 72.7114 207.573 74.178C207.573 75.658 207.113 76.8847 206.193 77.858C205.273 78.818 204.093 79.298 202.653 79.298C201.213 79.298 200.033 78.818 199.113 77.858C198.193 76.8847 197.733 75.658 197.733 74.178C197.733 72.7114 198.193 71.498 199.113 70.538ZM216.221 77.838C215.968 78.318 215.581 78.6847 215.061 78.938C214.541 79.178 213.981 79.298 213.381 79.298C212.288 79.298 211.414 78.938 210.761 78.218C210.108 77.4847 209.781 76.558 209.781 75.438V69.378H211.661V75.158C211.661 75.878 211.834 76.4714 212.181 76.938C212.541 77.4047 213.094 77.638 213.841 77.638C214.588 77.638 215.154 77.418 215.541 76.978C215.928 76.5247 216.121 75.9247 216.121 75.178V69.378H218.001V77.218C218.001 77.8447 218.034 78.438 218.101 78.998H216.301C216.248 78.7047 216.221 78.318 216.221 77.838ZM223.089 73.438V78.998H221.209V69.378H223.049V70.758C223.689 69.6514 224.676 69.098 226.009 69.098C227.116 69.098 227.962 69.4514 228.549 70.158C229.149 70.8647 229.449 71.778 229.449 72.898V78.998H227.569V73.218C227.569 71.6047 226.822 70.798 225.329 70.798C224.622 70.798 224.069 71.0514 223.669 71.558C223.282 72.0514 223.089 72.678 223.089 73.438ZM234.96 66.338V69.378H237.04V71.078H234.96V76.078C234.96 76.5314 235.06 76.8647 235.26 77.078C235.473 77.2914 235.82 77.398 236.3 77.398C236.58 77.398 236.826 77.3714 237.04 77.318V78.918C236.72 79.038 236.293 79.098 235.76 79.098C234.933 79.098 234.28 78.858 233.8 78.378C233.32 77.898 233.08 77.2247 233.08 76.358V71.078H231.24V69.378H231.76C232.253 69.378 232.62 69.2447 232.86 68.978C233.113 68.698 233.24 68.338 233.24 67.898V66.338H234.96ZM240.671 73.198H245.931C245.905 72.478 245.665 71.8914 245.211 71.438C244.758 70.9714 244.118 70.738 243.291 70.738C242.545 70.738 241.931 70.9847 241.451 71.478C240.971 71.958 240.711 72.5314 240.671 73.198ZM246.211 75.698L247.831 76.258C247.551 77.1514 247.031 77.8847 246.271 78.458C245.511 79.018 244.591 79.298 243.511 79.298C242.165 79.298 241.018 78.838 240.071 77.918C239.138 76.9847 238.671 75.7314 238.671 74.158C238.671 72.6914 239.125 71.478 240.031 70.518C240.938 69.558 242.018 69.078 243.271 69.078C244.725 69.078 245.858 69.538 246.671 70.458C247.485 71.3647 247.891 72.5847 247.891 74.118C247.891 74.358 247.878 74.558 247.851 74.718H240.611C240.625 75.5714 240.905 76.2714 241.451 76.818C242.011 77.3647 242.698 77.638 243.511 77.638C244.885 77.638 245.785 76.9914 246.211 75.698ZM255.631 69.278V71.278C255.351 71.238 255.078 71.218 254.811 71.218C253.051 71.218 252.171 72.2047 252.171 74.178V78.998H250.291V69.378H252.131V71.058C252.718 69.8314 253.678 69.218 255.011 69.218C255.224 69.218 255.431 69.238 255.631 69.278ZM264.615 76.718C265.202 77.318 265.915 77.618 266.755 77.618C267.595 77.618 268.302 77.318 268.875 76.718C269.462 76.1047 269.755 75.258 269.755 74.178C269.755 73.1114 269.462 72.278 268.875 71.678C268.302 71.0647 267.595 70.758 266.755 70.758C265.915 70.758 265.202 71.0647 264.615 71.678C264.042 72.278 263.755 73.1114 263.755 74.178C263.755 75.258 264.042 76.1047 264.615 76.718ZM263.215 70.538C264.148 69.5647 265.328 69.078 266.755 69.078C268.182 69.078 269.355 69.5647 270.275 70.538C271.208 71.498 271.675 72.7114 271.675 74.178C271.675 75.658 271.215 76.8847 270.295 77.858C269.375 78.818 268.195 79.298 266.755 79.298C265.315 79.298 264.135 78.818 263.215 77.858C262.295 76.8847 261.835 75.658 261.835 74.178C261.835 72.7114 262.295 71.498 263.215 70.538ZM279.42 69.278V71.278C279.14 71.238 278.867 71.218 278.6 71.218C276.84 71.218 275.96 72.2047 275.96 74.178V78.998H274.08V69.378H275.92V71.058C276.507 69.8314 277.467 69.218 278.8 69.218C279.014 69.218 279.22 69.238 279.42 69.278ZM288.284 78.998H286.424V69.378H288.284V78.998ZM286.384 66.698C286.131 66.4314 286.004 66.1114 286.004 65.738C286.004 65.3647 286.131 65.0447 286.384 64.778C286.651 64.5114 286.971 64.378 287.344 64.378C287.717 64.378 288.037 64.5114 288.304 64.778C288.571 65.0314 288.704 65.3514 288.704 65.738C288.704 66.1114 288.571 66.4314 288.304 66.698C288.037 66.9514 287.717 67.078 287.344 67.078C286.971 67.078 286.651 66.9514 286.384 66.698ZM293.363 73.438V78.998H291.483V69.378H293.323V70.758C293.963 69.6514 294.949 69.098 296.283 69.098C297.389 69.098 298.236 69.4514 298.823 70.158C299.423 70.8647 299.723 71.778 299.723 72.898V78.998H297.843V73.218C297.843 71.6047 297.096 70.798 295.603 70.798C294.896 70.798 294.343 71.0514 293.943 71.558C293.556 72.0514 293.363 72.678 293.363 73.438ZM310.233 66.338V69.378H312.313V71.078H310.233V76.078C310.233 76.5314 310.333 76.8647 310.533 77.078C310.746 77.2914 311.093 77.398 311.573 77.398C311.853 77.398 312.1 77.3714 312.313 77.318V78.918C311.993 79.038 311.566 79.098 311.033 79.098C310.206 79.098 309.553 78.858 309.073 78.378C308.593 77.898 308.353 77.2247 308.353 76.358V71.078H306.513V69.378H307.033C307.526 69.378 307.893 69.2447 308.133 68.978C308.386 68.698 308.513 68.338 308.513 67.898V66.338H310.233ZM316.702 73.338V78.998H314.822V64.518H316.702V70.498C317.342 69.5647 318.316 69.098 319.622 69.098C320.729 69.098 321.576 69.4514 322.162 70.158C322.762 70.8647 323.062 71.778 323.062 72.898V78.998H321.182V73.218C321.182 71.6047 320.436 70.798 318.942 70.798C318.249 70.798 317.709 71.038 317.322 71.518C316.936 71.9847 316.729 72.5914 316.702 73.338ZM327.273 73.198H332.533C332.506 72.478 332.266 71.8914 331.813 71.438C331.36 70.9714 330.72 70.738 329.893 70.738C329.146 70.738 328.533 70.9847 328.053 71.478C327.573 71.958 327.313 72.5314 327.273 73.198ZM332.813 75.698L334.433 76.258C334.153 77.1514 333.633 77.8847 332.873 78.458C332.113 79.018 331.193 79.298 330.113 79.298C328.766 79.298 327.62 78.838 326.673 77.918C325.74 76.9847 325.273 75.7314 325.273 74.158C325.273 72.6914 325.726 71.478 326.633 70.518C327.54 69.558 328.62 69.078 329.873 69.078C331.326 69.078 332.46 69.538 333.273 70.458C334.086 71.3647 334.493 72.5847 334.493 74.118C334.493 74.358 334.48 74.558 334.453 74.718H327.213C327.226 75.5714 327.506 76.2714 328.053 76.818C328.613 77.3647 329.3 77.638 330.113 77.638C331.486 77.638 332.386 76.9914 332.813 75.698Z" fill="#3F3232"/>
</svg>
