<svg width="384" height="110" viewBox="0 0 384 110" fill="none" xmlns="http://www.w3.org/2000/svg">
<path d="M14.8078 38.726C22.5558 38.726 28.0158 34.566 28.0158 27.754C28.0158 20.318 21.8798 18.394 16.1078 16.574C10.5958 14.91 9.19176 13.714 9.19176 11.478C9.19176 9.39805 10.9598 7.83804 13.9758 7.83804C17.6678 7.83804 19.6438 9.76204 20.9438 12.518L26.9758 9.03404C24.5318 3.93805 19.9558 0.870044 13.9758 0.870044C7.73576 0.870044 2.01576 4.82205 2.01576 11.686C2.01576 18.602 7.42376 20.942 12.9878 22.554C18.3958 24.114 20.8398 25.154 20.8398 27.858C20.8398 29.886 19.3318 31.706 15.0158 31.706C10.4918 31.706 7.94376 29.522 6.64376 26.142L0.507756 29.73C2.48376 35.138 7.37176 38.726 14.8078 38.726ZM35.7122 8.87805C38.0002 8.87805 39.8722 7.00605 39.8722 4.77004C39.8722 2.53404 38.0002 0.610045 35.7122 0.610045C33.4762 0.610045 31.6042 2.53404 31.6042 4.77004C31.6042 7.00605 33.4762 8.87805 35.7122 8.87805ZM32.3842 37.998H39.0922V11.998H32.3842V37.998ZM73.9878 11.27C70.4518 11.27 67.8518 12.674 66.2398 15.014C64.7838 12.622 62.3918 11.27 59.1678 11.27C55.8398 11.27 53.3958 12.57 51.9398 14.754V11.998H45.2318V37.998H51.9398V23.386C51.9398 19.486 53.9678 17.51 56.8278 17.51C59.6358 17.51 61.1958 19.382 61.1958 22.45V37.998H67.9038V23.386C67.9038 19.486 69.7758 17.51 72.7398 17.51C75.5478 17.51 77.1078 19.382 77.1078 22.45V37.998H83.8158V21.982C83.8158 15.482 79.9158 11.27 73.9878 11.27ZM104.645 11.27C100.849 11.27 98.0931 12.674 96.2211 15.066V11.998H89.5131V48.398H96.2211V34.93C98.0931 37.322 100.849 38.726 104.645 38.726C111.613 38.726 117.333 32.746 117.333 24.998C117.333 17.25 111.613 11.27 104.645 11.27ZM103.397 32.33C99.2891 32.33 96.2211 29.366 96.2211 24.998C96.2211 20.63 99.2891 17.666 103.397 17.666C107.557 17.666 110.625 20.63 110.625 24.998C110.625 29.366 107.557 32.33 103.397 32.33ZM122.064 37.998H128.772V0.0380459H122.064V37.998ZM140.58 27.754H160.184C160.34 26.87 160.444 25.986 160.444 24.998C160.444 17.354 154.984 11.27 147.288 11.27C139.124 11.27 133.56 17.25 133.56 24.998C133.56 32.746 139.072 38.726 147.808 38.726C152.8 38.726 156.7 36.698 159.144 33.162L153.736 30.042C152.592 31.55 150.512 32.642 147.912 32.642C144.376 32.642 141.516 31.186 140.58 27.754ZM140.476 22.554C141.256 19.226 143.7 17.302 147.288 17.302C150.096 17.302 152.904 18.81 153.736 22.554H140.476ZM186.03 37.998H194.194L201.006 13.974L207.87 37.998H216.034L226.226 1.59804H218.686L211.718 28.586L204.074 1.59804H197.938L190.346 28.586L183.378 1.59804H175.838L186.03 37.998ZM246.738 11.998V15.066C244.866 12.726 242.058 11.27 238.262 11.27C231.346 11.27 225.626 17.25 225.626 24.998C225.626 32.746 231.346 38.726 238.262 38.726C242.058 38.726 244.866 37.27 246.738 34.93V37.998H253.446V11.998H246.738ZM239.51 32.33C235.402 32.33 232.334 29.366 232.334 24.998C232.334 20.63 235.402 17.666 239.51 17.666C243.67 17.666 246.738 20.63 246.738 24.998C246.738 29.366 243.67 32.33 239.51 32.33ZM276.481 11.998L270.709 29.47L263.949 11.998H256.617L267.277 37.166C266.029 40.65 264.157 42.21 260.465 42.158V48.398C267.069 48.762 271.489 45.486 274.193 37.998L283.657 11.998H276.481ZM312.225 38.726C319.869 38.726 326.005 32.746 326.005 24.998C326.005 17.25 319.869 11.27 312.225 11.27C304.581 11.27 298.497 17.25 298.497 24.998C298.497 32.746 304.581 38.726 312.225 38.726ZM312.225 32.174C308.273 32.174 305.205 29.21 305.205 24.998C305.205 20.786 308.273 17.822 312.225 17.822C316.229 17.822 319.297 20.786 319.297 24.998C319.297 29.21 316.229 32.174 312.225 32.174ZM343.9 7.31805V0.870044C335.632 0.350045 331.68 4.56205 331.68 11.738V11.998H327.936V18.446H331.68V37.998H338.388V18.446H343.9V11.998H338.388V11.738C338.388 8.20205 340.416 7.05805 343.9 7.31805ZM9.55576 91.134V82.97H23.3358V76.21H9.55576V68.462H24.6358V61.598H2.37976V97.998H24.8958V91.134H9.55576ZM48.8434 71.998V75.066C46.9714 72.726 44.1634 71.27 40.3674 71.27C33.4514 71.27 27.7314 77.25 27.7314 84.998C27.7314 92.746 33.4514 98.726 40.3674 98.726C44.1634 98.726 46.9714 97.27 48.8434 94.93V97.998H55.5514V71.998H48.8434ZM41.6154 92.33C37.5074 92.33 34.4394 89.366 34.4394 84.998C34.4394 80.63 37.5074 77.666 41.6154 77.666C45.7754 77.666 48.8434 80.63 48.8434 84.998C48.8434 89.366 45.7754 92.33 41.6154 92.33ZM76.5062 78.446V71.998H70.6302V64.718L63.9222 66.746V71.998H59.3982V78.446H63.9222V89.262C63.9222 96.282 67.0942 99.038 76.5062 97.998V91.914C72.6582 92.122 70.6302 92.07 70.6302 89.262V78.446H76.5062ZM84.5637 68.878C86.8517 68.878 88.7237 67.006 88.7237 64.77C88.7237 62.534 86.8517 60.61 84.5637 60.61C82.3277 60.61 80.4557 62.534 80.4557 64.77C80.4557 67.006 82.3277 68.878 84.5637 68.878ZM81.2357 97.998H87.9437V71.998H81.2357V97.998ZM108.539 71.27C105.055 71.27 102.351 72.57 100.791 74.91V71.998H94.0834V97.998H100.791V83.958C100.791 79.434 103.235 77.51 106.511 77.51C109.527 77.51 111.659 79.33 111.659 82.866V97.998H118.367V82.034C118.367 75.118 114.051 71.27 108.539 71.27ZM144.011 71.998V75.222C142.191 72.778 139.383 71.27 135.691 71.27C128.307 71.27 122.743 77.302 122.743 84.582C122.743 91.914 128.307 97.894 135.691 97.894C139.383 97.894 142.191 96.386 144.011 93.942V96.75C144.011 100.858 141.411 103.146 137.199 103.146C133.195 103.146 131.479 101.534 130.387 99.506L124.667 102.782C126.955 106.994 131.427 109.126 136.991 109.126C143.855 109.126 150.563 105.278 150.563 96.75V71.998H144.011ZM136.731 91.706C132.519 91.706 129.451 88.742 129.451 84.582C129.451 80.474 132.519 77.51 136.731 77.51C140.943 77.51 144.011 80.474 144.011 84.582C144.011 88.742 140.943 91.706 136.731 91.706ZM184.414 61.598H169.958V97.998H184.414C194.45 97.998 201.938 90.042 201.938 79.798C201.938 69.554 194.45 61.598 184.414 61.598ZM184.414 91.134H177.134V68.462H184.414C190.706 68.462 195.074 73.09 195.074 79.798C195.074 86.506 190.706 91.134 184.414 91.134ZM212.384 87.754H231.988C232.144 86.87 232.248 85.986 232.248 84.998C232.248 77.354 226.788 71.27 219.092 71.27C210.928 71.27 205.364 77.25 205.364 84.998C205.364 92.746 210.876 98.726 219.612 98.726C224.604 98.726 228.504 96.698 230.948 93.162L225.54 90.042C224.396 91.55 222.316 92.642 219.716 92.642C216.18 92.642 213.32 91.186 212.384 87.754ZM212.28 82.554C213.06 79.226 215.504 77.302 219.092 77.302C221.9 77.302 224.708 78.81 225.54 82.554H212.28ZM236.931 97.998H243.639V60.038H236.931V97.998ZM253.107 68.878C255.395 68.878 257.267 67.006 257.267 64.77C257.267 62.534 255.395 60.61 253.107 60.61C250.871 60.61 248.999 62.534 248.999 64.77C248.999 67.006 250.871 68.878 253.107 68.878ZM249.779 97.998H256.487V71.998H249.779V97.998ZM275.002 98.726C280.098 98.726 284.518 96.022 286.754 91.966L280.93 88.638C279.89 90.77 277.654 92.07 274.95 92.07C270.946 92.07 267.982 89.106 267.982 84.998C267.982 80.838 270.946 77.874 274.95 77.874C277.602 77.874 279.838 79.226 280.878 81.358L286.65 77.978C284.518 73.974 280.098 71.27 275.002 71.27C267.098 71.27 261.274 77.25 261.274 84.998C261.274 92.746 267.098 98.726 275.002 98.726ZM293.63 68.878C295.918 68.878 297.79 67.006 297.79 64.77C297.79 62.534 295.918 60.61 293.63 60.61C291.394 60.61 289.522 62.534 289.522 64.77C289.522 67.006 291.394 68.878 293.63 68.878ZM290.302 97.998H297.01V71.998H290.302V97.998ZM315.526 98.726C323.17 98.726 329.306 92.746 329.306 84.998C329.306 77.25 323.17 71.27 315.526 71.27C307.882 71.27 301.798 77.25 301.798 84.998C301.798 92.746 307.882 98.726 315.526 98.726ZM315.526 92.174C311.574 92.174 308.506 89.21 308.506 84.998C308.506 80.786 311.574 77.822 315.526 77.822C319.53 77.822 322.598 80.786 322.598 84.998C322.598 89.21 319.53 92.174 315.526 92.174ZM351.185 71.998V86.038C351.185 90.562 348.741 92.486 345.465 92.486C342.449 92.486 340.317 90.666 340.317 87.13V71.998H333.609V87.962C333.609 94.878 337.925 98.726 343.437 98.726C346.921 98.726 349.625 97.426 351.185 95.086V97.998H357.893V71.998H351.185ZM370.021 79.382C370.021 77.978 371.373 77.25 373.037 77.25C374.961 77.25 376.417 78.238 377.197 79.902L382.917 76.782C380.889 73.194 377.249 71.27 373.037 71.27C367.681 71.27 363.157 74.234 363.157 79.538C363.157 88.69 376.573 86.61 376.573 90.406C376.573 91.914 375.117 92.642 372.985 92.642C370.385 92.642 368.617 91.394 367.889 89.262L362.065 92.538C363.937 96.542 367.785 98.726 372.985 98.726C378.549 98.726 383.437 96.022 383.437 90.406C383.437 80.838 370.021 83.23 370.021 79.382Z" fill="#2E2E2E"/>
</svg>
