<svg width="101" height="85" viewBox="0 0 101 85" fill="none" xmlns="http://www.w3.org/2000/svg">
<path d="M1.57812 73.5859H8.00898C8.79805 79.7998 14.1045 84.6328 20.5156 84.6328C26.9268 84.6328 32.2529 79.7998 33.0223 73.5859H67.958C68.7471 79.7998 74.0535 84.6328 80.4646 84.6328C86.8758 84.6328 92.202 79.7998 92.9713 73.5859H99.4219C100.29 73.5859 101 72.8758 101 72.0078V62.5391V45.1797C101 45.1402 100.98 45.1008 100.98 45.0613C100.98 44.9627 100.941 44.8641 100.921 44.7654C100.882 44.6668 100.862 44.5682 100.803 44.4695C100.783 44.4301 100.783 44.3906 100.763 44.3709L88.1383 23.8553C88.0988 23.7961 88.0594 23.7764 88.0199 23.7369C87.9607 23.658 87.8818 23.5791 87.8029 23.5002C87.724 23.441 87.6451 23.3818 87.5662 23.3424C87.4873 23.3029 87.3887 23.2437 87.29 23.224C87.1914 23.1846 87.073 23.1648 86.9744 23.1648C86.9152 23.1648 86.8561 23.1254 86.7969 23.1254H66.2812C65.4133 23.1254 64.7031 23.8355 64.7031 24.7035V45.1797H59.1008C59.6531 44.2525 59.9688 43.1873 59.9688 42.0234H61.5469C62.4148 42.0234 63.125 41.3133 63.125 40.4453C63.125 39.5773 62.4148 38.8672 61.5469 38.8672H59.9688V35.7307C59.9688 21.5275 49.4939 9.77051 35.8629 7.67949C36.1391 7.0877 36.2969 6.41699 36.2969 5.72656C36.2969 3.12266 34.1664 0.992188 31.5625 0.992188C28.9586 0.992188 26.8281 3.12266 26.8281 5.72656C26.8281 6.43672 26.9859 7.0877 27.2621 7.67949C13.6311 9.77051 3.15625 21.5275 3.15625 35.7307V38.8672H1.57812C0.710156 38.8672 0 39.5773 0 40.4453C0 41.3133 0.710156 42.0234 1.57812 42.0234H3.15625C3.15625 43.1676 3.4916 44.2525 4.02422 45.1797H1.57812C0.710156 45.1797 0 45.8898 0 46.7578V62.5391V72.0078C0 72.8758 0.710156 73.5859 1.57812 73.5859ZM66.2812 59.3828C67.1492 59.3828 67.8594 58.6727 67.8594 57.8047V26.2422H85.9092L97.8438 45.6334V62.5391V70.4297H92.991C92.202 64.2158 86.8955 59.3828 80.4844 59.3828C74.0732 59.3828 68.7471 64.2158 67.9777 70.4297H33.0223C32.2332 64.2158 26.9268 59.3828 20.5156 59.3828C14.1045 59.3828 8.77832 64.2158 8.00898 70.4297H3.15625V62.5391V54.6484H64.7031V57.8047C64.7031 58.6727 65.4133 59.3828 66.2812 59.3828ZM20.5156 81.4766C15.2881 81.4766 11.0469 77.2354 11.0469 72.0078C11.0469 66.7803 15.2881 62.5391 20.5156 62.5391C25.7432 62.5391 29.9844 66.7803 29.9844 72.0078C29.9844 77.2354 25.7432 81.4766 20.5156 81.4766ZM80.4844 81.4766C75.2568 81.4766 71.0156 77.2354 71.0156 72.0078C71.0156 66.7803 75.2568 62.5391 80.4844 62.5391C85.7119 62.5391 89.9531 66.7803 89.9531 72.0078C89.9531 77.2354 85.7119 81.4766 80.4844 81.4766ZM64.7031 51.4922H3.15625V48.3359H9.4293C9.44902 48.3359 9.44902 48.3359 9.46875 48.3359C9.46875 48.3359 9.46875 48.3359 9.48848 48.3359H53.6365C53.6365 48.3359 53.6365 48.3359 53.6562 48.3359C53.676 48.3359 53.676 48.3359 53.6957 48.3359H64.7031V51.4922ZM31.5625 4.14844C32.4305 4.14844 33.1406 4.85859 33.1406 5.72656C33.1406 6.59453 32.4305 7.30469 31.5625 7.30469C30.6945 7.30469 29.9844 6.59453 29.9844 5.72656C29.9844 4.85859 30.6945 4.14844 31.5625 4.14844ZM31.5625 10.4807C45.4895 10.4807 56.8125 21.8037 56.8125 35.7307V38.8672H6.3125V35.7307C6.3125 21.8037 17.6355 10.4807 31.5625 10.4807ZM6.3125 42.0234H56.8125C56.8125 43.7594 55.4119 45.16 53.6957 45.1797H9.4293C7.71309 45.16 6.3125 43.7594 6.3125 42.0234Z" fill="#2E2E2E"/>
</svg>
