<svg width="25" height="17" viewBox="0 0 25 17" fill="none" xmlns="http://www.w3.org/2000/svg">
<path d="M2.01563 16.6015H22.5313C22.7088 16.6015 22.8863 16.5621 23.0639 16.4832C23.1231 16.4634 23.1625 16.4437 23.202 16.424C23.2414 16.4042 23.3006 16.3845 23.34 16.3648C23.3992 16.3253 23.419 16.2859 23.4584 16.2464C23.5373 16.1873 23.6162 16.1083 23.6951 16.0294C23.7543 15.9505 23.8135 15.8716 23.8529 15.7927C23.8924 15.7138 23.9516 15.6152 23.9713 15.5166C24.0107 15.4179 24.0305 15.2996 24.0305 15.2009C24.0305 15.1417 24.0699 15.0826 24.0699 15.0234C24.0699 14.9839 24.0502 14.9445 24.0502 14.905C24.0502 14.8064 24.0107 14.7078 23.991 14.5894C23.9516 14.4908 23.9318 14.3921 23.8727 14.2935C23.8529 14.254 23.8529 14.2146 23.8332 14.1949L16.0609 1.56987C16.0215 1.5107 15.982 1.49097 15.9426 1.43179C15.8834 1.35288 15.8242 1.27398 15.7453 1.2148C15.6664 1.13589 15.5678 1.09644 15.4889 1.03726C15.41 0.997805 15.3311 0.958351 15.2522 0.918898C15.1338 0.879445 15.0154 0.859719 14.8971 0.839993C14.8379 0.839993 14.7984 0.800537 14.7393 0.800537H8.32813C8.32813 0.800537 8.32812 0.800537 8.3084 0.800537C8.28867 0.800537 8.3084 0.800537 8.28867 0.800537H2.01563C1.14766 0.800537 0.4375 1.51069 0.4375 2.37866V15.0037C0.4375 15.8914 1.14766 16.6015 2.01563 16.6015ZM13.891 3.97651L19.7104 13.4453H9.90625V3.97651H13.891ZM6.75 13.4453H3.59375V3.97651H6.75V13.4453Z" fill="#2E2E2E"/>
</svg>
