<svg width="143" height="23" viewBox="0 0 143 23" fill="none" xmlns="http://www.w3.org/2000/svg">
<path d="M10.592 4.368V1.2H0.56V18H3.872V11.52H10.4V8.352H3.872V4.368H10.592ZM21.9813 6V7.416C21.1173 6.336 19.8213 5.664 18.0693 5.664C14.8773 5.664 12.2373 8.424 12.2373 12C12.2373 15.576 14.8773 18.336 18.0693 18.336C19.8213 18.336 21.1173 17.664 21.9813 16.584V18H25.0773V6H21.9813ZM18.6453 15.384C16.7493 15.384 15.3333 14.016 15.3333 12C15.3333 9.984 16.7493 8.616 18.6453 8.616C20.5653 8.616 21.9813 9.984 21.9813 12C21.9813 14.016 20.5653 15.384 18.6453 15.384ZM30.647 9.408C30.647 8.76 31.271 8.424 32.039 8.424C32.927 8.424 33.599 8.88 33.959 9.648L36.599 8.208C35.663 6.552 33.983 5.664 32.039 5.664C29.567 5.664 27.479 7.032 27.479 9.48C27.479 13.704 33.671 12.744 33.671 14.496C33.671 15.192 32.999 15.528 32.015 15.528C30.815 15.528 29.999 14.952 29.663 13.968L26.975 15.48C27.839 17.328 29.615 18.336 32.015 18.336C34.583 18.336 36.839 17.088 36.839 14.496C36.839 10.08 30.647 11.184 30.647 9.408ZM45.3425 8.976V6H42.6305V2.64L39.5345 3.576V6H37.4465V8.976H39.5345V13.968C39.5345 17.208 40.9985 18.48 45.3425 18V15.192C43.5665 15.288 42.6305 15.264 42.6305 13.968V8.976H45.3425ZM60.5289 1.2H53.8569V18H60.5289C65.1609 18 68.6169 14.328 68.6169 9.6C68.6169 4.872 65.1609 1.2 60.5289 1.2ZM60.5289 14.832H57.1689V4.368H60.5289C63.4329 4.368 65.4489 6.504 65.4489 9.6C65.4489 12.696 63.4329 14.832 60.5289 14.832ZM73.4383 13.272H82.4863C82.5583 12.864 82.6063 12.456 82.6063 12C82.6063 8.472 80.0863 5.664 76.5343 5.664C72.7663 5.664 70.1982 8.424 70.1982 12C70.1982 15.576 72.7423 18.336 76.7743 18.336C79.0783 18.336 80.8783 17.4 82.0063 15.768L79.5103 14.328C78.9823 15.024 78.0223 15.528 76.8223 15.528C75.1903 15.528 73.8703 14.856 73.4383 13.272ZM73.3903 10.872C73.7503 9.336 74.8783 8.448 76.5343 8.448C77.8303 8.448 79.1263 9.144 79.5103 10.872H73.3903ZM84.7676 18H87.8636V0.48H84.7676V18ZM92.2333 4.56C93.2893 4.56 94.1533 3.696 94.1533 2.664C94.1533 1.632 93.2893 0.743999 92.2333 0.743999C91.2013 0.743999 90.3373 1.632 90.3373 2.664C90.3373 3.696 91.2013 4.56 92.2333 4.56ZM90.6973 18H93.7933V6H90.6973V18ZM104.523 6L101.595 14.4L98.6909 6H95.2829L99.8429 18H103.371L107.931 6H104.523ZM111.571 13.272H120.619C120.691 12.864 120.739 12.456 120.739 12C120.739 8.472 118.219 5.664 114.667 5.664C110.899 5.664 108.331 8.424 108.331 12C108.331 15.576 110.875 18.336 114.907 18.336C117.211 18.336 119.011 17.4 120.139 15.768L117.643 14.328C117.115 15.024 116.155 15.528 114.955 15.528C113.323 15.528 112.003 14.856 111.571 13.272ZM111.523 10.872C111.883 9.336 113.011 8.448 114.667 8.448C115.963 8.448 117.259 9.144 117.643 10.872H111.523ZM125.996 8.064V6H122.9V18H125.996V12.264C125.996 9.744 128.036 9.024 129.644 9.216V5.76C128.132 5.76 126.62 6.432 125.996 8.064ZM139.537 6L136.873 14.064L133.753 6H130.369L135.289 17.616C134.713 19.224 133.849 19.944 132.145 19.92V22.8C135.193 22.968 137.233 21.456 138.481 18L142.849 6H139.537Z" fill="#2E2E2E"/>
</svg>
