<svg width="95" height="18" viewBox="0 0 95 18" fill="none" xmlns="http://www.w3.org/2000/svg">
<path d="M10.52 2.84V0.199999H0.68V17H3.44V10.184H10.28V7.544H3.44V2.84H10.52ZM14.9739 12.104H24.5259C24.5739 11.768 24.6219 11.384 24.6219 11.024C24.6219 7.568 22.1739 4.688 18.5979 4.688C14.8299 4.688 12.2619 7.448 12.2619 11C12.2619 14.6 14.8299 17.312 18.7899 17.312C21.1419 17.312 22.9419 16.328 24.0459 14.696L21.9099 13.448C21.3339 14.288 20.2539 14.936 18.8139 14.936C16.8939 14.936 15.3819 13.976 14.9739 12.104ZM14.9499 9.992C15.3099 8.192 16.6299 7.04 18.5739 7.04C20.1339 7.04 21.6459 7.928 22.0059 9.992H14.9499ZM36.3363 5V6.704C35.4243 5.456 34.0083 4.688 32.1363 4.688C28.8723 4.688 26.1603 7.424 26.1603 11C26.1603 14.552 28.8723 17.312 32.1363 17.312C34.0083 17.312 35.4243 16.544 36.3363 15.272V17H38.9283V5H36.3363ZM32.5443 14.84C30.3843 14.84 28.7523 13.232 28.7523 11C28.7523 8.768 30.3843 7.16 32.5443 7.16C34.7043 7.16 36.3363 8.768 36.3363 11C36.3363 13.232 34.7043 14.84 32.5443 14.84ZM48.6455 7.496V5H45.6695V1.64L43.0775 2.408V5H40.8695V7.496H43.0775V13.256C43.0775 16.376 44.6615 17.48 48.6455 17V14.672C46.6775 14.768 45.6695 14.792 45.6695 13.256V7.496H48.6455ZM59.2016 5V11.432C59.2016 13.88 57.8576 14.888 56.1536 14.888C54.5216 14.888 53.4656 13.928 53.4656 12.104V5H50.8736V12.368C50.8736 15.488 52.7936 17.312 55.4816 17.312C57.1136 17.312 58.4096 16.712 59.2016 15.464V17H61.7936V5H59.2016ZM67.4165 7.016V5H64.8245V17H67.4165V10.952C67.4165 8.264 69.4085 7.472 71.1125 7.592V4.784C69.6005 4.784 68.1365 5.384 67.4165 7.016ZM74.5051 12.104H84.0571C84.1051 11.768 84.1531 11.384 84.1531 11.024C84.1531 7.568 81.7051 4.688 78.1291 4.688C74.3611 4.688 71.7931 7.448 71.7931 11C71.7931 14.6 74.3611 17.312 78.3211 17.312C80.6731 17.312 82.4731 16.328 83.5771 14.696L81.4411 13.448C80.8651 14.288 79.7851 14.936 78.3451 14.936C76.4251 14.936 74.9131 13.976 74.5051 12.104ZM74.4811 9.992C74.8411 8.192 76.1611 7.04 78.1051 7.04C79.6651 7.04 81.1771 7.928 81.5371 9.992H74.4811ZM88.2931 8.312C88.2931 7.448 89.1091 7.04 90.0451 7.04C91.0291 7.04 91.8691 7.472 92.3011 8.408L94.4851 7.184C93.6451 5.6 92.0131 4.688 90.0451 4.688C87.5971 4.688 85.6531 6.104 85.6531 8.36C85.6531 12.656 92.1091 11.456 92.1091 13.592C92.1091 14.552 91.2211 14.936 90.0691 14.936C88.7491 14.936 87.7891 14.288 87.4051 13.208L85.1731 14.504C85.9411 16.232 87.6691 17.312 90.0691 17.312C92.6611 17.312 94.7491 16.016 94.7491 13.616C94.7491 9.176 88.2931 10.496 88.2931 8.312Z" fill="#FF9401"/>
</svg>
