<svg width="90" height="82" viewBox="0 0 90 82" fill="none" xmlns="http://www.w3.org/2000/svg">
<path d="M89.8945 22.9297C89.8594 22.8418 89.8066 22.7715 89.7539 22.6836C89.7012 22.6133 89.666 22.5254 89.6133 22.4727C89.543 22.4023 89.4551 22.3496 89.3672 22.2793C89.3145 22.2441 89.2617 22.1914 89.209 22.1562L45.6152 1.0625C45.5801 1.04492 45.5625 1.04492 45.5273 1.04492C45.4395 1.00977 45.3516 0.992187 45.2461 0.974609C45.1582 0.957031 45.0703 0.939453 44.9824 0.939453C44.8945 0.939453 44.8066 0.957031 44.7188 0.974609C44.6309 0.992187 44.543 1.00977 44.4551 1.04492C44.4199 1.0625 44.4023 1.04492 44.3672 1.0625L23.9062 10.9766V7.95312C24.6797 7.95312 25.3125 7.32031 25.3125 6.54688V2.32812C25.3125 1.55469 24.6797 0.921875 23.9062 0.921875H11.25C10.4766 0.921875 9.84375 1.55469 9.84375 2.32812V6.54688C9.84375 7.32031 10.4766 7.95312 11.25 7.95312V17.0938L0.791016 22.1562C0.720703 22.1914 0.685547 22.2441 0.632812 22.2793C0.544922 22.332 0.457031 22.3848 0.386719 22.4727C0.333984 22.543 0.28125 22.6133 0.246094 22.6836C0.193359 22.7539 0.140625 22.8242 0.105469 22.9297C0.0703125 23.0176 0.0527344 23.123 0.0527344 23.2285C0.0351562 23.2812 0 23.3516 0 23.4219V29.0469C0 29.0645 0 29.0645 0 29.082C0 29.1699 0.0351562 29.2578 0.0527344 29.3633C0.0703125 29.4512 0.0878906 29.5566 0.123047 29.627C0.123047 29.6445 0.123047 29.6445 0.123047 29.6621C0.193359 29.8027 0.28125 29.9258 0.386719 30.0137C0.404297 30.0312 0.439453 30.0488 0.457031 30.084C0.5625 30.1719 0.667969 30.2422 0.773438 30.2949C0.808594 30.3125 0.861328 30.3301 0.896484 30.3477C1.05469 30.4004 1.21289 30.4355 1.37109 30.4531C1.37109 30.4531 1.37109 30.4531 1.38867 30.4531C1.59961 30.4531 1.77539 30.4004 1.95117 30.3301C1.96875 30.3301 1.96875 30.3301 1.98633 30.3301L4.18359 29.2754V79.6719C4.18359 80.4453 4.81641 81.0781 5.58984 81.0781H84.3398C85.1133 81.0781 85.7461 80.4453 85.7461 79.6719V29.2578L87.9434 30.3301C87.9609 30.3301 87.9609 30.3301 87.9785 30.3301C88.1543 30.418 88.3477 30.4531 88.541 30.4531C88.541 30.4531 88.541 30.4531 88.5586 30.4531C88.7168 30.4531 88.8926 30.418 89.0332 30.3477C89.0859 30.3301 89.1211 30.3125 89.1562 30.2949C89.2793 30.2422 89.3848 30.1719 89.4727 30.084C89.4902 30.0664 89.5254 30.0488 89.543 30.0137C89.6484 29.9082 89.7363 29.7852 89.8066 29.6621C89.8066 29.6445 89.8066 29.6445 89.8066 29.627C89.8418 29.5391 89.8594 29.4512 89.877 29.3633C89.8945 29.2754 89.9297 29.1875 89.9297 29.082C89.9297 29.0645 89.9297 29.0645 89.9297 29.0469V23.4219C89.9297 23.3516 89.8945 23.2812 89.8945 23.2109C89.9473 23.123 89.9297 23.0176 89.8945 22.9297ZM45.6152 6.6875C45.5801 6.66992 45.5625 6.66992 45.5273 6.66992C45.4395 6.63477 45.3516 6.61719 45.2461 6.59961C45.1582 6.58203 45.0703 6.56445 44.9824 6.56445C44.8945 6.56445 44.8066 6.58203 44.7188 6.59961C44.6309 6.61719 44.543 6.63477 44.4551 6.66992C44.4199 6.6875 44.4023 6.66992 44.3672 6.6875L2.8125 26.7969V24.3008L45 3.89258L87.1875 24.3008V26.7969L45.6152 6.6875ZM12.6562 3.73438H22.5V5.14062H12.6562V3.73438ZM14.0625 7.95312H21.0938V12.3301L14.0625 15.7402V7.95312ZM82.9688 78.2656H7.03125V27.8867L45 9.51758L82.9688 27.8867V78.2656Z" fill="#2E2E2E"/>
</svg>
