<svg width="226" height="76" viewBox="0 0 226 76" fill="none" xmlns="http://www.w3.org/2000/svg">
<path d="M18.6802 14L14.3602 8.204L12.5422 10.148V14H10.7782V1.238H12.5422V7.808L18.5182 1.238H20.8402L15.5302 6.926L20.9122 14H18.6802ZM23.0868 8.78H27.8208C27.7968 8.132 27.5808 7.604 27.1728 7.196C26.7648 6.776 26.1888 6.566 25.4448 6.566C24.7728 6.566 24.2208 6.788 23.7888 7.232C23.3568 7.664 23.1228 8.18 23.0868 8.78ZM28.0728 11.03L29.5308 11.534C29.2788 12.338 28.8108 12.998 28.1268 13.514C27.4428 14.018 26.6148 14.27 25.6428 14.27C24.4308 14.27 23.3988 13.856 22.5468 13.028C21.7068 12.188 21.2868 11.06 21.2868 9.644C21.2868 8.324 21.6948 7.232 22.5108 6.368C23.3268 5.504 24.2988 5.072 25.4268 5.072C26.7348 5.072 27.7548 5.486 28.4868 6.314C29.2188 7.13 29.5848 8.228 29.5848 9.608C29.5848 9.824 29.5728 10.004 29.5488 10.148H23.0328C23.0448 10.916 23.2968 11.546 23.7888 12.038C24.2928 12.53 24.9108 12.776 25.6428 12.776C26.8788 12.776 27.6888 12.194 28.0728 11.03ZM32.8427 8.78H37.5767C37.5527 8.132 37.3367 7.604 36.9287 7.196C36.5207 6.776 35.9447 6.566 35.2007 6.566C34.5287 6.566 33.9767 6.788 33.5447 7.232C33.1127 7.664 32.8787 8.18 32.8427 8.78ZM37.8287 11.03L39.2867 11.534C39.0347 12.338 38.5667 12.998 37.8827 13.514C37.1987 14.018 36.3707 14.27 35.3987 14.27C34.1867 14.27 33.1547 13.856 32.3027 13.028C31.4627 12.188 31.0427 11.06 31.0427 9.644C31.0427 8.324 31.4507 7.232 32.2667 6.368C33.0827 5.504 34.0547 5.072 35.1827 5.072C36.4907 5.072 37.5107 5.486 38.2427 6.314C38.9747 7.13 39.3407 8.228 39.3407 9.608C39.3407 9.824 39.3287 10.004 39.3047 10.148H32.7887C32.8007 10.916 33.0527 11.546 33.5447 12.038C34.0487 12.53 34.6667 12.776 35.3987 12.776C36.6347 12.776 37.4447 12.194 37.8287 11.03ZM43.1745 17.42H41.5005V5.342H43.1385V6.692C43.3905 6.236 43.7685 5.864 44.2725 5.576C44.7765 5.288 45.3645 5.144 46.0365 5.144C47.2845 5.144 48.2565 5.57 48.9525 6.422C49.6605 7.274 50.0145 8.354 50.0145 9.662C50.0145 10.982 49.6485 12.074 48.9165 12.938C48.1965 13.802 47.2185 14.234 45.9825 14.234C45.3465 14.234 44.7825 14.102 44.2905 13.838C43.7985 13.574 43.4265 13.238 43.1745 12.83V17.42ZM48.2865 9.662C48.2865 8.786 48.0525 8.066 47.5845 7.502C47.1285 6.926 46.5105 6.638 45.7305 6.638C44.9625 6.638 44.3385 6.926 43.8585 7.502C43.3905 8.066 43.1565 8.786 43.1565 9.662C43.1565 10.562 43.3905 11.3 43.8585 11.876C44.3385 12.44 44.9625 12.722 45.7305 12.722C46.4985 12.722 47.1165 12.44 47.5845 11.876C48.0525 11.3 48.2865 10.562 48.2865 9.662ZM58.3625 8.906V14H56.6705V0.967999H58.3625V6.35C58.9385 5.51 59.8145 5.09 60.9905 5.09C61.9865 5.09 62.7485 5.408 63.2765 6.044C63.8165 6.68 64.0865 7.502 64.0865 8.51V14H62.3945V8.798C62.3945 7.346 61.7225 6.62 60.3785 6.62C59.7545 6.62 59.2685 6.836 58.9205 7.268C58.5725 7.688 58.3865 8.234 58.3625 8.906ZM67.8759 8.78H72.6099C72.5859 8.132 72.3699 7.604 71.9619 7.196C71.5539 6.776 70.9779 6.566 70.2339 6.566C69.5619 6.566 69.0099 6.788 68.5779 7.232C68.1459 7.664 67.9119 8.18 67.8759 8.78ZM72.8619 11.03L74.3199 11.534C74.0679 12.338 73.5999 12.998 72.9159 13.514C72.2319 14.018 71.4039 14.27 70.4319 14.27C69.2199 14.27 68.1879 13.856 67.3359 13.028C66.4959 12.188 66.0759 11.06 66.0759 9.644C66.0759 8.324 66.4839 7.232 67.2999 6.368C68.1159 5.504 69.0879 5.072 70.2159 5.072C71.5239 5.072 72.5439 5.486 73.2759 6.314C74.0079 7.13 74.3739 8.228 74.3739 9.608C74.3739 9.824 74.3619 10.004 74.3379 10.148H67.8219C67.8339 10.916 68.0859 11.546 68.5779 12.038C69.0819 12.53 69.6999 12.776 70.4319 12.776C71.6679 12.776 72.4779 12.194 72.8619 11.03ZM75.9938 11.678C75.9938 10.934 76.2338 10.34 76.7138 9.896C77.1938 9.44 77.8298 9.158 78.6218 9.05L80.9618 8.708C81.4058 8.648 81.6278 8.432 81.6278 8.06C81.6278 7.604 81.4718 7.232 81.1598 6.944C80.8478 6.656 80.3798 6.512 79.7558 6.512C79.1798 6.512 78.7238 6.674 78.3878 6.998C78.0518 7.31 77.8538 7.73 77.7938 8.258L76.1738 7.88C76.2578 7.052 76.6358 6.38 77.3078 5.864C77.9798 5.336 78.7838 5.072 79.7197 5.072C80.9438 5.072 81.8498 5.372 82.4378 5.972C83.0258 6.56 83.3198 7.316 83.3198 8.24V12.578C83.3198 13.094 83.3558 13.568 83.4278 14H81.7718C81.7118 13.64 81.6818 13.25 81.6818 12.83C81.4418 13.214 81.0878 13.55 80.6198 13.838C80.1638 14.126 79.5878 14.27 78.8918 14.27C78.0398 14.27 77.3438 14.018 76.8038 13.514C76.2638 12.998 75.9938 12.386 75.9938 11.678ZM79.1258 12.848C79.8818 12.848 80.4878 12.644 80.9438 12.236C81.3998 11.828 81.6278 11.18 81.6278 10.292V9.896L78.9818 10.292C78.5978 10.352 78.2918 10.49 78.0638 10.706C77.8358 10.922 77.7218 11.216 77.7218 11.588C77.7218 11.924 77.8478 12.218 78.0998 12.47C78.3638 12.722 78.7058 12.848 79.1258 12.848ZM87.6476 14H85.9556V0.967999H87.6476V14ZM92.7939 2.606V5.342H94.6659V6.872H92.7939V11.372C92.7939 11.78 92.8839 12.08 93.0639 12.272C93.2559 12.464 93.5679 12.56 93.9999 12.56C94.2519 12.56 94.4739 12.536 94.6659 12.488V13.928C94.3779 14.036 93.9939 14.09 93.5139 14.09C92.7699 14.09 92.1819 13.874 91.7499 13.442C91.3179 13.01 91.1019 12.404 91.1019 11.624V6.872H89.4459V5.342H89.9139C90.3579 5.342 90.6879 5.222 90.9039 4.982C91.1319 4.73 91.2459 4.406 91.2459 4.01V2.606H92.7939ZM98.6164 8.906V14H96.9244V0.967999H98.6164V6.35C99.1924 5.51 100.068 5.09 101.244 5.09C102.24 5.09 103.002 5.408 103.53 6.044C104.07 6.68 104.34 7.502 104.34 8.51V14H102.648V8.798C102.648 7.346 101.976 6.62 100.632 6.62C100.008 6.62 99.5224 6.836 99.1744 7.268C98.8264 7.688 98.6404 8.234 98.6164 8.906ZM109.192 17.618H107.338L109.498 13.046L105.772 5.342H107.716L110.416 11.318L113.008 5.342H114.826L109.192 17.618ZM125.31 6.872H123.222V14H121.476V6.872H119.874V5.342H121.476V3.884C121.476 2.96 121.746 2.234 122.286 1.706C122.826 1.178 123.504 0.913999 124.32 0.913999C124.836 0.913999 125.172 0.973999 125.328 1.094V2.606C125.148 2.534 124.902 2.498 124.59 2.498C124.218 2.498 123.894 2.612 123.618 2.84C123.354 3.056 123.222 3.434 123.222 3.974V5.342H125.31V6.872ZM128.554 11.948C129.082 12.488 129.724 12.758 130.48 12.758C131.236 12.758 131.872 12.488 132.388 11.948C132.916 11.396 133.18 10.634 133.18 9.662C133.18 8.702 132.916 7.952 132.388 7.412C131.872 6.86 131.236 6.584 130.48 6.584C129.724 6.584 129.082 6.86 128.554 7.412C128.038 7.952 127.78 8.702 127.78 9.662C127.78 10.634 128.038 11.396 128.554 11.948ZM127.294 6.386C128.134 5.51 129.196 5.072 130.48 5.072C131.764 5.072 132.82 5.51 133.648 6.386C134.488 7.25 134.908 8.342 134.908 9.662C134.908 10.994 134.494 12.098 133.666 12.974C132.838 13.838 131.776 14.27 130.48 14.27C129.184 14.27 128.122 13.838 127.294 12.974C126.466 12.098 126.052 10.994 126.052 9.662C126.052 8.342 126.466 7.25 127.294 6.386ZM138.855 11.948C139.383 12.488 140.025 12.758 140.781 12.758C141.537 12.758 142.173 12.488 142.689 11.948C143.217 11.396 143.481 10.634 143.481 9.662C143.481 8.702 143.217 7.952 142.689 7.412C142.173 6.86 141.537 6.584 140.781 6.584C140.025 6.584 139.383 6.86 138.855 7.412C138.339 7.952 138.081 8.702 138.081 9.662C138.081 10.634 138.339 11.396 138.855 11.948ZM137.595 6.386C138.435 5.51 139.497 5.072 140.781 5.072C142.065 5.072 143.121 5.51 143.949 6.386C144.789 7.25 145.209 8.342 145.209 9.662C145.209 10.994 144.795 12.098 143.967 12.974C143.139 13.838 142.077 14.27 140.781 14.27C139.485 14.27 138.423 13.838 137.595 12.974C136.767 12.098 136.353 10.994 136.353 9.662C136.353 8.342 136.767 7.25 137.595 6.386ZM148.382 9.644C148.382 10.556 148.604 11.3 149.048 11.876C149.504 12.452 150.128 12.74 150.92 12.74C151.676 12.74 152.282 12.446 152.738 11.858C153.194 11.27 153.422 10.52 153.422 9.608C153.422 8.708 153.2 7.982 152.756 7.43C152.312 6.878 151.706 6.602 150.938 6.602C150.17 6.602 149.552 6.884 149.084 7.448C148.616 8.012 148.382 8.744 148.382 9.644ZM153.44 12.83V12.686C153.212 13.13 152.864 13.502 152.396 13.802C151.94 14.09 151.394 14.234 150.758 14.234C149.522 14.234 148.526 13.802 147.77 12.938C147.026 12.062 146.654 10.964 146.654 9.644C146.654 8.384 147.038 7.316 147.806 6.44C148.574 5.552 149.558 5.108 150.758 5.108C151.466 5.108 152.042 5.252 152.486 5.54C152.93 5.816 153.236 6.158 153.404 6.566V0.967999H155.078V12.398C155.078 12.986 155.108 13.52 155.168 14H153.53C153.47 13.664 153.44 13.274 153.44 12.83ZM167.262 5.252V7.052C167.01 7.016 166.764 6.998 166.524 6.998C164.94 6.998 164.148 7.886 164.148 9.662V14H162.456V5.342H164.112V6.854C164.64 5.75 165.504 5.198 166.704 5.198C166.896 5.198 167.082 5.216 167.262 5.252ZM170.075 8.78H174.809C174.785 8.132 174.569 7.604 174.161 7.196C173.753 6.776 173.177 6.566 172.433 6.566C171.761 6.566 171.209 6.788 170.777 7.232C170.345 7.664 170.111 8.18 170.075 8.78ZM175.061 11.03L176.519 11.534C176.267 12.338 175.799 12.998 175.115 13.514C174.431 14.018 173.603 14.27 172.631 14.27C171.419 14.27 170.387 13.856 169.535 13.028C168.695 12.188 168.275 11.06 168.275 9.644C168.275 8.324 168.683 7.232 169.499 6.368C170.315 5.504 171.287 5.072 172.415 5.072C173.723 5.072 174.743 5.486 175.475 6.314C176.207 7.13 176.573 8.228 176.573 9.608C176.573 9.824 176.561 10.004 176.537 10.148H170.021C170.033 10.916 170.285 11.546 170.777 12.038C171.281 12.53 171.899 12.776 172.631 12.776C173.867 12.776 174.677 12.194 175.061 11.03ZM178.193 11.678C178.193 10.934 178.433 10.34 178.913 9.896C179.393 9.44 180.029 9.158 180.821 9.05L183.161 8.708C183.605 8.648 183.827 8.432 183.827 8.06C183.827 7.604 183.671 7.232 183.359 6.944C183.047 6.656 182.579 6.512 181.955 6.512C181.379 6.512 180.923 6.674 180.587 6.998C180.251 7.31 180.053 7.73 179.993 8.258L178.373 7.88C178.457 7.052 178.835 6.38 179.507 5.864C180.179 5.336 180.983 5.072 181.919 5.072C183.143 5.072 184.049 5.372 184.637 5.972C185.225 6.56 185.519 7.316 185.519 8.24V12.578C185.519 13.094 185.555 13.568 185.627 14H183.971C183.911 13.64 183.881 13.25 183.881 12.83C183.641 13.214 183.287 13.55 182.819 13.838C182.363 14.126 181.787 14.27 181.091 14.27C180.239 14.27 179.543 14.018 179.003 13.514C178.463 12.998 178.193 12.386 178.193 11.678ZM181.325 12.848C182.081 12.848 182.687 12.644 183.143 12.236C183.599 11.828 183.827 11.18 183.827 10.292V9.896L181.181 10.292C180.797 10.352 180.491 10.49 180.263 10.706C180.035 10.922 179.921 11.216 179.921 11.588C179.921 11.924 180.047 12.218 180.299 12.47C180.563 12.722 180.905 12.848 181.325 12.848ZM189.163 9.644C189.163 10.556 189.385 11.3 189.829 11.876C190.285 12.452 190.909 12.74 191.701 12.74C192.457 12.74 193.063 12.446 193.519 11.858C193.975 11.27 194.203 10.52 194.203 9.608C194.203 8.708 193.981 7.982 193.537 7.43C193.093 6.878 192.487 6.602 191.719 6.602C190.951 6.602 190.333 6.884 189.865 7.448C189.397 8.012 189.163 8.744 189.163 9.644ZM194.221 12.83V12.686C193.993 13.13 193.645 13.502 193.177 13.802C192.721 14.09 192.175 14.234 191.539 14.234C190.303 14.234 189.307 13.802 188.551 12.938C187.807 12.062 187.435 10.964 187.435 9.644C187.435 8.384 187.819 7.316 188.587 6.44C189.355 5.552 190.339 5.108 191.539 5.108C192.247 5.108 192.823 5.252 193.267 5.54C193.711 5.816 194.017 6.158 194.185 6.566V0.967999H195.859V12.398C195.859 12.986 195.889 13.52 195.949 14H194.311C194.251 13.664 194.221 13.274 194.221 12.83ZM200.411 14H198.737V5.342H200.411V14ZM198.701 2.93C198.473 2.69 198.359 2.402 198.359 2.066C198.359 1.73 198.473 1.442 198.701 1.202C198.941 0.962 199.229 0.842 199.565 0.842C199.901 0.842 200.189 0.962 200.429 1.202C200.669 1.43 200.789 1.718 200.789 2.066C200.789 2.402 200.669 2.69 200.429 2.93C200.189 3.158 199.901 3.272 199.565 3.272C199.229 3.272 198.941 3.158 198.701 2.93ZM204.982 14H203.29V0.967999H204.982V14ZM210.02 17.618H208.166L210.326 13.046L206.6 5.342H208.544L211.244 11.318L213.836 5.342H215.654L210.02 17.618ZM16.5621 40.678C16.5621 39.934 16.8021 39.34 17.2821 38.896C17.7621 38.44 18.3981 38.158 19.1901 38.05L21.5301 37.708C21.9741 37.648 22.1961 37.432 22.1961 37.06C22.1961 36.604 22.0401 36.232 21.7281 35.944C21.4161 35.656 20.9481 35.512 20.3241 35.512C19.7481 35.512 19.2921 35.674 18.9561 35.998C18.6201 36.31 18.4221 36.73 18.3621 37.258L16.7421 36.88C16.8261 36.052 17.2041 35.38 17.8761 34.864C18.5481 34.336 19.3521 34.072 20.2881 34.072C21.5121 34.072 22.4181 34.372 23.0061 34.972C23.5941 35.56 23.8881 36.316 23.8881 37.24V41.578C23.8881 42.094 23.9241 42.568 23.9961 43H22.3401C22.2801 42.64 22.2501 42.25 22.2501 41.83C22.0101 42.214 21.6561 42.55 21.1881 42.838C20.7321 43.126 20.1561 43.27 19.4601 43.27C18.6081 43.27 17.9121 43.018 17.3721 42.514C16.8321 41.998 16.5621 41.386 16.5621 40.678ZM19.6941 41.848C20.4501 41.848 21.0561 41.644 21.5121 41.236C21.9681 40.828 22.1961 40.18 22.1961 39.292V38.896L19.5501 39.292C19.1661 39.352 18.8601 39.49 18.6321 39.706C18.4041 39.922 18.2901 40.216 18.2901 40.588C18.2901 40.924 18.4161 41.218 18.6681 41.47C18.9321 41.722 19.2741 41.848 19.6941 41.848ZM33.94 34.342L30.484 43H28.774L25.264 34.342H27.172L29.638 41.02L32.122 34.342H33.94ZM34.9313 40.678C34.9313 39.934 35.1713 39.34 35.6513 38.896C36.1313 38.44 36.7673 38.158 37.5593 38.05L39.8993 37.708C40.3433 37.648 40.5653 37.432 40.5653 37.06C40.5653 36.604 40.4093 36.232 40.0973 35.944C39.7853 35.656 39.3173 35.512 38.6933 35.512C38.1173 35.512 37.6613 35.674 37.3253 35.998C36.9893 36.31 36.7913 36.73 36.7313 37.258L35.1113 36.88C35.1953 36.052 35.5733 35.38 36.2453 34.864C36.9173 34.336 37.7213 34.072 38.6572 34.072C39.8813 34.072 40.7873 34.372 41.3753 34.972C41.9633 35.56 42.2573 36.316 42.2573 37.24V41.578C42.2573 42.094 42.2933 42.568 42.3653 43H40.7093C40.6493 42.64 40.6193 42.25 40.6193 41.83C40.3793 42.214 40.0253 42.55 39.5573 42.838C39.1013 43.126 38.5253 43.27 37.8293 43.27C36.9773 43.27 36.2813 43.018 35.7413 42.514C35.2013 41.998 34.9313 41.386 34.9313 40.678ZM38.0633 41.848C38.8193 41.848 39.4253 41.644 39.8813 41.236C40.3373 40.828 40.5653 40.18 40.5653 39.292V38.896L37.9193 39.292C37.5353 39.352 37.2293 39.49 37.0013 39.706C36.7733 39.922 36.6593 40.216 36.6593 40.588C36.6593 40.924 36.7853 41.218 37.0373 41.47C37.3013 41.722 37.6433 41.848 38.0633 41.848ZM46.5671 43H44.8931V34.342H46.5671V43ZM44.8571 31.93C44.6291 31.69 44.5151 31.402 44.5151 31.066C44.5151 30.73 44.6291 30.442 44.8571 30.202C45.0971 29.962 45.3851 29.842 45.7211 29.842C46.0571 29.842 46.3451 29.962 46.5851 30.202C46.8251 30.43 46.9451 30.718 46.9451 31.066C46.9451 31.402 46.8251 31.69 46.5851 31.93C46.3451 32.158 46.0571 32.272 45.7211 32.272C45.3851 32.272 45.0971 32.158 44.8571 31.93ZM51.1379 43H49.4459V29.968H51.1379V43ZM53.4762 40.678C53.4762 39.934 53.7162 39.34 54.1962 38.896C54.6762 38.44 55.3122 38.158 56.1042 38.05L58.4442 37.708C58.8882 37.648 59.1102 37.432 59.1102 37.06C59.1102 36.604 58.9542 36.232 58.6422 35.944C58.3302 35.656 57.8622 35.512 57.2382 35.512C56.6622 35.512 56.2062 35.674 55.8702 35.998C55.5342 36.31 55.3362 36.73 55.2762 37.258L53.6562 36.88C53.7402 36.052 54.1182 35.38 54.7902 34.864C55.4622 34.336 56.2662 34.072 57.2022 34.072C58.4262 34.072 59.3322 34.372 59.9202 34.972C60.5082 35.56 60.8022 36.316 60.8022 37.24V41.578C60.8022 42.094 60.8382 42.568 60.9102 43H59.2542C59.1942 42.64 59.1642 42.25 59.1642 41.83C58.9242 42.214 58.5702 42.55 58.1022 42.838C57.6462 43.126 57.0702 43.27 56.3742 43.27C55.5222 43.27 54.8262 43.018 54.2862 42.514C53.7462 41.998 53.4762 41.386 53.4762 40.678ZM56.6082 41.848C57.3642 41.848 57.9702 41.644 58.4262 41.236C58.8822 40.828 59.1102 40.18 59.1102 39.292V38.896L56.4642 39.292C56.0802 39.352 55.7742 39.49 55.5462 39.706C55.3182 39.922 55.2042 40.216 55.2042 40.588C55.2042 40.924 55.3302 41.218 55.5822 41.47C55.8462 41.722 56.1882 41.848 56.6082 41.848ZM65.112 43H63.438V29.968H65.112V35.566C65.34 35.146 65.7 34.798 66.192 34.522C66.696 34.234 67.29 34.09 67.974 34.09C69.234 34.09 70.212 34.516 70.908 35.368C71.604 36.22 71.952 37.306 71.952 38.626C71.952 39.958 71.592 41.062 70.872 41.938C70.152 42.802 69.168 43.234 67.92 43.234C66.624 43.234 65.688 42.736 65.112 41.74V43ZM69.522 40.876C69.99 40.312 70.224 39.562 70.224 38.626C70.224 37.69 69.99 36.952 69.522 36.412C69.066 35.86 68.448 35.584 67.668 35.584C66.912 35.584 66.294 35.86 65.814 36.412C65.334 36.964 65.094 37.702 65.094 38.626C65.094 39.55 65.334 40.3 65.814 40.876C66.294 41.44 66.912 41.722 67.668 41.722C68.436 41.722 69.054 41.44 69.522 40.876ZM75.8 43H74.108V29.968H75.8V43ZM79.7763 37.78H84.5103C84.4863 37.132 84.2703 36.604 83.8623 36.196C83.4543 35.776 82.8783 35.566 82.1343 35.566C81.4623 35.566 80.9103 35.788 80.4783 36.232C80.0463 36.664 79.8123 37.18 79.7763 37.78ZM84.7623 40.03L86.2203 40.534C85.9683 41.338 85.5003 41.998 84.8163 42.514C84.1323 43.018 83.3043 43.27 82.3323 43.27C81.1203 43.27 80.0883 42.856 79.2363 42.028C78.3963 41.188 77.9763 40.06 77.9763 38.644C77.9763 37.324 78.3843 36.232 79.2003 35.368C80.0163 34.504 80.9883 34.072 82.1163 34.072C83.4243 34.072 84.4443 34.486 85.1763 35.314C85.9083 36.13 86.2743 37.228 86.2743 38.608C86.2743 38.824 86.2623 39.004 86.2383 39.148H79.7223C79.7343 39.916 79.9863 40.546 80.4783 41.038C80.9823 41.53 81.6003 41.776 82.3323 41.776C83.5683 41.776 84.3783 41.194 84.7623 40.03ZM88.3505 42.73C88.1105 42.49 87.9905 42.196 87.9905 41.848C87.9905 41.5 88.1105 41.206 88.3505 40.966C88.5905 40.714 88.8845 40.588 89.2325 40.588C89.5805 40.588 89.8745 40.714 90.1145 40.966C90.3665 41.206 90.4925 41.5 90.4925 41.848C90.4925 42.196 90.3665 42.49 90.1145 42.73C89.8745 42.97 89.5805 43.09 89.2325 43.09C88.8845 43.09 88.5905 42.97 88.3505 42.73ZM109.488 40.336L112.242 30.238H114.06L110.424 43H108.606L105.276 32.65L101.982 43H100.218L96.5278 30.238H98.3458L101.154 40.228L104.358 30.238H106.212L109.488 40.336ZM117.46 37.906V43H115.768V29.968H117.46V35.35C118.036 34.51 118.912 34.09 120.088 34.09C121.084 34.09 121.846 34.408 122.374 35.044C122.914 35.68 123.184 36.502 123.184 37.51V43H121.492V37.798C121.492 36.346 120.82 35.62 119.476 35.62C118.852 35.62 118.366 35.836 118.018 36.268C117.67 36.688 117.484 37.234 117.46 37.906ZM126.974 37.78H131.708C131.684 37.132 131.468 36.604 131.06 36.196C130.652 35.776 130.076 35.566 129.332 35.566C128.66 35.566 128.108 35.788 127.676 36.232C127.244 36.664 127.01 37.18 126.974 37.78ZM131.96 40.03L133.418 40.534C133.166 41.338 132.698 41.998 132.014 42.514C131.33 43.018 130.502 43.27 129.53 43.27C128.318 43.27 127.286 42.856 126.434 42.028C125.594 41.188 125.174 40.06 125.174 38.644C125.174 37.324 125.582 36.232 126.398 35.368C127.214 34.504 128.186 34.072 129.314 34.072C130.622 34.072 131.642 34.486 132.374 35.314C133.106 36.13 133.472 37.228 133.472 38.608C133.472 38.824 133.46 39.004 133.436 39.148H126.92C126.932 39.916 127.184 40.546 127.676 41.038C128.18 41.53 128.798 41.776 129.53 41.776C130.766 41.776 131.576 41.194 131.96 40.03ZM137.323 37.996V43H135.631V34.342H137.287V35.584C137.863 34.588 138.751 34.09 139.951 34.09C140.947 34.09 141.709 34.408 142.237 35.044C142.777 35.68 143.047 36.502 143.047 37.51V43H141.355V37.798C141.355 36.346 140.683 35.62 139.339 35.62C138.703 35.62 138.205 35.848 137.845 36.304C137.497 36.748 137.323 37.312 137.323 37.996ZM152.399 46.618H150.545L152.705 42.046L148.979 34.342H150.923L153.623 40.318L156.215 34.342H158.033L152.399 46.618ZM161.091 40.948C161.619 41.488 162.261 41.758 163.017 41.758C163.773 41.758 164.409 41.488 164.925 40.948C165.453 40.396 165.717 39.634 165.717 38.662C165.717 37.702 165.453 36.952 164.925 36.412C164.409 35.86 163.773 35.584 163.017 35.584C162.261 35.584 161.619 35.86 161.091 36.412C160.575 36.952 160.317 37.702 160.317 38.662C160.317 39.634 160.575 40.396 161.091 40.948ZM159.831 35.386C160.671 34.51 161.733 34.072 163.017 34.072C164.301 34.072 165.357 34.51 166.185 35.386C167.025 36.25 167.445 37.342 167.445 38.662C167.445 39.994 167.031 41.098 166.203 41.974C165.375 42.838 164.313 43.27 163.017 43.27C161.721 43.27 160.659 42.838 159.831 41.974C159.003 41.098 158.589 39.994 158.589 38.662C158.589 37.342 159.003 36.25 159.831 35.386ZM175.228 41.956C175 42.388 174.652 42.718 174.184 42.946C173.716 43.162 173.212 43.27 172.672 43.27C171.688 43.27 170.902 42.946 170.314 42.298C169.726 41.638 169.432 40.804 169.432 39.796V34.342H171.124V39.544C171.124 40.192 171.28 40.726 171.592 41.146C171.916 41.566 172.414 41.776 173.086 41.776C173.758 41.776 174.268 41.578 174.616 41.182C174.964 40.774 175.138 40.234 175.138 39.562V34.342H176.83V41.398C176.83 41.962 176.86 42.496 176.92 43H175.3C175.252 42.736 175.228 42.388 175.228 41.956ZM183.587 43.468L185.225 43.09C185.285 43.702 185.531 44.206 185.963 44.602C186.395 45.01 186.935 45.214 187.583 45.214C189.347 45.214 190.229 44.278 190.229 42.406V41.164C190.013 41.584 189.671 41.926 189.203 42.19C188.747 42.454 188.207 42.586 187.583 42.586C186.431 42.586 185.477 42.196 184.721 41.416C183.977 40.624 183.605 39.616 183.605 38.392C183.605 37.204 183.977 36.208 184.721 35.404C185.465 34.588 186.419 34.18 187.583 34.18C188.903 34.18 189.791 34.636 190.247 35.548V34.342H191.921V42.352C191.921 42.928 191.843 43.462 191.687 43.954C191.543 44.458 191.309 44.92 190.985 45.34C190.661 45.76 190.205 46.09 189.617 46.33C189.041 46.57 188.363 46.69 187.583 46.69C186.515 46.69 185.609 46.384 184.865 45.772C184.121 45.172 183.695 44.404 183.587 43.468ZM187.835 41.164C188.567 41.164 189.161 40.912 189.617 40.408C190.073 39.892 190.301 39.22 190.301 38.392C190.301 37.564 190.073 36.898 189.617 36.394C189.161 35.878 188.567 35.62 187.835 35.62C187.091 35.62 186.485 35.872 186.017 36.376C185.561 36.88 185.333 37.552 185.333 38.392C185.333 39.244 185.555 39.922 185.999 40.426C186.455 40.918 187.067 41.164 187.835 41.164ZM195.722 37.78H200.456C200.432 37.132 200.216 36.604 199.808 36.196C199.4 35.776 198.824 35.566 198.08 35.566C197.408 35.566 196.856 35.788 196.424 36.232C195.992 36.664 195.758 37.18 195.722 37.78ZM200.708 40.03L202.166 40.534C201.914 41.338 201.446 41.998 200.762 42.514C200.078 43.018 199.25 43.27 198.278 43.27C197.066 43.27 196.034 42.856 195.182 42.028C194.342 41.188 193.922 40.06 193.922 38.644C193.922 37.324 194.33 36.232 195.146 35.368C195.962 34.504 196.934 34.072 198.062 34.072C199.37 34.072 200.39 34.486 201.122 35.314C201.854 36.13 202.22 37.228 202.22 38.608C202.22 38.824 202.208 39.004 202.184 39.148H195.668C195.68 39.916 195.932 40.546 196.424 41.038C196.928 41.53 197.546 41.776 198.278 41.776C199.514 41.776 200.324 41.194 200.708 40.03ZM206.647 31.606V34.342H208.519V35.872H206.647V40.372C206.647 40.78 206.737 41.08 206.917 41.272C207.109 41.464 207.421 41.56 207.853 41.56C208.105 41.56 208.327 41.536 208.519 41.488V42.928C208.231 43.036 207.847 43.09 207.367 43.09C206.623 43.09 206.035 42.874 205.603 42.442C205.171 42.01 204.955 41.404 204.955 40.624V35.872H203.299V34.342H203.767C204.211 34.342 204.541 34.222 204.757 33.982C204.985 33.73 205.099 33.406 205.099 33.01V31.606H206.647ZM1.73454 66.906V72H0.0425392V58.968H1.73454V64.35C2.31054 63.51 3.18654 63.09 4.36254 63.09C5.35854 63.09 6.12054 63.408 6.64854 64.044C7.18854 64.68 7.45854 65.502 7.45854 66.51V72H5.76654V66.798C5.76654 65.346 5.09454 64.62 3.75054 64.62C3.12654 64.62 2.64054 64.836 2.29254 65.268C1.94454 65.688 1.75854 66.234 1.73454 66.906ZM15.6802 70.956C15.4522 71.388 15.1042 71.718 14.6362 71.946C14.1682 72.162 13.6642 72.27 13.1242 72.27C12.1402 72.27 11.3542 71.946 10.7662 71.298C10.1782 70.638 9.88418 69.804 9.88418 68.796V63.342H11.5762V68.544C11.5762 69.192 11.7322 69.726 12.0442 70.146C12.3682 70.566 12.8662 70.776 13.5382 70.776C14.2102 70.776 14.7202 70.578 15.0682 70.182C15.4162 69.774 15.5902 69.234 15.5902 68.562V63.342H17.2822V70.398C17.2822 70.962 17.3122 71.496 17.3722 72H15.7522C15.7042 71.736 15.6802 71.388 15.6802 70.956ZM21.8615 66.996V72H20.1695V63.342H21.8255V64.584C22.4015 63.588 23.2895 63.09 24.4895 63.09C25.4855 63.09 26.2475 63.408 26.7755 64.044C27.3155 64.68 27.5855 65.502 27.5855 66.51V72H25.8935V66.798C25.8935 65.346 25.2215 64.62 23.8775 64.62C23.2415 64.62 22.7435 64.848 22.3835 65.304C22.0355 65.748 21.8615 66.312 21.8615 66.996ZM29.6469 72.468L31.2849 72.09C31.3449 72.702 31.5909 73.206 32.0229 73.602C32.4549 74.01 32.9949 74.214 33.6429 74.214C35.4069 74.214 36.2889 73.278 36.2889 71.406V70.164C36.0729 70.584 35.7309 70.926 35.2629 71.19C34.8069 71.454 34.2669 71.586 33.6429 71.586C32.4909 71.586 31.5369 71.196 30.7809 70.416C30.0369 69.624 29.6649 68.616 29.6649 67.392C29.6649 66.204 30.0369 65.208 30.7809 64.404C31.5249 63.588 32.4789 63.18 33.6429 63.18C34.9629 63.18 35.8509 63.636 36.3069 64.548V63.342H37.9809V71.352C37.9809 71.928 37.9029 72.462 37.7469 72.954C37.6029 73.458 37.3689 73.92 37.0449 74.34C36.7209 74.76 36.2649 75.09 35.6769 75.33C35.1009 75.57 34.4229 75.69 33.6429 75.69C32.5749 75.69 31.6689 75.384 30.9249 74.772C30.1809 74.172 29.7549 73.404 29.6469 72.468ZM33.8949 70.164C34.6269 70.164 35.2209 69.912 35.6769 69.408C36.1329 68.892 36.3609 68.22 36.3609 67.392C36.3609 66.564 36.1329 65.898 35.6769 65.394C35.2209 64.878 34.6269 64.62 33.8949 64.62C33.1509 64.62 32.5449 64.872 32.0769 65.376C31.6209 65.88 31.3929 66.552 31.3929 67.392C31.3929 68.244 31.6149 68.922 32.0589 69.426C32.5149 69.918 33.1269 70.164 33.8949 70.164ZM45.4892 63.252V65.052C45.2372 65.016 44.9912 64.998 44.7512 64.998C43.1672 64.998 42.3752 65.886 42.3752 67.662V72H40.6832V63.342H42.3392V64.854C42.8672 63.75 43.7312 63.198 44.9312 63.198C45.1232 63.198 45.3092 63.216 45.4892 63.252ZM49.7162 75.618H47.8622L50.0222 71.046L46.2962 63.342H48.2402L50.9402 69.318L53.5322 63.342H55.3502L49.7162 75.618ZM54.8118 70.848C54.8118 70.524 54.9378 70.242 55.1898 70.002C55.4418 69.762 55.7538 69.642 56.1258 69.642C56.5338 69.642 56.8758 69.792 57.1518 70.092C57.4398 70.392 57.5838 70.812 57.5838 71.352C57.5838 72.432 57.3078 73.266 56.7558 73.854C56.2038 74.442 55.5918 74.778 54.9198 74.862V73.926C55.3518 73.83 55.7058 73.59 55.9818 73.206C56.2578 72.834 56.4018 72.426 56.4138 71.982C56.3298 72.042 56.1978 72.072 56.0178 72.072C55.6698 72.072 55.3818 71.964 55.1538 71.748C54.9258 71.52 54.8118 71.22 54.8118 70.848ZM66.9428 75.618H65.0888L67.2488 71.046L63.5228 63.342H65.4668L68.1668 69.318L70.7588 63.342H72.5768L66.9428 75.618ZM75.6351 69.948C76.1631 70.488 76.8051 70.758 77.5611 70.758C78.3171 70.758 78.9531 70.488 79.4691 69.948C79.9971 69.396 80.2611 68.634 80.2611 67.662C80.2611 66.702 79.9971 65.952 79.4691 65.412C78.9531 64.86 78.3171 64.584 77.5611 64.584C76.8051 64.584 76.1631 64.86 75.6351 65.412C75.1191 65.952 74.8611 66.702 74.8611 67.662C74.8611 68.634 75.1191 69.396 75.6351 69.948ZM74.3751 64.386C75.2151 63.51 76.2771 63.072 77.5611 63.072C78.8451 63.072 79.9011 63.51 80.7291 64.386C81.5691 65.25 81.9891 66.342 81.9891 67.662C81.9891 68.994 81.5751 70.098 80.7471 70.974C79.9191 71.838 78.8571 72.27 77.5611 72.27C76.2651 72.27 75.2031 71.838 74.3751 70.974C73.5471 70.098 73.1331 68.994 73.1331 67.662C73.1331 66.342 73.5471 65.25 74.3751 64.386ZM89.772 70.956C89.544 71.388 89.196 71.718 88.728 71.946C88.26 72.162 87.756 72.27 87.216 72.27C86.232 72.27 85.446 71.946 84.858 71.298C84.27 70.638 83.976 69.804 83.976 68.796V63.342H85.668V68.544C85.668 69.192 85.824 69.726 86.136 70.146C86.46 70.566 86.958 70.776 87.63 70.776C88.302 70.776 88.812 70.578 89.16 70.182C89.508 69.774 89.682 69.234 89.682 68.562V63.342H91.374V70.398C91.374 70.962 91.404 71.496 91.464 72H89.844C89.796 71.736 89.772 71.388 89.772 70.956ZM93.5413 60.192C93.5413 59.892 93.6553 59.634 93.8833 59.418C94.1233 59.19 94.4173 59.076 94.7653 59.076C95.1493 59.076 95.4733 59.214 95.7373 59.49C96.0013 59.766 96.1333 60.156 96.1333 60.66C96.1333 61.668 95.8753 62.448 95.3593 63C94.8553 63.552 94.2853 63.864 93.6493 63.936V63.072C94.0453 62.988 94.3693 62.772 94.6213 62.424C94.8853 62.064 95.0233 61.674 95.0353 61.254C94.9513 61.314 94.8313 61.344 94.6753 61.344C94.3513 61.344 94.0813 61.242 93.8653 61.038C93.6493 60.822 93.5413 60.54 93.5413 60.192ZM102.372 63.252V65.052C102.12 65.016 101.874 64.998 101.634 64.998C100.05 64.998 99.258 65.886 99.258 67.662V72H97.566V63.342H99.222V64.854C99.75 63.75 100.614 63.198 101.814 63.198C102.006 63.198 102.192 63.216 102.372 63.252ZM105.185 66.78H109.919C109.895 66.132 109.679 65.604 109.271 65.196C108.863 64.776 108.287 64.566 107.543 64.566C106.871 64.566 106.319 64.788 105.887 65.232C105.455 65.664 105.221 66.18 105.185 66.78ZM110.171 69.03L111.629 69.534C111.377 70.338 110.909 70.998 110.225 71.514C109.541 72.018 108.713 72.27 107.741 72.27C106.529 72.27 105.497 71.856 104.645 71.028C103.805 70.188 103.385 69.06 103.385 67.644C103.385 66.324 103.793 65.232 104.609 64.368C105.425 63.504 106.397 63.072 107.525 63.072C108.833 63.072 109.853 63.486 110.585 64.314C111.317 65.13 111.683 66.228 111.683 67.608C111.683 67.824 111.671 68.004 111.647 68.148H105.131C105.143 68.916 105.395 69.546 105.887 70.038C106.391 70.53 107.009 70.776 107.741 70.776C108.977 70.776 109.787 70.194 110.171 69.03ZM120.017 72H118.343V63.342H119.963V64.494C120.227 64.038 120.599 63.69 121.079 63.45C121.559 63.21 122.063 63.09 122.591 63.09C123.155 63.09 123.671 63.228 124.139 63.504C124.607 63.78 124.955 64.188 125.183 64.728C125.783 63.636 126.749 63.09 128.081 63.09C128.909 63.09 129.611 63.372 130.187 63.936C130.775 64.5 131.069 65.316 131.069 66.384V72H129.395V66.564C129.395 65.964 129.239 65.484 128.927 65.124C128.627 64.764 128.171 64.584 127.559 64.584C126.971 64.584 126.491 64.794 126.119 65.214C125.747 65.622 125.561 66.138 125.561 66.762V72H123.869V66.564C123.869 65.964 123.713 65.484 123.401 65.124C123.101 64.764 122.645 64.584 122.033 64.584C121.433 64.584 120.947 64.788 120.575 65.196C120.203 65.604 120.017 66.132 120.017 66.78V72ZM135.559 69.948C136.087 70.488 136.729 70.758 137.485 70.758C138.241 70.758 138.877 70.488 139.393 69.948C139.921 69.396 140.185 68.634 140.185 67.662C140.185 66.702 139.921 65.952 139.393 65.412C138.877 64.86 138.241 64.584 137.485 64.584C136.729 64.584 136.087 64.86 135.559 65.412C135.043 65.952 134.785 66.702 134.785 67.662C134.785 68.634 135.043 69.396 135.559 69.948ZM134.299 64.386C135.139 63.51 136.201 63.072 137.485 63.072C138.769 63.072 139.825 63.51 140.653 64.386C141.493 65.25 141.913 66.342 141.913 67.662C141.913 68.994 141.499 70.098 140.671 70.974C139.843 71.838 138.781 72.27 137.485 72.27C136.189 72.27 135.127 71.838 134.299 70.974C133.471 70.098 133.057 68.994 133.057 67.662C133.057 66.342 133.471 65.25 134.299 64.386ZM148.884 63.252V65.052C148.632 65.016 148.386 64.998 148.146 64.998C146.562 64.998 145.77 65.886 145.77 67.662V72H144.078V63.342H145.734V64.854C146.262 63.75 147.126 63.198 148.326 63.198C148.518 63.198 148.704 63.216 148.884 63.252ZM151.697 66.78H156.431C156.407 66.132 156.191 65.604 155.783 65.196C155.375 64.776 154.799 64.566 154.055 64.566C153.383 64.566 152.831 64.788 152.399 65.232C151.967 65.664 151.733 66.18 151.697 66.78ZM156.683 69.03L158.141 69.534C157.889 70.338 157.421 70.998 156.737 71.514C156.053 72.018 155.225 72.27 154.253 72.27C153.041 72.27 152.009 71.856 151.157 71.028C150.317 70.188 149.897 69.06 149.897 67.644C149.897 66.324 150.305 65.232 151.121 64.368C151.937 63.504 152.909 63.072 154.037 63.072C155.345 63.072 156.365 63.486 157.097 64.314C157.829 65.13 158.195 66.228 158.195 67.608C158.195 67.824 158.183 68.004 158.159 68.148H151.643C151.655 68.916 151.907 69.546 152.399 70.038C152.903 70.53 153.521 70.776 154.253 70.776C155.489 70.776 156.299 70.194 156.683 69.03ZM166.547 72H164.855V58.968H166.547V72ZM171.099 72H169.425V63.342H171.099V72ZM169.389 60.93C169.161 60.69 169.047 60.402 169.047 60.066C169.047 59.73 169.161 59.442 169.389 59.202C169.629 58.962 169.917 58.842 170.253 58.842C170.589 58.842 170.877 58.962 171.117 59.202C171.357 59.43 171.477 59.718 171.477 60.066C171.477 60.402 171.357 60.69 171.117 60.93C170.877 61.158 170.589 61.272 170.253 61.272C169.917 61.272 169.629 61.158 169.389 60.93ZM181.736 63.342L178.046 66.996L181.808 72H179.684L176.858 68.184L175.652 69.39V72H173.978V58.968H175.652V67.176L179.396 63.342H181.736ZM184.076 66.78H188.81C188.786 66.132 188.57 65.604 188.162 65.196C187.754 64.776 187.178 64.566 186.434 64.566C185.762 64.566 185.21 64.788 184.778 65.232C184.346 65.664 184.112 66.18 184.076 66.78ZM189.062 69.03L190.52 69.534C190.268 70.338 189.8 70.998 189.116 71.514C188.432 72.018 187.604 72.27 186.632 72.27C185.42 72.27 184.388 71.856 183.536 71.028C182.696 70.188 182.276 69.06 182.276 67.644C182.276 66.324 182.684 65.232 183.5 64.368C184.316 63.504 185.288 63.072 186.416 63.072C187.724 63.072 188.744 63.486 189.476 64.314C190.208 65.13 190.574 66.228 190.574 67.608C190.574 67.824 190.562 68.004 190.538 68.148H184.022C184.034 68.916 184.286 69.546 184.778 70.038C185.282 70.53 185.9 70.776 186.632 70.776C187.868 70.776 188.678 70.194 189.062 69.03ZM194.426 72H192.734V58.968H194.426V72ZM199.464 75.618H197.61L199.77 71.046L196.044 63.342H197.988L200.688 69.318L203.28 63.342H205.098L199.464 75.618ZM213.494 60.606V63.342H215.366V64.872H213.494V69.372C213.494 69.78 213.584 70.08 213.764 70.272C213.956 70.464 214.268 70.56 214.7 70.56C214.952 70.56 215.174 70.536 215.366 70.488V71.928C215.078 72.036 214.694 72.09 214.214 72.09C213.47 72.09 212.882 71.874 212.45 71.442C212.018 71.01 211.802 70.404 211.802 69.624V64.872H210.146V63.342H210.614C211.058 63.342 211.388 63.222 211.604 62.982C211.832 62.73 211.946 62.406 211.946 62.01V60.606H213.494ZM219.319 69.948C219.847 70.488 220.489 70.758 221.245 70.758C222.001 70.758 222.637 70.488 223.153 69.948C223.681 69.396 223.945 68.634 223.945 67.662C223.945 66.702 223.681 65.952 223.153 65.412C222.637 64.86 222.001 64.584 221.245 64.584C220.489 64.584 219.847 64.86 219.319 65.412C218.803 65.952 218.545 66.702 218.545 67.662C218.545 68.634 218.803 69.396 219.319 69.948ZM218.059 64.386C218.899 63.51 219.961 63.072 221.245 63.072C222.529 63.072 223.585 63.51 224.413 64.386C225.253 65.25 225.673 66.342 225.673 67.662C225.673 68.994 225.259 70.098 224.431 70.974C223.603 71.838 222.541 72.27 221.245 72.27C219.949 72.27 218.887 71.838 218.059 70.974C217.231 70.098 216.817 68.994 216.817 67.662C216.817 66.342 217.231 65.25 218.059 64.386Z" fill="#3F3232"/>
</svg>
