<svg width="504" height="36" viewBox="0 0 504 36" fill="none" xmlns="http://www.w3.org/2000/svg">
<path d="M18.008 35.672C27.704 35.672 35.48 27.992 35.48 18.2C35.48 8.36 27.704 0.727998 18.008 0.727998C8.312 0.727998 0.584 8.36 0.584 18.2C0.584 27.992 8.312 35.672 18.008 35.672ZM18.008 29.192C11.912 29.192 7.16 24.632 7.16 18.2C7.16 11.72 11.912 7.16 18.008 7.16C24.104 7.16 28.856 11.72 28.856 18.2C28.856 24.632 24.104 29.192 18.008 29.192ZM55.922 11V23.96C55.922 28.136 53.666 29.912 50.642 29.912C47.858 29.912 45.89 28.232 45.89 24.968V11H39.698V25.736C39.698 32.12 43.682 35.672 48.77 35.672C51.986 35.672 54.482 34.472 55.922 32.312V35H62.114V11H55.922ZM73.9771 15.128V11H67.7851V35H73.9771V23.528C73.9771 18.488 78.0571 17.048 81.2731 17.432V10.52C78.2491 10.52 75.2251 11.864 73.9771 15.128ZM118.783 35H125.983L114.175 1.4H105.967L94.2065 35H101.359L103.375 28.952H116.767L118.783 35ZM105.487 22.76L110.095 9.032L114.703 22.76H105.487ZM155.044 11L150.964 25.784L146.596 11H140.74L136.372 25.736L132.292 11H125.716L133.348 35H139.252L143.668 20.456L148.084 35H153.988L161.62 11H155.044ZM169.252 25.544H187.348C187.492 24.728 187.588 23.912 187.588 23C187.588 15.944 182.548 10.328 175.444 10.328C167.908 10.328 162.771 15.848 162.771 23C162.771 30.152 167.86 35.672 175.924 35.672C180.532 35.672 184.132 33.8 186.388 30.536L181.396 27.656C180.34 29.048 178.42 30.056 176.02 30.056C172.756 30.056 170.116 28.712 169.252 25.544ZM169.156 20.744C169.876 17.672 172.132 15.896 175.444 15.896C178.036 15.896 180.628 17.288 181.396 20.744H169.156ZM196.685 17.816C196.685 16.52 197.933 15.848 199.469 15.848C201.245 15.848 202.589 16.76 203.309 18.296L208.589 15.416C206.717 12.104 203.357 10.328 199.469 10.328C194.525 10.328 190.349 13.064 190.349 17.96C190.349 26.408 202.733 24.488 202.733 27.992C202.733 29.384 201.389 30.056 199.421 30.056C197.021 30.056 195.389 28.904 194.717 26.936L189.341 29.96C191.069 33.656 194.621 35.672 199.421 35.672C204.557 35.672 209.069 33.176 209.069 27.992C209.069 19.16 196.685 21.368 196.685 17.816ZM224.147 35.672C231.203 35.672 236.867 30.152 236.867 23C236.867 15.848 231.203 10.328 224.147 10.328C217.091 10.328 211.475 15.848 211.475 23C211.475 30.152 217.091 35.672 224.147 35.672ZM224.147 29.624C220.499 29.624 217.667 26.888 217.667 23C217.667 19.112 220.499 16.376 224.147 16.376C227.843 16.376 230.675 19.112 230.675 23C230.675 26.888 227.843 29.624 224.147 29.624ZM267.767 10.328C264.503 10.328 262.103 11.624 260.615 13.784C259.271 11.576 257.063 10.328 254.087 10.328C251.015 10.328 248.759 11.528 247.415 13.544V11H241.223V35H247.415V21.512C247.415 17.912 249.287 16.088 251.927 16.088C254.519 16.088 255.959 17.816 255.959 20.648V35H262.151V21.512C262.151 17.912 263.879 16.088 266.615 16.088C269.207 16.088 270.647 17.816 270.647 20.648V35H276.839V20.216C276.839 14.216 273.239 10.328 267.767 10.328ZM287.33 25.544H305.426C305.57 24.728 305.666 23.912 305.666 23C305.666 15.944 300.626 10.328 293.522 10.328C285.986 10.328 280.85 15.848 280.85 23C280.85 30.152 285.938 35.672 294.002 35.672C298.61 35.672 302.21 33.8 304.466 30.536L299.474 27.656C298.418 29.048 296.498 30.056 294.098 30.056C290.834 30.056 288.194 28.712 287.33 25.544ZM287.234 20.744C287.954 17.672 290.21 15.896 293.522 15.896C296.114 15.896 298.706 17.288 299.474 20.744H287.234ZM333.748 35.672C340.9 35.672 345.94 31.832 345.94 25.544C345.94 18.68 340.276 16.904 334.948 15.224C329.86 13.688 328.564 12.584 328.564 10.52C328.564 8.6 330.196 7.16 332.98 7.16C336.388 7.16 338.212 8.936 339.412 11.48L344.98 8.264C342.724 3.56 338.5 0.727998 332.98 0.727998C327.22 0.727998 321.94 4.376 321.94 10.712C321.94 17.096 326.932 19.256 332.068 20.744C337.06 22.184 339.316 23.144 339.316 25.64C339.316 27.512 337.924 29.192 333.94 29.192C329.764 29.192 327.412 27.176 326.212 24.056L320.548 27.368C322.372 32.36 326.884 35.672 333.748 35.672ZM355.861 25.544H373.957C374.101 24.728 374.197 23.912 374.197 23C374.197 15.944 369.157 10.328 362.053 10.328C354.517 10.328 349.381 15.848 349.381 23C349.381 30.152 354.469 35.672 362.533 35.672C367.141 35.672 370.741 33.8 372.997 30.536L368.005 27.656C366.949 29.048 365.029 30.056 362.629 30.056C359.365 30.056 356.725 28.712 355.861 25.544ZM355.765 20.744C356.485 17.672 358.741 15.896 362.053 15.896C364.645 15.896 367.237 17.288 368.005 20.744H355.765ZM384.712 15.128V11H378.52V35H384.712V23.528C384.712 18.488 388.792 17.048 392.008 17.432V10.52C388.984 10.52 385.96 11.864 384.712 15.128ZM411.421 11L405.565 27.8L399.757 11H392.941L402.061 35H409.117L418.237 11H411.421ZM424.295 8.12C426.407 8.12 428.135 6.392 428.135 4.328C428.135 2.264 426.407 0.487998 424.295 0.487998C422.231 0.487998 420.503 2.264 420.503 4.328C420.503 6.392 422.231 8.12 424.295 8.12ZM421.223 35H427.415V11H421.223V35ZM444.506 35.672C449.21 35.672 453.29 33.176 455.354 29.432L449.978 26.36C449.018 28.328 446.954 29.528 444.458 29.528C440.762 29.528 438.026 26.792 438.026 23C438.026 19.16 440.762 16.424 444.458 16.424C446.906 16.424 448.97 17.672 449.93 19.64L455.258 16.52C453.29 12.824 449.21 10.328 444.506 10.328C437.21 10.328 431.834 15.848 431.834 23C431.834 30.152 437.21 35.672 444.506 35.672ZM463.486 25.544H481.582C481.726 24.728 481.822 23.912 481.822 23C481.822 15.944 476.782 10.328 469.678 10.328C462.142 10.328 457.006 15.848 457.006 23C457.006 30.152 462.094 35.672 470.158 35.672C474.766 35.672 478.366 33.8 480.622 30.536L475.63 27.656C474.574 29.048 472.654 30.056 470.254 30.056C466.99 30.056 464.35 28.712 463.486 25.544ZM463.39 20.744C464.11 17.672 466.366 15.896 469.678 15.896C472.27 15.896 474.862 17.288 475.63 20.744H463.39ZM490.919 17.816C490.919 16.52 492.167 15.848 493.703 15.848C495.479 15.848 496.823 16.76 497.543 18.296L502.823 15.416C500.951 12.104 497.591 10.328 493.703 10.328C488.759 10.328 484.583 13.064 484.583 17.96C484.583 26.408 496.967 24.488 496.967 27.992C496.967 29.384 495.623 30.056 493.655 30.056C491.255 30.056 489.623 28.904 488.951 26.936L483.575 29.96C485.303 33.656 488.855 35.672 493.655 35.672C498.791 35.672 503.303 33.176 503.303 27.992C503.303 19.16 490.919 21.368 490.919 17.816Z" fill="#2E2E2E"/>
</svg>
