<svg width="143" height="23" viewBox="0 0 143 23" fill="none" xmlns="http://www.w3.org/2000/svg">
<path d="M18.24 9.6C18.24 4.68 14.328 0.863999 9.504 0.863999C4.68 0.863999 0.792 4.68 0.792 9.6C0.792 14.496 4.68 18.336 9.504 18.336C11.04 18.336 12.48 17.952 13.728 17.256L15.552 19.152L17.904 17.064L16.176 15.264C17.472 13.752 18.24 11.784 18.24 9.6ZM9.504 15.096C6.48 15.096 4.08 12.816 4.08 9.6C4.08 6.36 6.48 4.08 9.504 4.08C12.528 4.08 14.928 6.36 14.928 9.6C14.928 10.872 14.544 12 13.92 12.888L10.968 9.816L8.616 11.904L11.376 14.784C10.8 14.976 10.152 15.096 9.504 15.096ZM28.5782 6V12.48C28.5782 14.568 27.4502 15.456 25.9382 15.456C24.5462 15.456 23.5622 14.616 23.5622 12.984V6H20.4662V13.368C20.4662 16.56 22.4582 18.336 25.0022 18.336C26.6102 18.336 27.8582 17.736 28.5782 16.656V18H31.6742V6H28.5782ZM43.6298 6V7.416C42.7658 6.336 41.4698 5.664 39.7178 5.664C36.5258 5.664 33.8857 8.424 33.8857 12C33.8857 15.576 36.5258 18.336 39.7178 18.336C41.4698 18.336 42.7658 17.664 43.6298 16.584V18H46.7258V6H43.6298ZM40.2938 15.384C38.3978 15.384 36.9818 14.016 36.9818 12C36.9818 9.984 38.3978 8.616 40.2938 8.616C42.2138 8.616 43.6298 9.984 43.6298 12C43.6298 14.016 42.2138 15.384 40.2938 15.384ZM49.5332 18H52.6292V0.48H49.5332V18ZM56.9989 4.56C58.0549 4.56 58.9189 3.696 58.9189 2.664C58.9189 1.632 58.0549 0.743999 56.9989 0.743999C55.9669 0.743999 55.1029 1.632 55.1029 2.664C55.1029 3.696 55.9669 4.56 56.9989 4.56ZM55.4629 18H58.5589V6H55.4629V18ZM68.2566 8.976V6H65.5446V2.64L62.4486 3.576V6H60.3606V8.976H62.4486V13.968C62.4486 17.208 63.9126 18.48 68.2566 18V15.192C66.4806 15.288 65.5446 15.264 65.5446 13.968V8.976H68.2566ZM78.5213 6L75.8573 14.064L72.7373 6H69.3533L74.2733 17.616C73.6973 19.224 72.8333 19.944 71.1293 19.92V22.8C74.1773 22.968 76.2173 21.456 77.4653 18L81.8333 6H78.5213ZM99.4826 4.368V1.2H89.4506V18H92.7626V11.52H99.2906V8.352H92.7626V4.368H99.4826ZM107.464 18.336C110.992 18.336 113.824 15.576 113.824 12C113.824 8.424 110.992 5.664 107.464 5.664C103.936 5.664 101.128 8.424 101.128 12C101.128 15.576 103.936 18.336 107.464 18.336ZM107.464 15.312C105.64 15.312 104.224 13.944 104.224 12C104.224 10.056 105.64 8.688 107.464 8.688C109.312 8.688 110.728 10.056 110.728 12C110.728 13.944 109.312 15.312 107.464 15.312ZM121.714 18.336C125.242 18.336 128.074 15.576 128.074 12C128.074 8.424 125.242 5.664 121.714 5.664C118.186 5.664 115.378 8.424 115.378 12C115.378 15.576 118.186 18.336 121.714 18.336ZM121.714 15.312C119.89 15.312 118.474 13.944 118.474 12C118.474 10.056 119.89 8.688 121.714 8.688C123.562 8.688 124.978 10.056 124.978 12C124.978 13.944 123.562 15.312 121.714 15.312ZM139.348 1.2V7.416C138.484 6.312 137.212 5.664 135.46 5.664C132.244 5.664 129.604 8.424 129.604 12C129.604 15.576 132.244 18.336 135.46 18.336C137.212 18.336 138.484 17.688 139.348 16.584V18H142.444V1.2H139.348ZM136.036 15.384C134.116 15.384 132.7 14.016 132.7 12C132.7 9.984 134.116 8.616 136.036 8.616C137.932 8.616 139.348 9.984 139.348 12C139.348 14.016 137.932 15.384 136.036 15.384Z" fill="#2E2E2E"/>
</svg>
