<svg width="87" height="84" viewBox="0 0 87 84" fill="none" xmlns="http://www.w3.org/2000/svg">
<path d="M43.5 0.131592C19.9424 0.131592 0.84375 18.8178 0.84375 41.855C0.84375 64.9033 19.9424 83.5895 43.5 83.5895C67.0548 83.5895 86.1562 64.9033 86.1562 41.855C86.1562 18.8095 67.0548 0.131592 43.5 0.131592ZM74.9917 66.0911C74.2628 66.8174 73.3922 67.3929 72.4316 67.7836C71.4709 68.1743 70.4398 68.3721 69.3994 68.3654C66.0282 68.3654 62.3384 66.4987 58.7283 62.967C57.3164 61.5858 56.0608 60.3548 55.4779 59.6259C57.7585 58.6023 59.8774 57.264 61.7697 55.6519L72.5617 63.7154L64.312 53.1426C65.9468 51.27 67.2606 49.1505 68.2022 46.8666C68.9117 47.3548 70.2654 48.6763 71.7981 50.1771C77.7999 56.0498 79.0227 62.1477 74.9917 66.0911ZM73.8115 48.2089C71.4413 45.8915 70.1673 44.6494 69.0667 44.1556C69.125 42.7382 67.1927 42.1958 66.4064 43.2779C60.2525 51.7725 52.9683 53.9118 43.5 53.9118C34.0317 53.9118 26.7475 51.7739 20.5922 43.2779C19.7348 42.0956 17.4783 42.8398 17.9773 44.5562C21.2093 55.6909 32.1961 62.1756 43.5 62.1756C46.6526 62.1702 49.7831 61.6609 52.7678 60.6678C53.3749 61.6581 54.6134 62.8711 56.7192 64.9325C60.6279 68.7548 64.7385 70.8594 68.6587 71.0986C61.8536 76.7153 53.0777 80.1121 43.5 80.1121C21.9387 80.1121 4.39844 62.9503 4.39844 41.855C4.39844 20.7666 21.9387 3.609 43.5 3.609C65.0599 3.609 82.6016 20.7666 82.6016 41.855C82.6016 47.1267 81.4982 52.1481 79.5175 56.7216C78.6615 54.0843 76.8757 51.2092 73.8115 48.2089Z" fill="#2E2E2E"/>
</svg>
