<svg width="130" height="23" viewBox="0 0 130 23" fill="none" xmlns="http://www.w3.org/2000/svg">
<path d="M7.296 18.336C10.872 18.336 13.392 16.416 13.392 13.272C13.392 9.84 10.56 8.952 7.896 8.112C5.352 7.344 4.704 6.792 4.704 5.76C4.704 4.8 5.52 4.08 6.912 4.08C8.616 4.08 9.528 4.968 10.128 6.24L12.912 4.632C11.784 2.28 9.672 0.863999 6.912 0.863999C4.032 0.863999 1.392 2.688 1.392 5.856C1.392 9.048 3.888 10.128 6.456 10.872C8.952 11.592 10.08 12.072 10.08 13.32C10.08 14.256 9.384 15.096 7.392 15.096C5.304 15.096 4.128 14.088 3.528 12.528L0.696 14.184C1.608 16.68 3.864 18.336 7.296 18.336ZM23.3282 6V12.48C23.3282 14.568 22.2002 15.456 20.6882 15.456C19.2962 15.456 18.3122 14.616 18.3122 12.984V6H15.2162V13.368C15.2162 16.56 17.2082 18.336 19.7522 18.336C21.3602 18.336 22.6082 17.736 23.3282 16.656V18H26.4242V6H23.3282ZM36.2438 5.664C34.4918 5.664 33.2198 6.312 32.3558 7.416V6H29.2598V22.8H32.3558V16.584C33.2198 17.688 34.4918 18.336 36.2438 18.336C39.4598 18.336 42.0998 15.576 42.0998 12C42.0998 8.424 39.4598 5.664 36.2438 5.664ZM35.6678 15.384C33.7718 15.384 32.3558 14.016 32.3558 12C32.3558 9.984 33.7718 8.616 35.6678 8.616C37.5878 8.616 39.0038 9.984 39.0038 12C39.0038 14.016 37.5878 15.384 35.6678 15.384ZM46.8992 13.272H55.9472C56.0192 12.864 56.0672 12.456 56.0672 12C56.0672 8.472 53.5472 5.664 49.9952 5.664C46.2272 5.664 43.6592 8.424 43.6592 12C43.6592 15.576 46.2032 18.336 50.2352 18.336C52.5392 18.336 54.3392 17.4 55.4672 15.768L52.9712 14.328C52.4432 15.024 51.4832 15.528 50.2832 15.528C48.6512 15.528 47.3312 14.856 46.8992 13.272ZM46.8512 10.872C47.2112 9.336 48.3392 8.448 49.9952 8.448C51.2912 8.448 52.5872 9.144 52.9712 10.872H46.8512ZM61.3245 8.064V6H58.2285V18H61.3245V12.264C61.3245 9.744 63.3645 9.024 64.9725 9.216V5.76C63.4605 5.76 61.9485 6.432 61.3245 8.064ZM84.0392 1.2H71.6792V4.368H76.1912V18H79.5032V4.368H84.0392V1.2ZM92.6844 6V7.416C91.8204 6.336 90.5244 5.664 88.7724 5.664C85.5804 5.664 82.9404 8.424 82.9404 12C82.9404 15.576 85.5804 18.336 88.7724 18.336C90.5244 18.336 91.8204 17.664 92.6844 16.584V18H95.7804V6H92.6844ZM89.3484 15.384C87.4524 15.384 86.0364 14.016 86.0364 12C86.0364 9.984 87.4524 8.616 89.3484 8.616C91.2684 8.616 92.6844 9.984 92.6844 12C92.6844 14.016 91.2684 15.384 89.3484 15.384ZM101.35 9.408C101.35 8.76 101.974 8.424 102.742 8.424C103.63 8.424 104.302 8.88 104.662 9.648L107.302 8.208C106.366 6.552 104.686 5.664 102.742 5.664C100.27 5.664 98.1821 7.032 98.1821 9.48C98.1821 13.704 104.374 12.744 104.374 14.496C104.374 15.192 103.702 15.528 102.718 15.528C101.518 15.528 100.702 14.952 100.366 13.968L97.6781 15.48C98.5421 17.328 100.318 18.336 102.718 18.336C105.286 18.336 107.542 17.088 107.542 14.496C107.542 10.08 101.35 11.184 101.35 9.408ZM116.046 8.976V6H113.334V2.64L110.238 3.576V6H108.15V8.976H110.238V13.968C110.238 17.208 111.702 18.48 116.046 18V15.192C114.27 15.288 113.334 15.264 113.334 13.968V8.976H116.046ZM120.47 13.272H129.518C129.59 12.864 129.638 12.456 129.638 12C129.638 8.472 127.118 5.664 123.566 5.664C119.798 5.664 117.229 8.424 117.229 12C117.229 15.576 119.774 18.336 123.806 18.336C126.11 18.336 127.91 17.4 129.038 15.768L126.542 14.328C126.014 15.024 125.054 15.528 123.854 15.528C122.222 15.528 120.902 14.856 120.47 13.272ZM120.422 10.872C120.782 9.336 121.91 8.448 123.566 8.448C124.862 8.448 126.158 9.144 126.542 10.872H120.422Z" fill="#2E2E2E"/>
</svg>
