<svg width="11" height="40" viewBox="0 0 11 40" fill="none" xmlns="http://www.w3.org/2000/svg">
<path d="M10.3125 11.7031V1.85938C10.3125 1.08594 9.67969 0.453125 8.90625 0.453125C8.13281 0.453125 7.5 1.08594 7.5 1.85938V7.48438H6.79688V1.85938C6.79688 1.08594 6.16406 0.453125 5.39062 0.453125C4.61719 0.453125 3.98438 1.08594 3.98438 1.85938V7.48438H3.28125V1.85938C3.28125 1.08594 2.64844 0.453125 1.875 0.453125C1.10156 0.453125 0.46875 1.08594 0.46875 1.85938V11.7031C0.46875 13.25 1.73438 14.5156 3.28125 14.5156H3.98438V38.4395C3.98438 39.2129 4.61719 39.8457 5.39062 39.8457C6.16406 39.8457 6.79688 39.2129 6.79688 38.4395V14.5156H7.48242C7.48242 14.5156 7.48242 14.5156 7.5 14.5156C9.04688 14.5156 10.3125 13.2676 10.3125 11.7031ZM7.5 10.2969V11.7031C7.5 11.7031 7.5 11.7031 7.5 11.7207H3.28125V10.3145H7.5V10.2969Z" fill="#FF9401"/>
</svg>
