<svg width="176" height="19" viewBox="0 0 176 19" fill="none" xmlns="http://www.w3.org/2000/svg">
<path d="M9.46 15H0.7V0.819999H9.46V3.06H3.1V6.82H8.86V9H3.1V12.76H9.46V15ZM10.8606 15L14.4006 10.08L10.9206 5.26H13.6806C13.7473 5.36667 14.1073 5.9 14.7606 6.86C15.4273 7.80667 15.7806 8.31333 15.8206 8.38L17.9406 5.26H20.5806L17.1606 10.04L20.7006 15H17.9806L15.7206 11.74C15.6806 11.7933 15.4806 12.0867 15.1206 12.62C14.774 13.14 14.434 13.6467 14.1006 14.14C13.7673 14.62 13.574 14.9067 13.5206 15H10.8606ZM24.6945 18.8H22.3945V5.26H24.6345V6.58C24.8879 6.14 25.2879 5.77333 25.8345 5.48C26.3812 5.18667 27.0145 5.04 27.7345 5.04C29.1345 5.04 30.2345 5.52 31.0345 6.48C31.8345 7.42667 32.2345 8.64 32.2345 10.12C32.2345 11.6 31.8145 12.8267 30.9745 13.8C30.1345 14.76 29.0279 15.24 27.6545 15.24C26.9879 15.24 26.3945 15.1133 25.8745 14.86C25.3545 14.6067 24.9612 14.2867 24.6945 13.9V18.8ZM29.9145 10.12C29.9145 9.21333 29.6745 8.48667 29.1945 7.94C28.7145 7.38 28.0812 7.1 27.2945 7.1C26.5212 7.1 25.8879 7.38 25.3945 7.94C24.9145 8.48667 24.6745 9.21333 24.6745 10.12C24.6745 11.04 24.9145 11.78 25.3945 12.34C25.8879 12.9 26.5212 13.18 27.2945 13.18C28.0679 13.18 28.6945 12.9 29.1745 12.34C29.6679 11.78 29.9145 11.04 29.9145 10.12ZM36.7848 15H34.4648V0.519999H36.7848V15ZM42.1173 12.4C42.6507 12.9467 43.2973 13.22 44.0573 13.22C44.8173 13.22 45.4573 12.9467 45.9773 12.4C46.5107 11.8533 46.7773 11.0933 46.7773 10.12C46.7773 9.16 46.5107 8.41333 45.9773 7.88C45.4573 7.33333 44.8173 7.06 44.0573 7.06C43.2973 7.06 42.6507 7.33333 42.1173 7.88C41.5973 8.41333 41.3373 9.16 41.3373 10.12C41.3373 11.08 41.5973 11.84 42.1173 12.4ZM44.0573 4.96C45.524 4.96 46.7307 5.44667 47.6773 6.42C48.6373 7.39333 49.1173 8.62667 49.1173 10.12C49.1173 11.6133 48.6373 12.8533 47.6773 13.84C46.7307 14.8133 45.524 15.3 44.0573 15.3C42.604 15.3 41.3973 14.8133 40.4373 13.84C39.4907 12.8533 39.0173 11.6133 39.0173 10.12C39.0173 8.62667 39.4907 7.39333 40.4373 6.42C41.3973 5.44667 42.604 4.96 44.0573 4.96ZM57.0594 5.2V7.56C56.7927 7.52 56.5394 7.5 56.2994 7.5C54.5527 7.5 53.6794 8.45333 53.6794 10.36V15H51.3594V5.26H53.6194V6.82C53.846 6.3 54.2127 5.89333 54.7194 5.6C55.226 5.29333 55.7994 5.14 56.4394 5.14C56.6527 5.14 56.8594 5.16 57.0594 5.2ZM60.5184 9.06H65.2984C65.2718 8.44667 65.0518 7.93333 64.6384 7.52C64.2384 7.10667 63.6584 6.9 62.8984 6.9C62.2051 6.9 61.6451 7.12 61.2184 7.56C60.7918 7.98667 60.5584 8.48667 60.5184 9.06ZM65.5584 11.6L67.5184 12.22C67.2384 13.1133 66.7118 13.8533 65.9384 14.44C65.1784 15.0133 64.2384 15.3 63.1184 15.3C61.7318 15.3 60.5518 14.8267 59.5784 13.88C58.6184 12.9333 58.1384 11.6667 58.1384 10.08C58.1384 8.58667 58.6051 7.36 59.5384 6.4C60.4851 5.44 61.5984 4.96 62.8784 4.96C64.3718 4.96 65.5384 5.42 66.3784 6.34C67.2184 7.24667 67.6384 8.47333 67.6384 10.02C67.6384 10.4333 67.6184 10.68 67.5784 10.76H60.4584C60.4851 11.4933 60.7518 12.1 61.2584 12.58C61.7784 13.06 62.3984 13.3 63.1184 13.3C64.3718 13.3 65.1851 12.7333 65.5584 11.6ZM77.4164 15H75.0164V0.819999H83.8364V3.08H77.4164V7.06H83.1764V9.28H77.4164V15ZM87.6252 12.4C88.1585 12.9467 88.8052 13.22 89.5652 13.22C90.3252 13.22 90.9652 12.9467 91.4852 12.4C92.0185 11.8533 92.2852 11.0933 92.2852 10.12C92.2852 9.16 92.0185 8.41333 91.4852 7.88C90.9652 7.33333 90.3252 7.06 89.5652 7.06C88.8052 7.06 88.1585 7.33333 87.6252 7.88C87.1052 8.41333 86.8452 9.16 86.8452 10.12C86.8452 11.08 87.1052 11.84 87.6252 12.4ZM89.5652 4.96C91.0318 4.96 92.2385 5.44667 93.1852 6.42C94.1452 7.39333 94.6252 8.62667 94.6252 10.12C94.6252 11.6133 94.1452 12.8533 93.1852 13.84C92.2385 14.8133 91.0318 15.3 89.5652 15.3C88.1118 15.3 86.9052 14.8133 85.9452 13.84C84.9985 12.8533 84.5252 11.6133 84.5252 10.12C84.5252 8.62667 84.9985 7.39333 85.9452 6.42C86.9052 5.44667 88.1118 4.96 89.5652 4.96ZM99.2072 12.4C99.7405 12.9467 100.387 13.22 101.147 13.22C101.907 13.22 102.547 12.9467 103.067 12.4C103.601 11.8533 103.867 11.0933 103.867 10.12C103.867 9.16 103.601 8.41333 103.067 7.88C102.547 7.33333 101.907 7.06 101.147 7.06C100.387 7.06 99.7405 7.33333 99.2072 7.88C98.6872 8.41333 98.4272 9.16 98.4272 10.12C98.4272 11.08 98.6872 11.84 99.2072 12.4ZM101.147 4.96C102.614 4.96 103.821 5.44667 104.767 6.42C105.727 7.39333 106.207 8.62667 106.207 10.12C106.207 11.6133 105.727 12.8533 104.767 13.84C103.821 14.8133 102.614 15.3 101.147 15.3C99.6939 15.3 98.4872 14.8133 97.5272 13.84C96.5805 12.8533 96.1072 11.6133 96.1072 10.12C96.1072 8.62667 96.5805 7.39333 97.5272 6.42C98.4872 5.44667 99.6939 4.96 101.147 4.96ZM110.009 10.1C110.009 11.0333 110.249 11.7867 110.729 12.36C111.209 12.92 111.843 13.2 112.629 13.2C113.389 13.2 114.009 12.9133 114.489 12.34C114.969 11.7667 115.209 11.0133 115.209 10.08C115.209 9.16 114.976 8.42667 114.509 7.88C114.043 7.33333 113.423 7.06 112.649 7.06C111.876 7.06 111.243 7.34 110.749 7.9C110.256 8.44667 110.009 9.18 110.009 10.1ZM117.449 0.519999V13.22C117.449 13.8733 117.483 14.4667 117.549 15H115.329C115.263 14.6267 115.229 14.2067 115.229 13.74C114.989 14.18 114.616 14.54 114.109 14.82C113.603 15.1 113.023 15.24 112.369 15.24C110.983 15.24 109.856 14.7533 108.989 13.78C108.123 12.8067 107.689 11.58 107.689 10.1C107.689 8.67333 108.123 7.46667 108.989 6.48C109.869 5.49333 110.983 5 112.329 5C113.103 5 113.723 5.14 114.189 5.42C114.669 5.7 115.003 6.02667 115.189 6.4V0.519999H117.449ZM141.241 15H138.861V4.56L134.441 15H132.361L127.981 4.6V15H125.641V0.819999H128.841L133.441 11.64L137.981 0.819999H141.241V15ZM146.026 9.06H150.806C150.78 8.44667 150.56 7.93333 150.146 7.52C149.746 7.10667 149.166 6.9 148.406 6.9C147.713 6.9 147.153 7.12 146.726 7.56C146.3 7.98667 146.066 8.48667 146.026 9.06ZM151.066 11.6L153.026 12.22C152.746 13.1133 152.22 13.8533 151.446 14.44C150.686 15.0133 149.746 15.3 148.626 15.3C147.24 15.3 146.06 14.8267 145.086 13.88C144.126 12.9333 143.646 11.6667 143.646 10.08C143.646 8.58667 144.113 7.36 145.046 6.4C145.993 5.44 147.106 4.96 148.386 4.96C149.88 4.96 151.046 5.42 151.886 6.34C152.726 7.24667 153.146 8.47333 153.146 10.02C153.146 10.4333 153.126 10.68 153.086 10.76H145.966C145.993 11.4933 146.26 12.1 146.766 12.58C147.286 13.06 147.906 13.3 148.626 13.3C149.88 13.3 150.693 12.7333 151.066 11.6ZM157.683 9.38V15H155.363V5.26H157.623V6.56C157.93 6.02667 158.337 5.63333 158.843 5.38C159.363 5.11333 159.917 4.98 160.503 4.98C161.65 4.98 162.523 5.34 163.123 6.06C163.723 6.78 164.023 7.70667 164.023 8.84V15H161.703V9.24C161.703 8.58667 161.543 8.06667 161.223 7.68C160.903 7.28 160.397 7.08 159.703 7.08C159.063 7.08 158.563 7.3 158.203 7.74C157.857 8.16667 157.683 8.71333 157.683 9.38ZM173.051 13.92C172.824 14.3467 172.451 14.68 171.931 14.92C171.424 15.16 170.878 15.28 170.291 15.28C169.158 15.28 168.258 14.9133 167.591 14.18C166.938 13.4467 166.611 12.52 166.611 11.4V5.26H168.931V10.98C168.931 11.6333 169.091 12.1667 169.411 12.58C169.731 12.9933 170.224 13.2 170.891 13.2C171.544 13.2 172.044 13 172.391 12.6C172.751 12.2 172.931 11.6733 172.931 11.02V5.26H175.251V13.22C175.251 13.8067 175.284 14.4 175.351 15H173.131C173.078 14.7067 173.051 14.3467 173.051 13.92Z" fill="white"/>
</svg>
