<svg width="460" height="179" viewBox="0 0 460 179" fill="none" xmlns="http://www.w3.org/2000/svg">
<path d="M70.288 31.56H36.592V45H54.544C52.144 51.432 46.288 55.368 37.36 55.368C24.304 55.368 16.24 47.016 16.24 35.592C16.24 23.784 24.688 15.432 36.016 15.432C43.6 15.432 49.648 18.888 52.432 23.304L65.488 15.816C59.824 6.792 48.976 0.455996 36.112 0.455996C16.336 0.455996 0.88 16.008 0.88 35.496C0.88 54.792 16.048 70.344 37.168 70.344C55.984 70.344 70.288 57.864 70.288 37.32V31.56ZM101.508 70.344C115.62 70.344 126.948 59.304 126.948 45C126.948 30.696 115.62 19.656 101.508 19.656C87.3955 19.656 76.0675 30.696 76.0675 45C76.0675 59.304 87.3955 70.344 101.508 70.344ZM101.508 56.328C95.2675 56.328 90.4675 51.816 90.4675 45C90.4675 38.184 95.2675 33.672 101.508 33.672C107.748 33.672 112.548 38.184 112.548 45C112.548 51.816 107.748 56.328 101.508 56.328ZM158.133 70.344C172.245 70.344 183.573 59.304 183.573 45C183.573 30.696 172.245 19.656 158.133 19.656C144.021 19.656 132.693 30.696 132.693 45C132.693 59.304 144.021 70.344 158.133 70.344ZM158.133 56.328C151.893 56.328 147.093 51.816 147.093 45C147.093 38.184 151.893 33.672 158.133 33.672C164.373 33.672 169.173 38.184 169.173 45C169.173 51.816 164.373 56.328 158.133 56.328ZM226.566 1.8V25.512C223.398 21.864 218.694 19.656 212.262 19.656C199.686 19.656 189.318 30.696 189.318 45C189.318 59.304 199.686 70.344 212.262 70.344C218.694 70.344 223.398 68.136 226.566 64.488V69H240.966V1.8H226.566ZM215.142 56.712C208.518 56.712 203.718 52.2 203.718 45C203.718 37.8 208.518 33.288 215.142 33.288C221.766 33.288 226.566 37.8 226.566 45C226.566 52.2 221.766 56.712 215.142 56.712ZM316.81 16.584V1.8H276.01V69H291.37V44.328H316.33V29.544H291.37V16.584H316.81ZM348.445 70.344C362.557 70.344 373.885 59.304 373.885 45C373.885 30.696 362.557 19.656 348.445 19.656C334.333 19.656 323.005 30.696 323.005 45C323.005 59.304 334.333 70.344 348.445 70.344ZM348.445 56.328C342.205 56.328 337.405 51.816 337.405 45C337.405 38.184 342.205 33.672 348.445 33.672C354.685 33.672 359.485 38.184 359.485 45C359.485 51.816 354.685 56.328 348.445 56.328ZM405.07 70.344C419.182 70.344 430.51 59.304 430.51 45C430.51 30.696 419.182 19.656 405.07 19.656C390.958 19.656 379.63 30.696 379.63 45C379.63 59.304 390.958 70.344 405.07 70.344ZM405.07 56.328C398.83 56.328 394.03 51.816 394.03 45C394.03 38.184 398.83 33.672 405.07 33.672C411.31 33.672 416.11 38.184 416.11 45C416.11 51.816 411.31 56.328 405.07 56.328ZM70.288 139.56H36.592V153H54.544C52.144 159.432 46.288 163.368 37.36 163.368C24.304 163.368 16.24 155.016 16.24 143.592C16.24 131.784 24.688 123.432 36.016 123.432C43.6 123.432 49.648 126.888 52.432 131.304L65.488 123.816C59.824 114.792 48.976 108.456 36.112 108.456C16.336 108.456 0.88 124.008 0.88 143.496C0.88 162.792 16.048 178.344 37.168 178.344C55.984 178.344 70.288 165.864 70.288 145.32V139.56ZM101.508 178.344C115.62 178.344 126.948 167.304 126.948 153C126.948 138.696 115.62 127.656 101.508 127.656C87.3955 127.656 76.0675 138.696 76.0675 153C76.0675 167.304 87.3955 178.344 101.508 178.344ZM101.508 164.328C95.2675 164.328 90.4675 159.816 90.4675 153C90.4675 146.184 95.2675 141.672 101.508 141.672C107.748 141.672 112.548 146.184 112.548 153C112.548 159.816 107.748 164.328 101.508 164.328ZM158.133 178.344C172.245 178.344 183.573 167.304 183.573 153C183.573 138.696 172.245 127.656 158.133 127.656C144.021 127.656 132.693 138.696 132.693 153C132.693 167.304 144.021 178.344 158.133 178.344ZM158.133 164.328C151.893 164.328 147.093 159.816 147.093 153C147.093 146.184 151.893 141.672 158.133 141.672C164.373 141.672 169.173 146.184 169.173 153C169.173 159.816 164.373 164.328 158.133 164.328ZM226.566 109.8V133.512C223.398 129.864 218.694 127.656 212.262 127.656C199.686 127.656 189.318 138.696 189.318 153C189.318 167.304 199.686 178.344 212.262 178.344C218.694 178.344 223.398 176.136 226.566 172.488V177H240.966V109.8H226.566ZM215.142 164.712C208.518 164.712 203.718 160.2 203.718 153C203.718 145.8 208.518 141.288 215.142 141.288C221.766 141.288 226.566 145.8 226.566 153C226.566 160.2 221.766 164.712 215.142 164.712ZM343.21 109.8H327.85L309.61 139.656L291.37 109.8H276.01V177H291.37V137.928L308.746 166.44H310.474L327.85 137.928V177H343.21V109.8Z" fill="#232323"/>
<path d="M377.32 178.344C391.432 178.344 402.76 167.304 402.76 153C402.76 138.696 391.432 127.656 377.32 127.656C363.208 127.656 351.88 138.696 351.88 153C351.88 167.304 363.208 178.344 377.32 178.344ZM377.32 164.328C371.08 164.328 366.28 159.816 366.28 153C366.28 146.184 371.08 141.672 377.32 141.672C383.56 141.672 388.36 146.184 388.36 153C388.36 159.816 383.56 164.328 377.32 164.328ZM433.945 178.344C448.057 178.344 459.385 167.304 459.385 153C459.385 138.696 448.057 127.656 433.945 127.656C419.833 127.656 408.505 138.696 408.505 153C408.505 167.304 419.833 178.344 433.945 178.344ZM433.945 164.328C427.705 164.328 422.905 159.816 422.905 153C422.905 146.184 427.705 141.672 433.945 141.672C440.185 141.672 444.985 146.184 444.985 153C444.985 159.816 440.185 164.328 433.945 164.328Z" fill="white"/>
</svg>
