<svg width="488" height="52" viewBox="0 0 488 52" fill="none" xmlns="http://www.w3.org/2000/svg">
<path d="M11.64 2.64H6.9V15H4.94V2.64H0.2V0.819999H11.64V2.64ZM15.3159 9.34V15H13.4359V0.519999H15.3159V6.5C15.9559 5.56667 16.9293 5.1 18.2359 5.1C19.3426 5.1 20.1893 5.45333 20.7759 6.16C21.3759 6.86667 21.6759 7.78 21.6759 8.9V15H19.7959V9.22C19.7959 7.60667 19.0493 6.8 17.5559 6.8C16.8626 6.8 16.3226 7.04 15.9359 7.52C15.5493 7.98667 15.3426 8.59333 15.3159 9.34ZM25.8864 9.2H31.1464C31.1197 8.48 30.8797 7.89333 30.4264 7.44C29.9731 6.97333 29.3331 6.74 28.5064 6.74C27.7597 6.74 27.1464 6.98667 26.6664 7.48C26.1864 7.96 25.9264 8.53333 25.8864 9.2ZM31.4264 11.7L33.0464 12.26C32.7664 13.1533 32.2464 13.8867 31.4864 14.46C30.7264 15.02 29.8064 15.3 28.7264 15.3C27.3797 15.3 26.2331 14.84 25.2864 13.92C24.3531 12.9867 23.8864 11.7333 23.8864 10.16C23.8864 8.69333 24.3397 7.48 25.2464 6.52C26.1531 5.56 27.2331 5.08 28.4864 5.08C29.9397 5.08 31.0731 5.54 31.8864 6.46C32.6997 7.36667 33.1064 8.58667 33.1064 10.12C33.1064 10.36 33.0931 10.56 33.0664 10.72H25.8264C25.8397 11.5733 26.1197 12.2733 26.6664 12.82C27.2264 13.3667 27.9131 13.64 28.7264 13.64C30.0997 13.64 30.9997 12.9933 31.4264 11.7ZM45.3463 7.08H43.0263V15H41.0863V7.08H39.3063V5.38H41.0863V3.76C41.0863 2.73333 41.3863 1.92667 41.9863 1.34C42.5863 0.753332 43.3396 0.459999 44.2463 0.459999C44.8196 0.459999 45.1929 0.526666 45.3663 0.66V2.34C45.1663 2.26 44.8929 2.22 44.5463 2.22C44.1329 2.22 43.7729 2.34667 43.4663 2.6C43.1729 2.84 43.0263 3.26 43.0263 3.86V5.38H45.3463V7.08ZM48.9511 12.72C49.5378 13.32 50.2511 13.62 51.0911 13.62C51.9311 13.62 52.6378 13.32 53.2111 12.72C53.7978 12.1067 54.0911 11.26 54.0911 10.18C54.0911 9.11333 53.7978 8.28 53.2111 7.68C52.6378 7.06667 51.9311 6.76 51.0911 6.76C50.2511 6.76 49.5378 7.06667 48.9511 7.68C48.3778 8.28 48.0911 9.11333 48.0911 10.18C48.0911 11.26 48.3778 12.1067 48.9511 12.72ZM47.5511 6.54C48.4844 5.56667 49.6644 5.08 51.0911 5.08C52.5178 5.08 53.6911 5.56667 54.6111 6.54C55.5444 7.5 56.0111 8.71333 56.0111 10.18C56.0111 11.66 55.5511 12.8867 54.6311 13.86C53.7111 14.82 52.5311 15.3 51.0911 15.3C49.6511 15.3 48.4711 14.82 47.5511 13.86C46.6311 12.8867 46.1711 11.66 46.1711 10.18C46.1711 8.71333 46.6311 7.5 47.5511 6.54ZM60.3964 12.72C60.9831 13.32 61.6964 13.62 62.5364 13.62C63.3764 13.62 64.0831 13.32 64.6564 12.72C65.2431 12.1067 65.5364 11.26 65.5364 10.18C65.5364 9.11333 65.2431 8.28 64.6564 7.68C64.0831 7.06667 63.3764 6.76 62.5364 6.76C61.6964 6.76 60.9831 7.06667 60.3964 7.68C59.8231 8.28 59.5364 9.11333 59.5364 10.18C59.5364 11.26 59.8231 12.1067 60.3964 12.72ZM58.9964 6.54C59.9297 5.56667 61.1097 5.08 62.5364 5.08C63.9631 5.08 65.1364 5.56667 66.0564 6.54C66.9897 7.5 67.4564 8.71333 67.4564 10.18C67.4564 11.66 66.9964 12.8867 66.0764 13.86C65.1564 14.82 63.9764 15.3 62.5364 15.3C61.0964 15.3 59.9164 14.82 58.9964 13.86C58.0764 12.8867 57.6164 11.66 57.6164 10.18C57.6164 8.71333 58.0764 7.5 58.9964 6.54ZM70.9817 10.16C70.9817 11.1733 71.2284 12 71.7217 12.64C72.2284 13.28 72.9217 13.6 73.8017 13.6C74.6417 13.6 75.3151 13.2733 75.8217 12.62C76.3284 11.9667 76.5817 11.1333 76.5817 10.12C76.5817 9.12 76.3351 8.31333 75.8417 7.7C75.3484 7.08667 74.6751 6.78 73.8217 6.78C72.9684 6.78 72.2817 7.09333 71.7617 7.72C71.2417 8.34667 70.9817 9.16 70.9817 10.16ZM76.6017 13.7V13.54C76.3484 14.0333 75.9617 14.4467 75.4417 14.78C74.9351 15.1 74.3284 15.26 73.6217 15.26C72.2484 15.26 71.1417 14.78 70.3017 13.82C69.4751 12.8467 69.0617 11.6267 69.0617 10.16C69.0617 8.76 69.4884 7.57333 70.3417 6.6C71.1951 5.61333 72.2884 5.12 73.6217 5.12C74.4084 5.12 75.0484 5.28 75.5417 5.6C76.0351 5.90667 76.3751 6.28667 76.5617 6.74V0.519999H78.4217V13.22C78.4217 13.8733 78.4551 14.4667 78.5217 15H76.7017C76.6351 14.6267 76.6017 14.1933 76.6017 13.7ZM88.4795 18.8H86.6195V5.38H88.4395V6.88C88.7195 6.37333 89.1395 5.96 89.6995 5.64C90.2595 5.32 90.9129 5.16 91.6595 5.16C93.0462 5.16 94.1262 5.63333 94.8995 6.58C95.6862 7.52667 96.0795 8.72667 96.0795 10.18C96.0795 11.6467 95.6729 12.86 94.8595 13.82C94.0595 14.78 92.9729 15.26 91.5995 15.26C90.8929 15.26 90.2662 15.1133 89.7195 14.82C89.1729 14.5267 88.7595 14.1533 88.4795 13.7V18.8ZM94.1595 10.18C94.1595 9.20667 93.8995 8.40667 93.3795 7.78C92.8729 7.14 92.1862 6.82 91.3195 6.82C90.4662 6.82 89.7729 7.14 89.2395 7.78C88.7195 8.40667 88.4595 9.20667 88.4595 10.18C88.4595 11.18 88.7195 12 89.2395 12.64C89.7729 13.2667 90.4662 13.58 91.3195 13.58C92.1729 13.58 92.8595 13.2667 93.3795 12.64C93.8995 12 94.1595 11.18 94.1595 10.18ZM97.875 12.42C97.875 11.5933 98.1417 10.9333 98.675 10.44C99.2083 9.93333 99.915 9.62 100.795 9.5L103.395 9.12C103.888 9.05333 104.135 8.81333 104.135 8.4C104.135 7.89333 103.962 7.48 103.615 7.16C103.268 6.84 102.748 6.68 102.055 6.68C101.415 6.68 100.908 6.86 100.535 7.22C100.162 7.56667 99.9417 8.03333 99.875 8.62L98.075 8.2C98.1683 7.28 98.5883 6.53333 99.335 5.96C100.082 5.37333 100.975 5.08 102.015 5.08C103.375 5.08 104.382 5.41333 105.035 6.08C105.688 6.73333 106.015 7.57333 106.015 8.6V13.42C106.015 13.9933 106.055 14.52 106.135 15H104.295C104.228 14.6 104.195 14.1667 104.195 13.7C103.928 14.1267 103.535 14.5 103.015 14.82C102.508 15.14 101.868 15.3 101.095 15.3C100.148 15.3 99.375 15.02 98.775 14.46C98.175 13.8867 97.875 13.2067 97.875 12.42ZM101.355 13.72C102.195 13.72 102.868 13.4933 103.375 13.04C103.882 12.5867 104.135 11.8667 104.135 10.88V10.44L101.195 10.88C100.768 10.9467 100.428 11.1 100.175 11.34C99.9217 11.58 99.795 11.9067 99.795 12.32C99.795 12.6933 99.935 13.02 100.215 13.3C100.508 13.58 100.888 13.72 101.355 13.72ZM110.824 15H108.944V0.519999H110.824V15ZM113.422 12.42C113.422 11.5933 113.689 10.9333 114.222 10.44C114.755 9.93333 115.462 9.62 116.342 9.5L118.942 9.12C119.435 9.05333 119.682 8.81333 119.682 8.4C119.682 7.89333 119.509 7.48 119.162 7.16C118.815 6.84 118.295 6.68 117.602 6.68C116.962 6.68 116.455 6.86 116.082 7.22C115.709 7.56667 115.489 8.03333 115.422 8.62L113.622 8.2C113.715 7.28 114.135 6.53333 114.882 5.96C115.629 5.37333 116.522 5.08 117.562 5.08C118.922 5.08 119.929 5.41333 120.582 6.08C121.235 6.73333 121.562 7.57333 121.562 8.6V13.42C121.562 13.9933 121.602 14.52 121.682 15H119.842C119.775 14.6 119.742 14.1667 119.742 13.7C119.475 14.1267 119.082 14.5 118.562 14.82C118.055 15.14 117.415 15.3 116.642 15.3C115.695 15.3 114.922 15.02 114.322 14.46C113.722 13.8867 113.422 13.2067 113.422 12.42ZM116.902 13.72C117.742 13.72 118.415 13.4933 118.922 13.04C119.429 12.5867 119.682 11.8667 119.682 10.88V10.44L116.742 10.88C116.315 10.9467 115.975 11.1 115.722 11.34C115.469 11.58 115.342 11.9067 115.342 12.32C115.342 12.6933 115.482 13.02 115.762 13.3C116.055 13.58 116.435 13.72 116.902 13.72ZM128.531 6.82C127.717 6.82 127.024 7.11333 126.451 7.7C125.891 8.28667 125.611 9.11333 125.611 10.18C125.611 11.2333 125.891 12.06 126.451 12.66C127.024 13.26 127.724 13.56 128.551 13.56C129.351 13.56 129.957 13.36 130.371 12.96C130.797 12.56 131.084 12.1 131.231 11.58L132.891 12.3C132.624 13.1 132.117 13.8 131.371 14.4C130.637 15 129.697 15.3 128.551 15.3C127.151 15.3 125.991 14.8133 125.071 13.84C124.151 12.8667 123.691 11.6467 123.691 10.18C123.691 8.68667 124.151 7.46667 125.071 6.52C125.991 5.56 127.144 5.08 128.531 5.08C129.704 5.08 130.651 5.38 131.371 5.98C132.104 6.58 132.584 7.3 132.811 8.14L131.111 8.86C130.964 8.3 130.684 7.82 130.271 7.42C129.857 7.02 129.277 6.82 128.531 6.82ZM136.218 9.2H141.478C141.452 8.48 141.212 7.89333 140.758 7.44C140.305 6.97333 139.665 6.74 138.838 6.74C138.092 6.74 137.478 6.98667 136.998 7.48C136.518 7.96 136.258 8.53333 136.218 9.2ZM141.758 11.7L143.378 12.26C143.098 13.1533 142.578 13.8867 141.818 14.46C141.058 15.02 140.138 15.3 139.058 15.3C137.712 15.3 136.565 14.84 135.618 13.92C134.685 12.9867 134.218 11.7333 134.218 10.16C134.218 8.69333 134.672 7.48 135.578 6.52C136.485 5.56 137.565 5.08 138.818 5.08C140.272 5.08 141.405 5.54 142.218 6.46C143.032 7.36667 143.438 8.58667 143.438 10.12C143.438 10.36 143.425 10.56 143.398 10.72H136.158C136.172 11.5733 136.452 12.2733 136.998 12.82C137.558 13.3667 138.245 13.64 139.058 13.64C140.432 13.64 141.332 12.9933 141.758 11.7ZM152.698 15H150.838V5.38H152.698V15ZM150.798 2.7C150.545 2.43333 150.418 2.11333 150.418 1.74C150.418 1.36667 150.545 1.04667 150.798 0.779999C151.065 0.513333 151.385 0.38 151.758 0.38C152.132 0.38 152.452 0.513333 152.718 0.779999C152.985 1.03333 153.118 1.35333 153.118 1.74C153.118 2.11333 152.985 2.43333 152.718 2.7C152.452 2.95333 152.132 3.08 151.758 3.08C151.385 3.08 151.065 2.95333 150.798 2.7ZM154.997 12.5L156.697 11.9C156.764 12.42 156.99 12.8533 157.377 13.2C157.764 13.5333 158.284 13.7 158.937 13.7C159.444 13.7 159.844 13.58 160.137 13.34C160.43 13.0867 160.577 12.78 160.577 12.42C160.577 11.78 160.164 11.3667 159.337 11.18L157.697 10.82C156.95 10.66 156.364 10.34 155.937 9.86C155.51 9.38 155.297 8.8 155.297 8.12C155.297 7.29333 155.63 6.58 156.297 5.98C156.977 5.38 157.784 5.08 158.717 5.08C159.33 5.08 159.877 5.17333 160.357 5.36C160.837 5.53333 161.21 5.76667 161.477 6.06C161.744 6.35333 161.944 6.62667 162.077 6.88C162.21 7.13333 162.31 7.39333 162.377 7.66L160.717 8.28C160.69 8.12 160.644 7.96667 160.577 7.82C160.51 7.66 160.404 7.48667 160.257 7.3C160.124 7.11333 159.924 6.96667 159.657 6.86C159.39 6.74 159.077 6.68 158.717 6.68C158.25 6.68 157.864 6.80667 157.557 7.06C157.264 7.31333 157.117 7.61333 157.117 7.96C157.117 8.57333 157.484 8.96 158.217 9.12L159.777 9.46C160.63 9.64667 161.284 9.99333 161.737 10.5C162.204 10.9933 162.437 11.6 162.437 12.32C162.437 13.08 162.124 13.7667 161.497 14.38C160.884 14.9933 160.024 15.3 158.917 15.3C157.73 15.3 156.804 15.0067 156.137 14.42C155.47 13.82 155.09 13.18 154.997 12.5ZM169.34 12.42C169.34 11.5933 169.607 10.9333 170.14 10.44C170.673 9.93333 171.38 9.62 172.26 9.5L174.86 9.12C175.353 9.05333 175.6 8.81333 175.6 8.4C175.6 7.89333 175.427 7.48 175.08 7.16C174.733 6.84 174.213 6.68 173.52 6.68C172.88 6.68 172.373 6.86 172 7.22C171.627 7.56667 171.407 8.03333 171.34 8.62L169.54 8.2C169.633 7.28 170.053 6.53333 170.8 5.96C171.547 5.37333 172.44 5.08 173.48 5.08C174.84 5.08 175.847 5.41333 176.5 6.08C177.153 6.73333 177.48 7.57333 177.48 8.6V13.42C177.48 13.9933 177.52 14.52 177.6 15H175.76C175.693 14.6 175.66 14.1667 175.66 13.7C175.393 14.1267 175 14.5 174.48 14.82C173.973 15.14 173.333 15.3 172.56 15.3C171.613 15.3 170.84 15.02 170.24 14.46C169.64 13.8867 169.34 13.2067 169.34 12.42ZM172.82 13.72C173.66 13.72 174.333 13.4933 174.84 13.04C175.347 12.5867 175.6 11.8667 175.6 10.88V10.44L172.66 10.88C172.233 10.9467 171.893 11.1 171.64 11.34C171.387 11.58 171.26 11.9067 171.26 12.32C171.26 12.6933 171.4 13.02 171.68 13.3C171.973 13.58 172.353 13.72 172.82 13.72ZM182.289 9.44V15H180.409V5.38H182.249V6.76C182.889 5.65333 183.875 5.1 185.209 5.1C186.315 5.1 187.162 5.45333 187.749 6.16C188.349 6.86667 188.649 7.78 188.649 8.9V15H186.769V9.22C186.769 7.60667 186.022 6.8 184.529 6.8C183.822 6.8 183.269 7.05333 182.869 7.56C182.482 8.05333 182.289 8.68 182.289 9.44ZM198.519 9.44V15H196.639V5.38H198.479V6.76C199.119 5.65333 200.106 5.1 201.439 5.1C202.546 5.1 203.392 5.45333 203.979 6.16C204.579 6.86667 204.879 7.78 204.879 8.9V15H202.999V9.22C202.999 7.60667 202.252 6.8 200.759 6.8C200.052 6.8 199.499 7.05333 199.099 7.56C198.712 8.05333 198.519 8.68 198.519 9.44ZM209.09 9.2H214.35C214.323 8.48 214.083 7.89333 213.63 7.44C213.176 6.97333 212.536 6.74 211.71 6.74C210.963 6.74 210.35 6.98667 209.87 7.48C209.39 7.96 209.13 8.53333 209.09 9.2ZM214.63 11.7L216.25 12.26C215.97 13.1533 215.45 13.8867 214.69 14.46C213.93 15.02 213.01 15.3 211.93 15.3C210.583 15.3 209.436 14.84 208.49 13.92C207.556 12.9867 207.09 11.7333 207.09 10.16C207.09 8.69333 207.543 7.48 208.45 6.52C209.356 5.56 210.436 5.08 211.69 5.08C213.143 5.08 214.276 5.54 215.09 6.46C215.903 7.36667 216.31 8.58667 216.31 10.12C216.31 10.36 216.296 10.56 216.27 10.72H209.03C209.043 11.5733 209.323 12.2733 209.87 12.82C210.43 13.3667 211.116 13.64 211.93 13.64C213.303 13.64 214.203 12.9933 214.63 11.7ZM220.569 15H218.709V5.38H220.569V15ZM218.669 2.7C218.416 2.43333 218.289 2.11333 218.289 1.74C218.289 1.36667 218.416 1.04667 218.669 0.779999C218.936 0.513333 219.256 0.38 219.629 0.38C220.003 0.38 220.323 0.513333 220.589 0.779999C220.856 1.03333 220.989 1.35333 220.989 1.74C220.989 2.11333 220.856 2.43333 220.589 2.7C220.323 2.95333 220.003 3.08 219.629 3.08C219.256 3.08 218.936 2.95333 218.669 2.7ZM223.068 15.52L224.888 15.1C224.955 15.78 225.228 16.34 225.708 16.78C226.188 17.2333 226.788 17.46 227.508 17.46C229.468 17.46 230.448 16.42 230.448 14.34V12.96C230.208 13.4267 229.828 13.8067 229.308 14.1C228.801 14.3933 228.201 14.54 227.508 14.54C226.228 14.54 225.168 14.1067 224.328 13.24C223.501 12.36 223.088 11.24 223.088 9.88C223.088 8.56 223.501 7.45333 224.328 6.56C225.155 5.65333 226.215 5.2 227.508 5.2C228.975 5.2 229.961 5.70667 230.468 6.72V5.38H232.328V14.28C232.328 14.92 232.241 15.5133 232.068 16.06C231.908 16.62 231.648 17.1333 231.288 17.6C230.928 18.0667 230.421 18.4333 229.768 18.7C229.128 18.9667 228.375 19.1 227.508 19.1C226.321 19.1 225.315 18.76 224.488 18.08C223.661 17.4133 223.188 16.56 223.068 15.52ZM227.788 12.96C228.601 12.96 229.261 12.68 229.768 12.12C230.275 11.5467 230.528 10.8 230.528 9.88C230.528 8.96 230.275 8.22 229.768 7.66C229.261 7.08667 228.601 6.8 227.788 6.8C226.961 6.8 226.288 7.08 225.768 7.64C225.261 8.2 225.008 8.94667 225.008 9.88C225.008 10.8267 225.255 11.58 225.748 12.14C226.255 12.6867 226.935 12.96 227.788 12.96ZM237.21 9.34V15H235.33V0.519999H237.21V6.5C237.85 5.56667 238.824 5.1 240.13 5.1C241.237 5.1 242.084 5.45333 242.67 6.16C243.27 6.86667 243.57 7.78 243.57 8.9V15H241.69V9.22C241.69 7.60667 240.944 6.8 239.45 6.8C238.757 6.8 238.217 7.04 237.83 7.52C237.444 7.98667 237.237 8.59333 237.21 9.34ZM248.421 15H246.561V0.519999H248.421V6.74C248.674 6.27333 249.074 5.88667 249.621 5.58C250.181 5.26 250.841 5.1 251.601 5.1C253.001 5.1 254.088 5.57333 254.861 6.52C255.634 7.46667 256.021 8.67333 256.021 10.14C256.021 11.62 255.621 12.8467 254.821 13.82C254.021 14.78 252.928 15.26 251.541 15.26C250.101 15.26 249.061 14.7067 248.421 13.6V15ZM253.321 12.64C253.841 12.0133 254.101 11.18 254.101 10.14C254.101 9.1 253.841 8.28 253.321 7.68C252.814 7.06667 252.128 6.76 251.261 6.76C250.421 6.76 249.734 7.06667 249.201 7.68C248.668 8.29333 248.401 9.11333 248.401 10.14C248.401 11.1667 248.668 12 249.201 12.64C249.734 13.2667 250.421 13.58 251.261 13.58C252.114 13.58 252.801 13.2667 253.321 12.64ZM260.396 12.72C260.983 13.32 261.696 13.62 262.536 13.62C263.376 13.62 264.083 13.32 264.656 12.72C265.243 12.1067 265.536 11.26 265.536 10.18C265.536 9.11333 265.243 8.28 264.656 7.68C264.083 7.06667 263.376 6.76 262.536 6.76C261.696 6.76 260.983 7.06667 260.396 7.68C259.823 8.28 259.536 9.11333 259.536 10.18C259.536 11.26 259.823 12.1067 260.396 12.72ZM258.996 6.54C259.93 5.56667 261.11 5.08 262.536 5.08C263.963 5.08 265.136 5.56667 266.056 6.54C266.99 7.5 267.456 8.71333 267.456 10.18C267.456 11.66 266.996 12.8867 266.076 13.86C265.156 14.82 263.976 15.3 262.536 15.3C261.096 15.3 259.916 14.82 258.996 13.86C258.076 12.8867 257.616 11.66 257.616 10.18C257.616 8.71333 258.076 7.5 258.996 6.54ZM275.202 5.28V7.28C274.922 7.24 274.648 7.22 274.382 7.22C272.622 7.22 271.742 8.20667 271.742 10.18V15H269.862V5.38H271.702V7.06C272.288 5.83333 273.248 5.22 274.582 5.22C274.795 5.22 275.002 5.24 275.202 5.28ZM279.085 9.34V15H277.205V0.519999H279.085V6.5C279.725 5.56667 280.699 5.1 282.005 5.1C283.112 5.1 283.959 5.45333 284.545 6.16C285.145 6.86667 285.445 7.78 285.445 8.9V15H283.565V9.22C283.565 7.60667 282.819 6.8 281.325 6.8C280.632 6.8 280.092 7.04 279.705 7.52C279.319 7.98667 279.112 8.59333 279.085 9.34ZM290.416 12.72C291.003 13.32 291.716 13.62 292.556 13.62C293.396 13.62 294.103 13.32 294.676 12.72C295.263 12.1067 295.556 11.26 295.556 10.18C295.556 9.11333 295.263 8.28 294.676 7.68C294.103 7.06667 293.396 6.76 292.556 6.76C291.716 6.76 291.003 7.06667 290.416 7.68C289.843 8.28 289.556 9.11333 289.556 10.18C289.556 11.26 289.843 12.1067 290.416 12.72ZM289.016 6.54C289.949 5.56667 291.129 5.08 292.556 5.08C293.983 5.08 295.156 5.56667 296.076 6.54C297.009 7.5 297.476 8.71333 297.476 10.18C297.476 11.66 297.016 12.8867 296.096 13.86C295.176 14.82 293.996 15.3 292.556 15.3C291.116 15.3 289.936 14.82 289.016 13.86C288.096 12.8867 287.636 11.66 287.636 10.18C287.636 8.71333 288.096 7.5 289.016 6.54ZM301.861 12.72C302.448 13.32 303.161 13.62 304.001 13.62C304.841 13.62 305.548 13.32 306.121 12.72C306.708 12.1067 307.001 11.26 307.001 10.18C307.001 9.11333 306.708 8.28 306.121 7.68C305.548 7.06667 304.841 6.76 304.001 6.76C303.161 6.76 302.448 7.06667 301.861 7.68C301.288 8.28 301.001 9.11333 301.001 10.18C301.001 11.26 301.288 12.1067 301.861 12.72ZM300.461 6.54C301.395 5.56667 302.575 5.08 304.001 5.08C305.428 5.08 306.601 5.56667 307.521 6.54C308.455 7.5 308.921 8.71333 308.921 10.18C308.921 11.66 308.461 12.8867 307.541 13.86C306.621 14.82 305.441 15.3 304.001 15.3C302.561 15.3 301.381 14.82 300.461 13.86C299.541 12.8867 299.081 11.66 299.081 10.18C299.081 8.71333 299.541 7.5 300.461 6.54ZM312.447 10.16C312.447 11.1733 312.693 12 313.187 12.64C313.693 13.28 314.387 13.6 315.267 13.6C316.107 13.6 316.78 13.2733 317.287 12.62C317.793 11.9667 318.047 11.1333 318.047 10.12C318.047 9.12 317.8 8.31333 317.307 7.7C316.813 7.08667 316.14 6.78 315.287 6.78C314.433 6.78 313.747 7.09333 313.227 7.72C312.707 8.34667 312.447 9.16 312.447 10.16ZM318.067 13.7V13.54C317.813 14.0333 317.427 14.4467 316.907 14.78C316.4 15.1 315.793 15.26 315.087 15.26C313.713 15.26 312.607 14.78 311.767 13.82C310.94 12.8467 310.527 11.6267 310.527 10.16C310.527 8.76 310.953 7.57333 311.807 6.6C312.66 5.61333 313.753 5.12 315.087 5.12C315.873 5.12 316.513 5.28 317.007 5.6C317.5 5.90667 317.84 6.28667 318.027 6.74V0.519999H319.887V13.22C319.887 13.8733 319.92 14.4667 319.987 15H318.167C318.1 14.6267 318.067 14.1933 318.067 13.7ZM333.424 5.28V7.28C333.144 7.24 332.871 7.22 332.604 7.22C330.844 7.22 329.964 8.20667 329.964 10.18V15H328.084V5.38H329.924V7.06C330.511 5.83333 331.471 5.22 332.804 5.22C333.018 5.22 333.224 5.24 333.424 5.28ZM336.55 9.2H341.81C341.784 8.48 341.544 7.89333 341.09 7.44C340.637 6.97333 339.997 6.74 339.17 6.74C338.424 6.74 337.81 6.98667 337.33 7.48C336.85 7.96 336.59 8.53333 336.55 9.2ZM342.09 11.7L343.71 12.26C343.43 13.1533 342.91 13.8867 342.15 14.46C341.39 15.02 340.47 15.3 339.39 15.3C338.044 15.3 336.897 14.84 335.95 13.92C335.017 12.9867 334.55 11.7333 334.55 10.16C334.55 8.69333 335.004 7.48 335.91 6.52C336.817 5.56 337.897 5.08 339.15 5.08C340.604 5.08 341.737 5.54 342.55 6.46C343.364 7.36667 343.77 8.58667 343.77 10.12C343.77 10.36 343.757 10.56 343.73 10.72H336.49C336.504 11.5733 336.784 12.2733 337.33 12.82C337.89 13.3667 338.577 13.64 339.39 13.64C340.764 13.64 341.664 12.9933 342.09 11.7ZM345.27 12.5L346.97 11.9C347.037 12.42 347.264 12.8533 347.65 13.2C348.037 13.5333 348.557 13.7 349.21 13.7C349.717 13.7 350.117 13.58 350.41 13.34C350.704 13.0867 350.85 12.78 350.85 12.42C350.85 11.78 350.437 11.3667 349.61 11.18L347.97 10.82C347.224 10.66 346.637 10.34 346.21 9.86C345.784 9.38 345.57 8.8 345.57 8.12C345.57 7.29333 345.904 6.58 346.57 5.98C347.25 5.38 348.057 5.08 348.99 5.08C349.604 5.08 350.15 5.17333 350.63 5.36C351.11 5.53333 351.484 5.76667 351.75 6.06C352.017 6.35333 352.217 6.62667 352.35 6.88C352.484 7.13333 352.584 7.39333 352.65 7.66L350.99 8.28C350.964 8.12 350.917 7.96667 350.85 7.82C350.784 7.66 350.677 7.48667 350.53 7.3C350.397 7.11333 350.197 6.96667 349.93 6.86C349.664 6.74 349.35 6.68 348.99 6.68C348.524 6.68 348.137 6.80667 347.83 7.06C347.537 7.31333 347.39 7.61333 347.39 7.96C347.39 8.57333 347.757 8.96 348.49 9.12L350.05 9.46C350.904 9.64667 351.557 9.99333 352.01 10.5C352.477 10.9933 352.71 11.6 352.71 12.32C352.71 13.08 352.397 13.7667 351.77 14.38C351.157 14.9933 350.297 15.3 349.19 15.3C348.004 15.3 347.077 15.0067 346.41 14.42C345.744 13.82 345.364 13.18 345.27 12.5ZM357.733 2.34V5.38H359.813V7.08H357.733V12.08C357.733 12.5333 357.833 12.8667 358.033 13.08C358.247 13.2933 358.593 13.4 359.073 13.4C359.353 13.4 359.6 13.3733 359.813 13.32V14.92C359.493 15.04 359.067 15.1 358.533 15.1C357.707 15.1 357.053 14.86 356.573 14.38C356.093 13.9 355.853 13.2267 355.853 12.36V7.08H354.013V5.38H354.533C355.027 5.38 355.393 5.24667 355.633 4.98C355.887 4.7 356.013 4.34 356.013 3.9V2.34H357.733ZM361.723 12.42C361.723 11.5933 361.989 10.9333 362.523 10.44C363.056 9.93333 363.763 9.62 364.643 9.5L367.243 9.12C367.736 9.05333 367.983 8.81333 367.983 8.4C367.983 7.89333 367.809 7.48 367.463 7.16C367.116 6.84 366.596 6.68 365.903 6.68C365.263 6.68 364.756 6.86 364.383 7.22C364.009 7.56667 363.789 8.03333 363.723 8.62L361.923 8.2C362.016 7.28 362.436 6.53333 363.183 5.96C363.929 5.37333 364.823 5.08 365.863 5.08C367.223 5.08 368.229 5.41333 368.883 6.08C369.536 6.73333 369.863 7.57333 369.863 8.6V13.42C369.863 13.9933 369.903 14.52 369.983 15H368.143C368.076 14.6 368.043 14.1667 368.043 13.7C367.776 14.1267 367.383 14.5 366.863 14.82C366.356 15.14 365.716 15.3 364.943 15.3C363.996 15.3 363.223 15.02 362.623 14.46C362.023 13.8867 361.723 13.2067 361.723 12.42ZM365.203 13.72C366.043 13.72 366.716 13.4933 367.223 13.04C367.729 12.5867 367.983 11.8667 367.983 10.88V10.44L365.043 10.88C364.616 10.9467 364.276 11.1 364.023 11.34C363.769 11.58 363.643 11.9067 363.643 12.32C363.643 12.6933 363.783 13.02 364.063 13.3C364.356 13.58 364.736 13.72 365.203 13.72ZM378.936 13.84C378.683 14.32 378.296 14.6867 377.776 14.94C377.256 15.18 376.696 15.3 376.096 15.3C375.003 15.3 374.129 14.94 373.476 14.22C372.823 13.4867 372.496 12.56 372.496 11.44V5.38H374.376V11.16C374.376 11.88 374.549 12.4733 374.896 12.94C375.256 13.4067 375.809 13.64 376.556 13.64C377.303 13.64 377.869 13.42 378.256 12.98C378.643 12.5267 378.836 11.9267 378.836 11.18V5.38H380.716V13.22C380.716 13.8467 380.749 14.44 380.816 15H379.016C378.963 14.7067 378.936 14.32 378.936 13.84ZM389.264 5.28V7.28C388.984 7.24 388.711 7.22 388.444 7.22C386.684 7.22 385.804 8.20667 385.804 10.18V15H383.924V5.38H385.764V7.06C386.351 5.83333 387.311 5.22 388.644 5.22C388.858 5.22 389.064 5.24 389.264 5.28ZM392.39 9.2H397.65C397.624 8.48 397.384 7.89333 396.93 7.44C396.477 6.97333 395.837 6.74 395.01 6.74C394.264 6.74 393.65 6.98667 393.17 7.48C392.69 7.96 392.43 8.53333 392.39 9.2ZM397.93 11.7L399.55 12.26C399.27 13.1533 398.75 13.8867 397.99 14.46C397.23 15.02 396.31 15.3 395.23 15.3C393.884 15.3 392.737 14.84 391.79 13.92C390.857 12.9867 390.39 11.7333 390.39 10.16C390.39 8.69333 390.844 7.48 391.75 6.52C392.657 5.56 393.737 5.08 394.99 5.08C396.444 5.08 397.577 5.54 398.39 6.46C399.204 7.36667 399.61 8.58667 399.61 10.12C399.61 10.36 399.597 10.56 399.57 10.72H392.33C392.344 11.5733 392.624 12.2733 393.17 12.82C393.73 13.3667 394.417 13.64 395.23 13.64C396.604 13.64 397.504 12.9933 397.93 11.7ZM403.89 9.44V15H402.01V5.38H403.85V6.76C404.49 5.65333 405.477 5.1 406.81 5.1C407.917 5.1 408.763 5.45333 409.35 6.16C409.95 6.86667 410.25 7.78 410.25 8.9V15H408.37V9.22C408.37 7.60667 407.623 6.8 406.13 6.8C405.423 6.8 404.87 7.05333 404.47 7.56C404.083 8.05333 403.89 8.68 403.89 9.44ZM415.761 2.34V5.38H417.841V7.08H415.761V12.08C415.761 12.5333 415.861 12.8667 416.061 13.08C416.274 13.2933 416.621 13.4 417.101 13.4C417.381 13.4 417.627 13.3733 417.841 13.32V14.92C417.521 15.04 417.094 15.1 416.561 15.1C415.734 15.1 415.081 14.86 414.601 14.38C414.121 13.9 413.881 13.2267 413.881 12.36V7.08H412.041V5.38H412.561C413.054 5.38 413.421 5.24667 413.661 4.98C413.914 4.7 414.041 4.34 414.041 3.9V2.34H415.761ZM424.45 12.5L426.15 11.9C426.217 12.42 426.443 12.8533 426.83 13.2C427.217 13.5333 427.737 13.7 428.39 13.7C428.897 13.7 429.297 13.58 429.59 13.34C429.883 13.0867 430.03 12.78 430.03 12.42C430.03 11.78 429.617 11.3667 428.79 11.18L427.15 10.82C426.403 10.66 425.817 10.34 425.39 9.86C424.963 9.38 424.75 8.8 424.75 8.12C424.75 7.29333 425.083 6.58 425.75 5.98C426.43 5.38 427.237 5.08 428.17 5.08C428.783 5.08 429.33 5.17333 429.81 5.36C430.29 5.53333 430.663 5.76667 430.93 6.06C431.197 6.35333 431.397 6.62667 431.53 6.88C431.663 7.13333 431.763 7.39333 431.83 7.66L430.17 8.28C430.143 8.12 430.097 7.96667 430.03 7.82C429.963 7.66 429.857 7.48667 429.71 7.3C429.577 7.11333 429.377 6.96667 429.11 6.86C428.843 6.74 428.53 6.68 428.17 6.68C427.703 6.68 427.317 6.80667 427.01 7.06C426.717 7.31333 426.57 7.61333 426.57 7.96C426.57 8.57333 426.937 8.96 427.67 9.12L429.23 9.46C430.083 9.64667 430.737 9.99333 431.19 10.5C431.657 10.9933 431.89 11.6 431.89 12.32C431.89 13.08 431.577 13.7667 430.95 14.38C430.337 14.9933 429.477 15.3 428.37 15.3C427.183 15.3 426.257 15.0067 425.59 14.42C424.923 13.82 424.543 13.18 424.45 12.5ZM435.515 9.2H440.775C440.749 8.48 440.509 7.89333 440.055 7.44C439.602 6.97333 438.962 6.74 438.135 6.74C437.389 6.74 436.775 6.98667 436.295 7.48C435.815 7.96 435.555 8.53333 435.515 9.2ZM441.055 11.7L442.675 12.26C442.395 13.1533 441.875 13.8867 441.115 14.46C440.355 15.02 439.435 15.3 438.355 15.3C437.009 15.3 435.862 14.84 434.915 13.92C433.982 12.9867 433.515 11.7333 433.515 10.16C433.515 8.69333 433.969 7.48 434.875 6.52C435.782 5.56 436.862 5.08 438.115 5.08C439.569 5.08 440.702 5.54 441.515 6.46C442.329 7.36667 442.735 8.58667 442.735 10.12C442.735 10.36 442.722 10.56 442.695 10.72H435.455C435.469 11.5733 435.749 12.2733 436.295 12.82C436.855 13.3667 437.542 13.64 438.355 13.64C439.729 13.64 440.629 12.9933 441.055 11.7ZM450.475 5.28V7.28C450.195 7.24 449.922 7.22 449.655 7.22C447.895 7.22 447.015 8.20667 447.015 10.18V15H445.135V5.38H446.975V7.06C447.562 5.83333 448.522 5.22 449.855 5.22C450.068 5.22 450.275 5.24 450.475 5.28ZM461.012 5.38L457.172 15H455.272L451.372 5.38H453.492L456.232 12.8L458.992 5.38H461.012ZM464.671 15H462.811V5.38H464.671V15ZM462.771 2.7C462.518 2.43333 462.391 2.11333 462.391 1.74C462.391 1.36667 462.518 1.04667 462.771 0.779999C463.038 0.513333 463.358 0.38 463.731 0.38C464.104 0.38 464.424 0.513333 464.691 0.779999C464.958 1.03333 465.091 1.35333 465.091 1.74C465.091 2.11333 464.958 2.43333 464.691 2.7C464.424 2.95333 464.104 3.08 463.731 3.08C463.358 3.08 463.038 2.95333 462.771 2.7ZM469.75 9.44V15H467.87V5.38H469.71V6.76C470.35 5.65333 471.336 5.1 472.67 5.1C473.776 5.1 474.623 5.45333 475.21 6.16C475.81 6.86667 476.11 7.78 476.11 8.9V15H474.23V9.22C474.23 7.60667 473.483 6.8 471.99 6.8C471.283 6.8 470.73 7.05333 470.33 7.56C469.943 8.05333 469.75 8.68 469.75 9.44ZM478.4 15.52L480.22 15.1C480.287 15.78 480.56 16.34 481.04 16.78C481.52 17.2333 482.12 17.46 482.84 17.46C484.8 17.46 485.78 16.42 485.78 14.34V12.96C485.54 13.4267 485.16 13.8067 484.64 14.1C484.133 14.3933 483.533 14.54 482.84 14.54C481.56 14.54 480.5 14.1067 479.66 13.24C478.833 12.36 478.42 11.24 478.42 9.88C478.42 8.56 478.833 7.45333 479.66 6.56C480.487 5.65333 481.547 5.2 482.84 5.2C484.307 5.2 485.293 5.70667 485.8 6.72V5.38H487.66V14.28C487.66 14.92 487.573 15.5133 487.4 16.06C487.24 16.62 486.98 17.1333 486.62 17.6C486.26 18.0667 485.753 18.4333 485.1 18.7C484.46 18.9667 483.707 19.1 482.84 19.1C481.653 19.1 480.647 18.76 479.82 18.08C478.993 17.4133 478.52 16.56 478.4 15.52ZM483.12 12.96C483.933 12.96 484.593 12.68 485.1 12.12C485.607 11.5467 485.86 10.8 485.86 9.88C485.86 8.96 485.607 8.22 485.1 7.66C484.593 7.08667 483.933 6.8 483.12 6.8C482.293 6.8 481.62 7.08 481.1 7.64C480.593 8.2 480.34 8.94667 480.34 9.88C480.34 10.8267 480.587 11.58 481.08 12.14C481.587 12.6867 482.267 12.96 483.12 12.96ZM0.7 44.5L2.4 43.9C2.46667 44.42 2.69333 44.8533 3.08 45.2C3.46667 45.5333 3.98667 45.7 4.64 45.7C5.14667 45.7 5.54667 45.58 5.84 45.34C6.13333 45.0867 6.28 44.78 6.28 44.42C6.28 43.78 5.86667 43.3667 5.04 43.18L3.4 42.82C2.65333 42.66 2.06667 42.34 1.64 41.86C1.21333 41.38 1 40.8 1 40.12C1 39.2933 1.33333 38.58 2 37.98C2.68 37.38 3.48667 37.08 4.42 37.08C5.03333 37.08 5.58 37.1733 6.06 37.36C6.54 37.5333 6.91333 37.7667 7.18 38.06C7.44667 38.3533 7.64667 38.6267 7.78 38.88C7.91333 39.1333 8.01333 39.3933 8.08 39.66L6.42 40.28C6.39333 40.12 6.34667 39.9667 6.28 39.82C6.21333 39.66 6.10667 39.4867 5.96 39.3C5.82667 39.1133 5.62667 38.9667 5.36 38.86C5.09333 38.74 4.78 38.68 4.42 38.68C3.95333 38.68 3.56667 38.8067 3.26 39.06C2.96667 39.3133 2.82 39.6133 2.82 39.96C2.82 40.5733 3.18667 40.96 3.92 41.12L5.48 41.46C6.33333 41.6467 6.98667 41.9933 7.44 42.5C7.90667 42.9933 8.14 43.6 8.14 44.32C8.14 45.08 7.82667 45.7667 7.2 46.38C6.58667 46.9933 5.72667 47.3 4.62 47.3C3.43333 47.3 2.50667 47.0067 1.84 46.42C1.17333 45.82 0.793333 45.18 0.7 44.5ZM11.7653 41.2H17.0253C16.9986 40.48 16.7586 39.8933 16.3053 39.44C15.852 38.9733 15.212 38.74 14.3853 38.74C13.6386 38.74 13.0253 38.9867 12.5453 39.48C12.0653 39.96 11.8053 40.5333 11.7653 41.2ZM17.3053 43.7L18.9253 44.26C18.6453 45.1533 18.1253 45.8867 17.3653 46.46C16.6053 47.02 15.6853 47.3 14.6053 47.3C13.2586 47.3 12.112 46.84 11.1653 45.92C10.232 44.9867 9.76531 43.7333 9.76531 42.16C9.76531 40.6933 10.2186 39.48 11.1253 38.52C12.032 37.56 13.112 37.08 14.3653 37.08C15.8186 37.08 16.952 37.54 17.7653 38.46C18.5786 39.3667 18.9853 40.5867 18.9853 42.12C18.9853 42.36 18.972 42.56 18.9453 42.72H11.7053C11.7186 43.5733 11.9986 44.2733 12.5453 44.82C13.1053 45.3667 13.792 45.64 14.6053 45.64C15.9786 45.64 16.8786 44.9933 17.3053 43.7ZM20.7852 44.42C20.7852 43.5933 21.0518 42.9333 21.5852 42.44C22.1185 41.9333 22.8252 41.62 23.7052 41.5L26.3052 41.12C26.7985 41.0533 27.0452 40.8133 27.0452 40.4C27.0452 39.8933 26.8718 39.48 26.5252 39.16C26.1785 38.84 25.6585 38.68 24.9652 38.68C24.3252 38.68 23.8185 38.86 23.4452 39.22C23.0718 39.5667 22.8518 40.0333 22.7852 40.62L20.9852 40.2C21.0785 39.28 21.4985 38.5333 22.2452 37.96C22.9918 37.3733 23.8852 37.08 24.9252 37.08C26.2852 37.08 27.2918 37.4133 27.9452 38.08C28.5985 38.7333 28.9252 39.5733 28.9252 40.6V45.42C28.9252 45.9933 28.9652 46.52 29.0452 47H27.2052C27.1385 46.6 27.1052 46.1667 27.1052 45.7C26.8385 46.1267 26.4452 46.5 25.9252 46.82C25.4185 47.14 24.7785 47.3 24.0052 47.3C23.0585 47.3 22.2852 47.02 21.6852 46.46C21.0852 45.8867 20.7852 45.2067 20.7852 44.42ZM24.2652 45.72C25.1052 45.72 25.7785 45.4933 26.2852 45.04C26.7918 44.5867 27.0452 43.8667 27.0452 42.88V42.44L24.1052 42.88C23.6785 42.9467 23.3385 43.1 23.0852 43.34C22.8318 43.58 22.7052 43.9067 22.7052 44.32C22.7052 44.6933 22.8452 45.02 23.1252 45.3C23.4185 45.58 23.7985 45.72 24.2652 45.72ZM30.9539 44.5L32.6539 43.9C32.7206 44.42 32.9472 44.8533 33.3339 45.2C33.7206 45.5333 34.2406 45.7 34.8939 45.7C35.4006 45.7 35.8006 45.58 36.0939 45.34C36.3872 45.0867 36.5339 44.78 36.5339 44.42C36.5339 43.78 36.1206 43.3667 35.2939 43.18L33.6539 42.82C32.9072 42.66 32.3206 42.34 31.8939 41.86C31.4672 41.38 31.2539 40.8 31.2539 40.12C31.2539 39.2933 31.5872 38.58 32.2539 37.98C32.9339 37.38 33.7406 37.08 34.6739 37.08C35.2872 37.08 35.8339 37.1733 36.3139 37.36C36.7939 37.5333 37.1672 37.7667 37.4339 38.06C37.7006 38.3533 37.9006 38.6267 38.0339 38.88C38.1672 39.1333 38.2672 39.3933 38.3339 39.66L36.6739 40.28C36.6472 40.12 36.6006 39.9667 36.5339 39.82C36.4672 39.66 36.3606 39.4867 36.2139 39.3C36.0806 39.1133 35.8806 38.9667 35.6139 38.86C35.3472 38.74 35.0339 38.68 34.6739 38.68C34.2072 38.68 33.8206 38.8067 33.5139 39.06C33.2206 39.3133 33.0739 39.6133 33.0739 39.96C33.0739 40.5733 33.4406 40.96 34.1739 41.12L35.7339 41.46C36.5872 41.6467 37.2406 41.9933 37.6939 42.5C38.1606 42.9933 38.3939 43.6 38.3939 44.32C38.3939 45.08 38.0806 45.7667 37.4539 46.38C36.8406 46.9933 35.9806 47.3 34.8739 47.3C33.6872 47.3 32.7606 47.0067 32.0939 46.42C31.4272 45.82 31.0472 45.18 30.9539 44.5ZM42.7792 44.72C43.3659 45.32 44.0792 45.62 44.9192 45.62C45.7592 45.62 46.4659 45.32 47.0392 44.72C47.6259 44.1067 47.9192 43.26 47.9192 42.18C47.9192 41.1133 47.6259 40.28 47.0392 39.68C46.4659 39.0667 45.7592 38.76 44.9192 38.76C44.0792 38.76 43.3659 39.0667 42.7792 39.68C42.2059 40.28 41.9192 41.1133 41.9192 42.18C41.9192 43.26 42.2059 44.1067 42.7792 44.72ZM41.3792 38.54C42.3126 37.5667 43.4926 37.08 44.9192 37.08C46.3459 37.08 47.5192 37.5667 48.4392 38.54C49.3726 39.5 49.8392 40.7133 49.8392 42.18C49.8392 43.66 49.3792 44.8867 48.4592 45.86C47.5392 46.82 46.3592 47.3 44.9192 47.3C43.4792 47.3 42.2992 46.82 41.3792 45.86C40.4592 44.8867 39.9992 43.66 39.9992 42.18C39.9992 40.7133 40.4592 39.5 41.3792 38.54ZM54.1245 41.44V47H52.2445V37.38H54.0845V38.76C54.7245 37.6533 55.7112 37.1 57.0445 37.1C58.1512 37.1 58.9979 37.4533 59.5845 38.16C60.1845 38.8667 60.4845 39.78 60.4845 40.9V47H58.6045V41.22C58.6045 39.6067 57.8579 38.8 56.3645 38.8C55.6579 38.8 55.1045 39.0533 54.7045 39.56C54.3179 40.0533 54.1245 40.68 54.1245 41.44ZM62.875 44.42C62.875 43.5933 63.1417 42.9333 63.675 42.44C64.2083 41.9333 64.915 41.62 65.795 41.5L68.395 41.12C68.8883 41.0533 69.135 40.8133 69.135 40.4C69.135 39.8933 68.9617 39.48 68.615 39.16C68.2683 38.84 67.7483 38.68 67.055 38.68C66.415 38.68 65.9083 38.86 65.535 39.22C65.1617 39.5667 64.9417 40.0333 64.875 40.62L63.075 40.2C63.1683 39.28 63.5883 38.5333 64.335 37.96C65.0817 37.3733 65.975 37.08 67.015 37.08C68.375 37.08 69.3817 37.4133 70.035 38.08C70.6883 38.7333 71.015 39.5733 71.015 40.6V45.42C71.015 45.9933 71.055 46.52 71.135 47H69.295C69.2283 46.6 69.195 46.1667 69.195 45.7C68.9283 46.1267 68.535 46.5 68.015 46.82C67.5083 47.14 66.8683 47.3 66.095 47.3C65.1483 47.3 64.375 47.02 63.775 46.46C63.175 45.8867 62.875 45.2067 62.875 44.42ZM66.355 45.72C67.195 45.72 67.8683 45.4933 68.375 45.04C68.8817 44.5867 69.135 43.8667 69.135 42.88V42.44L66.195 42.88C65.7683 42.9467 65.4283 43.1 65.175 43.34C64.9217 43.58 64.795 43.9067 64.795 44.32C64.795 44.6933 64.935 45.02 65.215 45.3C65.5083 45.58 65.8883 45.72 66.355 45.72ZM75.8238 47H73.9438V32.52H75.8238V47ZM83.3219 47.52L85.1419 47.1C85.2085 47.78 85.4819 48.34 85.9619 48.78C86.4419 49.2333 87.0419 49.46 87.7619 49.46C89.7219 49.46 90.7019 48.42 90.7019 46.34V44.96C90.4619 45.4267 90.0819 45.8067 89.5619 46.1C89.0552 46.3933 88.4552 46.54 87.7619 46.54C86.4819 46.54 85.4219 46.1067 84.5819 45.24C83.7552 44.36 83.3419 43.24 83.3419 41.88C83.3419 40.56 83.7552 39.4533 84.5819 38.56C85.4085 37.6533 86.4685 37.2 87.7619 37.2C89.2285 37.2 90.2152 37.7067 90.7219 38.72V37.38H92.5819V46.28C92.5819 46.92 92.4952 47.5133 92.3219 48.06C92.1619 48.62 91.9019 49.1333 91.5419 49.6C91.1819 50.0667 90.6752 50.4333 90.0219 50.7C89.3819 50.9667 88.6285 51.1 87.7619 51.1C86.5752 51.1 85.5685 50.76 84.7419 50.08C83.9152 49.4133 83.4419 48.56 83.3219 47.52ZM88.0419 44.96C88.8552 44.96 89.5152 44.68 90.0219 44.12C90.5285 43.5467 90.7819 42.8 90.7819 41.88C90.7819 40.96 90.5285 40.22 90.0219 39.66C89.5152 39.0867 88.8552 38.8 88.0419 38.8C87.2152 38.8 86.5419 39.08 86.0219 39.64C85.5152 40.2 85.2619 40.9467 85.2619 41.88C85.2619 42.8267 85.5085 43.58 86.0019 44.14C86.5085 44.6867 87.1885 44.96 88.0419 44.96ZM97.4644 47H95.5844V32.52H97.4644V47ZM102.643 44.72C103.229 45.32 103.943 45.62 104.783 45.62C105.623 45.62 106.329 45.32 106.903 44.72C107.489 44.1067 107.783 43.26 107.783 42.18C107.783 41.1133 107.489 40.28 106.903 39.68C106.329 39.0667 105.623 38.76 104.783 38.76C103.943 38.76 103.229 39.0667 102.643 39.68C102.069 40.28 101.783 41.1133 101.783 42.18C101.783 43.26 102.069 44.1067 102.643 44.72ZM101.243 38.54C102.176 37.5667 103.356 37.08 104.783 37.08C106.209 37.08 107.383 37.5667 108.303 38.54C109.236 39.5 109.703 40.7133 109.703 42.18C109.703 43.66 109.243 44.8867 108.323 45.86C107.403 46.82 106.223 47.3 104.783 47.3C103.343 47.3 102.163 46.82 101.243 45.86C100.323 44.8867 99.8625 43.66 99.8625 42.18C99.8625 40.7133 100.323 39.5 101.243 38.54ZM113.968 47H112.108V32.52H113.968V38.74C114.221 38.2733 114.621 37.8867 115.168 37.58C115.728 37.26 116.388 37.1 117.148 37.1C118.548 37.1 119.634 37.5733 120.408 38.52C121.181 39.4667 121.568 40.6733 121.568 42.14C121.568 43.62 121.168 44.8467 120.368 45.82C119.568 46.78 118.474 47.26 117.088 47.26C115.648 47.26 114.608 46.7067 113.968 45.6V47ZM118.868 44.64C119.388 44.0133 119.648 43.18 119.648 42.14C119.648 41.1 119.388 40.28 118.868 39.68C118.361 39.0667 117.674 38.76 116.808 38.76C115.968 38.76 115.281 39.0667 114.748 39.68C114.214 40.2933 113.948 41.1133 113.948 42.14C113.948 43.1667 114.214 44 114.748 44.64C115.281 45.2667 115.968 45.58 116.808 45.58C117.661 45.58 118.348 45.2667 118.868 44.64ZM123.363 44.42C123.363 43.5933 123.63 42.9333 124.163 42.44C124.697 41.9333 125.403 41.62 126.283 41.5L128.883 41.12C129.377 41.0533 129.623 40.8133 129.623 40.4C129.623 39.8933 129.45 39.48 129.103 39.16C128.757 38.84 128.237 38.68 127.543 38.68C126.903 38.68 126.397 38.86 126.023 39.22C125.65 39.5667 125.43 40.0333 125.363 40.62L123.563 40.2C123.657 39.28 124.077 38.5333 124.823 37.96C125.57 37.3733 126.463 37.08 127.503 37.08C128.863 37.08 129.87 37.4133 130.523 38.08C131.177 38.7333 131.503 39.5733 131.503 40.6V45.42C131.503 45.9933 131.543 46.52 131.623 47H129.783C129.717 46.6 129.683 46.1667 129.683 45.7C129.417 46.1267 129.023 46.5 128.503 46.82C127.997 47.14 127.357 47.3 126.583 47.3C125.637 47.3 124.863 47.02 124.263 46.46C123.663 45.8867 123.363 45.2067 123.363 44.42ZM126.843 45.72C127.683 45.72 128.357 45.4933 128.863 45.04C129.37 44.5867 129.623 43.8667 129.623 42.88V42.44L126.683 42.88C126.257 42.9467 125.917 43.1 125.663 43.34C125.41 43.58 125.283 43.9067 125.283 44.32C125.283 44.6933 125.423 45.02 125.703 45.3C125.997 45.58 126.377 45.72 126.843 45.72ZM136.312 47H134.432V32.52H136.312V47ZM148.55 38.82C147.737 38.82 147.043 39.1133 146.47 39.7C145.91 40.2867 145.63 41.1133 145.63 42.18C145.63 43.2333 145.91 44.06 146.47 44.66C147.043 45.26 147.743 45.56 148.57 45.56C149.37 45.56 149.977 45.36 150.39 44.96C150.817 44.56 151.103 44.1 151.25 43.58L152.91 44.3C152.643 45.1 152.137 45.8 151.39 46.4C150.657 47 149.717 47.3 148.57 47.3C147.17 47.3 146.01 46.8133 145.09 45.84C144.17 44.8667 143.71 43.6467 143.71 42.18C143.71 40.6867 144.17 39.4667 145.09 38.52C146.01 37.56 147.163 37.08 148.55 37.08C149.723 37.08 150.67 37.38 151.39 37.98C152.123 38.58 152.603 39.3 152.83 40.14L151.13 40.86C150.983 40.3 150.703 39.82 150.29 39.42C149.877 39.02 149.297 38.82 148.55 38.82ZM161.358 45.84C161.105 46.32 160.718 46.6867 160.198 46.94C159.678 47.18 159.118 47.3 158.518 47.3C157.425 47.3 156.551 46.94 155.898 46.22C155.245 45.4867 154.918 44.56 154.918 43.44V37.38H156.798V43.16C156.798 43.88 156.971 44.4733 157.318 44.94C157.678 45.4067 158.231 45.64 158.978 45.64C159.725 45.64 160.291 45.42 160.678 44.98C161.065 44.5267 161.258 43.9267 161.258 43.18V37.38H163.138V45.22C163.138 45.8467 163.171 46.44 163.238 47H161.438C161.385 46.7067 161.358 46.32 161.358 45.84ZM168.206 47H166.346V37.38H168.206V47ZM166.306 34.7C166.053 34.4333 165.926 34.1133 165.926 33.74C165.926 33.3667 166.053 33.0467 166.306 32.78C166.573 32.5133 166.893 32.38 167.266 32.38C167.639 32.38 167.959 32.5133 168.226 32.78C168.493 33.0333 168.626 33.3533 168.626 33.74C168.626 34.1133 168.493 34.4333 168.226 34.7C167.959 34.9533 167.639 35.08 167.266 35.08C166.893 35.08 166.573 34.9533 166.306 34.7ZM170.505 44.5L172.205 43.9C172.271 44.42 172.498 44.8533 172.885 45.2C173.271 45.5333 173.791 45.7 174.445 45.7C174.951 45.7 175.351 45.58 175.645 45.34C175.938 45.0867 176.085 44.78 176.085 44.42C176.085 43.78 175.671 43.3667 174.845 43.18L173.205 42.82C172.458 42.66 171.871 42.34 171.445 41.86C171.018 41.38 170.805 40.8 170.805 40.12C170.805 39.2933 171.138 38.58 171.805 37.98C172.485 37.38 173.291 37.08 174.225 37.08C174.838 37.08 175.385 37.1733 175.865 37.36C176.345 37.5333 176.718 37.7667 176.985 38.06C177.251 38.3533 177.451 38.6267 177.585 38.88C177.718 39.1333 177.818 39.3933 177.885 39.66L176.225 40.28C176.198 40.12 176.151 39.9667 176.085 39.82C176.018 39.66 175.911 39.4867 175.765 39.3C175.631 39.1133 175.431 38.9667 175.165 38.86C174.898 38.74 174.585 38.68 174.225 38.68C173.758 38.68 173.371 38.8067 173.065 39.06C172.771 39.3133 172.625 39.6133 172.625 39.96C172.625 40.5733 172.991 40.96 173.725 41.12L175.285 41.46C176.138 41.6467 176.791 41.9933 177.245 42.5C177.711 42.9933 177.945 43.6 177.945 44.32C177.945 45.08 177.631 45.7667 177.005 46.38C176.391 46.9933 175.531 47.3 174.425 47.3C173.238 47.3 172.311 47.0067 171.645 46.42C170.978 45.82 170.598 45.18 170.505 44.5ZM182.308 47H180.448V37.38H182.308V47ZM180.408 34.7C180.154 34.4333 180.028 34.1133 180.028 33.74C180.028 33.3667 180.154 33.0467 180.408 32.78C180.674 32.5133 180.994 32.38 181.368 32.38C181.741 32.38 182.061 32.5133 182.328 32.78C182.594 33.0333 182.728 33.3533 182.728 33.74C182.728 34.1133 182.594 34.4333 182.328 34.7C182.061 34.9533 181.741 35.08 181.368 35.08C180.994 35.08 180.674 34.9533 180.408 34.7ZM187.386 41.44V47H185.506V37.38H187.346V38.76C187.986 37.6533 188.973 37.1 190.306 37.1C191.413 37.1 192.26 37.4533 192.846 38.16C193.446 38.8667 193.746 39.78 193.746 40.9V47H191.866V41.22C191.866 39.6067 191.12 38.8 189.626 38.8C188.92 38.8 188.366 39.0533 187.966 39.56C187.58 40.0533 187.386 40.68 187.386 41.44ZM197.957 41.2H203.217C203.19 40.48 202.95 39.8933 202.497 39.44C202.043 38.9733 201.403 38.74 200.577 38.74C199.83 38.74 199.217 38.9867 198.737 39.48C198.257 39.96 197.997 40.5333 197.957 41.2ZM203.497 43.7L205.117 44.26C204.837 45.1533 204.317 45.8867 203.557 46.46C202.797 47.02 201.877 47.3 200.797 47.3C199.45 47.3 198.303 46.84 197.357 45.92C196.423 44.9867 195.957 43.7333 195.957 42.16C195.957 40.6933 196.41 39.48 197.317 38.52C198.223 37.56 199.303 37.08 200.557 37.08C202.01 37.08 203.143 37.54 203.957 38.46C204.77 39.3667 205.177 40.5867 205.177 42.12C205.177 42.36 205.163 42.56 205.137 42.72H197.897C197.91 43.5733 198.19 44.2733 198.737 44.82C199.297 45.3667 199.983 45.64 200.797 45.64C202.17 45.64 203.07 44.9933 203.497 43.7ZM213.697 42.16C213.697 43.1733 213.943 44 214.437 44.64C214.943 45.28 215.637 45.6 216.517 45.6C217.357 45.6 218.03 45.2733 218.537 44.62C219.043 43.9667 219.297 43.1333 219.297 42.12C219.297 41.12 219.05 40.3133 218.557 39.7C218.063 39.0867 217.39 38.78 216.537 38.78C215.683 38.78 214.997 39.0933 214.477 39.72C213.957 40.3467 213.697 41.16 213.697 42.16ZM219.317 45.7V45.54C219.063 46.0333 218.677 46.4467 218.157 46.78C217.65 47.1 217.043 47.26 216.337 47.26C214.963 47.26 213.857 46.78 213.017 45.82C212.19 44.8467 211.777 43.6267 211.777 42.16C211.777 40.76 212.203 39.5733 213.057 38.6C213.91 37.6133 215.003 37.12 216.337 37.12C217.123 37.12 217.763 37.28 218.257 37.6C218.75 37.9067 219.09 38.2867 219.277 38.74V32.52H221.137V45.22C221.137 45.8733 221.17 46.4667 221.237 47H219.417C219.35 46.6267 219.317 46.1933 219.317 45.7ZM229.674 37.28V39.28C229.394 39.24 229.121 39.22 228.854 39.22C227.094 39.22 226.214 40.2067 226.214 42.18V47H224.334V37.38H226.174V39.06C226.761 37.8333 227.721 37.22 229.054 37.22C229.268 37.22 229.474 37.24 229.674 37.28ZM233.538 47H231.678V37.38H233.538V47ZM231.638 34.7C231.385 34.4333 231.258 34.1133 231.258 33.74C231.258 33.3667 231.385 33.0467 231.638 32.78C231.905 32.5133 232.225 32.38 232.598 32.38C232.971 32.38 233.291 32.5133 233.558 32.78C233.825 33.0333 233.958 33.3533 233.958 33.74C233.958 34.1133 233.825 34.4333 233.558 34.7C233.291 34.9533 232.971 35.08 232.598 35.08C232.225 35.08 231.905 34.9533 231.638 34.7ZM244.977 37.38L241.137 47H239.237L235.337 37.38H237.457L240.197 44.8L242.957 37.38H244.977ZM247.703 41.2H252.963C252.936 40.48 252.696 39.8933 252.243 39.44C251.789 38.9733 251.149 38.74 250.323 38.74C249.576 38.74 248.963 38.9867 248.483 39.48C248.003 39.96 247.743 40.5333 247.703 41.2ZM253.243 43.7L254.863 44.26C254.583 45.1533 254.063 45.8867 253.303 46.46C252.543 47.02 251.623 47.3 250.543 47.3C249.196 47.3 248.049 46.84 247.103 45.92C246.169 44.9867 245.703 43.7333 245.703 42.16C245.703 40.6933 246.156 39.48 247.063 38.52C247.969 37.56 249.049 37.08 250.303 37.08C251.756 37.08 252.889 37.54 253.703 38.46C254.516 39.3667 254.923 40.5867 254.923 42.12C254.923 42.36 254.909 42.56 254.883 42.72H247.643C247.656 43.5733 247.936 44.2733 248.483 44.82C249.043 45.3667 249.729 45.64 250.543 45.64C251.916 45.64 252.816 44.9933 253.243 43.7ZM259.203 41.44V47H257.323V37.38H259.163V38.76C259.803 37.6533 260.789 37.1 262.123 37.1C263.229 37.1 264.076 37.4533 264.663 38.16C265.263 38.8667 265.563 39.78 265.563 40.9V47H263.683V41.22C263.683 39.6067 262.936 38.8 261.443 38.8C260.736 38.8 260.183 39.0533 259.783 39.56C259.396 40.0533 259.203 40.68 259.203 41.44ZM275.413 47H273.553V32.52H275.413V38.74C275.666 38.2733 276.066 37.8867 276.613 37.58C277.173 37.26 277.833 37.1 278.593 37.1C279.993 37.1 281.08 37.5733 281.853 38.52C282.626 39.4667 283.013 40.6733 283.013 42.14C283.013 43.62 282.613 44.8467 281.813 45.82C281.013 46.78 279.92 47.26 278.533 47.26C277.093 47.26 276.053 46.7067 275.413 45.6V47ZM280.313 44.64C280.833 44.0133 281.093 43.18 281.093 42.14C281.093 41.1 280.833 40.28 280.313 39.68C279.806 39.0667 279.12 38.76 278.253 38.76C277.413 38.76 276.726 39.0667 276.193 39.68C275.66 40.2933 275.393 41.1133 275.393 42.14C275.393 43.1667 275.66 44 276.193 44.64C276.726 45.2667 277.413 45.58 278.253 45.58C279.106 45.58 279.793 45.2667 280.313 44.64ZM287.418 51.02H285.358L287.758 45.94L283.618 37.38H285.778L288.778 44.02L291.658 37.38H293.678L287.418 51.02ZM303.007 34.34V37.38H305.087V39.08H303.007V44.08C303.007 44.5333 303.107 44.8667 303.307 45.08C303.52 45.2933 303.867 45.4 304.347 45.4C304.627 45.4 304.873 45.3733 305.087 45.32V46.92C304.767 47.04 304.34 47.1 303.807 47.1C302.98 47.1 302.327 46.86 301.847 46.38C301.367 45.9 301.127 45.2267 301.127 44.36V39.08H299.287V37.38H299.807C300.3 37.38 300.667 37.2467 300.907 36.98C301.16 36.7 301.287 36.34 301.287 35.9V34.34H303.007ZM309.476 41.34V47H307.596V32.52H309.476V38.5C310.116 37.5667 311.089 37.1 312.396 37.1C313.503 37.1 314.349 37.4533 314.936 38.16C315.536 38.8667 315.836 39.78 315.836 40.9V47H313.956V41.22C313.956 39.6067 313.209 38.8 311.716 38.8C311.023 38.8 310.483 39.04 310.096 39.52C309.709 39.9867 309.503 40.5933 309.476 41.34ZM320.047 41.2H325.307C325.28 40.48 325.04 39.8933 324.587 39.44C324.133 38.9733 323.493 38.74 322.667 38.74C321.92 38.74 321.307 38.9867 320.827 39.48C320.347 39.96 320.087 40.5333 320.047 41.2ZM325.587 43.7L327.207 44.26C326.927 45.1533 326.407 45.8867 325.647 46.46C324.887 47.02 323.967 47.3 322.887 47.3C321.54 47.3 320.393 46.84 319.447 45.92C318.513 44.9867 318.047 43.7333 318.047 42.16C318.047 40.6933 318.5 39.48 319.407 38.52C320.313 37.56 321.393 37.08 322.647 37.08C324.1 37.08 325.233 37.54 326.047 38.46C326.86 39.3667 327.267 40.5867 327.267 42.12C327.267 42.36 327.253 42.56 327.227 42.72H319.987C320 43.5733 320.28 44.2733 320.827 44.82C321.387 45.3667 322.073 45.64 322.887 45.64C324.26 45.64 325.16 44.9933 325.587 43.7ZM339.506 39.08H337.186V47H335.246V39.08H333.466V37.38H335.246V35.76C335.246 34.7333 335.546 33.9267 336.146 33.34C336.746 32.7533 337.5 32.46 338.406 32.46C338.98 32.46 339.353 32.5267 339.526 32.66V34.34C339.326 34.26 339.053 34.22 338.706 34.22C338.293 34.22 337.933 34.3467 337.626 34.6C337.333 34.84 337.186 35.26 337.186 35.86V37.38H339.506V39.08ZM340.629 44.42C340.629 43.5933 340.896 42.9333 341.429 42.44C341.962 41.9333 342.669 41.62 343.549 41.5L346.149 41.12C346.642 41.0533 346.889 40.8133 346.889 40.4C346.889 39.8933 346.716 39.48 346.369 39.16C346.022 38.84 345.502 38.68 344.809 38.68C344.169 38.68 343.662 38.86 343.289 39.22C342.916 39.5667 342.696 40.0333 342.629 40.62L340.829 40.2C340.922 39.28 341.342 38.5333 342.089 37.96C342.836 37.3733 343.729 37.08 344.769 37.08C346.129 37.08 347.136 37.4133 347.789 38.08C348.442 38.7333 348.769 39.5733 348.769 40.6V45.42C348.769 45.9933 348.809 46.52 348.889 47H347.049C346.982 46.6 346.949 46.1667 346.949 45.7C346.682 46.1267 346.289 46.5 345.769 46.82C345.262 47.14 344.622 47.3 343.849 47.3C342.902 47.3 342.129 47.02 341.529 46.46C340.929 45.8867 340.629 45.2067 340.629 44.42ZM344.109 45.72C344.949 45.72 345.622 45.4933 346.129 45.04C346.636 44.5867 346.889 43.8667 346.889 42.88V42.44L343.949 42.88C343.522 42.9467 343.182 43.1 342.929 43.34C342.676 43.58 342.549 43.9067 342.549 44.32C342.549 44.6933 342.689 45.02 342.969 45.3C343.262 45.58 343.642 45.72 344.109 45.72ZM353.558 47H351.698V37.38H353.558V47ZM351.658 34.7C351.404 34.4333 351.278 34.1133 351.278 33.74C351.278 33.3667 351.404 33.0467 351.658 32.78C351.924 32.5133 352.244 32.38 352.618 32.38C352.991 32.38 353.311 32.5133 353.578 32.78C353.844 33.0333 353.978 33.3533 353.978 33.74C353.978 34.1133 353.844 34.4333 353.578 34.7C353.311 34.9533 352.991 35.08 352.618 35.08C352.244 35.08 351.924 34.9533 351.658 34.7ZM362.096 37.28V39.28C361.816 39.24 361.543 39.22 361.276 39.22C359.516 39.22 358.636 40.2067 358.636 42.18V47H356.756V37.38H358.596V39.06C359.183 37.8333 360.143 37.22 361.476 37.22C361.69 37.22 361.896 37.24 362.096 37.28ZM365.222 41.2H370.482C370.456 40.48 370.216 39.8933 369.762 39.44C369.309 38.9733 368.669 38.74 367.842 38.74C367.096 38.74 366.482 38.9867 366.002 39.48C365.522 39.96 365.262 40.5333 365.222 41.2ZM370.762 43.7L372.382 44.26C372.102 45.1533 371.582 45.8867 370.822 46.46C370.062 47.02 369.142 47.3 368.062 47.3C366.716 47.3 365.569 46.84 364.622 45.92C363.689 44.9867 363.222 43.7333 363.222 42.16C363.222 40.6933 363.676 39.48 364.582 38.52C365.489 37.56 366.569 37.08 367.822 37.08C369.276 37.08 370.409 37.54 371.222 38.46C372.036 39.3667 372.442 40.5867 372.442 42.12C372.442 42.36 372.429 42.56 372.402 42.72H365.162C365.176 43.5733 365.456 44.2733 366.002 44.82C366.562 45.3667 367.249 45.64 368.062 45.64C369.436 45.64 370.336 44.9933 370.762 43.7ZM374.749 46.7C374.483 46.4333 374.349 46.1067 374.349 45.72C374.349 45.3333 374.483 45.0067 374.749 44.74C375.016 44.46 375.343 44.32 375.729 44.32C376.116 44.32 376.443 44.46 376.709 44.74C376.989 45.0067 377.129 45.3333 377.129 45.72C377.129 46.1067 376.989 46.4333 376.709 46.7C376.443 46.9667 376.116 47.1 375.729 47.1C375.343 47.1 375.016 46.9667 374.749 46.7Z" fill="#3F3232"/>
</svg>
